<svg viewBox="0 0 412 412" fill="none" xmlns="http://www.w3.org/2000/svg" preserveAspectRatio="xMinYMin meet">
<g clip-path="url(#clip0)" filter="url(#filter0_d)">
<mask id="path-1-inside-1" fill="white">
<path d="M136.971 133.521C128.58 142.919 122.01 154.008 117.812 165.871C116.671 165.925 115.542 166.367 114.689 167.226C112.879 169.051 112.89 172.085 114.715 173.895C114.886 174.065 115.076 174.202 115.266 174.338C113.121 182.912 112.204 191.757 112.756 200.563C112.958 203.791 113.42 206.996 114.065 210.168C113.635 210.421 113.225 210.712 112.869 211.07C110.159 213.801 110.821 218.493 114.166 220.386C114.973 220.841 116.168 221.252 117.181 221.266C121.695 233.821 129.189 245.502 137.968 255.278C137.778 256.015 137.781 256.798 137.942 257.566C138.144 259.956 140.515 261.857 142.836 261.847C143.295 261.846 143.743 261.756 144.179 261.629C156.465 272.994 171.815 280.245 188.123 282.427C187.957 284.276 188.545 286.184 189.941 287.569C192.424 290.033 196.552 290.017 199.017 287.533C200.229 286.311 200.834 284.693 200.847 283.071C201.797 283.042 202.747 283.007 203.698 282.945C219.141 282.504 234.475 277.548 247.874 269.311C248.086 269.601 248.303 269.89 248.582 270.167C254.087 275.629 262.385 267.758 258.161 262.045C271.612 251.158 282.096 236.725 287.156 220.398C291.998 220.213 296.184 213.891 291.71 209.451C291.117 208.863 290.489 208.463 289.85 208.161C289.882 207.919 289.931 207.683 289.962 207.441C291.254 196.858 290.466 186.016 287.933 175.537C290.364 173.433 291.391 169.658 288.446 166.736C287.293 165.591 286.012 165.081 284.754 164.999C281.535 156.139 277.064 147.724 271.547 140.162C273.192 138.015 273.561 134.94 271.081 132.479C268.956 130.37 266.395 130.361 264.362 131.442C262.655 129.608 260.886 127.841 259.043 126.164C249.734 117.689 238.72 111.633 226.948 108.065C227.127 106.367 226.598 104.567 225.014 102.996C221.203 99.2144 216.106 101.507 214.328 105.231C204.497 103.771 194.387 103.95 184.492 105.809C180.827 106.499 177.253 107.469 173.767 108.659C173.716 108.604 173.676 108.542 173.622 108.488C172.794 107.673 171.819 107.117 170.695 106.822C169.672 106.559 168.381 106.534 167.253 106.846C166.502 106.986 165.739 107.281 165.055 107.702C164.57 107.978 164.129 108.314 163.787 108.659C162.58 109.875 162.021 111.626 162.273 113.307C162.281 113.4 162.306 113.488 162.319 113.579C156.404 116.68 150.867 120.484 145.787 124.858C143.32 123.608 140.193 123.981 138.161 126.028C136.168 128.039 135.791 131.087 136.971 133.521ZM122.696 170.139C127.953 168.086 133.05 165.003 137.976 162.513C144.301 159.318 150.934 156.31 156.992 152.524C157.127 152.755 157.286 152.966 157.459 153.166C154.257 156.65 151.541 160.781 148.841 164.512C145.781 168.739 142.834 173.121 140.415 177.761C138.728 176.633 136.817 177.07 135.493 178.215C133.607 176.702 131.288 175.431 129.756 174.435C127.76 173.137 125.28 171.446 122.72 170.376C122.718 170.297 122.703 170.219 122.696 170.139ZM174.61 116.348C176.875 117.637 179.179 118.866 181.473 120.128C187.78 123.6 193.747 127.716 200.025 131.2C199.925 131.623 199.867 132.054 199.873 132.49C193.781 134.337 187.726 136.384 181.644 138.249C176.086 139.954 169.297 141.689 164.203 145.079C165.104 141.313 165.164 137.214 165.739 133.507C166.473 128.779 168.432 124.171 169.538 119.476C171.597 119.317 173.524 118.171 174.61 116.348ZM209.124 135.346C221.747 143.555 237.818 146.079 250.206 155.078C250.156 155.188 250.094 155.293 250.053 155.406C243.594 154.577 236.615 156.056 230.411 157.287C223.272 158.701 215.679 159.795 208.483 161.537C208.409 161.452 208.35 161.357 208.269 161.276C207.033 160.05 205.221 159.716 203.649 160.233C203.186 156.168 203.803 151.721 203.791 147.9C203.781 144.665 204.523 140.984 204.58 137.462C206.027 137.568 207.511 137.096 208.593 136.005C208.795 135.8 208.963 135.575 209.124 135.346ZM264.758 206.355C264.846 206.366 264.937 206.373 265.027 206.379C262.288 215.116 260.515 224.315 258.244 233.111C255.99 241.844 253.98 250.636 252.271 259.489C251.645 259.602 251.038 259.796 250.47 260.092C248.423 255.151 246.282 250.249 244.301 245.282C242.92 241.817 241.568 238.287 239.813 234.993C241.584 233.451 242.538 230.964 241.55 228.642C249.625 222.002 258.713 214.751 264.758 206.355ZM211.946 257.088C205.154 251.522 196.636 246.629 188.236 243.552C188.229 243.144 188.154 242.745 188.042 242.358C195.061 240.751 201.971 238.543 209.114 237.316C216.462 236.053 223.72 234.455 231.022 233.006C231.22 233.467 231.512 233.916 231.872 234.352C227.866 241.9 222.188 248.522 218.495 256.148C216.419 255.008 213.72 255.292 211.983 257.043C211.969 257.057 211.96 257.074 211.946 257.088ZM209.158 199.003C201.172 200.351 193.202 201.005 185.207 201.803C185.048 200.886 184.627 200.011 183.928 199.317C183.897 199.286 183.858 199.265 183.826 199.236C187.345 194.972 190.019 189.028 192.918 184.732C196.328 179.677 200.865 174.404 203.9 168.806C205.073 169.118 206.345 168.964 207.409 168.333C210.279 173.128 214.269 177.43 217.544 181.84C220.701 186.093 223.448 190.781 226.863 194.846C226.721 195.28 226.641 195.737 226.632 196.214C220.775 196.548 214.68 198.071 209.158 199.003ZM227.311 198.749C227.952 199.833 228.995 200.673 230.26 200.997C230.758 201.125 231.265 201.162 231.763 201.129C231.921 205.602 232.552 210.142 232.707 214.57C232.84 218.368 233.152 222.105 234.072 225.716C233.361 226.07 232.727 226.575 232.19 227.167C224.668 222.309 216.096 218.851 207.939 215.365C200.402 212.142 192.453 207.708 184.434 205.301C184.545 205.143 184.634 204.977 184.724 204.808C191.583 204.693 198.569 203.431 205.249 202.388C212.277 201.293 220.176 200.602 227.311 198.749ZM190.387 183.309C187.732 187.502 183.469 192.889 181.782 198.138C180.845 197.908 179.851 197.955 178.944 198.304C176.903 189.673 174.494 181.046 172.445 172.404C171.083 166.655 169.29 159.277 166.288 153.408C166.46 153.163 166.604 152.908 166.727 152.645C172.837 155.48 179.707 156.918 185.981 159.149C190.991 160.927 195.558 163.5 200.6 164.631C200.624 165.35 200.823 166.058 201.18 166.698C197.041 171.721 193.707 178.059 190.387 183.309ZM170.072 174.454C171.811 181.582 172.612 189.716 175.694 196.594C171.252 193.841 166.427 191.525 161.878 189.243C155.878 186.234 149.109 183.042 142.372 181.33C142.402 180.558 142.202 179.765 141.688 179.02C144.835 174.762 147.854 170.403 151.052 166.182C153.867 162.469 157.179 159 160.007 155.248C161.158 155.708 162.442 155.727 163.616 155.352C165.763 161.709 168.483 167.942 170.072 174.454ZM141.199 184.071C147.549 186.757 154.152 188.903 160.413 191.848C165.871 194.416 171.213 197.592 176.749 200.086C176.553 200.392 176.407 200.719 176.29 201.055C172.89 201.353 169.477 202.199 166.196 202.829C161.176 203.796 156.181 204.898 151.181 205.965C149.635 204.516 147.27 204.35 145.545 205.477C144.549 202.033 143.441 198.615 142.332 195.213C141.288 192.01 140.581 188.547 139.533 185.267C140.165 184.999 140.734 184.587 141.199 184.071ZM163.222 206.317C167.406 205.752 172.03 205.328 176.377 204.443C176.602 204.985 176.93 205.492 177.368 205.926C177.644 206.2 177.955 206.417 178.277 206.606C178.282 212.917 179.258 219.515 179.562 225.71C179.794 230.427 180.273 235.059 181.556 239.522C181.48 239.554 181.406 239.577 181.328 239.611C181.089 239.716 180.85 239.82 180.61 239.925C180.322 240.051 180.051 240.233 179.803 240.452C175.667 235.35 170.737 230.74 166.235 226.033C161.563 221.145 156.984 216.137 151.97 211.602C152.708 210.337 152.795 208.782 152.221 207.45C155.902 207.272 159.546 206.814 163.222 206.317ZM182.254 221.446C182.069 216.882 182.268 211.839 181.352 207.191C181.577 207.157 181.796 207.102 182.015 207.036C189.245 211.91 198.612 214.572 206.507 217.915C214.795 221.423 222.715 225.683 230.85 229.475C230.709 229.93 230.629 230.399 230.612 230.879C223.932 231.348 217.29 232.991 210.708 234.048C202.702 235.334 193.691 236.473 186.017 239.678C185.637 239.446 185.227 239.266 184.78 239.148C184.403 239.05 184.049 239.022 183.701 239.023C182.992 233.185 182.493 227.345 182.254 221.446ZM252.398 215.456C248.418 219.306 244.372 223.105 240.567 227.13C240.465 227.014 240.392 226.894 240.278 226.781C239.103 225.615 237.787 225.15 236.51 225.149C235.95 220.546 235.737 215.921 235.581 211.264C235.455 207.57 235.513 203.647 234.496 200.065C234.97 199.687 235.387 199.228 235.697 198.681C235.882 198.353 236.007 198.013 236.106 197.671C239.924 199.005 243.833 200.302 247.727 201.11C251.953 201.988 256.29 202.008 260.572 202.548C260.765 203.451 261.201 204.308 261.894 204.996C261.965 205.067 262.05 205.117 262.124 205.183C258.868 208.582 255.781 212.186 252.398 215.456ZM250.163 198.353C245.365 197.668 240.768 195.074 235.976 194.633C235.734 193.993 235.375 193.387 234.884 192.864C234.878 192.857 234.871 192.85 234.865 192.843C234.633 192.594 234.359 192.389 234.072 192.205C240.121 182.048 246.655 171.92 252.052 161.463C252.455 161.768 252.923 162.015 253.417 162.193C254.632 168.204 256.139 174.197 257.388 180.171C258.531 185.646 259.307 192.56 261.823 198.054C261.264 198.634 260.893 199.327 260.676 200.061C257.265 199.158 253.73 198.864 250.163 198.353ZM232.493 191.568C231.331 191.323 230.079 191.472 229.086 192.083C229.079 192.089 229.07 192.094 229.063 192.097C228.778 192.273 228.517 192.48 228.272 192.701C226.149 188.275 223.104 184.248 220.279 180.274C216.936 175.57 213.53 170.232 209.279 166.132C209.458 165.668 209.546 165.178 209.567 164.686C215.468 163.986 221.502 162.045 227.052 160.839C234.639 159.187 242.138 158.206 249.784 157.408C249.816 157.729 249.88 158.051 249.992 158.367C250.228 159.03 250.399 159.453 250.646 159.859C243.609 169.415 236.794 180.376 232.493 191.568ZM201.133 151.346C201.155 153.856 200.755 158.245 201.676 161.554C201.398 161.878 201.171 162.231 201.001 162.609C196.163 160.723 191.499 158.364 186.682 156.432C180.401 153.912 173.665 151.58 167.1 149.479C166.994 148.896 166.804 148.317 166.528 147.761C166.482 147.672 166.421 147.59 166.371 147.504C172.395 145.162 178.248 142.383 184.514 140.476C189.851 138.854 195.43 137.262 200.307 134.469C200.526 134.972 200.833 135.439 201.219 135.859C201.13 141.024 201.085 146.21 201.133 151.346ZM117.747 209.368C115.501 197.993 115.889 186.415 118.585 175.192C119.616 175.075 120.611 174.647 121.384 173.868C121.515 173.736 121.614 173.588 121.725 173.445C123.997 174.504 126.353 175.465 128.493 176.682C130.17 177.637 132.073 179.229 134.021 180.47C133.668 181.736 133.917 183.159 135.137 184.369C135.244 184.475 135.358 184.548 135.47 184.64C132.691 190.117 129.305 194.813 125.486 199.811C123.052 202.996 120.755 206.141 119.132 209.684C118.674 209.529 118.203 209.422 117.747 209.368ZM123.474 214.383C123.244 213.194 122.676 212.061 121.864 211.255C121.617 211.01 121.334 210.795 121.035 210.598C125.958 203.429 133.714 196.704 136.998 188.76C137.756 191.222 138.702 193.645 139.482 195.97C140.763 199.786 142.285 203.569 144.009 207.228C143.571 208.105 143.421 209.09 143.579 210.044C141.594 210.63 139.621 211.261 137.665 211.711C132.961 212.796 128.245 213.737 123.474 214.383ZM140.192 252.365C140.145 252.391 140.11 252.429 140.063 252.456C134.539 246.11 129.817 239.027 125.842 231.705C123.815 227.972 122.132 224.168 120.763 220.321C121.688 219.738 122.188 219.103 122.827 218.158C123.267 217.507 123.485 216.751 123.553 215.974C127.904 215.796 132.235 215.383 136.563 214.799C138.591 214.526 140.808 214.208 143.005 213.728C141.72 218.801 141.702 224.445 141.522 229.462C141.258 236.939 141.373 244.424 141.383 251.904C140.968 252.012 140.564 252.152 140.192 252.365ZM145.968 253.126C145.35 252.516 144.622 252.103 143.783 251.882C143.712 251.863 143.639 251.863 143.566 251.848C144.329 245.894 144.475 239.927 144.573 233.888C144.681 227.072 145.893 220.231 146.232 213.455C147.477 213.988 148.913 213.938 150.128 213.327C154.645 218.399 159.554 223.125 164.298 227.985C168.939 232.736 173.447 237.944 178.543 242.279C178.446 242.509 178.35 242.741 178.293 242.963C178.245 243.151 178.213 243.339 178.187 243.53C172.952 244.344 167.705 246.109 162.795 247.679C157.59 249.342 151.724 251.235 146.954 254.306C146.706 253.864 146.395 253.463 145.968 253.126ZM156.819 267.296C153.312 264.997 150.031 262.392 146.952 259.559C147.523 258.653 147.845 257.527 147.73 256.473C153.024 254.592 158.143 252.11 163.538 250.456C168.484 248.938 173.749 248.04 178.73 246.499C178.957 246.929 179.242 247.331 179.595 247.68C180.072 248.154 180.641 248.514 181.257 248.757C181.926 254.11 182.824 259.454 183.845 264.718C184.844 269.876 186.354 275 189.411 279.106C189.28 279.278 189.143 279.443 189.031 279.624C177.658 277.745 166.841 273.868 156.819 267.296ZM191.275 277.48C188.882 272.603 187.432 267.347 186.358 261.958C185.502 257.672 185.12 253.245 184.257 248.947C185.549 248.62 186.83 247.796 187.341 246.604C187.394 246.48 187.447 246.358 187.5 246.235C195.18 250.51 203.261 254.301 211.009 258.458C210.22 260.066 210.264 261.988 211.141 263.558C209.622 265.212 208.223 267.005 206.803 268.696C204.117 271.894 201.372 275.038 198.507 278.074C196.443 276.394 193.541 276.197 191.275 277.48ZM234.262 236.156C235.241 236.535 236.241 236.563 237.187 236.351C238.887 240.362 240.743 244.321 242.364 248.348C244.198 252.903 245.949 257.521 248.37 261.774C248.028 262.169 247.727 262.595 247.482 263.051C239.08 260.388 229.604 258.983 220.935 258.992C220.773 258.547 220.555 258.122 220.275 257.724C225.038 250.711 231.081 243.918 234.262 236.156ZM206.283 281.023C204.334 281.014 202.395 280.967 200.47 280.865C200.308 280.398 200.106 279.944 199.833 279.52C202.404 277.191 204.804 274.705 207.178 272.124C209.133 270.002 211.289 267.878 213.247 265.632C215.318 266.748 217.994 266.458 219.719 264.719C220.522 263.91 221.008 262.895 221.192 261.833C229.795 262.785 238.405 262.968 246.831 264.906C246.739 265.405 246.706 265.911 246.752 266.423C234.625 274.269 220.596 279.502 206.283 281.023ZM282.681 218.55C282.943 218.81 283.218 219.006 283.49 219.209C279.484 232.264 272.036 244.414 261.259 254.9C259.462 256.65 257.577 258.325 255.625 259.935C255.264 259.766 254.901 259.638 254.535 259.551C256.784 250.998 259.012 242.44 261.09 233.844C263.32 224.623 266.272 215.233 267.761 205.788C268.165 205.568 268.554 205.31 268.893 204.968C268.902 204.96 268.908 204.949 268.916 204.941C270.764 206.13 272.656 207.259 274.458 208.471C276.572 209.89 278.727 211.416 280.991 212.707C280.473 214.606 280.853 216.737 282.681 218.55ZM284.798 177.04C287.159 187.454 287.568 197.797 286.082 207.764C284.654 208.108 283.363 208.959 282.404 210.097C280.771 209.036 279.126 207.988 277.535 206.888C275.152 205.241 272.791 203.373 270.275 201.827C270.37 200.436 269.913 199.012 268.864 197.97C268.575 197.684 268.251 197.456 267.914 197.255C270.403 192.954 272.758 188.569 275.397 184.338C277.106 181.598 279.031 178.864 280.672 176.004C282.005 176.982 283.442 177.26 284.798 177.04ZM278.588 173.49C276.29 177.238 274.233 181.199 272.008 184.916C269.838 188.544 267.484 192.484 266.235 196.632C265.577 196.519 264.9 196.545 264.248 196.695C262.528 190.457 261.303 184.056 260.027 177.733C259.066 172.974 258.563 167.263 257.172 162.128C258.113 161.771 258.923 161.176 259.523 160.402C262.407 161.852 265.653 162.912 268.419 164.388C271.717 166.147 274.965 168.04 278.352 169.624C277.969 170.858 278.001 172.199 278.588 173.49ZM268.945 142.236C274.018 149.159 278.169 156.826 281.199 164.984C281.298 165.253 281.386 165.522 281.484 165.79C280.632 166.276 279.872 166.94 279.296 167.737C275.849 165.232 272.136 163.054 268.424 161.004C266.105 159.722 263.365 158.055 260.585 157.23C260.567 156.003 260.098 154.829 259.297 153.905C260.664 151.929 261.901 149.861 263.04 147.76C263.873 146.223 264.86 144.491 265.751 142.678C266.852 142.864 267.948 142.682 268.945 142.236ZM260.864 136.474C260.717 137.997 261.195 139.606 262.613 141.013C262.658 141.058 262.707 141.084 262.752 141.127C261.15 144.984 259.671 148.894 257.763 152.619C256.539 151.898 254.985 151.673 253.665 152.025C252.782 152.26 251.969 152.783 251.307 153.461C245.218 148.491 238.338 145.084 231.054 141.969C225.444 139.57 220.025 137.066 214.644 134.407C220.94 135.219 227.565 135.088 233.577 135.244C242.64 135.478 251.785 136.275 260.864 136.474ZM225.979 110.853C239.797 115.203 252.045 123.237 261.873 133.713C261.773 133.864 261.683 134.022 261.595 134.182C253.976 132.688 245.865 132.829 238.227 132.624C228.785 132.368 219.209 131.058 209.772 130.768C209.53 130.035 209.142 129.347 208.564 128.774C208.385 128.595 208.185 128.453 207.985 128.307C209.715 124.98 213.068 121.253 214.442 119.246C215.547 117.635 216.996 115.909 218.4 114.111C221.36 115.006 224.438 113.367 225.979 110.853ZM210.054 107.593C211.275 107.712 212.484 107.868 213.688 108.043C213.702 109.4 214.195 110.792 215.318 112.057C213.633 114.789 212.095 117.641 210.542 120.097C209.446 121.829 207.349 124.694 206.272 127.498C204.557 127.053 202.65 127.475 201.333 128.802C201.116 129.021 200.933 129.259 200.765 129.506C196.945 125.645 192.097 122.752 187.454 120.021C183.522 117.708 179.543 115.388 175.511 113.183C175.519 112.653 175.445 112.125 175.325 111.607C186.271 107.885 198.053 106.422 210.054 107.593ZM163.603 116.615C163.766 116.822 163.94 117.015 164.126 117.2C164.719 117.873 165.457 118.429 166.244 118.821C165.211 122.782 164.06 126.702 163.162 130.722C162.116 135.395 162.009 140.305 161.65 145.151C160.384 145.252 159.122 145.839 158.263 146.705C158.243 146.726 158.23 146.75 158.21 146.77C158.206 146.774 158.203 146.777 158.2 146.779C155.577 142.182 152.457 137.223 148.872 133.028C149.636 131.044 149.408 128.748 148.194 126.955C152.965 122.935 158.129 119.468 163.603 116.615ZM146.797 135.778C147.766 136.938 148.721 138.111 149.62 139.333C151.96 142.507 154.162 145.711 156.738 148.644C156.52 149.182 156.404 149.761 156.406 150.349C156.406 150.424 156.422 150.491 156.424 150.565C151.141 152.765 146.061 155.522 140.943 158.031C134.731 161.074 127.583 163.729 121.553 167.441C121.484 167.363 121.431 167.276 121.356 167.201C121.249 167.096 121.126 167.016 121.011 166.923C123.755 159.024 127.642 151.378 132.575 144.2C134.569 141.297 136.726 138.547 139.015 135.945C141.34 137.588 144.534 137.524 146.797 135.778Z"/>
</mask>
<path d="M136.971 133.521C128.58 142.919 122.01 154.008 117.812 165.871C116.671 165.925 115.542 166.367 114.689 167.226C112.879 169.051 112.89 172.085 114.715 173.895C114.886 174.065 115.076 174.202 115.266 174.338C113.121 182.912 112.204 191.757 112.756 200.563C112.958 203.791 113.42 206.996 114.065 210.168C113.635 210.421 113.225 210.712 112.869 211.07C110.159 213.801 110.821 218.493 114.166 220.386C114.973 220.841 116.168 221.252 117.181 221.266C121.695 233.821 129.189 245.502 137.968 255.278C137.778 256.015 137.781 256.798 137.942 257.566C138.144 259.956 140.515 261.857 142.836 261.847C143.295 261.846 143.743 261.756 144.179 261.629C156.465 272.994 171.815 280.245 188.123 282.427C187.957 284.276 188.545 286.184 189.941 287.569C192.424 290.033 196.552 290.017 199.017 287.533C200.229 286.311 200.834 284.693 200.847 283.071C201.797 283.042 202.747 283.007 203.698 282.945C219.141 282.504 234.475 277.548 247.874 269.311C248.086 269.601 248.303 269.89 248.582 270.167C254.087 275.629 262.385 267.758 258.161 262.045C271.612 251.158 282.096 236.725 287.156 220.398C291.998 220.213 296.184 213.891 291.71 209.451C291.117 208.863 290.489 208.463 289.85 208.161C289.882 207.919 289.931 207.683 289.962 207.441C291.254 196.858 290.466 186.016 287.933 175.537C290.364 173.433 291.391 169.658 288.446 166.736C287.293 165.591 286.012 165.081 284.754 164.999C281.535 156.139 277.064 147.724 271.547 140.162C273.192 138.015 273.561 134.94 271.081 132.479C268.956 130.37 266.395 130.361 264.362 131.442C262.655 129.608 260.886 127.841 259.043 126.164C249.734 117.689 238.72 111.633 226.948 108.065C227.127 106.367 226.598 104.567 225.014 102.996C221.203 99.2144 216.106 101.507 214.328 105.231C204.497 103.771 194.387 103.95 184.492 105.809C180.827 106.499 177.253 107.469 173.767 108.659C173.716 108.604 173.676 108.542 173.622 108.488C172.794 107.673 171.819 107.117 170.695 106.822C169.672 106.559 168.381 106.534 167.253 106.846C166.502 106.986 165.739 107.281 165.055 107.702C164.57 107.978 164.129 108.314 163.787 108.659C162.58 109.875 162.021 111.626 162.273 113.307C162.281 113.4 162.306 113.488 162.319 113.579C156.404 116.68 150.867 120.484 145.787 124.858C143.32 123.608 140.193 123.981 138.161 126.028C136.168 128.039 135.791 131.087 136.971 133.521ZM122.696 170.139C127.953 168.086 133.05 165.003 137.976 162.513C144.301 159.318 150.934 156.31 156.992 152.524C157.127 152.755 157.286 152.966 157.459 153.166C154.257 156.65 151.541 160.781 148.841 164.512C145.781 168.739 142.834 173.121 140.415 177.761C138.728 176.633 136.817 177.07 135.493 178.215C133.607 176.702 131.288 175.431 129.756 174.435C127.76 173.137 125.28 171.446 122.72 170.376C122.718 170.297 122.703 170.219 122.696 170.139ZM174.61 116.348C176.875 117.637 179.179 118.866 181.473 120.128C187.78 123.6 193.747 127.716 200.025 131.2C199.925 131.623 199.867 132.054 199.873 132.49C193.781 134.337 187.726 136.384 181.644 138.249C176.086 139.954 169.297 141.689 164.203 145.079C165.104 141.313 165.164 137.214 165.739 133.507C166.473 128.779 168.432 124.171 169.538 119.476C171.597 119.317 173.524 118.171 174.61 116.348ZM209.124 135.346C221.747 143.555 237.818 146.079 250.206 155.078C250.156 155.188 250.094 155.293 250.053 155.406C243.594 154.577 236.615 156.056 230.411 157.287C223.272 158.701 215.679 159.795 208.483 161.537C208.409 161.452 208.35 161.357 208.269 161.276C207.033 160.05 205.221 159.716 203.649 160.233C203.186 156.168 203.803 151.721 203.791 147.9C203.781 144.665 204.523 140.984 204.58 137.462C206.027 137.568 207.511 137.096 208.593 136.005C208.795 135.8 208.963 135.575 209.124 135.346ZM264.758 206.355C264.846 206.366 264.937 206.373 265.027 206.379C262.288 215.116 260.515 224.315 258.244 233.111C255.99 241.844 253.98 250.636 252.271 259.489C251.645 259.602 251.038 259.796 250.47 260.092C248.423 255.151 246.282 250.249 244.301 245.282C242.92 241.817 241.568 238.287 239.813 234.993C241.584 233.451 242.538 230.964 241.55 228.642C249.625 222.002 258.713 214.751 264.758 206.355ZM211.946 257.088C205.154 251.522 196.636 246.629 188.236 243.552C188.229 243.144 188.154 242.745 188.042 242.358C195.061 240.751 201.971 238.543 209.114 237.316C216.462 236.053 223.72 234.455 231.022 233.006C231.22 233.467 231.512 233.916 231.872 234.352C227.866 241.9 222.188 248.522 218.495 256.148C216.419 255.008 213.72 255.292 211.983 257.043C211.969 257.057 211.96 257.074 211.946 257.088ZM209.158 199.003C201.172 200.351 193.202 201.005 185.207 201.803C185.048 200.886 184.627 200.011 183.928 199.317C183.897 199.286 183.858 199.265 183.826 199.236C187.345 194.972 190.019 189.028 192.918 184.732C196.328 179.677 200.865 174.404 203.9 168.806C205.073 169.118 206.345 168.964 207.409 168.333C210.279 173.128 214.269 177.43 217.544 181.84C220.701 186.093 223.448 190.781 226.863 194.846C226.721 195.28 226.641 195.737 226.632 196.214C220.775 196.548 214.68 198.071 209.158 199.003ZM227.311 198.749C227.952 199.833 228.995 200.673 230.26 200.997C230.758 201.125 231.265 201.162 231.763 201.129C231.921 205.602 232.552 210.142 232.707 214.57C232.84 218.368 233.152 222.105 234.072 225.716C233.361 226.07 232.727 226.575 232.19 227.167C224.668 222.309 216.096 218.851 207.939 215.365C200.402 212.142 192.453 207.708 184.434 205.301C184.545 205.143 184.634 204.977 184.724 204.808C191.583 204.693 198.569 203.431 205.249 202.388C212.277 201.293 220.176 200.602 227.311 198.749ZM190.387 183.309C187.732 187.502 183.469 192.889 181.782 198.138C180.845 197.908 179.851 197.955 178.944 198.304C176.903 189.673 174.494 181.046 172.445 172.404C171.083 166.655 169.29 159.277 166.288 153.408C166.46 153.163 166.604 152.908 166.727 152.645C172.837 155.48 179.707 156.918 185.981 159.149C190.991 160.927 195.558 163.5 200.6 164.631C200.624 165.35 200.823 166.058 201.18 166.698C197.041 171.721 193.707 178.059 190.387 183.309ZM170.072 174.454C171.811 181.582 172.612 189.716 175.694 196.594C171.252 193.841 166.427 191.525 161.878 189.243C155.878 186.234 149.109 183.042 142.372 181.33C142.402 180.558 142.202 179.765 141.688 179.02C144.835 174.762 147.854 170.403 151.052 166.182C153.867 162.469 157.179 159 160.007 155.248C161.158 155.708 162.442 155.727 163.616 155.352C165.763 161.709 168.483 167.942 170.072 174.454ZM141.199 184.071C147.549 186.757 154.152 188.903 160.413 191.848C165.871 194.416 171.213 197.592 176.749 200.086C176.553 200.392 176.407 200.719 176.29 201.055C172.89 201.353 169.477 202.199 166.196 202.829C161.176 203.796 156.181 204.898 151.181 205.965C149.635 204.516 147.27 204.35 145.545 205.477C144.549 202.033 143.441 198.615 142.332 195.213C141.288 192.01 140.581 188.547 139.533 185.267C140.165 184.999 140.734 184.587 141.199 184.071ZM163.222 206.317C167.406 205.752 172.03 205.328 176.377 204.443C176.602 204.985 176.93 205.492 177.368 205.926C177.644 206.2 177.955 206.417 178.277 206.606C178.282 212.917 179.258 219.515 179.562 225.71C179.794 230.427 180.273 235.059 181.556 239.522C181.48 239.554 181.406 239.577 181.328 239.611C181.089 239.716 180.85 239.82 180.61 239.925C180.322 240.051 180.051 240.233 179.803 240.452C175.667 235.35 170.737 230.74 166.235 226.033C161.563 221.145 156.984 216.137 151.97 211.602C152.708 210.337 152.795 208.782 152.221 207.45C155.902 207.272 159.546 206.814 163.222 206.317ZM182.254 221.446C182.069 216.882 182.268 211.839 181.352 207.191C181.577 207.157 181.796 207.102 182.015 207.036C189.245 211.91 198.612 214.572 206.507 217.915C214.795 221.423 222.715 225.683 230.85 229.475C230.709 229.93 230.629 230.399 230.612 230.879C223.932 231.348 217.29 232.991 210.708 234.048C202.702 235.334 193.691 236.473 186.017 239.678C185.637 239.446 185.227 239.266 184.78 239.148C184.403 239.05 184.049 239.022 183.701 239.023C182.992 233.185 182.493 227.345 182.254 221.446ZM252.398 215.456C248.418 219.306 244.372 223.105 240.567 227.13C240.465 227.014 240.392 226.894 240.278 226.781C239.103 225.615 237.787 225.15 236.51 225.149C235.95 220.546 235.737 215.921 235.581 211.264C235.455 207.57 235.513 203.647 234.496 200.065C234.97 199.687 235.387 199.228 235.697 198.681C235.882 198.353 236.007 198.013 236.106 197.671C239.924 199.005 243.833 200.302 247.727 201.11C251.953 201.988 256.29 202.008 260.572 202.548C260.765 203.451 261.201 204.308 261.894 204.996C261.965 205.067 262.05 205.117 262.124 205.183C258.868 208.582 255.781 212.186 252.398 215.456ZM250.163 198.353C245.365 197.668 240.768 195.074 235.976 194.633C235.734 193.993 235.375 193.387 234.884 192.864C234.878 192.857 234.871 192.85 234.865 192.843C234.633 192.594 234.359 192.389 234.072 192.205C240.121 182.048 246.655 171.92 252.052 161.463C252.455 161.768 252.923 162.015 253.417 162.193C254.632 168.204 256.139 174.197 257.388 180.171C258.531 185.646 259.307 192.56 261.823 198.054C261.264 198.634 260.893 199.327 260.676 200.061C257.265 199.158 253.73 198.864 250.163 198.353ZM232.493 191.568C231.331 191.323 230.079 191.472 229.086 192.083C229.079 192.089 229.07 192.094 229.063 192.097C228.778 192.273 228.517 192.48 228.272 192.701C226.149 188.275 223.104 184.248 220.279 180.274C216.936 175.57 213.53 170.232 209.279 166.132C209.458 165.668 209.546 165.178 209.567 164.686C215.468 163.986 221.502 162.045 227.052 160.839C234.639 159.187 242.138 158.206 249.784 157.408C249.816 157.729 249.88 158.051 249.992 158.367C250.228 159.03 250.399 159.453 250.646 159.859C243.609 169.415 236.794 180.376 232.493 191.568ZM201.133 151.346C201.155 153.856 200.755 158.245 201.676 161.554C201.398 161.878 201.171 162.231 201.001 162.609C196.163 160.723 191.499 158.364 186.682 156.432C180.401 153.912 173.665 151.58 167.1 149.479C166.994 148.896 166.804 148.317 166.528 147.761C166.482 147.672 166.421 147.59 166.371 147.504C172.395 145.162 178.248 142.383 184.514 140.476C189.851 138.854 195.43 137.262 200.307 134.469C200.526 134.972 200.833 135.439 201.219 135.859C201.13 141.024 201.085 146.21 201.133 151.346ZM117.747 209.368C115.501 197.993 115.889 186.415 118.585 175.192C119.616 175.075 120.611 174.647 121.384 173.868C121.515 173.736 121.614 173.588 121.725 173.445C123.997 174.504 126.353 175.465 128.493 176.682C130.17 177.637 132.073 179.229 134.021 180.47C133.668 181.736 133.917 183.159 135.137 184.369C135.244 184.475 135.358 184.548 135.47 184.64C132.691 190.117 129.305 194.813 125.486 199.811C123.052 202.996 120.755 206.141 119.132 209.684C118.674 209.529 118.203 209.422 117.747 209.368ZM123.474 214.383C123.244 213.194 122.676 212.061 121.864 211.255C121.617 211.01 121.334 210.795 121.035 210.598C125.958 203.429 133.714 196.704 136.998 188.76C137.756 191.222 138.702 193.645 139.482 195.97C140.763 199.786 142.285 203.569 144.009 207.228C143.571 208.105 143.421 209.09 143.579 210.044C141.594 210.63 139.621 211.261 137.665 211.711C132.961 212.796 128.245 213.737 123.474 214.383ZM140.192 252.365C140.145 252.391 140.11 252.429 140.063 252.456C134.539 246.11 129.817 239.027 125.842 231.705C123.815 227.972 122.132 224.168 120.763 220.321C121.688 219.738 122.188 219.103 122.827 218.158C123.267 217.507 123.485 216.751 123.553 215.974C127.904 215.796 132.235 215.383 136.563 214.799C138.591 214.526 140.808 214.208 143.005 213.728C141.72 218.801 141.702 224.445 141.522 229.462C141.258 236.939 141.373 244.424 141.383 251.904C140.968 252.012 140.564 252.152 140.192 252.365ZM145.968 253.126C145.35 252.516 144.622 252.103 143.783 251.882C143.712 251.863 143.639 251.863 143.566 251.848C144.329 245.894 144.475 239.927 144.573 233.888C144.681 227.072 145.893 220.231 146.232 213.455C147.477 213.988 148.913 213.938 150.128 213.327C154.645 218.399 159.554 223.125 164.298 227.985C168.939 232.736 173.447 237.944 178.543 242.279C178.446 242.509 178.35 242.741 178.293 242.963C178.245 243.151 178.213 243.339 178.187 243.53C172.952 244.344 167.705 246.109 162.795 247.679C157.59 249.342 151.724 251.235 146.954 254.306C146.706 253.864 146.395 253.463 145.968 253.126ZM156.819 267.296C153.312 264.997 150.031 262.392 146.952 259.559C147.523 258.653 147.845 257.527 147.73 256.473C153.024 254.592 158.143 252.11 163.538 250.456C168.484 248.938 173.749 248.04 178.73 246.499C178.957 246.929 179.242 247.331 179.595 247.68C180.072 248.154 180.641 248.514 181.257 248.757C181.926 254.11 182.824 259.454 183.845 264.718C184.844 269.876 186.354 275 189.411 279.106C189.28 279.278 189.143 279.443 189.031 279.624C177.658 277.745 166.841 273.868 156.819 267.296ZM191.275 277.48C188.882 272.603 187.432 267.347 186.358 261.958C185.502 257.672 185.12 253.245 184.257 248.947C185.549 248.62 186.83 247.796 187.341 246.604C187.394 246.48 187.447 246.358 187.5 246.235C195.18 250.51 203.261 254.301 211.009 258.458C210.22 260.066 210.264 261.988 211.141 263.558C209.622 265.212 208.223 267.005 206.803 268.696C204.117 271.894 201.372 275.038 198.507 278.074C196.443 276.394 193.541 276.197 191.275 277.48ZM234.262 236.156C235.241 236.535 236.241 236.563 237.187 236.351C238.887 240.362 240.743 244.321 242.364 248.348C244.198 252.903 245.949 257.521 248.37 261.774C248.028 262.169 247.727 262.595 247.482 263.051C239.08 260.388 229.604 258.983 220.935 258.992C220.773 258.547 220.555 258.122 220.275 257.724C225.038 250.711 231.081 243.918 234.262 236.156ZM206.283 281.023C204.334 281.014 202.395 280.967 200.47 280.865C200.308 280.398 200.106 279.944 199.833 279.52C202.404 277.191 204.804 274.705 207.178 272.124C209.133 270.002 211.289 267.878 213.247 265.632C215.318 266.748 217.994 266.458 219.719 264.719C220.522 263.91 221.008 262.895 221.192 261.833C229.795 262.785 238.405 262.968 246.831 264.906C246.739 265.405 246.706 265.911 246.752 266.423C234.625 274.269 220.596 279.502 206.283 281.023ZM282.681 218.55C282.943 218.81 283.218 219.006 283.49 219.209C279.484 232.264 272.036 244.414 261.259 254.9C259.462 256.65 257.577 258.325 255.625 259.935C255.264 259.766 254.901 259.638 254.535 259.551C256.784 250.998 259.012 242.44 261.09 233.844C263.32 224.623 266.272 215.233 267.761 205.788C268.165 205.568 268.554 205.31 268.893 204.968C268.902 204.96 268.908 204.949 268.916 204.941C270.764 206.13 272.656 207.259 274.458 208.471C276.572 209.89 278.727 211.416 280.991 212.707C280.473 214.606 280.853 216.737 282.681 218.55ZM284.798 177.04C287.159 187.454 287.568 197.797 286.082 207.764C284.654 208.108 283.363 208.959 282.404 210.097C280.771 209.036 279.126 207.988 277.535 206.888C275.152 205.241 272.791 203.373 270.275 201.827C270.37 200.436 269.913 199.012 268.864 197.97C268.575 197.684 268.251 197.456 267.914 197.255C270.403 192.954 272.758 188.569 275.397 184.338C277.106 181.598 279.031 178.864 280.672 176.004C282.005 176.982 283.442 177.26 284.798 177.04ZM278.588 173.49C276.29 177.238 274.233 181.199 272.008 184.916C269.838 188.544 267.484 192.484 266.235 196.632C265.577 196.519 264.9 196.545 264.248 196.695C262.528 190.457 261.303 184.056 260.027 177.733C259.066 172.974 258.563 167.263 257.172 162.128C258.113 161.771 258.923 161.176 259.523 160.402C262.407 161.852 265.653 162.912 268.419 164.388C271.717 166.147 274.965 168.04 278.352 169.624C277.969 170.858 278.001 172.199 278.588 173.49ZM268.945 142.236C274.018 149.159 278.169 156.826 281.199 164.984C281.298 165.253 281.386 165.522 281.484 165.79C280.632 166.276 279.872 166.94 279.296 167.737C275.849 165.232 272.136 163.054 268.424 161.004C266.105 159.722 263.365 158.055 260.585 157.23C260.567 156.003 260.098 154.829 259.297 153.905C260.664 151.929 261.901 149.861 263.04 147.76C263.873 146.223 264.86 144.491 265.751 142.678C266.852 142.864 267.948 142.682 268.945 142.236ZM260.864 136.474C260.717 137.997 261.195 139.606 262.613 141.013C262.658 141.058 262.707 141.084 262.752 141.127C261.15 144.984 259.671 148.894 257.763 152.619C256.539 151.898 254.985 151.673 253.665 152.025C252.782 152.26 251.969 152.783 251.307 153.461C245.218 148.491 238.338 145.084 231.054 141.969C225.444 139.57 220.025 137.066 214.644 134.407C220.94 135.219 227.565 135.088 233.577 135.244C242.64 135.478 251.785 136.275 260.864 136.474ZM225.979 110.853C239.797 115.203 252.045 123.237 261.873 133.713C261.773 133.864 261.683 134.022 261.595 134.182C253.976 132.688 245.865 132.829 238.227 132.624C228.785 132.368 219.209 131.058 209.772 130.768C209.53 130.035 209.142 129.347 208.564 128.774C208.385 128.595 208.185 128.453 207.985 128.307C209.715 124.98 213.068 121.253 214.442 119.246C215.547 117.635 216.996 115.909 218.4 114.111C221.36 115.006 224.438 113.367 225.979 110.853ZM210.054 107.593C211.275 107.712 212.484 107.868 213.688 108.043C213.702 109.4 214.195 110.792 215.318 112.057C213.633 114.789 212.095 117.641 210.542 120.097C209.446 121.829 207.349 124.694 206.272 127.498C204.557 127.053 202.65 127.475 201.333 128.802C201.116 129.021 200.933 129.259 200.765 129.506C196.945 125.645 192.097 122.752 187.454 120.021C183.522 117.708 179.543 115.388 175.511 113.183C175.519 112.653 175.445 112.125 175.325 111.607C186.271 107.885 198.053 106.422 210.054 107.593ZM163.603 116.615C163.766 116.822 163.94 117.015 164.126 117.2C164.719 117.873 165.457 118.429 166.244 118.821C165.211 122.782 164.06 126.702 163.162 130.722C162.116 135.395 162.009 140.305 161.65 145.151C160.384 145.252 159.122 145.839 158.263 146.705C158.243 146.726 158.23 146.75 158.21 146.77C158.206 146.774 158.203 146.777 158.2 146.779C155.577 142.182 152.457 137.223 148.872 133.028C149.636 131.044 149.408 128.748 148.194 126.955C152.965 122.935 158.129 119.468 163.603 116.615ZM146.797 135.778C147.766 136.938 148.721 138.111 149.62 139.333C151.96 142.507 154.162 145.711 156.738 148.644C156.52 149.182 156.404 149.761 156.406 150.349C156.406 150.424 156.422 150.491 156.424 150.565C151.141 152.765 146.061 155.522 140.943 158.031C134.731 161.074 127.583 163.729 121.553 167.441C121.484 167.363 121.431 167.276 121.356 167.201C121.249 167.096 121.126 167.016 121.011 166.923C123.755 159.024 127.642 151.378 132.575 144.2C134.569 141.297 136.726 138.547 139.015 135.945C141.34 137.588 144.534 137.524 146.797 135.778Z" stroke="#A0F0B8" stroke-opacity="0.4" stroke-width="2" mask="url(#path-1-inside-1)"/>
</g>
<path d="M297.726 251.919L262.825 287.092C267.306 293.972 266.555 303.298 260.542 309.357C250.61 319.366 233.575 314.323 230.532 300.727L180.442 300.921C177.504 314.545 160.506 319.713 150.5 309.783C138.17 297.549 148.97 276.548 166.194 279.617L182.005 241.153L143.804 241.302L155.507 269.341C156.305 271.252 155.402 273.448 153.491 274.246C151.579 275.043 149.384 274.141 148.586 272.229L135.69 241.333L120.571 241.392C117.705 255.053 100.659 260.328 90.6069 250.353C80.5975 240.421 85.6405 223.386 99.2368 220.343L99.043 170.253C85.4186 167.314 80.2512 150.317 90.1804 140.31C97.9995 132.43 111.09 133.556 117.446 142.69L142.102 132.399L152.202 107.664C143.034 101.389 141.78 88.3093 149.611 80.4174C159.543 70.408 176.578 75.4511 179.621 89.0473L229.711 88.8535C232.649 75.2291 249.647 70.0617 259.654 79.9909C265.712 86.003 266.536 95.3227 262.108 102.237L297.281 137.139C304.161 132.658 313.488 133.409 319.546 139.421C326.518 146.339 326.562 157.64 319.644 164.612C312.726 171.583 301.425 171.627 294.453 164.709C288.394 158.697 287.571 149.377 291.999 142.463L257.808 108.536L304.087 219.413C321.357 216.239 332.11 237.233 319.973 249.464C313.961 255.523 304.641 256.346 297.726 251.919V251.919ZM237.698 282.213L233.348 271.86L181.704 293.416L230.46 293.227C231.344 288.891 233.826 284.92 237.698 282.213ZM244.615 279.313C248.996 278.497 253.626 279.328 257.501 281.809L291.429 247.618L240.27 268.971L244.615 279.313ZM288.432 240.741L228.506 240.973L237.365 262.056L288.432 240.741ZM255.219 304.074C259.224 300.038 259.199 293.496 255.162 289.49C251.126 285.485 244.583 285.51 240.578 289.547C236.573 293.583 236.598 300.125 240.635 304.131C244.671 308.136 251.213 308.111 255.219 304.074ZM155.783 304.46C159.819 308.465 166.361 308.44 170.366 304.403C174.372 300.367 174.346 293.824 170.31 289.819C166.274 285.814 159.731 285.839 155.726 289.876C151.721 293.912 151.746 300.454 155.783 304.46ZM173.133 282.463C174.916 283.689 176.413 285.169 177.668 286.973L230.443 264.945L220.385 241.005L190.126 241.123L173.133 282.463ZM217.239 233.516L205.115 204.658L193.214 233.609L217.239 233.516ZM113.207 223.009C117.015 225.616 119.585 229.5 120.542 233.891L132.564 233.844L120.543 205.042L113.207 223.009ZM116.447 195.231L106.548 171.514L106.732 219.023L116.447 195.231ZM95.8896 245.029C99.9261 249.034 106.468 249.009 110.474 244.973C114.479 240.936 114.453 234.394 110.417 230.389C106.381 226.383 99.8384 226.409 95.8331 230.445C91.8278 234.482 91.8532 241.024 95.8896 245.029ZM95.5042 145.593C91.4989 149.629 91.5243 156.172 95.5607 160.177C99.5972 164.182 106.139 164.157 110.145 160.12C114.15 156.084 114.125 149.542 110.088 145.537C106.052 141.531 99.5095 141.557 95.5042 145.593ZM120.329 149.615C121.584 156.446 118.815 163.426 112.991 167.479L120.466 185.388L138.102 142.196L120.329 149.615ZM151.868 128.323L169.884 120.804L165.539 110.462C163.429 110.854 161.262 110.865 159.148 110.493L151.868 128.323ZM172.455 107.562L176.805 117.914L228.45 96.3586L179.694 96.5469C178.811 100.875 176.335 104.849 172.455 107.562V107.562ZM154.935 85.7001C150.929 89.7366 150.955 96.2788 154.991 100.284C159.028 104.289 165.57 104.264 169.575 100.228C173.58 96.1911 173.555 89.6489 169.519 85.6436C165.482 81.6383 158.94 81.6637 154.935 85.7001ZM254.371 85.3147C250.334 81.3095 243.792 81.3348 239.787 85.3713C235.782 89.4077 235.807 95.9499 239.843 99.9552C243.88 103.961 250.422 103.935 254.427 99.8987C258.433 95.8623 258.407 89.32 254.371 85.3147ZM299.736 159.386C303.773 163.391 310.315 163.366 314.32 159.329C318.326 155.293 318.3 148.75 314.264 144.745C310.227 140.74 303.685 140.765 299.68 144.802C295.674 148.838 295.7 155.38 299.736 159.386ZM250.35 110.14C243.531 111.393 236.547 108.637 232.485 102.802L179.71 124.829L185.834 139.406C186.636 141.315 185.739 143.513 183.83 144.315C181.92 145.118 179.722 144.22 178.92 142.311L172.789 127.719L147.868 138.12L124.561 195.199L140.678 233.813L185.092 233.641L201.015 194.903L190.331 169.473C189.529 167.563 190.426 165.365 192.336 164.563C194.255 163.756 196.447 164.667 197.246 166.568L205.038 185.115L231.691 120.274C232.708 117.799 235.915 117.165 237.801 119.036C238.846 120.074 239.223 121.678 238.628 123.125L209.137 194.871L225.36 233.485L289.91 233.234C290.832 228.842 293.368 224.934 297.161 222.295L250.35 110.14ZM314.593 229.597C310.556 225.592 304.014 225.617 300.009 229.654C296.003 233.69 296.029 240.233 300.065 244.238C304.102 248.243 310.644 248.218 314.649 244.181C318.654 240.145 318.629 233.603 314.593 229.597Z" stroke="#96E5B5" stroke-opacity="0.2"/>
<path d="M205.275 301.918C209.17 305.139 213.229 308.275 217.566 310.947C216.62 312.541 216.893 314.329 217.773 315.696C216.692 316.926 215.699 318.337 214.858 319.533C214.499 320.044 214.167 320.515 213.867 320.917C213.724 321.109 213.576 321.306 213.424 321.509C212.234 323.095 210.816 324.983 209.722 326.978C208.556 323.531 206.995 320.112 205.479 316.793C204.746 315.186 204.023 313.603 203.36 312.05C202.69 310.481 202.031 308.892 201.369 307.293C199.383 302.504 197.366 297.638 194.941 293.039C197.403 295.534 200.205 297.801 202.895 299.978C203.703 300.632 204.5 301.277 205.275 301.918ZM205.275 301.918L205.594 301.533M205.275 301.918L205.594 301.533M205.594 301.533C204.81 300.884 204.006 300.234 203.195 299.577C200.333 297.261 197.374 294.866 194.826 292.202L217.844 310.531C213.53 307.875 209.486 304.752 205.594 301.533ZM180.787 299.555L180.787 299.555C181.504 299.095 182.225 298.639 182.945 298.184C185.456 296.597 187.966 295.011 190.335 293.208C190.801 293.398 191.296 293.52 191.805 293.563C193.108 297.313 194.679 300.994 196.236 304.64C196.885 306.161 197.532 307.676 198.155 309.187C199.051 311.361 199.893 313.633 200.75 315.944C201.15 317.024 201.553 318.113 201.967 319.204C203.209 322.481 204.536 325.76 206.122 328.811C206.106 328.827 206.09 328.843 206.074 328.86C198.53 325.645 191.301 321.346 184.586 316.065L184.586 316.065C181.949 313.992 179.461 311.779 177.115 309.453C178.688 307.222 178.826 304.224 177.458 301.853C178.551 301.058 179.652 300.283 180.787 299.555ZM168.218 299.114C164.726 294.332 161.761 289.231 159.366 283.883C159.474 283.798 159.58 283.71 159.683 283.62C160.33 283.117 160.892 282.498 161.335 281.823C162.428 282.187 163.522 282.561 164.617 282.935C167.272 283.842 169.94 284.753 172.655 285.547C176.319 286.618 180.178 287.112 183.99 287.599C184.87 287.712 185.748 287.824 186.621 287.943C186.718 288.998 187.109 290.041 187.711 290.882C183.187 293.112 178.334 295.774 174.111 298.901C172.231 298.13 170.062 298.188 168.218 299.114Z" stroke="#A0F0B8" stroke-opacity="0.4"/>
<path d="M306.585 177.829C302.136 175.432 297.542 173.15 292.767 171.377C293.382 169.629 292.766 167.929 291.636 166.76C292.455 165.342 293.153 163.765 293.744 162.427C293.997 161.856 294.23 161.328 294.445 160.876C294.548 160.66 294.655 160.437 294.764 160.209C295.622 158.421 296.643 156.292 297.326 154.122C299.143 157.275 301.342 160.322 303.478 163.281C304.511 164.713 305.53 166.125 306.483 167.518C307.446 168.926 308.403 170.356 309.366 171.794C312.249 176.103 315.179 180.48 318.455 184.517C315.554 182.551 312.362 180.875 309.298 179.266C308.379 178.783 307.47 178.306 306.585 177.829ZM306.585 177.829L306.348 178.269M306.585 177.829L306.348 178.269M306.348 178.269C307.244 178.752 308.159 179.232 309.083 179.718C312.342 181.43 315.712 183.2 318.732 185.315L292.575 171.839C297.325 173.601 301.902 175.873 306.348 178.269ZM331.063 175.359L331.063 175.36C330.449 175.951 329.832 176.539 329.214 177.126C327.062 179.173 324.91 181.22 322.94 183.451C322.446 183.355 321.936 183.333 321.429 183.39C319.418 179.966 317.157 176.664 314.918 173.393C313.984 172.028 313.054 170.669 312.147 169.308C310.843 167.352 309.573 165.288 308.282 163.189C307.678 162.208 307.07 161.219 306.451 160.23C304.592 157.259 302.649 154.303 300.498 151.62C300.511 151.602 300.523 151.583 300.536 151.563C308.562 153.241 316.493 156.045 324.11 159.911L324.11 159.911C327.101 161.429 329.974 163.112 332.729 164.935C331.623 167.43 332.074 170.398 333.878 172.455C332.962 173.449 332.033 174.424 331.063 175.359ZM343.476 173.336C347.835 177.342 351.74 181.766 355.134 186.542C355.044 186.647 354.958 186.753 354.875 186.863C354.338 187.482 353.909 188.199 353.606 188.947C352.462 188.804 351.317 188.651 350.169 188.498C347.389 188.128 344.594 187.756 341.776 187.508C337.973 187.174 334.093 187.444 330.259 187.711C329.373 187.773 328.49 187.834 327.611 187.888C327.31 186.873 326.723 185.926 325.968 185.219C329.969 182.148 334.207 178.589 337.738 174.696C339.732 175.085 341.848 174.604 343.476 173.336Z" stroke="#A0F0B8" stroke-opacity="0.4"/>
<path d="M65.3472 183.303C60.2939 183.241 55.1653 183.349 50.1122 183.993C49.8475 182.159 48.5128 180.938 46.9695 180.426C47.0383 178.79 46.925 177.069 46.8289 175.61C46.7878 174.987 46.7499 174.411 46.7307 173.91C46.7217 173.671 46.7131 173.425 46.7043 173.172C46.635 171.19 46.5526 168.83 46.1516 166.591C49.2236 168.541 52.5848 170.222 55.849 171.854C57.4287 172.644 58.9857 173.422 60.4763 174.214C61.9822 175.015 63.4934 175.838 65.0126 176.666C69.5656 179.147 74.1907 181.668 78.9654 183.725C75.4833 183.329 71.8784 183.323 68.4175 183.318C67.3787 183.316 66.3529 183.315 65.3472 183.303ZM65.3472 183.303L65.3411 183.803M65.3472 183.303L65.3411 183.803M65.3411 183.803C66.3586 183.815 67.3923 183.817 68.4361 183.818C72.1179 183.824 75.9246 183.83 79.5804 184.303L50.1567 184.491C55.1822 183.85 60.2909 183.741 65.3411 183.803ZM85.8903 169.766L85.8902 169.766C85.6211 170.575 85.3462 171.382 85.0714 172.188C84.1136 175 83.1559 177.811 82.4446 180.701C81.9624 180.845 81.5007 181.061 81.0775 181.348C77.7081 179.247 74.1745 177.369 70.6739 175.508C69.2136 174.732 67.759 173.959 66.3246 173.174C64.2627 172.046 62.1802 170.806 60.063 169.545C59.073 168.955 58.0755 168.361 57.0689 167.772C54.0441 166.001 50.9525 164.282 47.8026 162.903C47.8052 162.881 47.8075 162.858 47.8095 162.836C55.6992 160.6 64.0254 159.408 72.5669 159.302L72.567 159.302C75.9212 159.259 79.2469 159.42 82.5332 159.757C82.71 162.481 84.4852 164.901 87.0383 165.887C86.6868 167.192 86.3166 168.487 85.8903 169.766ZM95.9501 162.218C101.67 163.747 107.181 165.855 112.403 168.514C112.372 168.648 112.345 168.782 112.322 168.917C112.133 169.715 112.085 170.549 112.163 171.353C111.084 171.756 109.998 172.152 108.911 172.548C106.276 173.509 103.626 174.475 101.015 175.563C97.4905 177.029 94.1776 179.068 90.9046 181.082C90.1486 181.547 89.3948 182.011 88.641 182.467C87.9032 181.707 86.9443 181.14 85.9473 180.864C88.0683 176.288 90.1737 171.169 91.4971 166.083C93.4439 165.503 95.0962 164.096 95.9501 162.218Z" stroke="#A0F0B8" stroke-opacity="0.4"/>
<path d="M105.748 243.282L105.749 243.282C106.538 243.604 107.324 243.932 108.111 244.261C110.852 245.404 113.593 246.547 116.429 247.45C116.541 247.94 116.726 248.415 116.984 248.857C114.663 252.078 112.553 255.479 110.463 258.847C109.591 260.253 108.723 261.652 107.844 263.031C106.58 265.013 105.204 267.008 103.804 269.037C103.15 269.985 102.491 270.941 101.836 271.906C99.867 274.806 97.9458 277.776 96.3593 280.826C96.3373 280.822 96.3149 280.819 96.2923 280.815C94.5886 272.794 93.9544 264.407 94.4189 255.877L94.4189 255.877C94.6003 252.527 94.9822 249.22 95.5379 245.963C98.2674 245.969 100.801 244.359 101.956 241.877C103.234 242.315 104.501 242.771 105.748 243.282ZM98.8887 232.741C100.796 227.136 103.268 221.777 106.269 216.745C106.4 216.785 106.533 216.821 106.666 216.853C107.45 217.094 108.279 217.198 109.086 217.173C109.416 218.277 109.738 219.387 110.062 220.498C110.844 223.192 111.631 225.899 112.542 228.578C113.77 232.192 115.583 235.634 117.375 239.034C117.788 239.819 118.201 240.602 118.605 241.385C117.797 242.07 117.168 242.989 116.825 243.966C112.401 241.544 107.435 239.102 102.449 237.442C102 235.46 100.706 233.718 98.8887 232.741Z" stroke="#A0F0B8" stroke-opacity="0.4"/>
<path d="M244.746 292.455L244.745 292.455C244.392 291.679 244.044 290.901 243.696 290.123C242.484 287.411 241.273 284.7 239.826 282.099C240.081 281.665 240.273 281.192 240.387 280.694C244.286 279.94 248.153 278.91 251.984 277.891C253.582 277.465 255.174 277.041 256.759 276.64C259.038 276.063 261.407 275.554 263.817 275.037C264.943 274.795 266.078 274.551 267.217 274.298C270.638 273.536 274.073 272.691 277.319 271.557C277.332 271.575 277.346 271.593 277.36 271.611C273.102 278.619 267.814 285.16 261.628 291.052L261.628 291.052C259.2 293.366 256.655 295.512 254.018 297.502C252.034 295.627 249.086 295.063 246.544 296.078C245.914 294.882 245.303 293.682 244.746 292.455ZM242.514 304.832C237.283 307.605 231.81 309.812 226.175 311.418C226.107 311.299 226.035 311.182 225.96 311.068C225.554 310.355 225.022 309.711 224.418 309.176C224.934 308.146 225.46 307.117 225.987 306.086C227.263 303.588 228.546 301.077 229.719 298.503C231.303 295.03 232.342 291.281 233.369 287.578C233.606 286.722 233.843 285.869 234.085 285.023C235.143 285.077 236.231 284.84 237.15 284.364C238.711 289.16 240.652 294.343 243.145 298.969C242.113 300.719 241.861 302.875 242.514 304.832Z" stroke="#A0F0B8" stroke-opacity="0.4"/>
<path d="M311.729 258.026L311.729 258.026C310.946 258.363 310.16 258.694 309.375 259.025C306.638 260.179 303.902 261.333 301.271 262.724C300.842 262.46 300.374 262.258 299.878 262.133C299.207 258.219 298.26 254.331 297.322 250.48C296.93 248.873 296.541 247.272 296.173 245.679C295.645 243.389 295.186 241.009 294.72 238.589C294.502 237.458 294.282 236.317 294.053 235.174C293.364 231.737 292.592 228.285 291.528 225.016C291.546 225.003 291.565 224.989 291.583 224.976C298.499 229.382 304.926 234.808 310.685 241.117L310.685 241.117C312.947 243.594 315.039 246.184 316.972 248.863C315.056 250.806 314.428 253.742 315.389 256.304C314.181 256.91 312.967 257.494 311.729 258.026Z" stroke="#A0F0B8" stroke-opacity="0.4"/>
<path d="M261.456 81.3171L261.456 81.3174C261.708 82.1317 261.954 82.9479 262.2 83.764C263.056 86.6078 263.913 89.4513 265.016 92.2158C264.708 92.6137 264.458 93.0583 264.281 93.5376C260.318 93.7888 256.351 94.3172 252.421 94.8406C250.782 95.059 249.149 95.2765 247.526 95.4726C245.192 95.7542 242.777 95.9572 240.321 96.1635C239.173 96.26 238.016 96.3572 236.855 96.4635C233.365 96.7831 229.85 97.1839 226.486 97.8946C226.475 97.8751 226.464 97.8553 226.452 97.8356C231.569 91.4275 237.647 85.6134 244.532 80.558L244.532 80.5579C247.236 78.5719 250.034 76.7673 252.903 75.1296C254.631 77.2421 257.483 78.1779 260.134 77.4949C260.607 78.7607 261.059 80.0293 261.456 81.3171Z" stroke="#A0F0B8" stroke-opacity="0.4"/>
<path d="M303.593 270.054L303.593 270.054C304.396 270.339 305.198 270.63 305.999 270.921C308.791 271.934 311.582 272.947 314.458 273.715C314.592 274.2 314.8 274.666 315.078 275.095C312.91 278.422 310.963 281.918 309.033 285.381C308.229 286.826 307.427 288.265 306.614 289.683C305.444 291.722 304.163 293.78 302.861 295.872C302.252 296.85 301.638 297.836 301.029 298.83C299.199 301.819 297.42 304.877 295.978 307.998C295.956 307.995 295.933 307.993 295.911 307.99C293.832 300.058 292.804 291.71 292.868 283.168L292.868 283.168C292.891 279.813 293.117 276.491 293.519 273.212C296.246 273.09 298.701 271.363 299.738 268.83C301.036 269.207 302.323 269.602 303.593 270.054Z" stroke="#A0F0B8" stroke-opacity="0.4"/>
<path d="M169.989 76.2802C173.862 73.0336 177.682 69.6095 181.095 65.8284C182.491 67.0472 184.299 67.103 185.803 66.4856C186.818 67.7717 188.025 69.0028 189.048 70.0469C189.486 70.4929 189.89 70.9048 190.231 71.2722C190.394 71.4478 190.561 71.6291 190.732 71.8149C192.076 73.2733 193.677 75.0096 195.44 76.4466C191.839 76.9691 188.194 77.8849 184.655 78.7742C182.942 79.2046 181.254 79.6289 179.607 79.9993C177.943 80.3736 176.26 80.7338 174.568 81.0959C169.498 82.1811 164.347 83.2835 159.385 84.8346C162.284 82.866 165.022 80.5209 167.651 78.2695C168.44 77.5937 169.219 76.9264 169.989 76.2802ZM169.989 76.2802L169.668 75.897M169.989 76.2802L169.668 75.897M169.668 75.897C168.889 76.5508 168.103 77.2232 167.311 77.9022C164.514 80.2972 161.623 82.7735 158.542 84.7967L180.737 65.4794C177.343 69.2408 173.539 72.6523 169.668 75.897ZM163.23 99.9355L163.229 99.9352C162.906 99.1464 162.589 98.3553 162.272 97.5643C161.166 94.8077 160.061 92.0515 158.717 89.3957C158.988 88.9721 159.198 88.5071 159.332 88.0139C163.257 87.4119 167.161 86.5336 171.029 85.6635C172.642 85.3005 174.249 84.9389 175.849 84.5995C178.148 84.1119 180.536 83.6954 182.963 83.2719C184.098 83.0739 185.242 82.8744 186.39 82.6654C189.838 82.0373 193.303 81.3261 196.591 80.3196C196.603 80.3382 196.616 80.3568 196.63 80.3754C192.102 87.2124 186.564 93.543 180.154 99.1896L180.154 99.1897C177.638 101.408 175.011 103.454 172.299 105.339C170.389 103.389 167.466 102.71 164.886 103.625C164.302 102.406 163.739 101.183 163.23 99.9355ZM160.518 112.216C155.184 114.784 149.629 116.776 143.936 118.163C143.872 118.041 143.805 117.921 143.734 117.804C143.357 117.076 142.85 116.412 142.267 115.853C142.823 114.844 143.389 113.837 143.955 112.827C145.328 110.381 146.708 107.922 147.98 105.395C149.697 101.986 150.881 98.2804 152.051 94.6197C152.322 93.7742 152.591 92.9311 152.866 92.0945C153.921 92.1902 155.017 91.9948 155.954 91.555C157.327 96.4081 159.066 101.662 161.377 106.382C160.278 108.091 159.942 110.235 160.518 112.216Z" stroke="#A0F0B8" stroke-opacity="0.4"/>
<defs>
<filter id="filter0_d" x="58.7222" y="49.963" width="287.042" height="287.042" filterUnits="userSpaceOnUse" color-interpolation-filters="sRGB">
<feFlood flood-opacity="0" result="BackgroundImageFix"/>
<feColorMatrix in="SourceAlpha" type="matrix" values="0 0 0 0 0 0 0 0 0 0 0 0 0 0 0 0 0 0 127 0"/>
<feOffset/>
<feGaussianBlur stdDeviation="6"/>
<feColorMatrix type="matrix" values="0 0 0 0 1 0 0 0 0 1 0 0 0 0 1 0 0 0 0.78 0"/>
<feBlend mode="normal" in2="BackgroundImageFix" result="effect1_dropShadow"/>
<feBlend mode="normal" in="SourceGraphic" in2="effect1_dropShadow" result="shape"/>
</filter>
<clipPath id="clip0">
<rect width="186" height="186" fill="white" transform="translate(202.753 325.005) rotate(-135.222)"/>
</clipPath>
</defs>
</svg>
