<svg viewBox="0 0 395 384" fill="none" xmlns="http://www.w3.org/2000/svg" >
<g clip-path="url(#clip0)" filter="url(#filter0_d)">
<mask id="path-1-inside-1" fill="white">
<path d="M288.437 150.471C282.318 139.458 274.004 129.609 264.178 121.746C264.503 120.651 264.456 119.44 263.925 118.352C262.796 116.042 259.927 115.057 257.617 116.185C257.401 116.291 257.209 116.425 257.018 116.56C249.625 111.717 241.572 107.944 233.074 105.572C229.959 104.702 226.78 104.086 223.572 103.653C223.474 103.163 223.335 102.68 223.113 102.227C221.424 98.7695 216.775 97.8527 213.889 100.391C213.193 101.003 212.413 101.996 212.067 102.949C198.726 103.087 185.231 106.327 173.113 111.406C172.48 110.984 171.739 110.73 170.961 110.63C168.637 110.035 166.062 111.65 165.309 113.845C165.159 114.279 165.097 114.732 165.074 115.185C150.302 123.055 138.411 135.17 130.991 149.855C129.299 149.091 127.304 149.02 125.538 149.883C122.395 151.418 121.053 155.322 122.59 158.467C123.345 160.013 124.674 161.116 126.202 161.662C125.918 162.568 125.638 163.476 125.385 164.395C120.727 179.126 120.369 195.237 123.746 210.598C123.402 210.704 123.058 210.813 122.704 210.986C115.737 214.39 120.444 224.814 127.228 222.702C133.091 238.983 143.278 253.627 157.036 263.771C155.62 268.405 160.215 274.436 165.878 271.669C166.629 271.303 167.213 270.84 167.708 270.336C167.926 270.446 168.133 270.571 168.351 270.679C177.922 275.377 188.421 278.195 199.15 279.246C200.339 282.233 203.567 284.444 207.295 282.623C208.755 281.909 209.657 280.867 210.148 279.706C219.574 279.577 228.99 278.119 237.946 275.393C239.432 277.652 242.216 279.011 245.355 277.477C248.045 276.163 248.895 273.748 248.542 271.473C250.836 270.463 253.086 269.372 255.275 268.183C266.338 262.175 275.677 253.763 282.915 243.817C284.46 244.544 286.334 244.635 288.338 243.656C293.162 241.299 292.671 235.732 289.738 232.829C294.348 224.023 297.5 214.416 298.995 204.46C299.549 200.771 299.807 197.077 299.829 193.393C299.897 193.363 299.969 193.346 300.037 193.313C301.079 192.799 301.925 192.06 302.572 191.096C303.157 190.216 303.605 189.005 303.681 187.837C303.795 187.082 303.768 186.264 303.595 185.48C303.493 184.931 303.321 184.404 303.108 183.968C302.355 182.428 300.885 181.325 299.215 181.01C299.125 180.987 299.033 180.982 298.942 180.965C297.957 174.359 296.184 167.879 293.722 161.644C295.714 159.725 296.389 156.649 295.123 154.057C293.879 151.514 291.124 150.157 288.437 150.471ZM258.542 124.957C258.755 130.597 259.992 136.423 260.724 141.894C261.664 148.918 262.326 156.171 263.91 163.136C263.648 163.188 263.397 163.269 263.151 163.366C260.913 159.198 257.903 155.276 255.266 151.499C252.28 147.22 249.11 142.997 245.521 139.188C247.142 137.965 247.357 136.016 246.71 134.39C248.759 133.105 250.722 131.334 252.165 130.214C254.047 128.755 256.459 126.968 258.311 124.902C258.386 124.926 258.465 124.938 258.542 124.957ZM292.289 191.663C290.328 193.379 288.41 195.151 286.464 196.903C281.112 201.719 275.264 206.002 269.911 210.787C269.544 210.553 269.156 210.357 268.742 210.22C268.999 203.858 269.056 197.468 269.293 191.111C269.509 185.301 270.101 178.319 268.573 172.394C271.834 174.482 275.685 175.886 278.997 177.646C283.222 179.894 286.93 183.258 291.001 185.845C290.475 187.842 290.924 190.038 292.289 191.663ZM263.005 218.019C251.104 227.244 243.44 241.593 230.87 250.335C230.782 250.253 230.703 250.159 230.61 250.084C233.516 244.256 234.412 237.178 235.288 230.914C236.298 223.707 237.76 216.176 238.479 208.808C238.584 208.765 238.693 208.741 238.796 208.691C240.36 207.926 241.271 206.324 241.299 204.67C245.291 205.569 249.288 207.612 252.901 208.856C255.959 209.91 259.192 211.82 262.5 213.032C261.924 214.364 261.882 215.919 262.557 217.3C262.685 217.559 262.842 217.791 263.005 218.019ZM177.659 247.231C177.619 247.311 177.583 247.394 177.548 247.477C170.196 242.02 162.09 237.322 154.529 232.287C147.021 227.289 139.378 222.502 131.578 217.978C131.677 217.35 131.693 216.713 131.6 216.08C136.939 215.769 142.273 215.358 147.615 215.119C151.341 214.953 155.119 214.836 158.807 214.261C159.681 216.44 161.717 218.159 164.234 217.988C167.853 227.797 171.715 238.763 177.659 247.231ZM147.095 180.681C154.584 176.096 162.004 169.658 167.67 162.735C168.059 162.864 168.46 162.923 168.863 162.945C168.074 170.102 167.889 177.354 166.701 184.503C165.478 191.858 164.604 199.239 163.573 206.611C163.073 206.647 162.552 206.775 162.022 206.972C156.209 200.708 151.821 193.169 145.831 187.176C147.59 185.59 148.208 182.947 147.126 180.732C147.117 180.713 147.104 180.7 147.095 180.681ZM202.872 197.134C204.222 189.148 206.224 181.406 208.097 173.593C209.015 173.743 209.98 173.634 210.865 173.201C210.904 173.182 210.937 173.153 210.975 173.132C213.846 177.856 218.581 182.336 221.686 186.485C225.34 191.367 228.83 197.384 233.12 202.09C232.439 203.096 232.167 204.348 232.414 205.559C226.942 206.695 221.568 209.05 216.326 210.693C211.272 212.278 205.942 213.332 200.981 215.222C200.617 214.945 200.211 214.72 199.764 214.554C201.374 208.912 201.938 202.655 202.872 197.134ZM197.147 214.362C195.912 214.612 194.777 215.321 194.055 216.409C193.771 216.837 193.569 217.304 193.436 217.785C189.159 216.465 184.664 215.569 180.431 214.261C176.801 213.139 173.168 212.205 169.456 211.887C169.355 211.099 169.086 210.335 168.704 209.633C175.763 204.125 181.846 197.165 187.818 190.606C193.339 184.547 200.139 178.496 205.047 171.713C205.16 171.87 205.287 172.009 205.418 172.15C203.272 178.666 202.169 185.678 200.959 192.329C199.684 199.327 197.741 207.015 197.147 214.362ZM223.862 184.562C220.774 180.677 217.087 174.88 212.683 171.562C213.208 170.753 213.491 169.799 213.459 168.828C222.282 169.735 231.222 170.295 240.057 171.2C245.934 171.802 253.492 172.533 260.021 171.626C260.196 171.869 260.39 172.089 260.597 172.291C255.912 177.131 252.296 183.147 248.128 188.34C244.803 192.486 240.872 195.954 238.147 200.345C237.46 200.131 236.727 200.087 236.004 200.214C232.62 194.654 227.73 189.423 223.862 184.562ZM238.9 168.284C231.597 167.585 223.651 165.669 216.142 166.319C220.203 163.029 223.975 159.233 227.625 155.686C232.438 151.008 237.678 145.663 241.508 139.864C242.227 140.145 243.042 140.216 243.914 139.976C246.902 144.348 250.026 148.632 252.962 153.039C255.544 156.917 257.733 161.186 260.347 165.089C259.534 166.025 259.094 167.232 259.064 168.464C252.353 168.403 245.573 168.924 238.9 168.284ZM239.305 137.855C234.681 142.969 230.485 148.501 225.646 153.447C221.427 157.757 216.673 161.759 212.497 166.168C212.273 165.883 212.013 165.638 211.733 165.417C212.569 162.108 212.892 158.606 213.374 155.3C214.111 150.241 214.711 145.161 215.346 140.088C217.223 139.105 218.157 136.926 217.659 134.925C221.239 135.117 224.831 135.194 228.409 135.264C231.777 135.33 235.28 135.801 238.723 135.888C238.768 136.573 238.97 137.246 239.305 137.855ZM211.058 151.345C210.216 155.482 209.097 159.989 208.505 164.386C207.919 164.421 207.332 164.564 206.779 164.834C206.429 165.005 206.122 165.228 205.837 165.47C199.876 163.4 193.323 162.154 187.372 160.406C182.84 159.075 178.309 158.005 173.672 157.751C173.666 157.668 173.669 157.591 173.663 157.507C173.642 157.246 173.622 156.986 173.602 156.725C173.577 156.411 173.495 156.096 173.369 155.79C179.548 153.56 185.522 150.418 191.447 147.713C197.597 144.906 203.832 142.227 209.763 138.982C210.715 140.094 212.156 140.687 213.602 140.583C212.56 144.118 211.796 147.71 211.058 151.345ZM190.515 164.35C194.886 165.675 199.584 167.52 204.275 168.181C204.233 168.405 204.213 168.63 204.203 168.858C197.225 174.086 191.632 182.058 185.881 188.416C179.844 195.091 173.219 201.172 166.964 207.609C166.581 207.326 166.164 207.096 165.716 206.923C167.468 200.46 168.099 193.647 169.263 187.083C170.679 179.099 172.564 170.213 172.059 161.913C172.403 161.63 172.708 161.302 172.966 160.919C173.183 160.595 173.325 160.27 173.438 159.94C179.185 161.19 184.865 162.637 190.515 164.35ZM173.124 232.567C170.796 227.543 168.537 222.473 165.985 217.557C166.128 217.499 166.267 217.469 166.411 217.399C167.898 216.672 168.769 215.582 169.189 214.376C173.721 215.359 178.159 216.679 182.609 218.061C186.14 219.156 189.825 220.5 193.543 220.716C193.744 221.289 194.04 221.833 194.456 222.305C194.704 222.588 194.985 222.817 195.275 223.024C192.761 226.191 190.251 229.457 188.209 232.869C185.991 236.572 184.547 240.662 182.63 244.528C181.713 244.414 180.76 244.544 179.883 244.972C179.792 245.017 179.718 245.08 179.631 245.129C177.49 240.937 175.101 236.836 173.124 232.567ZM190.012 236.076C192.236 231.769 196.196 228.279 198.187 223.899C198.871 223.881 199.561 223.741 200.217 223.449C200.225 223.445 200.234 223.441 200.243 223.438C200.554 223.301 200.838 223.109 201.105 222.898C208.711 231.949 216.13 241.448 224.232 249.981C223.813 250.262 223.425 250.622 223.095 251.031C217.018 250.203 210.863 249.657 204.81 248.874C199.263 248.155 192.479 246.616 186.463 247.186C186.098 246.468 185.566 245.89 184.944 245.444C186.918 242.519 188.357 239.277 190.012 236.076ZM202.226 221.616C202.839 220.6 203.111 219.368 202.859 218.23C202.856 218.221 202.854 218.211 202.854 218.203C202.781 217.876 202.672 217.561 202.543 217.258C207.421 216.706 212.224 215.154 216.907 213.791C222.448 212.18 228.609 210.717 233.877 208.049C234.257 208.371 234.691 208.615 235.149 208.796C233.871 214.6 233.721 220.936 233.037 226.575C232.104 234.283 230.567 241.688 228.808 249.172C228.495 249.096 228.17 249.051 227.834 249.053C227.13 249.058 226.675 249.08 226.21 249.18C219.497 239.394 211.383 229.356 202.226 221.616ZM250.519 205.214C248.142 204.41 244.128 202.59 240.7 202.372C240.485 202.004 240.226 201.673 239.925 201.388C243.296 197.439 247.057 193.809 250.464 189.895C254.908 184.79 259.324 179.194 263.466 173.684C264.051 173.775 264.66 173.786 265.276 173.708C265.375 173.694 265.472 173.664 265.57 173.644C265.803 180.104 266.505 186.545 266.246 193.09C266.025 198.663 265.696 204.455 266.731 209.979C266.183 210.021 265.641 210.157 265.118 210.384C260.269 208.602 255.386 206.857 250.519 205.214ZM223.118 107.393C234.599 109.009 245.407 113.18 255.121 119.414C254.893 120.426 254.97 121.507 255.452 122.493C255.533 122.659 255.641 122.802 255.739 122.954C253.993 124.752 252.311 126.66 250.458 128.282C249.005 129.552 246.877 130.826 245.064 132.259C243.985 131.51 242.558 131.277 241.015 132.031C240.879 132.097 240.773 132.181 240.65 132.256C236.39 127.833 233.067 123.092 229.602 117.842C227.393 114.497 225.178 111.295 222.364 108.597C222.662 108.215 222.917 107.806 223.118 107.393ZM216.499 111.154C217.699 111.328 218.955 111.163 219.983 110.661C220.296 110.508 220.592 110.312 220.876 110.094C226.029 117.099 229.832 126.634 236.256 132.346C233.681 132.253 231.082 132.35 228.63 132.323C224.605 132.28 220.532 132.474 216.51 132.899C215.826 132.198 214.944 131.733 213.992 131.568C214.09 129.501 214.142 127.43 214.36 125.434C214.881 120.635 215.542 115.872 216.499 111.154ZM175.133 114.464C175.124 114.411 175.1 114.365 175.09 114.312C182.898 111.18 191.139 109.047 199.361 107.699C203.553 107.011 207.699 106.672 211.782 106.643C212.029 107.708 212.464 108.388 213.147 109.302C213.617 109.932 214.259 110.386 214.971 110.706C213.71 114.873 212.676 119.1 211.806 123.379C211.398 125.385 210.97 127.583 210.701 129.815C206.331 126.935 201.007 125.063 196.328 123.245C189.353 120.539 182.246 118.188 175.177 115.74C175.212 115.312 175.212 114.885 175.133 114.464ZM172.517 119.669C173.296 119.285 173.926 118.734 174.41 118.014C174.451 117.953 174.475 117.884 174.513 117.82C179.886 120.497 185.474 122.596 191.145 124.672C197.547 127.014 203.61 130.407 209.899 132.954C208.985 133.954 208.562 135.327 208.739 136.675C202.464 139.275 196.388 142.359 190.239 145.242C184.226 148.064 177.827 150.611 172.058 153.999C171.872 153.832 171.685 153.665 171.494 153.539C171.333 153.431 171.165 153.339 170.994 153.252C171.944 148.04 172.001 142.505 172.132 137.351C172.272 131.889 172.411 125.726 171.078 120.213C171.577 120.124 172.058 119.961 172.517 119.669ZM155.568 125.261C158.892 122.704 162.43 120.461 166.118 118.484C166.786 119.322 167.743 119.995 168.777 120.234C168.814 125.852 169.476 131.502 169.265 137.141C169.074 142.311 168.192 147.578 168.011 152.789C167.53 152.862 167.057 153 166.611 153.218C166.007 153.513 165.48 153.932 165.048 154.434C159.773 153.307 154.43 152.399 149.123 151.634C143.923 150.882 138.587 150.625 133.705 152.163C133.586 151.983 133.475 151.8 133.341 151.634C138.852 141.509 146.068 132.567 155.568 125.261ZM134.628 154.458C140.02 153.8 145.461 154.158 150.904 154.914C155.233 155.514 159.54 156.607 163.883 157.205C163.767 158.533 164.124 160.013 165.083 160.887C165.181 160.978 165.28 161.068 165.379 161.159C158.817 167.008 152.582 173.394 146.11 179.346C144.85 178.072 143.021 177.483 141.25 177.795C140.186 175.817 138.953 173.907 137.822 172.01C135.684 168.422 133.616 164.797 131.69 161.093C133.955 159.696 135.095 157.019 134.628 154.458ZM159.533 208.636C158.853 209.437 158.498 210.371 158.387 211.335C154.041 211.622 149.691 212.075 145.356 212.283C140.45 212.517 135.514 212.654 130.701 213.543C130.441 213.09 130.137 212.667 129.787 212.285C135.063 205.225 139.504 196.736 142.343 188.545C142.817 188.539 143.291 188.473 143.758 188.339C148.817 195.142 153.247 203.082 159.533 208.636ZM126.35 167.469C126.999 165.63 127.681 163.815 128.409 162.03C128.904 162.031 129.399 161.989 129.889 161.871C131.245 165.064 132.804 168.147 134.461 171.237C135.823 173.781 137.121 176.515 138.599 179.103C136.864 180.692 136.259 183.315 137.334 185.516C137.835 186.54 138.633 187.332 139.576 187.855C135.85 195.668 132.848 203.739 128.249 211.061C127.808 210.81 127.341 210.613 126.842 210.487C123.417 196.456 123.083 181.486 126.35 167.469ZM160.251 260.152C159.92 260.314 159.644 260.509 159.363 260.699C148.35 252.627 139.321 241.599 132.958 227.975C131.896 225.703 130.933 223.373 130.054 221C130.332 220.714 130.573 220.413 130.775 220.096C138.114 225.031 145.465 229.947 152.901 234.734C160.877 239.871 168.776 245.744 177.207 250.254C177.282 250.708 177.398 251.159 177.61 251.592C177.615 251.603 177.623 251.613 177.628 251.623C175.898 252.978 174.21 254.393 172.473 255.697C170.438 257.227 168.289 258.762 166.325 260.475C164.702 259.362 162.565 259.022 160.251 260.152ZM198.761 275.791C188.149 274.599 178.247 271.586 169.321 266.908C169.465 265.446 169.086 263.948 168.326 262.668C169.865 261.474 171.395 260.264 172.957 259.123C175.295 257.414 177.836 255.798 180.122 253.93C181.405 254.476 182.9 254.513 184.229 253.864C184.594 253.686 184.916 253.454 185.216 253.202C188.46 256.966 191.828 260.631 194.957 264.513C196.984 267.028 198.933 269.745 201.096 272.234C199.734 273.172 198.999 274.437 198.761 275.791ZM204.154 271.092C201.369 267.69 198.305 264.446 195.525 261.123C192.812 257.882 189.864 254.364 186.357 251.821C186.679 251.236 186.878 250.588 186.949 249.923C193.406 250.349 199.855 251.295 206.246 252.167C211.056 252.824 216.616 254.225 221.922 254.598C221.951 255.604 222.246 256.565 222.781 257.387C220.463 259.633 218.395 262.351 216.092 264.478C213.347 267.016 210.492 269.461 207.883 272.139C206.844 271.372 205.567 270.962 204.154 271.092ZM236.842 272.254C228.636 274.771 220.031 276.171 211.33 276.353C211.043 276.358 210.761 276.353 210.475 276.357C210.296 275.393 209.919 274.457 209.356 273.651C212.854 271.218 216.131 268.427 219.287 265.595C221.26 263.826 223.734 261.786 225.427 259.432C226.592 259.818 227.855 259.761 228.99 259.307C230.408 261.248 231.954 263.096 233.564 264.861C234.742 266.154 236.054 267.655 237.474 269.092C236.936 270.07 236.748 271.166 236.842 272.254ZM244.939 266.515C243.549 265.875 241.872 265.798 240.078 266.675C240.02 266.703 239.98 266.741 239.924 266.77C236.808 263.988 233.601 261.307 230.71 258.281C231.792 257.362 232.515 255.968 232.617 254.606C232.685 253.695 232.459 252.755 232.035 251.907C238.73 247.789 244.209 242.41 249.544 236.555C253.653 232.045 257.799 227.749 262.079 223.541C259.243 229.22 257.189 235.52 255.067 241.147C251.868 249.63 248.11 258.006 244.939 266.515ZM280.6 241.985C271.951 253.607 260.339 262.534 247.215 268.376C247.105 268.231 246.985 268.094 246.863 267.959C250.778 261.253 253.31 253.546 256.013 246.4C259.357 237.566 263.741 228.952 267.116 220.135C267.888 220.147 268.666 220.006 269.397 219.649C269.624 219.538 269.824 219.396 270.028 219.256C272.602 221.983 275.02 226.374 276.463 228.332C277.622 229.904 278.777 231.84 280.013 233.756C278.196 236.258 278.732 239.704 280.6 241.985ZM288.912 228.016C288.398 229.13 287.853 230.221 287.292 231.3C286.006 230.868 284.53 230.876 282.966 231.52C280.94 229.032 278.75 226.642 276.941 224.368C275.666 222.764 273.649 219.842 271.355 217.904C272.338 216.43 272.566 214.49 271.746 212.811C271.61 212.533 271.445 212.282 271.268 212.042C276.17 209.703 280.495 206.075 284.599 202.587C288.076 199.633 291.575 196.637 294.982 193.554C295.48 193.736 296.003 193.839 296.532 193.896C296.451 205.458 293.961 217.067 288.912 228.016ZM295.654 181.18C295.405 181.265 295.165 181.366 294.929 181.481C294.098 181.82 293.331 182.335 292.702 182.949C289.3 180.672 285.976 178.297 282.475 176.127C278.405 173.605 273.802 171.89 269.343 169.958C269.665 168.73 269.524 167.345 268.989 166.249C268.976 166.223 268.957 166.203 268.945 166.178C268.942 166.173 268.941 166.169 268.94 166.165C274.143 165.199 279.852 163.881 284.992 161.874C286.615 163.247 288.858 163.786 290.951 163.228C293.18 169.056 294.757 175.072 295.654 181.18ZM283.076 159.01C281.663 159.544 280.241 160.061 278.791 160.508C275.024 161.675 271.275 162.702 267.659 164.172C267.222 163.789 266.714 163.489 266.157 163.298C266.086 163.274 266.018 163.266 265.948 163.244C265.606 157.531 264.67 151.827 263.983 146.169C263.15 139.302 262.991 131.679 261.467 124.764C261.562 124.724 261.662 124.703 261.758 124.656C261.892 124.591 262.008 124.5 262.134 124.423C268.692 129.61 274.637 135.793 279.795 142.81C281.882 145.647 283.77 148.588 285.476 151.605C283.161 153.261 282.171 156.299 283.076 159.01Z"/>
</mask>
<path d="M288.437 150.471C282.318 139.458 274.004 129.609 264.178 121.746C264.503 120.651 264.456 119.44 263.925 118.352C262.796 116.042 259.927 115.057 257.617 116.185C257.401 116.291 257.209 116.425 257.018 116.56C249.625 111.717 241.572 107.944 233.074 105.572C229.959 104.702 226.78 104.086 223.572 103.653C223.474 103.163 223.335 102.68 223.113 102.227C221.424 98.7695 216.775 97.8527 213.889 100.391C213.193 101.003 212.413 101.996 212.067 102.949C198.726 103.087 185.231 106.327 173.113 111.406C172.48 110.984 171.739 110.73 170.961 110.63C168.637 110.035 166.062 111.65 165.309 113.845C165.159 114.279 165.097 114.732 165.074 115.185C150.302 123.055 138.411 135.17 130.991 149.855C129.299 149.091 127.304 149.02 125.538 149.883C122.395 151.418 121.053 155.322 122.59 158.467C123.345 160.013 124.674 161.116 126.202 161.662C125.918 162.568 125.638 163.476 125.385 164.395C120.727 179.126 120.369 195.237 123.746 210.598C123.402 210.704 123.058 210.813 122.704 210.986C115.737 214.39 120.444 224.814 127.228 222.702C133.091 238.983 143.278 253.627 157.036 263.771C155.62 268.405 160.215 274.436 165.878 271.669C166.629 271.303 167.213 270.84 167.708 270.336C167.926 270.446 168.133 270.571 168.351 270.679C177.922 275.377 188.421 278.195 199.15 279.246C200.339 282.233 203.567 284.444 207.295 282.623C208.755 281.909 209.657 280.867 210.148 279.706C219.574 279.577 228.99 278.119 237.946 275.393C239.432 277.652 242.216 279.011 245.355 277.477C248.045 276.163 248.895 273.748 248.542 271.473C250.836 270.463 253.086 269.372 255.275 268.183C266.338 262.175 275.677 253.763 282.915 243.817C284.46 244.544 286.334 244.635 288.338 243.656C293.162 241.299 292.671 235.732 289.738 232.829C294.348 224.023 297.5 214.416 298.995 204.46C299.549 200.771 299.807 197.077 299.829 193.393C299.897 193.363 299.969 193.346 300.037 193.313C301.079 192.799 301.925 192.06 302.572 191.096C303.157 190.216 303.605 189.005 303.681 187.837C303.795 187.082 303.768 186.264 303.595 185.48C303.493 184.931 303.321 184.404 303.108 183.968C302.355 182.428 300.885 181.325 299.215 181.01C299.125 180.987 299.033 180.982 298.942 180.965C297.957 174.359 296.184 167.879 293.722 161.644C295.714 159.725 296.389 156.649 295.123 154.057C293.879 151.514 291.124 150.157 288.437 150.471ZM258.542 124.957C258.755 130.597 259.992 136.423 260.724 141.894C261.664 148.918 262.326 156.171 263.91 163.136C263.648 163.188 263.397 163.269 263.151 163.366C260.913 159.198 257.903 155.276 255.266 151.499C252.28 147.22 249.11 142.997 245.521 139.188C247.142 137.965 247.357 136.016 246.71 134.39C248.759 133.105 250.722 131.334 252.165 130.214C254.047 128.755 256.459 126.968 258.311 124.902C258.386 124.926 258.465 124.938 258.542 124.957ZM292.289 191.663C290.328 193.379 288.41 195.151 286.464 196.903C281.112 201.719 275.264 206.002 269.911 210.787C269.544 210.553 269.156 210.357 268.742 210.22C268.999 203.858 269.056 197.468 269.293 191.111C269.509 185.301 270.101 178.319 268.573 172.394C271.834 174.482 275.685 175.886 278.997 177.646C283.222 179.894 286.93 183.258 291.001 185.845C290.475 187.842 290.924 190.038 292.289 191.663ZM263.005 218.019C251.104 227.244 243.44 241.593 230.87 250.335C230.782 250.253 230.703 250.159 230.61 250.084C233.516 244.256 234.412 237.178 235.288 230.914C236.298 223.707 237.76 216.176 238.479 208.808C238.584 208.765 238.693 208.741 238.796 208.691C240.36 207.926 241.271 206.324 241.299 204.67C245.291 205.569 249.288 207.612 252.901 208.856C255.959 209.91 259.192 211.82 262.5 213.032C261.924 214.364 261.882 215.919 262.557 217.3C262.685 217.559 262.842 217.791 263.005 218.019ZM177.659 247.231C177.619 247.311 177.583 247.394 177.548 247.477C170.196 242.02 162.09 237.322 154.529 232.287C147.021 227.289 139.378 222.502 131.578 217.978C131.677 217.35 131.693 216.713 131.6 216.08C136.939 215.769 142.273 215.358 147.615 215.119C151.341 214.953 155.119 214.836 158.807 214.261C159.681 216.44 161.717 218.159 164.234 217.988C167.853 227.797 171.715 238.763 177.659 247.231ZM147.095 180.681C154.584 176.096 162.004 169.658 167.67 162.735C168.059 162.864 168.46 162.923 168.863 162.945C168.074 170.102 167.889 177.354 166.701 184.503C165.478 191.858 164.604 199.239 163.573 206.611C163.073 206.647 162.552 206.775 162.022 206.972C156.209 200.708 151.821 193.169 145.831 187.176C147.59 185.59 148.208 182.947 147.126 180.732C147.117 180.713 147.104 180.7 147.095 180.681ZM202.872 197.134C204.222 189.148 206.224 181.406 208.097 173.593C209.015 173.743 209.98 173.634 210.865 173.201C210.904 173.182 210.937 173.153 210.975 173.132C213.846 177.856 218.581 182.336 221.686 186.485C225.34 191.367 228.83 197.384 233.12 202.09C232.439 203.096 232.167 204.348 232.414 205.559C226.942 206.695 221.568 209.05 216.326 210.693C211.272 212.278 205.942 213.332 200.981 215.222C200.617 214.945 200.211 214.72 199.764 214.554C201.374 208.912 201.938 202.655 202.872 197.134ZM197.147 214.362C195.912 214.612 194.777 215.321 194.055 216.409C193.771 216.837 193.569 217.304 193.436 217.785C189.159 216.465 184.664 215.569 180.431 214.261C176.801 213.139 173.168 212.205 169.456 211.887C169.355 211.099 169.086 210.335 168.704 209.633C175.763 204.125 181.846 197.165 187.818 190.606C193.339 184.547 200.139 178.496 205.047 171.713C205.16 171.87 205.287 172.009 205.418 172.15C203.272 178.666 202.169 185.678 200.959 192.329C199.684 199.327 197.741 207.015 197.147 214.362ZM223.862 184.562C220.774 180.677 217.087 174.88 212.683 171.562C213.208 170.753 213.491 169.799 213.459 168.828C222.282 169.735 231.222 170.295 240.057 171.2C245.934 171.802 253.492 172.533 260.021 171.626C260.196 171.869 260.39 172.089 260.597 172.291C255.912 177.131 252.296 183.147 248.128 188.34C244.803 192.486 240.872 195.954 238.147 200.345C237.46 200.131 236.727 200.087 236.004 200.214C232.62 194.654 227.73 189.423 223.862 184.562ZM238.9 168.284C231.597 167.585 223.651 165.669 216.142 166.319C220.203 163.029 223.975 159.233 227.625 155.686C232.438 151.008 237.678 145.663 241.508 139.864C242.227 140.145 243.042 140.216 243.914 139.976C246.902 144.348 250.026 148.632 252.962 153.039C255.544 156.917 257.733 161.186 260.347 165.089C259.534 166.025 259.094 167.232 259.064 168.464C252.353 168.403 245.573 168.924 238.9 168.284ZM239.305 137.855C234.681 142.969 230.485 148.501 225.646 153.447C221.427 157.757 216.673 161.759 212.497 166.168C212.273 165.883 212.013 165.638 211.733 165.417C212.569 162.108 212.892 158.606 213.374 155.3C214.111 150.241 214.711 145.161 215.346 140.088C217.223 139.105 218.157 136.926 217.659 134.925C221.239 135.117 224.831 135.194 228.409 135.264C231.777 135.33 235.28 135.801 238.723 135.888C238.768 136.573 238.97 137.246 239.305 137.855ZM211.058 151.345C210.216 155.482 209.097 159.989 208.505 164.386C207.919 164.421 207.332 164.564 206.779 164.834C206.429 165.005 206.122 165.228 205.837 165.47C199.876 163.4 193.323 162.154 187.372 160.406C182.84 159.075 178.309 158.005 173.672 157.751C173.666 157.668 173.669 157.591 173.663 157.507C173.642 157.246 173.622 156.986 173.602 156.725C173.577 156.411 173.495 156.096 173.369 155.79C179.548 153.56 185.522 150.418 191.447 147.713C197.597 144.906 203.832 142.227 209.763 138.982C210.715 140.094 212.156 140.687 213.602 140.583C212.56 144.118 211.796 147.71 211.058 151.345ZM190.515 164.35C194.886 165.675 199.584 167.52 204.275 168.181C204.233 168.405 204.213 168.63 204.203 168.858C197.225 174.086 191.632 182.058 185.881 188.416C179.844 195.091 173.219 201.172 166.964 207.609C166.581 207.326 166.164 207.096 165.716 206.923C167.468 200.46 168.099 193.647 169.263 187.083C170.679 179.099 172.564 170.213 172.059 161.913C172.403 161.63 172.708 161.302 172.966 160.919C173.183 160.595 173.325 160.27 173.438 159.94C179.185 161.19 184.865 162.637 190.515 164.35ZM173.124 232.567C170.796 227.543 168.537 222.473 165.985 217.557C166.128 217.499 166.267 217.469 166.411 217.399C167.898 216.672 168.769 215.582 169.189 214.376C173.721 215.359 178.159 216.679 182.609 218.061C186.14 219.156 189.825 220.5 193.543 220.716C193.744 221.289 194.04 221.833 194.456 222.305C194.704 222.588 194.985 222.817 195.275 223.024C192.761 226.191 190.251 229.457 188.209 232.869C185.991 236.572 184.547 240.662 182.63 244.528C181.713 244.414 180.76 244.544 179.883 244.972C179.792 245.017 179.718 245.08 179.631 245.129C177.49 240.937 175.101 236.836 173.124 232.567ZM190.012 236.076C192.236 231.769 196.196 228.279 198.187 223.899C198.871 223.881 199.561 223.741 200.217 223.449C200.225 223.445 200.234 223.441 200.243 223.438C200.554 223.301 200.838 223.109 201.105 222.898C208.711 231.949 216.13 241.448 224.232 249.981C223.813 250.262 223.425 250.622 223.095 251.031C217.018 250.203 210.863 249.657 204.81 248.874C199.263 248.155 192.479 246.616 186.463 247.186C186.098 246.468 185.566 245.89 184.944 245.444C186.918 242.519 188.357 239.277 190.012 236.076ZM202.226 221.616C202.839 220.6 203.111 219.368 202.859 218.23C202.856 218.221 202.854 218.211 202.854 218.203C202.781 217.876 202.672 217.561 202.543 217.258C207.421 216.706 212.224 215.154 216.907 213.791C222.448 212.18 228.609 210.717 233.877 208.049C234.257 208.371 234.691 208.615 235.149 208.796C233.871 214.6 233.721 220.936 233.037 226.575C232.104 234.283 230.567 241.688 228.808 249.172C228.495 249.096 228.17 249.051 227.834 249.053C227.13 249.058 226.675 249.08 226.21 249.18C219.497 239.394 211.383 229.356 202.226 221.616ZM250.519 205.214C248.142 204.41 244.128 202.59 240.7 202.372C240.485 202.004 240.226 201.673 239.925 201.388C243.296 197.439 247.057 193.809 250.464 189.895C254.908 184.79 259.324 179.194 263.466 173.684C264.051 173.775 264.66 173.786 265.276 173.708C265.375 173.694 265.472 173.664 265.57 173.644C265.803 180.104 266.505 186.545 266.246 193.09C266.025 198.663 265.696 204.455 266.731 209.979C266.183 210.021 265.641 210.157 265.118 210.384C260.269 208.602 255.386 206.857 250.519 205.214ZM223.118 107.393C234.599 109.009 245.407 113.18 255.121 119.414C254.893 120.426 254.97 121.507 255.452 122.493C255.533 122.659 255.641 122.802 255.739 122.954C253.993 124.752 252.311 126.66 250.458 128.282C249.005 129.552 246.877 130.826 245.064 132.259C243.985 131.51 242.558 131.277 241.015 132.031C240.879 132.097 240.773 132.181 240.65 132.256C236.39 127.833 233.067 123.092 229.602 117.842C227.393 114.497 225.178 111.295 222.364 108.597C222.662 108.215 222.917 107.806 223.118 107.393ZM216.499 111.154C217.699 111.328 218.955 111.163 219.983 110.661C220.296 110.508 220.592 110.312 220.876 110.094C226.029 117.099 229.832 126.634 236.256 132.346C233.681 132.253 231.082 132.35 228.63 132.323C224.605 132.28 220.532 132.474 216.51 132.899C215.826 132.198 214.944 131.733 213.992 131.568C214.09 129.501 214.142 127.43 214.36 125.434C214.881 120.635 215.542 115.872 216.499 111.154ZM175.133 114.464C175.124 114.411 175.1 114.365 175.09 114.312C182.898 111.18 191.139 109.047 199.361 107.699C203.553 107.011 207.699 106.672 211.782 106.643C212.029 107.708 212.464 108.388 213.147 109.302C213.617 109.932 214.259 110.386 214.971 110.706C213.71 114.873 212.676 119.1 211.806 123.379C211.398 125.385 210.97 127.583 210.701 129.815C206.331 126.935 201.007 125.063 196.328 123.245C189.353 120.539 182.246 118.188 175.177 115.74C175.212 115.312 175.212 114.885 175.133 114.464ZM172.517 119.669C173.296 119.285 173.926 118.734 174.41 118.014C174.451 117.953 174.475 117.884 174.513 117.82C179.886 120.497 185.474 122.596 191.145 124.672C197.547 127.014 203.61 130.407 209.899 132.954C208.985 133.954 208.562 135.327 208.739 136.675C202.464 139.275 196.388 142.359 190.239 145.242C184.226 148.064 177.827 150.611 172.058 153.999C171.872 153.832 171.685 153.665 171.494 153.539C171.333 153.431 171.165 153.339 170.994 153.252C171.944 148.04 172.001 142.505 172.132 137.351C172.272 131.889 172.411 125.726 171.078 120.213C171.577 120.124 172.058 119.961 172.517 119.669ZM155.568 125.261C158.892 122.704 162.43 120.461 166.118 118.484C166.786 119.322 167.743 119.995 168.777 120.234C168.814 125.852 169.476 131.502 169.265 137.141C169.074 142.311 168.192 147.578 168.011 152.789C167.53 152.862 167.057 153 166.611 153.218C166.007 153.513 165.48 153.932 165.048 154.434C159.773 153.307 154.43 152.399 149.123 151.634C143.923 150.882 138.587 150.625 133.705 152.163C133.586 151.983 133.475 151.8 133.341 151.634C138.852 141.509 146.068 132.567 155.568 125.261ZM134.628 154.458C140.02 153.8 145.461 154.158 150.904 154.914C155.233 155.514 159.54 156.607 163.883 157.205C163.767 158.533 164.124 160.013 165.083 160.887C165.181 160.978 165.28 161.068 165.379 161.159C158.817 167.008 152.582 173.394 146.11 179.346C144.85 178.072 143.021 177.483 141.25 177.795C140.186 175.817 138.953 173.907 137.822 172.01C135.684 168.422 133.616 164.797 131.69 161.093C133.955 159.696 135.095 157.019 134.628 154.458ZM159.533 208.636C158.853 209.437 158.498 210.371 158.387 211.335C154.041 211.622 149.691 212.075 145.356 212.283C140.45 212.517 135.514 212.654 130.701 213.543C130.441 213.09 130.137 212.667 129.787 212.285C135.063 205.225 139.504 196.736 142.343 188.545C142.817 188.539 143.291 188.473 143.758 188.339C148.817 195.142 153.247 203.082 159.533 208.636ZM126.35 167.469C126.999 165.63 127.681 163.815 128.409 162.03C128.904 162.031 129.399 161.989 129.889 161.871C131.245 165.064 132.804 168.147 134.461 171.237C135.823 173.781 137.121 176.515 138.599 179.103C136.864 180.692 136.259 183.315 137.334 185.516C137.835 186.54 138.633 187.332 139.576 187.855C135.85 195.668 132.848 203.739 128.249 211.061C127.808 210.81 127.341 210.613 126.842 210.487C123.417 196.456 123.083 181.486 126.35 167.469ZM160.251 260.152C159.92 260.314 159.644 260.509 159.363 260.699C148.35 252.627 139.321 241.599 132.958 227.975C131.896 225.703 130.933 223.373 130.054 221C130.332 220.714 130.573 220.413 130.775 220.096C138.114 225.031 145.465 229.947 152.901 234.734C160.877 239.871 168.776 245.744 177.207 250.254C177.282 250.708 177.398 251.159 177.61 251.592C177.615 251.603 177.623 251.613 177.628 251.623C175.898 252.978 174.21 254.393 172.473 255.697C170.438 257.227 168.289 258.762 166.325 260.475C164.702 259.362 162.565 259.022 160.251 260.152ZM198.761 275.791C188.149 274.599 178.247 271.586 169.321 266.908C169.465 265.446 169.086 263.948 168.326 262.668C169.865 261.474 171.395 260.264 172.957 259.123C175.295 257.414 177.836 255.798 180.122 253.93C181.405 254.476 182.9 254.513 184.229 253.864C184.594 253.686 184.916 253.454 185.216 253.202C188.46 256.966 191.828 260.631 194.957 264.513C196.984 267.028 198.933 269.745 201.096 272.234C199.734 273.172 198.999 274.437 198.761 275.791ZM204.154 271.092C201.369 267.69 198.305 264.446 195.525 261.123C192.812 257.882 189.864 254.364 186.357 251.821C186.679 251.236 186.878 250.588 186.949 249.923C193.406 250.349 199.855 251.295 206.246 252.167C211.056 252.824 216.616 254.225 221.922 254.598C221.951 255.604 222.246 256.565 222.781 257.387C220.463 259.633 218.395 262.351 216.092 264.478C213.347 267.016 210.492 269.461 207.883 272.139C206.844 271.372 205.567 270.962 204.154 271.092ZM236.842 272.254C228.636 274.771 220.031 276.171 211.33 276.353C211.043 276.358 210.761 276.353 210.475 276.357C210.296 275.393 209.919 274.457 209.356 273.651C212.854 271.218 216.131 268.427 219.287 265.595C221.26 263.826 223.734 261.786 225.427 259.432C226.592 259.818 227.855 259.761 228.99 259.307C230.408 261.248 231.954 263.096 233.564 264.861C234.742 266.154 236.054 267.655 237.474 269.092C236.936 270.07 236.748 271.166 236.842 272.254ZM244.939 266.515C243.549 265.875 241.872 265.798 240.078 266.675C240.02 266.703 239.98 266.741 239.924 266.77C236.808 263.988 233.601 261.307 230.71 258.281C231.792 257.362 232.515 255.968 232.617 254.606C232.685 253.695 232.459 252.755 232.035 251.907C238.73 247.789 244.209 242.41 249.544 236.555C253.653 232.045 257.799 227.749 262.079 223.541C259.243 229.22 257.189 235.52 255.067 241.147C251.868 249.63 248.11 258.006 244.939 266.515ZM280.6 241.985C271.951 253.607 260.339 262.534 247.215 268.376C247.105 268.231 246.985 268.094 246.863 267.959C250.778 261.253 253.31 253.546 256.013 246.4C259.357 237.566 263.741 228.952 267.116 220.135C267.888 220.147 268.666 220.006 269.397 219.649C269.624 219.538 269.824 219.396 270.028 219.256C272.602 221.983 275.02 226.374 276.463 228.332C277.622 229.904 278.777 231.84 280.013 233.756C278.196 236.258 278.732 239.704 280.6 241.985ZM288.912 228.016C288.398 229.13 287.853 230.221 287.292 231.3C286.006 230.868 284.53 230.876 282.966 231.52C280.94 229.032 278.75 226.642 276.941 224.368C275.666 222.764 273.649 219.842 271.355 217.904C272.338 216.43 272.566 214.49 271.746 212.811C271.61 212.533 271.445 212.282 271.268 212.042C276.17 209.703 280.495 206.075 284.599 202.587C288.076 199.633 291.575 196.637 294.982 193.554C295.48 193.736 296.003 193.839 296.532 193.896C296.451 205.458 293.961 217.067 288.912 228.016ZM295.654 181.18C295.405 181.265 295.165 181.366 294.929 181.481C294.098 181.82 293.331 182.335 292.702 182.949C289.3 180.672 285.976 178.297 282.475 176.127C278.405 173.605 273.802 171.89 269.343 169.958C269.665 168.73 269.524 167.345 268.989 166.249C268.976 166.223 268.957 166.203 268.945 166.178C268.942 166.173 268.941 166.169 268.94 166.165C274.143 165.199 279.852 163.881 284.992 161.874C286.615 163.247 288.858 163.786 290.951 163.228C293.18 169.056 294.757 175.072 295.654 181.18ZM283.076 159.01C281.663 159.544 280.241 160.061 278.791 160.508C275.024 161.675 271.275 162.702 267.659 164.172C267.222 163.789 266.714 163.489 266.157 163.298C266.086 163.274 266.018 163.266 265.948 163.244C265.606 157.531 264.67 151.827 263.983 146.169C263.15 139.302 262.991 131.679 261.467 124.764C261.562 124.724 261.662 124.703 261.758 124.656C261.892 124.591 262.008 124.5 262.134 124.423C268.692 129.61 274.637 135.793 279.795 142.81C281.882 145.647 283.77 148.588 285.476 151.605C283.161 153.261 282.171 156.299 283.076 159.01Z" stroke="white" stroke-opacity="0.4" stroke-width="2" mask="url(#path-1-inside-1)"/>
</g>
<path d="M123.792 263.398L102.04 218.877C94.0694 220.848 85.508 217.074 81.761 209.405C75.5709 196.736 85.9314 182.303 99.7725 183.897L116.048 136.524C104.146 129.272 104.85 111.521 117.516 105.333C133.123 97.7075 149.409 114.808 140.851 130.068L171.984 157.639L184.396 121.511L154.068 123.351C152.001 123.476 150.223 121.902 150.098 119.834C149.973 117.767 151.546 115.99 153.614 115.864L187.033 113.837L191.944 99.5376C179.983 92.342 180.603 74.5096 193.327 68.2929C205.996 62.1028 220.428 72.4633 218.835 86.3044L266.207 102.58C273.459 90.6777 291.211 91.3823 297.399 104.048C302.272 114.022 296.908 126.017 286.192 129.018L287.811 155.687L307.854 173.353C316.792 166.756 329.558 169.869 334.439 179.858C340.629 192.528 330.268 206.96 316.427 205.367L300.152 252.739C312.054 259.991 311.35 277.743 298.684 283.931C291.015 287.678 281.942 285.393 276.866 278.94L232.345 300.692C234.317 308.662 230.542 317.224 222.874 320.971C214.049 325.282 203.362 321.61 199.05 312.786C194.738 303.961 198.41 293.273 207.235 288.962C214.904 285.215 223.977 287.5 229.052 293.953L272.33 272.809L152.403 280.086C149.726 297.44 126.365 300.697 118.801 285.216C115.054 277.547 117.338 268.474 123.792 263.398V263.398ZM114.904 196.748L126.111 196.042L122.722 140.182L106.88 186.293C110.685 188.553 113.62 192.201 114.904 196.748ZM115.37 204.234C114.701 208.64 112.395 212.739 108.778 215.584L129.924 258.863L126.566 203.529L115.37 204.234ZM137.403 258.292L156.874 201.618L134.051 203.056L137.403 258.292ZM88.4997 206.113C90.996 211.222 97.1833 213.348 102.292 210.852C107.402 208.355 109.527 202.168 107.031 197.059C104.535 191.95 98.3475 189.824 93.2383 192.32C88.1291 194.816 86.0034 201.004 88.4997 206.113ZM120.809 112.071C115.699 114.568 113.574 120.755 116.07 125.864C118.566 130.973 124.754 133.099 129.863 130.603C134.972 128.106 137.098 121.919 134.601 116.81C132.105 111.701 125.918 109.575 120.809 112.071ZM135.883 135.686C134.139 136.967 132.249 137.894 130.133 138.487L133.597 195.57L159.513 193.937L169.344 165.319L135.883 135.686ZM167.619 193.426L198.859 191.457L175.425 170.705L167.619 193.426ZM211.727 98.6225C208.013 101.363 203.5 102.514 199.038 101.975L195.132 113.345L226.285 111.455L211.727 98.6225ZM236.898 110.811L262.55 109.254L217.618 93.8173L236.898 110.811ZM196.619 75.0316C191.51 77.5279 189.384 83.7152 191.88 88.8244C194.377 93.9336 200.564 96.0593 205.673 93.563C210.782 91.0667 212.908 84.8794 210.412 79.7702C207.915 74.661 201.728 72.5353 196.619 75.0316ZM290.661 107.341C288.164 102.231 281.977 100.106 276.868 102.602C271.759 105.098 269.633 111.285 272.129 116.395C274.625 121.504 280.813 123.63 285.922 121.133C291.031 118.637 293.157 112.45 290.661 107.341ZM278.705 129.466C271.841 128.406 266.158 123.497 264.244 116.665L244.873 117.841L279.872 148.689L278.705 129.466ZM288.452 166.249L289.634 185.736L300.829 185.03C301.152 182.908 301.854 180.858 302.899 178.984L288.452 166.249ZM301.295 192.515L290.088 193.222L293.478 249.082L309.32 202.971C305.523 200.715 302.583 197.071 301.295 192.515V192.515ZM327.7 183.151C325.204 178.042 319.017 175.916 313.907 178.412C308.798 180.908 306.673 187.096 309.169 192.205C311.665 197.314 317.852 199.44 322.962 196.944C328.071 194.447 330.196 188.26 327.7 183.151ZM295.391 277.192C300.5 274.696 302.626 268.509 300.13 263.4C297.634 258.291 291.446 256.165 286.337 258.661C281.228 261.157 279.102 267.345 281.599 272.454C284.095 277.563 290.282 279.689 295.391 277.192ZM210.527 295.701C205.418 298.197 203.292 304.384 205.788 309.493C208.284 314.603 214.472 316.728 219.581 314.232C224.69 311.736 226.816 305.549 224.32 300.439C221.823 295.33 215.636 293.204 210.527 295.701ZM273.266 265.238C274.323 258.386 279.221 252.695 286.066 250.776L282.603 193.693L266.824 194.688C264.757 194.818 262.975 193.249 262.845 191.182C262.715 189.114 264.285 187.334 266.352 187.203L282.148 186.207L280.513 159.252L234.261 118.484L192.496 121.019L178.064 163.023L209.42 190.791L236.948 189.056C239.015 188.926 240.796 190.495 240.927 192.562C241.058 194.64 239.477 196.411 237.42 196.541L217.342 197.806L269.826 244.285C271.829 246.059 271.374 249.296 268.987 250.462C267.663 251.109 266.024 250.937 264.853 249.9L206.781 198.472L164.981 201.106L144.007 262.155C147.853 264.469 150.71 268.148 151.956 272.598L273.266 265.238ZM139.332 286.662C144.441 284.166 146.567 277.978 144.071 272.869C141.574 267.76 135.387 265.634 130.278 268.13C125.169 270.627 123.043 276.814 125.539 281.923C128.036 287.032 134.223 289.158 139.332 286.662Z" stroke="white" stroke-opacity="0.1"/>
<path d="M106.946 159.651C107.806 159.13 108.678 158.588 109.561 158.041C112.501 156.215 115.563 154.313 118.728 152.809C113.588 153.587 108.33 153.894 103.153 154.195C101.426 154.296 99.708 154.396 98.0066 154.513C96.3225 154.629 94.5894 154.791 92.831 154.956C89.1975 155.297 85.4561 155.648 81.8173 155.617C83.3415 157.305 84.6594 159.265 85.7663 160.911C85.9073 161.12 86.0449 161.325 86.1791 161.523C86.4603 161.938 86.7968 162.407 87.1613 162.914C88.0144 164.102 89.0204 165.502 89.8271 166.927C91.4078 166.546 93.186 166.876 94.3806 168.293C98.3292 165.075 102.625 162.271 106.946 159.651ZM106.946 159.651L107.206 160.079L106.946 159.651ZM108.315 126.91C96.9311 132.309 86.5675 139.971 78.0887 149.271M117.225 137.299L117.225 137.299C117.424 138.128 117.617 138.958 117.811 139.788C118.484 142.681 119.158 145.573 120.082 148.402C119.749 148.78 119.472 149.207 119.264 149.674C115.293 149.673 111.301 149.947 107.346 150.219C105.696 150.332 104.053 150.445 102.42 150.538C100.074 150.67 97.6502 150.719 95.1866 150.768C94.0346 150.791 92.8738 150.814 91.7079 150.847C88.2043 150.943 84.6714 151.119 81.2686 151.614C81.259 151.594 81.249 151.573 81.2387 151.553C86.7532 145.484 93.1896 140.069 100.383 135.463L100.383 135.462C103.208 133.653 106.115 132.03 109.083 130.579C110.673 132.797 113.46 133.913 116.148 133.4C116.54 134.693 116.911 135.988 117.225 137.299ZM121.772 125.573C127.435 123.846 133.228 122.722 139.065 122.217C139.11 122.347 139.158 122.475 139.21 122.603C139.472 123.379 139.872 124.113 140.363 124.753C139.66 125.666 138.948 126.576 138.235 127.488C136.506 129.697 134.769 131.918 133.127 134.222C130.911 137.33 129.178 140.812 127.465 144.252C127.069 145.047 126.674 145.839 126.275 146.624C125.247 146.369 124.134 146.396 123.141 146.688C122.522 141.683 121.602 136.225 120.036 131.209C121.382 129.687 122.04 127.619 121.772 125.573Z" stroke="white" stroke-opacity="0.4"/>
<path d="M190.857 296.109C190.116 296.788 189.367 297.49 188.609 298.199C186.082 300.565 183.45 303.028 180.64 305.123C185.529 303.354 190.626 302.026 195.644 300.718C197.318 300.282 198.983 299.848 200.629 299.401C202.258 298.958 203.926 298.46 205.618 297.954C209.115 296.91 212.716 295.834 216.29 295.153C214.466 293.795 212.79 292.131 211.383 290.734C211.204 290.556 211.029 290.382 210.858 290.214C210.501 289.862 210.08 289.468 209.623 289.042C208.554 288.044 207.294 286.867 206.224 285.627C204.749 286.31 202.94 286.334 201.492 285.178C198.248 289.106 194.583 292.695 190.857 296.109ZM190.857 296.109L190.52 295.74L190.857 296.109ZM195.915 328.486C206.024 320.966 214.69 311.426 221.188 300.648M185.147 320.039L185.147 320.039C184.789 319.265 184.437 318.489 184.086 317.713C182.859 315.007 181.634 312.303 180.174 309.709C180.427 309.273 180.615 308.8 180.727 308.301C184.622 307.527 188.484 306.477 192.309 305.437C193.905 305.004 195.495 304.572 197.078 304.162C199.353 303.573 201.72 303.052 204.127 302.522C205.252 302.274 206.386 302.024 207.523 301.765C210.94 300.986 214.371 300.122 217.611 298.972C217.624 298.99 217.638 299.008 217.652 299.026C213.43 306.056 208.177 312.624 202.022 318.548L202.022 318.548C199.606 320.875 197.072 323.035 194.445 325.038C192.452 323.174 189.501 322.624 186.964 323.652C186.327 322.461 185.711 321.263 185.147 320.039ZM182.979 332.428C177.763 335.228 172.302 337.463 166.675 339.099C166.606 338.98 166.534 338.864 166.458 338.749C166.049 338.039 165.514 337.398 164.907 336.866C165.418 335.833 165.938 334.801 166.46 333.767C167.723 331.263 168.993 328.746 170.152 326.165C171.718 322.684 172.738 318.93 173.745 315.221C173.978 314.365 174.21 313.511 174.448 312.663C175.506 312.712 176.593 312.468 177.509 311.988C179.095 316.775 181.063 321.948 183.58 326.562C182.558 328.317 182.316 330.474 182.979 332.428Z" stroke="white" stroke-opacity="0.4"/>
<path d="M264.954 66.467C264.612 67.4129 264.273 68.3813 263.931 69.3619C262.789 72.6289 261.599 76.0319 260.08 79.1904C263.592 75.3568 267.493 71.8166 271.332 68.3317C272.613 67.1689 273.887 66.0122 275.138 64.8529C276.376 63.7054 277.623 62.4906 278.888 61.2581C281.502 58.7114 284.193 56.0891 287.045 53.8285C284.799 53.4715 282.543 52.7739 280.648 52.188C280.406 52.1134 280.171 52.0405 279.942 51.9704C279.462 51.824 278.906 51.6707 278.304 51.5046C276.894 51.116 275.232 50.6577 273.709 50.0549C272.719 51.3443 271.127 52.204 269.308 51.8513C268.255 56.8352 266.672 61.7145 264.954 66.467ZM264.954 66.467L264.484 66.2971L264.954 66.467ZM284.446 92.8088C289.917 81.4593 293.172 68.9883 293.932 56.4267M270.989 90.3176L270.989 90.3173C270.314 89.7975 269.642 89.2728 268.97 88.7481C266.63 86.9198 264.289 85.0916 261.793 83.4701C261.816 82.9673 261.763 82.4601 261.631 81.9662C264.723 79.4744 267.658 76.754 270.565 74.0592C271.778 72.9349 272.986 71.8151 274.199 70.7182C275.942 69.1417 277.798 67.5823 279.684 65.9969C280.566 65.2556 281.455 64.5086 282.342 63.7516C285.009 61.4766 287.648 59.1213 289.986 56.5996C290.006 56.6093 290.026 56.6189 290.047 56.6283C289.566 64.8144 287.956 73.0702 285.25 81.1721L285.25 81.1722C284.188 84.3541 282.944 87.4426 281.546 90.4356C278.915 89.7077 276.046 90.589 274.275 92.6761C273.158 91.9154 272.057 91.1403 270.989 90.3176ZM274.813 102.299C271.489 107.199 267.687 111.711 263.46 115.769C263.344 115.696 263.226 115.626 263.106 115.56C262.414 115.12 261.642 114.8 260.857 114.61C260.831 113.458 260.814 112.303 260.797 111.145C260.755 108.341 260.713 105.521 260.544 102.698C260.317 98.8869 259.48 95.0881 258.653 91.335C258.462 90.4682 258.272 89.6038 258.09 88.7422C259.05 88.2952 259.9 87.5756 260.489 86.7249C264.114 90.2317 268.256 93.902 272.625 96.823C272.533 98.8524 273.319 100.875 274.813 102.299Z" stroke="white" stroke-opacity="0.4"/>
<path d="M198.414 71.6567C187.455 65.4404 175.229 61.3606 162.746 59.7639M195.03 84.9172L195.03 84.9175C194.466 85.5567 193.898 86.1919 193.329 86.827C191.349 89.0403 189.368 91.2534 187.584 93.6356C187.084 93.58 186.574 93.5985 186.073 93.697C183.793 90.4459 181.274 87.336 178.779 84.2553C177.739 82.9701 176.702 81.6899 175.689 80.4068C174.232 78.5619 172.8 76.6065 171.344 74.6184C170.663 73.6888 169.977 72.7522 169.281 71.8163C167.189 69.0041 165.015 66.2137 162.655 63.7129C162.666 63.6935 162.677 63.6735 162.688 63.6533C170.823 64.6799 178.953 66.8368 186.857 70.0781L186.857 70.0781C189.961 71.3501 192.959 72.7976 195.852 74.3924C194.95 76.9686 195.638 79.8903 197.603 81.7963C196.769 82.86 195.922 83.9072 195.03 84.9172ZM207.24 81.902C211.907 85.545 216.155 89.6402 219.922 94.1282C219.841 94.2393 219.764 94.3526 219.69 94.4681C219.205 95.129 218.834 95.8777 218.592 96.6478C217.441 96.597 216.287 96.537 215.131 96.4769C212.33 96.3314 209.514 96.185 206.685 96.1653C202.868 96.1374 199.022 96.719 195.222 97.2935C194.344 97.4262 193.469 97.5585 192.597 97.6829C192.215 96.695 191.554 95.799 190.744 95.1545C194.485 91.7716 198.424 87.8833 201.63 83.7195C203.649 83.9464 205.72 83.2971 207.24 81.902Z" stroke="white" stroke-opacity="0.4"/>
<path d="M91.361 207.374C95.0784 219.412 101.183 230.764 109.176 240.483M102.915 200.039L102.915 200.039C103.764 199.96 104.613 199.887 105.462 199.815C108.422 199.561 111.38 199.307 114.313 198.796C114.639 199.18 115.022 199.515 115.455 199.787C114.886 203.717 114.588 207.708 114.292 211.661C114.169 213.31 114.046 214.953 113.905 216.582C113.7 218.924 113.403 221.329 113.1 223.775C112.958 224.918 112.815 226.07 112.681 227.229C112.276 230.71 111.946 234.232 111.95 237.671C111.928 237.677 111.907 237.684 111.885 237.692C106.665 231.367 102.225 224.223 98.693 216.446L98.693 216.446C97.3051 213.392 96.1143 210.282 95.1014 207.138C97.524 205.881 99.0261 203.282 98.9026 200.548C100.239 200.345 101.573 200.163 102.915 200.039ZM91.9586 193.864C91.0583 188.013 90.7723 182.119 91.1066 176.269C91.2417 176.243 91.3755 176.214 91.5087 176.181C92.3149 176.032 93.0981 175.741 93.8021 175.346C94.6053 176.172 95.4043 177.007 96.205 177.843C98.1444 179.87 100.094 181.906 102.14 183.86C104.9 186.497 108.099 188.71 111.26 190.897C111.99 191.402 112.717 191.906 113.437 192.413C113.038 193.394 112.905 194.5 113.053 195.524C108.01 195.422 102.477 195.553 97.2888 196.387C95.9746 194.838 94.0217 193.891 91.9586 193.864Z" stroke="white" stroke-opacity="0.4"/>
<path d="M120.511 286.323C132.625 282.863 144.104 277.001 153.991 269.216M113.423 274.616L113.423 274.616C113.362 273.766 113.307 272.915 113.253 272.065C113.062 269.101 112.871 266.137 112.423 263.195C112.813 262.877 113.157 262.5 113.438 262.074C117.355 262.726 121.338 263.109 125.284 263.488C126.93 263.647 128.57 263.804 130.196 263.981C132.533 264.234 134.931 264.583 137.37 264.938C138.51 265.104 139.659 265.271 140.814 265.43C144.286 265.909 147.8 266.314 151.238 266.383C151.244 266.405 151.251 266.427 151.258 266.448C144.824 271.532 137.587 275.82 129.736 279.186L129.736 279.186C126.654 280.509 123.52 281.633 120.354 282.579C119.149 280.13 116.583 278.573 113.846 278.638C113.672 277.298 113.518 275.96 113.423 274.616Z" stroke="white" stroke-opacity="0.4"/>
<path d="M309.233 279.395C307.08 266.981 302.472 254.945 295.782 244.286M296.839 285.198L296.838 285.198C295.987 285.168 295.135 285.132 294.284 285.096C291.316 284.971 288.349 284.846 285.376 284.979C285.101 284.557 284.763 284.175 284.369 283.85C285.434 280.025 286.238 276.105 287.035 272.221C287.367 270.601 287.698 268.988 288.047 267.39C288.547 265.093 289.149 262.746 289.761 260.359C290.047 259.242 290.336 258.118 290.617 256.986C291.462 253.584 292.238 250.133 292.672 246.722C292.694 246.718 292.717 246.714 292.739 246.71C297.11 253.648 300.604 261.299 303.117 269.463L303.117 269.463C304.104 272.669 304.889 275.905 305.493 279.153C302.93 280.091 301.109 282.477 300.883 285.205C299.532 285.236 298.186 285.246 296.839 285.198Z" stroke="white" stroke-opacity="0.4"/>
<path d="M107.493 249.574C96.2541 243.88 83.8499 240.379 71.3059 239.371M104.736 262.979L104.736 262.98C104.203 263.645 103.665 264.306 103.127 264.967C101.253 267.271 99.3787 269.575 97.7081 272.038C97.2058 272.006 96.6977 272.048 96.2013 272.17C93.7711 269.03 91.1093 266.042 88.4725 263.082C87.3725 261.847 86.2768 260.617 85.2041 259.383C83.6624 257.608 82.14 255.722 80.5923 253.805C79.8686 252.908 79.1393 252.005 78.4 251.103C76.1782 248.392 73.8756 245.707 71.4006 243.32C71.4107 243.3 71.4207 243.279 71.4305 243.259C79.6055 243.902 87.8278 245.674 95.8746 248.541L95.8747 248.541C99.035 249.665 102.098 250.97 105.063 252.428C104.283 255.043 105.108 257.929 107.159 259.741C106.377 260.843 105.58 261.929 104.736 262.979Z" stroke="white" stroke-opacity="0.4"/>
<path d="M331.65 200.465C331.293 199.525 330.919 198.57 330.54 197.602C329.277 194.38 327.962 191.024 327.055 187.638C326.89 192.835 326.238 198.062 325.597 203.207C325.384 204.924 325.171 206.632 324.978 208.326C324.786 210.003 324.632 211.737 324.476 213.496C324.153 217.132 323.82 220.875 323.131 224.448C325.067 223.254 327.233 222.313 329.052 221.523C329.284 221.422 329.51 221.324 329.729 221.228C330.188 221.026 330.71 220.78 331.275 220.514C332.597 219.89 334.157 219.154 335.705 218.619C335.616 216.996 336.263 215.307 337.872 214.388C335.423 209.922 333.444 205.19 331.65 200.465ZM331.65 200.465L332.118 200.287L331.65 200.465ZM299.699 193.188C302.946 205.361 308.604 216.942 316.214 226.965M311.53 186.308L311.53 186.308C312.381 186.262 313.232 186.222 314.084 186.182C317.051 186.044 320.017 185.905 322.967 185.509C323.278 185.904 323.648 186.255 324.07 186.544C323.349 190.448 322.896 194.424 322.447 198.363C322.259 200.006 322.073 201.643 321.868 203.265C321.573 205.597 321.181 207.989 320.784 210.421C320.598 211.558 320.41 212.704 320.231 213.856C319.691 217.32 319.224 220.826 319.094 224.262C319.073 224.268 319.051 224.274 319.029 224.28C314.059 217.758 309.9 210.447 306.673 202.538L306.673 202.538C305.405 199.432 304.336 196.279 303.446 193.097C305.916 191.935 307.517 189.397 307.5 186.66C308.843 186.509 310.184 186.379 311.53 186.308ZM300.821 179.712C300.149 173.829 300.093 167.929 300.654 162.096C300.79 162.076 300.925 162.052 301.059 162.024C301.871 161.907 302.665 161.646 303.383 161.279C304.154 162.136 304.92 163.001 305.687 163.868C307.547 165.968 309.416 168.079 311.384 170.111C314.04 172.853 317.15 175.189 320.223 177.497C320.933 178.03 321.641 178.561 322.34 179.096C321.903 180.061 321.728 181.161 321.835 182.19C316.8 181.892 311.267 181.808 306.05 182.439C304.796 180.84 302.882 179.818 300.821 179.712Z" stroke="white" stroke-opacity="0.4"/>
<defs>
<filter id="filter0_d" x="73.9707" y="56.0307" width="272.771" height="272.771" filterUnits="userSpaceOnUse" color-interpolation-filters="sRGB">
<feFlood flood-opacity="0" result="BackgroundImageFix"/>
<feColorMatrix in="SourceAlpha" type="matrix" values="0 0 0 0 0 0 0 0 0 0 0 0 0 0 0 0 0 0 127 0"/>
<feOffset/>
<feGaussianBlur stdDeviation="6"/>
<feColorMatrix type="matrix" values="0 0 0 0 1 0 0 0 0 1 0 0 0 0 1 0 0 0 0.78 0"/>
<feBlend mode="normal" in2="BackgroundImageFix" result="effect1_dropShadow"/>
<feBlend mode="normal" in="SourceGraphic" in2="effect1_dropShadow" result="shape"/>
</filter>
<clipPath id="clip0">
<rect width="186" height="186" fill="white" transform="translate(85.9707 149.682) rotate(-26.0394)"/>
</clipPath>
</defs>
</svg>
