<svg viewBox="0 0 395 384" fill="none" xmlns="http://www.w3.org/2000/svg" preserveAspectRatio="xMinYMin meet">
<g clip-path="url(#clip0)" filter="url(#filter0_d)">
<mask id="path-1-inside-1" fill="white">
<path d="M288.132 149.771C282.012 138.758 273.699 128.909 263.873 121.046C264.197 119.95 264.151 118.739 263.619 117.652C262.491 115.342 259.622 114.356 257.312 115.485C257.096 115.59 256.904 115.725 256.712 115.859C249.32 111.016 241.267 107.244 232.768 104.871C229.653 104.001 226.474 103.385 223.267 102.952C223.169 102.463 223.03 101.98 222.808 101.526C221.119 98.0689 216.47 97.1521 213.583 99.6903C212.888 100.303 212.107 101.296 211.762 102.249C198.42 102.386 184.925 105.626 172.807 110.705C172.174 110.283 171.434 110.029 170.655 109.929C168.332 109.334 165.757 110.95 165.004 113.145C164.854 113.578 164.792 114.031 164.768 114.485C149.997 122.354 138.106 134.469 130.686 149.155C128.994 148.39 126.998 148.319 125.232 149.182C122.089 150.718 120.748 154.622 122.284 157.766C123.04 159.312 124.369 160.416 125.896 160.961C125.612 161.867 125.333 162.776 125.079 163.695C120.421 178.425 120.063 194.536 123.44 209.898C123.097 210.003 122.752 210.113 122.399 210.285C115.432 213.689 120.139 224.114 126.923 222.001C132.785 238.282 142.972 252.926 156.73 263.071C155.314 267.705 159.91 273.736 165.573 270.969C166.323 270.602 166.907 270.14 167.403 269.636C167.62 269.746 167.828 269.87 168.046 269.978C177.616 274.676 188.116 277.494 198.845 278.545C200.034 281.533 203.262 283.743 206.989 281.922C208.45 281.208 209.352 280.167 209.842 279.005C219.268 278.876 228.685 277.418 237.64 274.693C239.127 276.952 241.91 278.311 245.05 276.777C247.74 275.463 248.59 273.047 248.237 270.772C250.53 269.762 252.78 268.672 254.969 267.483C266.033 261.475 275.372 253.062 282.61 243.116C284.155 243.843 286.028 243.935 288.032 242.955C292.856 240.599 292.366 235.031 289.432 232.129C294.042 223.323 297.194 213.715 298.69 203.759C299.243 200.07 299.501 196.376 299.523 192.693C299.592 192.662 299.663 192.645 299.732 192.612C300.774 192.098 301.619 191.36 302.267 190.395C302.851 189.515 303.3 188.304 303.376 187.136C303.489 186.381 303.462 185.564 303.289 184.779C303.188 184.231 303.015 183.703 302.802 183.267C302.05 181.727 300.58 180.624 298.909 180.31C298.819 180.287 298.728 180.282 298.637 180.264C297.652 173.659 295.879 167.179 293.417 160.944C295.408 159.025 296.084 155.948 294.817 153.356C293.574 150.814 290.818 149.456 288.132 149.771ZM258.237 124.257C258.449 129.896 259.687 135.723 260.419 141.193C261.359 148.217 262.02 155.471 263.605 162.436C263.343 162.488 263.091 162.568 262.845 162.666C260.607 158.497 257.598 154.575 254.961 150.798C251.974 146.52 248.804 142.296 245.216 138.487C246.836 137.264 247.051 135.315 246.405 133.689C248.454 132.405 250.416 130.633 251.86 129.513C253.742 128.054 256.154 126.267 258.006 124.202C258.081 124.225 258.159 124.237 258.237 124.257ZM291.984 190.963C290.022 192.678 288.105 194.451 286.158 196.203C280.807 201.018 274.958 205.302 269.606 210.086C269.238 209.853 268.85 209.656 268.437 209.519C268.694 203.158 268.751 196.767 268.987 190.41C269.204 184.6 269.795 177.618 268.267 171.693C271.528 173.782 275.379 175.185 278.692 176.946C282.916 179.193 286.625 182.557 290.696 185.145C290.169 187.141 290.619 189.338 291.984 190.963ZM262.699 217.318C250.799 226.543 243.135 240.892 230.564 249.635C230.477 249.552 230.398 249.459 230.305 249.383C233.21 243.555 234.106 236.478 234.983 230.213C235.993 223.006 237.454 215.475 238.173 208.107C238.278 208.065 238.387 208.04 238.49 207.99C240.054 207.226 240.966 205.624 240.993 203.969C244.985 204.868 248.983 206.912 252.596 208.156C255.654 209.21 258.887 211.12 262.194 212.331C261.619 213.663 261.577 215.219 262.251 216.6C262.379 216.858 262.536 217.09 262.699 217.318ZM177.353 246.53C177.314 246.61 177.277 246.693 177.242 246.777C169.89 241.319 161.785 236.621 154.223 231.587C146.716 226.588 139.072 221.801 131.273 217.278C131.372 216.65 131.387 216.012 131.295 215.379C136.634 215.069 141.968 214.658 147.31 214.419C151.036 214.253 154.814 214.136 158.502 213.56C159.376 215.74 161.411 217.458 163.929 217.288C167.548 227.096 171.41 238.062 177.353 246.53ZM146.79 179.981C154.279 175.395 161.699 168.957 167.365 162.035C167.753 162.163 168.155 162.223 168.557 162.244C167.768 169.401 167.583 176.654 166.395 183.803C165.173 191.158 164.298 198.538 163.267 205.91C162.767 205.946 162.247 206.074 161.717 206.272C155.904 200.007 151.515 192.469 145.526 186.475C147.285 184.889 147.903 182.247 146.82 180.031C146.811 180.013 146.799 179.999 146.79 179.981ZM202.566 196.433C203.917 188.448 205.918 180.706 207.791 172.892C208.71 173.043 209.675 172.933 210.56 172.501C210.599 172.482 210.631 172.452 210.67 172.432C213.541 177.156 218.276 181.635 221.381 185.784C225.035 190.666 228.524 196.684 232.814 201.389C232.134 202.395 231.862 203.647 232.108 204.859C226.636 205.994 221.262 208.349 216.02 209.993C210.966 211.578 205.636 212.632 200.675 214.521C200.312 214.245 199.906 214.019 199.459 213.853C201.068 208.212 201.632 201.955 202.566 196.433ZM196.842 213.662C195.607 213.911 194.471 214.62 193.749 215.709C193.465 216.137 193.263 216.603 193.13 217.084C188.854 215.765 184.359 214.868 180.126 213.56C176.495 212.438 172.863 211.504 169.15 211.187C169.05 210.399 168.781 209.634 168.398 208.932C175.458 203.424 181.541 196.465 187.513 189.906C193.033 183.846 199.834 177.796 204.741 171.012C204.854 171.169 204.981 171.308 205.112 171.449C202.967 177.965 201.864 184.977 200.653 191.629C199.378 198.627 197.436 206.314 196.842 213.662ZM223.557 183.861C220.469 179.976 216.781 174.18 212.378 170.862C212.903 170.053 213.186 169.098 213.154 168.127C221.976 169.035 230.917 169.594 239.751 170.499C245.629 171.102 253.186 171.833 259.716 170.926C259.891 171.169 260.084 171.389 260.292 171.59C255.607 176.43 251.991 182.446 247.823 187.639C244.498 191.786 240.566 195.254 237.842 199.645C237.154 199.431 236.421 199.386 235.699 199.514C232.315 193.953 227.424 188.722 223.557 183.861ZM238.595 167.584C231.291 166.885 223.346 164.968 215.837 165.619C219.897 162.328 223.67 158.532 227.32 154.985C232.133 150.307 237.372 144.963 241.203 139.163C241.922 139.445 242.736 139.516 243.609 139.276C246.597 143.647 249.721 147.931 252.657 152.339C255.239 156.217 257.428 160.485 260.042 164.388C259.229 165.324 258.789 166.531 258.758 167.763C252.048 167.702 245.267 168.223 238.595 167.584ZM239 137.154C234.376 142.269 230.18 147.8 225.34 152.746C221.121 157.057 216.367 161.059 212.192 165.468C211.968 165.182 211.707 164.937 211.428 164.716C212.264 161.407 212.586 157.906 213.069 154.6C213.805 149.541 214.406 144.461 215.041 139.388C216.917 138.404 217.851 136.225 217.354 134.225C220.934 134.416 224.526 134.493 228.104 134.563C231.472 134.63 234.974 135.1 238.417 135.188C238.463 135.872 238.664 136.546 239 137.154ZM210.752 150.645C209.911 154.782 208.792 159.289 208.199 163.685C207.614 163.72 207.027 163.863 206.473 164.134C206.124 164.304 205.816 164.527 205.532 164.769C199.57 162.7 193.018 161.453 187.067 159.706C182.535 158.375 178.004 157.305 173.366 157.05C173.361 156.968 173.364 156.891 173.358 156.806C173.336 156.545 173.317 156.286 173.297 156.024C173.272 155.711 173.189 155.396 173.064 155.089C179.242 152.859 185.216 149.718 191.141 147.012C197.292 144.205 203.527 141.527 209.458 138.281C210.41 139.393 211.85 139.987 213.297 139.883C212.255 143.418 211.491 147.01 210.752 150.645ZM190.209 163.649C194.581 164.974 199.279 166.819 203.97 167.481C203.927 167.704 203.907 167.929 203.898 168.158C196.919 173.385 191.327 181.357 185.576 187.716C179.539 194.391 172.913 200.471 166.659 206.909C166.275 206.625 165.859 206.396 165.411 206.223C167.162 199.759 167.794 192.946 168.957 186.382C170.373 178.398 172.258 169.513 171.753 161.213C172.098 160.929 172.402 160.602 172.66 160.218C172.877 159.894 173.02 159.569 173.133 159.24C178.88 160.489 184.56 161.936 190.209 163.649ZM172.818 231.866C170.491 226.842 168.232 221.772 165.68 216.856C165.823 216.799 165.961 216.769 166.105 216.698C167.593 215.972 168.464 214.882 168.884 213.675C173.416 214.659 177.854 215.978 182.303 217.36C185.834 218.455 189.52 219.799 193.238 220.016C193.439 220.588 193.735 221.132 194.15 221.604C194.399 221.887 194.679 222.117 194.969 222.323C192.455 225.491 189.945 228.756 187.903 232.168C185.685 235.871 184.242 239.962 182.324 243.827C181.408 243.714 180.455 243.843 179.577 244.272C179.487 244.316 179.412 244.38 179.325 244.428C177.185 240.236 174.795 236.135 172.818 231.866ZM189.706 235.375C191.93 231.068 195.89 227.579 197.881 223.198C198.566 223.18 199.256 223.04 199.911 222.749C199.92 222.744 199.928 222.74 199.937 222.737C200.249 222.6 200.532 222.409 200.8 222.198C208.406 231.248 215.825 240.747 223.927 249.281C223.507 249.562 223.12 249.922 222.79 250.33C216.713 249.502 210.557 248.957 204.505 248.173C198.958 247.454 192.174 245.916 186.157 246.486C185.793 245.768 185.261 245.189 184.639 244.744C186.613 241.819 188.052 238.577 189.706 235.375ZM201.921 220.916C202.534 219.899 202.805 218.667 202.553 217.529C202.551 217.52 202.549 217.51 202.548 217.503C202.476 217.175 202.366 216.861 202.238 216.557C207.115 216.006 211.919 214.454 216.601 213.091C222.142 211.48 228.303 210.017 233.572 207.349C233.951 207.67 234.385 207.914 234.843 208.096C233.566 213.899 233.416 220.235 232.731 225.874C231.799 233.583 230.262 240.987 228.503 248.471C228.189 248.396 227.864 248.35 227.529 248.352C226.824 248.357 226.369 248.38 225.905 248.48C219.192 238.693 211.078 228.656 201.921 220.916ZM250.213 204.513C247.836 203.71 243.822 201.889 240.394 201.672C240.179 201.303 239.921 200.972 239.62 200.688C242.99 196.738 246.751 193.108 250.159 189.194C254.603 184.089 259.019 178.493 263.16 172.983C263.745 173.075 264.355 173.086 264.97 173.007C265.07 172.994 265.167 172.963 265.265 172.944C265.497 179.403 266.199 185.844 265.941 192.389C265.719 197.962 265.39 203.755 266.425 209.279C265.878 209.32 265.336 209.457 264.813 209.684C259.964 207.902 255.081 206.156 250.213 204.513ZM222.813 106.692C234.294 108.309 245.101 112.479 254.815 118.713C254.588 119.725 254.665 120.806 255.147 121.793C255.228 121.959 255.336 122.101 255.434 122.253C253.687 124.051 252.005 125.96 250.153 127.581C248.699 128.851 246.571 130.126 244.758 131.558C243.679 130.809 242.253 130.576 240.709 131.331C240.574 131.397 240.468 131.48 240.344 131.556C236.085 127.132 232.762 122.391 229.296 117.142C227.088 113.796 224.872 110.594 222.059 107.897C222.356 107.515 222.612 107.105 222.813 106.692ZM216.194 110.453C217.393 110.627 218.65 110.463 219.677 109.961C219.99 109.808 220.287 109.612 220.571 109.394C225.724 116.399 229.527 125.934 235.951 131.645C233.376 131.553 230.777 131.649 228.325 131.623C224.299 131.579 220.227 131.773 216.205 132.199C215.52 131.498 214.639 131.032 213.686 130.868C213.785 128.8 213.837 126.73 214.055 124.734C214.576 119.935 215.237 115.172 216.194 110.453ZM174.828 113.763C174.819 113.71 174.795 113.664 174.784 113.612C182.593 110.479 190.834 108.347 199.056 106.999C203.247 106.31 207.393 105.971 211.477 105.942C211.723 107.007 212.159 107.688 212.841 108.602C213.311 109.232 213.954 109.685 214.666 110.005C213.405 114.173 212.371 118.399 211.5 122.679C211.092 124.684 210.664 126.882 210.396 129.115C206.026 126.235 200.701 124.363 196.022 122.545C189.047 119.838 181.94 117.488 174.872 115.039C174.907 114.612 174.907 114.185 174.828 113.763ZM172.212 118.968C172.99 118.585 173.62 118.033 174.104 117.314C174.146 117.253 174.169 117.184 174.208 117.119C179.58 119.796 185.168 121.895 190.84 123.972C197.241 126.313 203.305 129.706 209.593 132.253C208.68 133.253 208.256 134.626 208.434 135.975C202.159 138.574 196.082 141.658 189.934 144.541C183.921 147.364 177.522 149.911 171.753 153.298C171.567 153.132 171.379 152.965 171.189 152.838C171.027 152.731 170.86 152.639 170.688 152.551C171.639 147.339 171.696 141.804 171.827 136.65C171.967 131.188 172.106 125.025 170.773 119.512C171.272 119.423 171.752 119.261 172.212 118.968ZM155.263 124.561C158.587 122.004 162.125 119.761 165.812 117.783C166.48 118.621 167.438 119.295 168.472 119.533C168.508 125.151 169.171 130.801 168.96 136.44C168.768 141.61 167.886 146.878 167.706 152.089C167.225 152.162 166.752 152.299 166.306 152.517C165.702 152.812 165.174 153.232 164.743 153.733C159.467 152.606 154.125 151.698 148.817 150.934C143.618 150.182 138.281 149.925 133.4 151.462C133.28 151.283 133.169 151.099 133.035 150.933C138.546 140.809 145.763 131.866 155.263 124.561ZM134.323 153.757C139.715 153.1 145.156 153.457 150.598 154.213C154.928 154.814 159.234 155.907 163.577 156.504C163.462 157.832 163.819 159.312 164.777 160.187C164.876 160.278 164.974 160.367 165.073 160.458C158.512 166.307 152.276 172.694 145.804 178.646C144.545 177.372 142.715 176.782 140.944 177.095C139.881 175.117 138.648 173.206 137.516 171.309C135.379 167.721 133.311 164.096 131.385 160.393C133.65 158.995 134.79 156.319 134.323 153.757ZM159.228 207.936C158.547 208.736 158.192 209.671 158.082 210.635C153.735 210.922 149.386 211.374 145.05 211.582C140.145 211.817 135.208 211.953 130.396 212.842C130.135 212.39 129.831 211.966 129.481 211.584C134.758 204.524 139.199 196.035 142.038 187.845C142.512 187.839 142.985 187.773 143.452 187.638C148.511 194.442 152.941 202.381 159.228 207.936ZM126.045 166.768C126.694 164.93 127.375 163.115 128.104 161.33C128.599 161.33 129.093 161.288 129.583 161.17C130.939 164.363 132.499 167.447 134.155 170.537C135.518 173.081 136.816 175.815 138.293 178.402C136.558 179.992 135.953 182.614 137.029 184.815C137.529 185.839 138.328 186.631 139.271 187.155C135.544 194.967 132.542 203.039 127.943 210.36C127.503 210.109 127.035 209.912 126.537 209.787C123.112 195.755 122.778 180.786 126.045 166.768ZM159.946 259.451C159.614 259.613 159.339 259.808 159.058 259.999C148.044 251.926 139.016 240.899 132.653 227.275C131.591 225.002 130.628 222.672 129.749 220.299C130.027 220.014 130.268 219.713 130.47 219.396C137.809 224.33 145.16 229.247 152.596 234.034C160.572 239.17 168.47 245.044 176.902 249.553C176.977 250.007 177.093 250.459 177.304 250.892C177.31 250.903 177.317 250.912 177.322 250.922C175.593 252.277 173.904 253.693 172.168 254.997C170.133 256.527 167.983 258.061 166.02 259.775C164.397 258.662 162.259 258.321 159.946 259.451ZM198.456 275.09C187.844 273.898 177.941 270.886 169.016 266.207C169.16 264.746 168.781 263.247 168.021 261.967C169.56 260.773 171.09 259.564 172.651 258.422C174.99 256.714 177.53 255.097 179.816 253.229C181.099 253.776 182.595 253.813 183.923 253.163C184.289 252.985 184.61 252.754 184.911 252.501C188.155 256.266 191.523 259.931 194.652 263.813C196.678 266.327 198.628 269.044 200.79 271.533C199.429 272.471 198.694 273.737 198.456 275.09ZM203.849 270.392C201.064 266.99 198 263.745 195.22 260.423C192.506 257.181 189.558 253.664 186.051 251.12C186.374 250.536 186.572 249.888 186.644 249.223C193.101 249.648 199.549 250.594 205.94 251.467C210.751 252.123 216.31 253.525 221.617 253.897C221.645 254.904 221.941 255.865 222.475 256.686C220.157 258.933 218.09 261.65 215.787 263.778C213.042 266.315 210.187 268.76 207.578 271.439C206.538 270.672 205.262 270.262 203.849 270.392ZM236.536 271.553C228.33 274.07 219.725 275.471 211.025 275.652C210.738 275.658 210.455 275.652 210.17 275.657C209.991 274.692 209.614 273.756 209.05 272.95C212.549 270.518 215.825 267.727 218.982 264.895C220.954 263.126 223.429 261.086 225.121 258.731C226.286 259.117 227.55 259.06 228.685 258.607C230.102 260.547 231.649 262.395 233.259 264.161C234.437 265.453 235.749 266.955 237.168 268.391C236.631 269.37 236.442 270.466 236.536 271.553ZM244.634 265.814C243.243 265.175 241.566 265.098 239.772 265.974C239.715 266.002 239.674 266.04 239.619 266.069C236.502 263.288 233.295 260.607 230.404 257.581C231.487 256.661 232.21 255.268 232.312 253.906C232.38 252.994 232.153 252.054 231.73 251.206C238.425 247.089 243.903 241.71 249.238 235.854C253.348 231.344 257.493 227.048 261.773 222.841C258.937 228.519 256.884 234.82 254.761 240.447C251.562 248.93 247.805 257.305 244.634 265.814ZM280.295 241.285C271.646 252.907 260.033 261.834 246.91 267.675C246.8 267.531 246.68 267.394 246.558 267.258C250.472 260.553 253.004 252.845 255.708 245.699C259.052 236.865 263.436 228.252 266.811 219.435C267.583 219.446 268.36 219.306 269.091 218.949C269.318 218.838 269.519 218.696 269.722 218.555C272.296 221.282 274.714 225.674 276.158 227.631C277.317 229.204 278.472 231.139 279.708 233.056C277.89 235.558 278.426 239.003 280.295 241.285ZM288.607 227.315C288.093 228.429 287.548 229.52 286.987 230.6C285.701 230.167 284.224 230.175 282.66 230.82C280.634 228.331 278.445 225.941 276.636 223.667C275.36 222.064 273.344 219.142 271.049 217.203C272.033 215.73 272.261 213.789 271.441 212.11C271.305 211.833 271.14 211.582 270.962 211.342C275.864 209.003 280.189 205.374 284.294 201.887C287.771 198.933 291.269 195.937 294.677 192.853C295.175 193.036 295.698 193.139 296.226 193.195C296.145 204.757 293.656 216.366 288.607 227.315ZM295.348 180.48C295.099 180.565 294.859 180.665 294.623 180.781C293.793 181.12 293.025 181.634 292.396 182.249C288.995 179.972 285.671 177.596 282.169 175.427C278.099 172.904 273.497 171.189 269.038 169.258C269.359 168.029 269.219 166.644 268.683 165.548C268.671 165.522 268.652 165.503 268.639 165.477C268.637 165.472 268.635 165.469 268.635 165.464C273.838 164.498 279.546 163.18 284.686 161.173C286.31 162.547 288.553 163.085 290.645 162.528C292.875 168.355 294.452 174.372 295.348 180.48ZM282.771 158.309C281.358 158.844 279.936 159.36 278.486 159.808C274.719 160.975 270.97 162.001 267.354 163.471C266.917 163.088 266.408 162.789 265.852 162.597C265.781 162.573 265.712 162.566 265.642 162.544C265.301 156.831 264.365 151.127 263.678 145.469C262.845 138.602 262.685 130.979 261.161 124.063C261.257 124.024 261.357 124.002 261.452 123.956C261.587 123.89 261.703 123.8 261.828 123.722C268.387 128.909 274.331 135.092 279.49 142.109C281.577 144.947 283.465 147.888 285.17 150.904C282.855 152.561 281.866 155.598 282.771 158.309Z"/>
</mask>
<path d="M288.132 149.771C282.012 138.758 273.699 128.909 263.873 121.046C264.197 119.95 264.151 118.739 263.619 117.652C262.491 115.342 259.622 114.356 257.312 115.485C257.096 115.59 256.904 115.725 256.712 115.859C249.32 111.016 241.267 107.244 232.768 104.871C229.653 104.001 226.474 103.385 223.267 102.952C223.169 102.463 223.03 101.98 222.808 101.526C221.119 98.0689 216.47 97.1521 213.583 99.6903C212.888 100.303 212.107 101.296 211.762 102.249C198.42 102.386 184.925 105.626 172.807 110.705C172.174 110.283 171.434 110.029 170.655 109.929C168.332 109.334 165.757 110.95 165.004 113.145C164.854 113.578 164.792 114.031 164.768 114.485C149.997 122.354 138.106 134.469 130.686 149.155C128.994 148.39 126.998 148.319 125.232 149.182C122.089 150.718 120.748 154.622 122.284 157.766C123.04 159.312 124.369 160.416 125.896 160.961C125.612 161.867 125.333 162.776 125.079 163.695C120.421 178.425 120.063 194.536 123.44 209.898C123.097 210.003 122.752 210.113 122.399 210.285C115.432 213.689 120.139 224.114 126.923 222.001C132.785 238.282 142.972 252.926 156.73 263.071C155.314 267.705 159.91 273.736 165.573 270.969C166.323 270.602 166.907 270.14 167.403 269.636C167.62 269.746 167.828 269.87 168.046 269.978C177.616 274.676 188.116 277.494 198.845 278.545C200.034 281.533 203.262 283.743 206.989 281.922C208.45 281.208 209.352 280.167 209.842 279.005C219.268 278.876 228.685 277.418 237.64 274.693C239.127 276.952 241.91 278.311 245.05 276.777C247.74 275.463 248.59 273.047 248.237 270.772C250.53 269.762 252.78 268.672 254.969 267.483C266.033 261.475 275.372 253.062 282.61 243.116C284.155 243.843 286.028 243.935 288.032 242.955C292.856 240.599 292.366 235.031 289.432 232.129C294.042 223.323 297.194 213.715 298.69 203.759C299.243 200.07 299.501 196.376 299.523 192.693C299.592 192.662 299.663 192.645 299.732 192.612C300.774 192.098 301.619 191.36 302.267 190.395C302.851 189.515 303.3 188.304 303.376 187.136C303.489 186.381 303.462 185.564 303.289 184.779C303.188 184.231 303.015 183.703 302.802 183.267C302.05 181.727 300.58 180.624 298.909 180.31C298.819 180.287 298.728 180.282 298.637 180.264C297.652 173.659 295.879 167.179 293.417 160.944C295.408 159.025 296.084 155.948 294.817 153.356C293.574 150.814 290.818 149.456 288.132 149.771ZM258.237 124.257C258.449 129.896 259.687 135.723 260.419 141.193C261.359 148.217 262.02 155.471 263.605 162.436C263.343 162.488 263.091 162.568 262.845 162.666C260.607 158.497 257.598 154.575 254.961 150.798C251.974 146.52 248.804 142.296 245.216 138.487C246.836 137.264 247.051 135.315 246.405 133.689C248.454 132.405 250.416 130.633 251.86 129.513C253.742 128.054 256.154 126.267 258.006 124.202C258.081 124.225 258.159 124.237 258.237 124.257ZM291.984 190.963C290.022 192.678 288.105 194.451 286.158 196.203C280.807 201.018 274.958 205.302 269.606 210.086C269.238 209.853 268.85 209.656 268.437 209.519C268.694 203.158 268.751 196.767 268.987 190.41C269.204 184.6 269.795 177.618 268.267 171.693C271.528 173.782 275.379 175.185 278.692 176.946C282.916 179.193 286.625 182.557 290.696 185.145C290.169 187.141 290.619 189.338 291.984 190.963ZM262.699 217.318C250.799 226.543 243.135 240.892 230.564 249.635C230.477 249.552 230.398 249.459 230.305 249.383C233.21 243.555 234.106 236.478 234.983 230.213C235.993 223.006 237.454 215.475 238.173 208.107C238.278 208.065 238.387 208.04 238.49 207.99C240.054 207.226 240.966 205.624 240.993 203.969C244.985 204.868 248.983 206.912 252.596 208.156C255.654 209.21 258.887 211.12 262.194 212.331C261.619 213.663 261.577 215.219 262.251 216.6C262.379 216.858 262.536 217.09 262.699 217.318ZM177.353 246.53C177.314 246.61 177.277 246.693 177.242 246.777C169.89 241.319 161.785 236.621 154.223 231.587C146.716 226.588 139.072 221.801 131.273 217.278C131.372 216.65 131.387 216.012 131.295 215.379C136.634 215.069 141.968 214.658 147.31 214.419C151.036 214.253 154.814 214.136 158.502 213.56C159.376 215.74 161.411 217.458 163.929 217.288C167.548 227.096 171.41 238.062 177.353 246.53ZM146.79 179.981C154.279 175.395 161.699 168.957 167.365 162.035C167.753 162.163 168.155 162.223 168.557 162.244C167.768 169.401 167.583 176.654 166.395 183.803C165.173 191.158 164.298 198.538 163.267 205.91C162.767 205.946 162.247 206.074 161.717 206.272C155.904 200.007 151.515 192.469 145.526 186.475C147.285 184.889 147.903 182.247 146.82 180.031C146.811 180.013 146.799 179.999 146.79 179.981ZM202.566 196.433C203.917 188.448 205.918 180.706 207.791 172.892C208.71 173.043 209.675 172.933 210.56 172.501C210.599 172.482 210.631 172.452 210.67 172.432C213.541 177.156 218.276 181.635 221.381 185.784C225.035 190.666 228.524 196.684 232.814 201.389C232.134 202.395 231.862 203.647 232.108 204.859C226.636 205.994 221.262 208.349 216.02 209.993C210.966 211.578 205.636 212.632 200.675 214.521C200.312 214.245 199.906 214.019 199.459 213.853C201.068 208.212 201.632 201.955 202.566 196.433ZM196.842 213.662C195.607 213.911 194.471 214.62 193.749 215.709C193.465 216.137 193.263 216.603 193.13 217.084C188.854 215.765 184.359 214.868 180.126 213.56C176.495 212.438 172.863 211.504 169.15 211.187C169.05 210.399 168.781 209.634 168.398 208.932C175.458 203.424 181.541 196.465 187.513 189.906C193.033 183.846 199.834 177.796 204.741 171.012C204.854 171.169 204.981 171.308 205.112 171.449C202.967 177.965 201.864 184.977 200.653 191.629C199.378 198.627 197.436 206.314 196.842 213.662ZM223.557 183.861C220.469 179.976 216.781 174.18 212.378 170.862C212.903 170.053 213.186 169.098 213.154 168.127C221.976 169.035 230.917 169.594 239.751 170.499C245.629 171.102 253.186 171.833 259.716 170.926C259.891 171.169 260.084 171.389 260.292 171.59C255.607 176.43 251.991 182.446 247.823 187.639C244.498 191.786 240.566 195.254 237.842 199.645C237.154 199.431 236.421 199.386 235.699 199.514C232.315 193.953 227.424 188.722 223.557 183.861ZM238.595 167.584C231.291 166.885 223.346 164.968 215.837 165.619C219.897 162.328 223.67 158.532 227.32 154.985C232.133 150.307 237.372 144.963 241.203 139.163C241.922 139.445 242.736 139.516 243.609 139.276C246.597 143.647 249.721 147.931 252.657 152.339C255.239 156.217 257.428 160.485 260.042 164.388C259.229 165.324 258.789 166.531 258.758 167.763C252.048 167.702 245.267 168.223 238.595 167.584ZM239 137.154C234.376 142.269 230.18 147.8 225.34 152.746C221.121 157.057 216.367 161.059 212.192 165.468C211.968 165.182 211.707 164.937 211.428 164.716C212.264 161.407 212.586 157.906 213.069 154.6C213.805 149.541 214.406 144.461 215.041 139.388C216.917 138.404 217.851 136.225 217.354 134.225C220.934 134.416 224.526 134.493 228.104 134.563C231.472 134.63 234.974 135.1 238.417 135.188C238.463 135.872 238.664 136.546 239 137.154ZM210.752 150.645C209.911 154.782 208.792 159.289 208.199 163.685C207.614 163.72 207.027 163.863 206.473 164.134C206.124 164.304 205.816 164.527 205.532 164.769C199.57 162.7 193.018 161.453 187.067 159.706C182.535 158.375 178.004 157.305 173.366 157.05C173.361 156.968 173.364 156.891 173.358 156.806C173.336 156.545 173.317 156.286 173.297 156.024C173.272 155.711 173.189 155.396 173.064 155.089C179.242 152.859 185.216 149.718 191.141 147.012C197.292 144.205 203.527 141.527 209.458 138.281C210.41 139.393 211.85 139.987 213.297 139.883C212.255 143.418 211.491 147.01 210.752 150.645ZM190.209 163.649C194.581 164.974 199.279 166.819 203.97 167.481C203.927 167.704 203.907 167.929 203.898 168.158C196.919 173.385 191.327 181.357 185.576 187.716C179.539 194.391 172.913 200.471 166.659 206.909C166.275 206.625 165.859 206.396 165.411 206.223C167.162 199.759 167.794 192.946 168.957 186.382C170.373 178.398 172.258 169.513 171.753 161.213C172.098 160.929 172.402 160.602 172.66 160.218C172.877 159.894 173.02 159.569 173.133 159.24C178.88 160.489 184.56 161.936 190.209 163.649ZM172.818 231.866C170.491 226.842 168.232 221.772 165.68 216.856C165.823 216.799 165.961 216.769 166.105 216.698C167.593 215.972 168.464 214.882 168.884 213.675C173.416 214.659 177.854 215.978 182.303 217.36C185.834 218.455 189.52 219.799 193.238 220.016C193.439 220.588 193.735 221.132 194.15 221.604C194.399 221.887 194.679 222.117 194.969 222.323C192.455 225.491 189.945 228.756 187.903 232.168C185.685 235.871 184.242 239.962 182.324 243.827C181.408 243.714 180.455 243.843 179.577 244.272C179.487 244.316 179.412 244.38 179.325 244.428C177.185 240.236 174.795 236.135 172.818 231.866ZM189.706 235.375C191.93 231.068 195.89 227.579 197.881 223.198C198.566 223.18 199.256 223.04 199.911 222.749C199.92 222.744 199.928 222.74 199.937 222.737C200.249 222.6 200.532 222.409 200.8 222.198C208.406 231.248 215.825 240.747 223.927 249.281C223.507 249.562 223.12 249.922 222.79 250.33C216.713 249.502 210.557 248.957 204.505 248.173C198.958 247.454 192.174 245.916 186.157 246.486C185.793 245.768 185.261 245.189 184.639 244.744C186.613 241.819 188.052 238.577 189.706 235.375ZM201.921 220.916C202.534 219.899 202.805 218.667 202.553 217.529C202.551 217.52 202.549 217.51 202.548 217.503C202.476 217.175 202.366 216.861 202.238 216.557C207.115 216.006 211.919 214.454 216.601 213.091C222.142 211.48 228.303 210.017 233.572 207.349C233.951 207.67 234.385 207.914 234.843 208.096C233.566 213.899 233.416 220.235 232.731 225.874C231.799 233.583 230.262 240.987 228.503 248.471C228.189 248.396 227.864 248.35 227.529 248.352C226.824 248.357 226.369 248.38 225.905 248.48C219.192 238.693 211.078 228.656 201.921 220.916ZM250.213 204.513C247.836 203.71 243.822 201.889 240.394 201.672C240.179 201.303 239.921 200.972 239.62 200.688C242.99 196.738 246.751 193.108 250.159 189.194C254.603 184.089 259.019 178.493 263.16 172.983C263.745 173.075 264.355 173.086 264.97 173.007C265.07 172.994 265.167 172.963 265.265 172.944C265.497 179.403 266.199 185.844 265.941 192.389C265.719 197.962 265.39 203.755 266.425 209.279C265.878 209.32 265.336 209.457 264.813 209.684C259.964 207.902 255.081 206.156 250.213 204.513ZM222.813 106.692C234.294 108.309 245.101 112.479 254.815 118.713C254.588 119.725 254.665 120.806 255.147 121.793C255.228 121.959 255.336 122.101 255.434 122.253C253.687 124.051 252.005 125.96 250.153 127.581C248.699 128.851 246.571 130.126 244.758 131.558C243.679 130.809 242.253 130.576 240.709 131.331C240.574 131.397 240.468 131.48 240.344 131.556C236.085 127.132 232.762 122.391 229.296 117.142C227.088 113.796 224.872 110.594 222.059 107.897C222.356 107.515 222.612 107.105 222.813 106.692ZM216.194 110.453C217.393 110.627 218.65 110.463 219.677 109.961C219.99 109.808 220.287 109.612 220.571 109.394C225.724 116.399 229.527 125.934 235.951 131.645C233.376 131.553 230.777 131.649 228.325 131.623C224.299 131.579 220.227 131.773 216.205 132.199C215.52 131.498 214.639 131.032 213.686 130.868C213.785 128.8 213.837 126.73 214.055 124.734C214.576 119.935 215.237 115.172 216.194 110.453ZM174.828 113.763C174.819 113.71 174.795 113.664 174.784 113.612C182.593 110.479 190.834 108.347 199.056 106.999C203.247 106.31 207.393 105.971 211.477 105.942C211.723 107.007 212.159 107.688 212.841 108.602C213.311 109.232 213.954 109.685 214.666 110.005C213.405 114.173 212.371 118.399 211.5 122.679C211.092 124.684 210.664 126.882 210.396 129.115C206.026 126.235 200.701 124.363 196.022 122.545C189.047 119.838 181.94 117.488 174.872 115.039C174.907 114.612 174.907 114.185 174.828 113.763ZM172.212 118.968C172.99 118.585 173.62 118.033 174.104 117.314C174.146 117.253 174.169 117.184 174.208 117.119C179.58 119.796 185.168 121.895 190.84 123.972C197.241 126.313 203.305 129.706 209.593 132.253C208.68 133.253 208.256 134.626 208.434 135.975C202.159 138.574 196.082 141.658 189.934 144.541C183.921 147.364 177.522 149.911 171.753 153.298C171.567 153.132 171.379 152.965 171.189 152.838C171.027 152.731 170.86 152.639 170.688 152.551C171.639 147.339 171.696 141.804 171.827 136.65C171.967 131.188 172.106 125.025 170.773 119.512C171.272 119.423 171.752 119.261 172.212 118.968ZM155.263 124.561C158.587 122.004 162.125 119.761 165.812 117.783C166.48 118.621 167.438 119.295 168.472 119.533C168.508 125.151 169.171 130.801 168.96 136.44C168.768 141.61 167.886 146.878 167.706 152.089C167.225 152.162 166.752 152.299 166.306 152.517C165.702 152.812 165.174 153.232 164.743 153.733C159.467 152.606 154.125 151.698 148.817 150.934C143.618 150.182 138.281 149.925 133.4 151.462C133.28 151.283 133.169 151.099 133.035 150.933C138.546 140.809 145.763 131.866 155.263 124.561ZM134.323 153.757C139.715 153.1 145.156 153.457 150.598 154.213C154.928 154.814 159.234 155.907 163.577 156.504C163.462 157.832 163.819 159.312 164.777 160.187C164.876 160.278 164.974 160.367 165.073 160.458C158.512 166.307 152.276 172.694 145.804 178.646C144.545 177.372 142.715 176.782 140.944 177.095C139.881 175.117 138.648 173.206 137.516 171.309C135.379 167.721 133.311 164.096 131.385 160.393C133.65 158.995 134.79 156.319 134.323 153.757ZM159.228 207.936C158.547 208.736 158.192 209.671 158.082 210.635C153.735 210.922 149.386 211.374 145.05 211.582C140.145 211.817 135.208 211.953 130.396 212.842C130.135 212.39 129.831 211.966 129.481 211.584C134.758 204.524 139.199 196.035 142.038 187.845C142.512 187.839 142.985 187.773 143.452 187.638C148.511 194.442 152.941 202.381 159.228 207.936ZM126.045 166.768C126.694 164.93 127.375 163.115 128.104 161.33C128.599 161.33 129.093 161.288 129.583 161.17C130.939 164.363 132.499 167.447 134.155 170.537C135.518 173.081 136.816 175.815 138.293 178.402C136.558 179.992 135.953 182.614 137.029 184.815C137.529 185.839 138.328 186.631 139.271 187.155C135.544 194.967 132.542 203.039 127.943 210.36C127.503 210.109 127.035 209.912 126.537 209.787C123.112 195.755 122.778 180.786 126.045 166.768ZM159.946 259.451C159.614 259.613 159.339 259.808 159.058 259.999C148.044 251.926 139.016 240.899 132.653 227.275C131.591 225.002 130.628 222.672 129.749 220.299C130.027 220.014 130.268 219.713 130.47 219.396C137.809 224.33 145.16 229.247 152.596 234.034C160.572 239.17 168.47 245.044 176.902 249.553C176.977 250.007 177.093 250.459 177.304 250.892C177.31 250.903 177.317 250.912 177.322 250.922C175.593 252.277 173.904 253.693 172.168 254.997C170.133 256.527 167.983 258.061 166.02 259.775C164.397 258.662 162.259 258.321 159.946 259.451ZM198.456 275.09C187.844 273.898 177.941 270.886 169.016 266.207C169.16 264.746 168.781 263.247 168.021 261.967C169.56 260.773 171.09 259.564 172.651 258.422C174.99 256.714 177.53 255.097 179.816 253.229C181.099 253.776 182.595 253.813 183.923 253.163C184.289 252.985 184.61 252.754 184.911 252.501C188.155 256.266 191.523 259.931 194.652 263.813C196.678 266.327 198.628 269.044 200.79 271.533C199.429 272.471 198.694 273.737 198.456 275.09ZM203.849 270.392C201.064 266.99 198 263.745 195.22 260.423C192.506 257.181 189.558 253.664 186.051 251.12C186.374 250.536 186.572 249.888 186.644 249.223C193.101 249.648 199.549 250.594 205.94 251.467C210.751 252.123 216.31 253.525 221.617 253.897C221.645 254.904 221.941 255.865 222.475 256.686C220.157 258.933 218.09 261.65 215.787 263.778C213.042 266.315 210.187 268.76 207.578 271.439C206.538 270.672 205.262 270.262 203.849 270.392ZM236.536 271.553C228.33 274.07 219.725 275.471 211.025 275.652C210.738 275.658 210.455 275.652 210.17 275.657C209.991 274.692 209.614 273.756 209.05 272.95C212.549 270.518 215.825 267.727 218.982 264.895C220.954 263.126 223.429 261.086 225.121 258.731C226.286 259.117 227.55 259.06 228.685 258.607C230.102 260.547 231.649 262.395 233.259 264.161C234.437 265.453 235.749 266.955 237.168 268.391C236.631 269.37 236.442 270.466 236.536 271.553ZM244.634 265.814C243.243 265.175 241.566 265.098 239.772 265.974C239.715 266.002 239.674 266.04 239.619 266.069C236.502 263.288 233.295 260.607 230.404 257.581C231.487 256.661 232.21 255.268 232.312 253.906C232.38 252.994 232.153 252.054 231.73 251.206C238.425 247.089 243.903 241.71 249.238 235.854C253.348 231.344 257.493 227.048 261.773 222.841C258.937 228.519 256.884 234.82 254.761 240.447C251.562 248.93 247.805 257.305 244.634 265.814ZM280.295 241.285C271.646 252.907 260.033 261.834 246.91 267.675C246.8 267.531 246.68 267.394 246.558 267.258C250.472 260.553 253.004 252.845 255.708 245.699C259.052 236.865 263.436 228.252 266.811 219.435C267.583 219.446 268.36 219.306 269.091 218.949C269.318 218.838 269.519 218.696 269.722 218.555C272.296 221.282 274.714 225.674 276.158 227.631C277.317 229.204 278.472 231.139 279.708 233.056C277.89 235.558 278.426 239.003 280.295 241.285ZM288.607 227.315C288.093 228.429 287.548 229.52 286.987 230.6C285.701 230.167 284.224 230.175 282.66 230.82C280.634 228.331 278.445 225.941 276.636 223.667C275.36 222.064 273.344 219.142 271.049 217.203C272.033 215.73 272.261 213.789 271.441 212.11C271.305 211.833 271.14 211.582 270.962 211.342C275.864 209.003 280.189 205.374 284.294 201.887C287.771 198.933 291.269 195.937 294.677 192.853C295.175 193.036 295.698 193.139 296.226 193.195C296.145 204.757 293.656 216.366 288.607 227.315ZM295.348 180.48C295.099 180.565 294.859 180.665 294.623 180.781C293.793 181.12 293.025 181.634 292.396 182.249C288.995 179.972 285.671 177.596 282.169 175.427C278.099 172.904 273.497 171.189 269.038 169.258C269.359 168.029 269.219 166.644 268.683 165.548C268.671 165.522 268.652 165.503 268.639 165.477C268.637 165.472 268.635 165.469 268.635 165.464C273.838 164.498 279.546 163.18 284.686 161.173C286.31 162.547 288.553 163.085 290.645 162.528C292.875 168.355 294.452 174.372 295.348 180.48ZM282.771 158.309C281.358 158.844 279.936 159.36 278.486 159.808C274.719 160.975 270.97 162.001 267.354 163.471C266.917 163.088 266.408 162.789 265.852 162.597C265.781 162.573 265.712 162.566 265.642 162.544C265.301 156.831 264.365 151.127 263.678 145.469C262.845 138.602 262.685 130.979 261.161 124.063C261.257 124.024 261.357 124.002 261.452 123.956C261.587 123.89 261.703 123.8 261.828 123.722C268.387 128.909 274.331 135.092 279.49 142.109C281.577 144.947 283.465 147.888 285.17 150.904C282.855 152.561 281.866 155.598 282.771 158.309Z" stroke="#A0F0B8" stroke-opacity="0.4" stroke-width="2" mask="url(#path-1-inside-1)"/>
</g>
<path d="M123.487 262.697L101.734 218.176C93.764 220.148 85.2026 216.374 81.4556 208.705C75.2654 196.035 85.626 181.603 99.4671 183.196L115.742 135.824C103.84 128.572 104.545 110.82 117.211 104.632C132.817 97.007 149.103 114.108 140.546 129.368L171.678 156.938L184.09 120.81L153.763 122.65C151.695 122.775 149.918 121.201 149.792 119.134C149.667 117.067 151.241 115.289 153.309 115.164L186.727 113.136L191.639 98.837C179.678 91.6415 180.297 73.8091 193.021 67.5924C205.691 61.4022 220.123 71.7628 218.529 85.6039L265.902 101.879C273.154 89.9772 290.906 90.6818 297.094 103.348C301.967 113.322 296.603 125.316 285.887 128.318L287.505 154.986L307.549 172.652C316.487 166.055 329.253 169.169 334.133 179.158C340.324 191.827 329.963 206.26 316.122 204.666L299.846 252.038C311.749 259.29 311.044 277.042 298.378 283.231C290.709 286.978 281.636 284.693 276.561 278.239L232.039 299.991C234.011 307.962 230.237 316.523 222.568 320.27C213.744 324.582 203.056 320.91 198.745 312.085C194.433 303.26 198.105 292.573 206.929 288.261C214.598 284.514 223.671 286.799 228.747 293.253L272.025 272.108L152.098 279.385C149.421 296.739 126.059 299.997 118.495 284.515C114.748 276.846 117.033 267.773 123.487 262.697V262.697ZM114.599 196.048L125.806 195.341L122.416 139.482L106.574 185.592C110.38 187.852 113.314 191.501 114.599 196.048ZM115.065 203.533C114.396 207.939 112.09 212.039 108.473 214.884L129.618 258.162L126.261 202.828L115.065 203.533ZM137.098 257.592L156.569 200.917L133.746 202.356L137.098 257.592ZM88.1943 205.412C90.6905 210.522 96.8779 212.647 101.987 210.151C107.096 207.655 109.222 201.467 106.726 196.358C104.229 191.249 98.0421 189.123 92.9329 191.62C87.8237 194.116 85.698 200.303 88.1943 205.412ZM120.503 111.371C115.394 113.867 113.268 120.054 115.765 125.163C118.261 130.273 124.448 132.398 129.557 129.902C134.667 127.406 136.792 121.219 134.296 116.109C131.8 111 125.612 108.874 120.503 111.371ZM135.577 134.986C133.834 136.266 131.944 137.194 129.828 137.787L133.291 194.869L159.207 193.236L169.039 164.619L135.577 134.986ZM167.314 192.725L198.553 190.756L175.12 170.004L167.314 192.725ZM211.421 97.9219C207.707 100.662 203.194 101.813 198.733 101.274L194.827 112.644L225.98 110.754L211.421 97.9219ZM236.592 110.11L262.244 108.554L217.313 93.1167L236.592 110.11ZM196.314 74.3311C191.204 76.8273 189.079 83.0147 191.575 88.1238C194.071 93.233 200.258 95.3588 205.368 92.8625C210.477 90.3662 212.603 84.1789 210.106 79.0697C207.61 73.9605 201.423 71.8348 196.314 74.3311ZM290.355 106.64C287.859 101.531 281.672 99.4051 276.562 101.901C271.453 104.398 269.327 110.585 271.824 115.694C274.32 120.803 280.507 122.929 285.617 120.433C290.726 117.936 292.851 111.749 290.355 106.64ZM278.4 128.765C271.535 127.706 265.853 122.797 263.939 115.965L244.568 117.14L279.566 147.989L278.4 128.765ZM288.146 165.549L289.328 185.035L300.524 184.33C300.846 182.208 301.548 180.158 302.594 178.284L288.146 165.549ZM300.99 191.815L289.783 192.521L293.172 248.381L309.015 202.27C305.217 200.015 302.278 196.371 300.99 191.815V191.815ZM327.395 182.45C324.899 177.341 318.711 175.215 313.602 177.712C308.493 180.208 306.367 186.395 308.863 191.504C311.36 196.614 317.547 198.739 322.656 196.243C327.765 193.747 329.891 187.559 327.395 182.45ZM295.086 276.492C300.195 273.996 302.321 267.808 299.825 262.699C297.328 257.59 291.141 255.464 286.032 257.961C280.923 260.457 278.797 266.644 281.293 271.753C283.789 276.862 289.977 278.988 295.086 276.492ZM210.221 295C205.112 297.496 202.987 303.684 205.483 308.793C207.979 313.902 214.166 316.028 219.276 313.532C224.385 311.035 226.51 304.848 224.014 299.739C221.518 294.63 215.331 292.504 210.221 295ZM272.961 264.537C274.017 257.685 278.916 251.994 285.761 250.076L282.298 192.993L266.518 193.988C264.451 194.118 262.67 192.548 262.54 190.481C262.409 188.414 263.98 186.633 266.046 186.503L281.843 185.507L280.208 158.551L233.956 117.784L192.19 120.318L177.759 162.323L209.114 190.09L236.643 188.355C238.71 188.225 240.491 189.795 240.621 191.862C240.753 193.939 239.172 195.711 237.115 195.84L217.037 197.106L269.52 243.585C271.524 245.358 271.069 248.595 268.682 249.762C267.358 250.408 265.719 250.237 264.548 249.199L206.476 197.772L164.676 200.406L143.702 261.455C147.548 263.768 150.405 267.448 151.651 271.897L272.961 264.537ZM139.027 285.961C144.136 283.465 146.262 277.278 143.765 272.169C141.269 267.059 135.082 264.934 129.973 267.43C124.863 269.926 122.738 276.113 125.234 281.223C127.73 286.332 133.917 288.458 139.027 285.961Z" stroke="#96E5B5" stroke-opacity="0.2"/>
<path d="M106.641 158.951C102.32 161.571 98.0238 164.374 94.0751 167.592C92.8806 166.175 91.1024 165.845 89.5217 166.227C88.7149 164.801 87.709 163.401 86.8559 162.213C86.4914 161.706 86.1549 161.238 85.8737 160.823C85.7395 160.624 85.6019 160.42 85.4609 160.21C84.354 158.564 83.0361 156.605 81.5119 154.916C85.1507 154.947 88.8921 154.597 92.5256 154.256C94.284 154.091 96.0171 153.928 97.7011 153.812C99.4026 153.695 101.121 153.595 102.848 153.495C108.024 153.193 113.283 152.887 118.423 152.108C115.258 153.613 112.195 155.514 109.255 157.34C108.373 157.888 107.501 158.429 106.641 158.951ZM106.641 158.951L106.9 159.378M106.641 158.951L106.9 159.378M106.9 159.378C107.77 158.851 108.649 158.305 109.535 157.755C112.663 155.813 115.898 153.805 119.251 152.274L94.3764 167.992C98.3028 164.79 102.581 161.997 106.9 159.378ZM116.919 136.598L116.919 136.598C117.119 137.427 117.312 138.257 117.505 139.087C118.179 141.98 118.852 144.872 119.777 147.702C119.444 148.079 119.166 148.507 118.959 148.974C114.988 148.972 110.996 149.246 107.041 149.518C105.391 149.632 103.748 149.745 102.115 149.837C99.7681 149.969 97.3448 150.018 94.8812 150.067C93.7292 150.091 92.5684 150.114 91.4025 150.146C87.8989 150.242 84.366 150.419 80.9631 150.913C80.9536 150.893 80.9436 150.873 80.9332 150.852C86.4478 144.783 92.8842 139.368 100.078 134.762L100.078 134.762C102.902 132.952 105.81 131.33 108.777 129.878C110.368 132.096 113.154 133.212 115.843 132.699C116.235 133.993 116.605 135.288 116.919 136.598ZM121.466 124.872C127.129 123.146 132.922 122.021 138.76 121.517C138.804 121.647 138.853 121.775 138.905 121.902C139.167 122.679 139.567 123.412 140.058 124.053C139.355 124.966 138.643 125.876 137.929 126.788C136.201 128.996 134.463 131.217 132.822 133.521C130.606 136.629 128.872 140.112 127.159 143.552C126.763 144.346 126.369 145.139 125.97 145.924C124.942 145.669 123.829 145.695 122.836 145.987C122.216 140.982 121.297 135.524 119.731 130.508C121.076 128.986 121.735 126.918 121.466 124.872Z" stroke="#A0F0B8" stroke-opacity="0.4"/>
<path d="M190.552 295.408C194.278 291.994 197.943 288.405 201.186 284.477C202.635 285.633 204.443 285.609 205.919 284.926C206.989 286.166 208.249 287.343 209.318 288.341C209.774 288.767 210.196 289.161 210.553 289.513C210.723 289.681 210.898 289.855 211.077 290.033C212.485 291.431 214.16 293.095 215.985 294.453C212.41 295.134 208.81 296.209 205.313 297.254C203.621 297.759 201.953 298.257 200.324 298.7C198.678 299.147 197.013 299.581 195.339 300.018C190.321 301.325 185.224 302.654 180.335 304.422C183.145 302.328 185.776 299.864 188.303 297.499C189.062 296.789 189.811 296.088 190.552 295.408ZM190.552 295.408L190.214 295.04M190.552 295.408L190.214 295.04M190.214 295.04C189.464 295.727 188.709 296.434 187.947 297.147C185.259 299.663 182.48 302.264 179.491 304.421L200.813 284.144C197.588 288.052 193.938 291.628 190.214 295.04ZM184.841 319.339L184.841 319.338C184.484 318.565 184.132 317.788 183.78 317.012C182.554 314.307 181.328 311.602 179.868 309.008C180.121 308.573 180.31 308.099 180.422 307.6C184.317 306.826 188.178 305.777 192.004 304.737C193.6 304.303 195.189 303.871 196.772 303.461C199.048 302.873 201.415 302.352 203.821 301.821C204.947 301.574 206.08 301.324 207.218 301.065C210.635 300.285 214.065 299.422 217.306 298.271C217.319 298.289 217.333 298.307 217.347 298.325C213.125 305.355 207.871 311.924 201.717 317.847L201.717 317.848C199.3 320.174 196.766 322.334 194.14 324.338C192.146 322.473 189.196 321.924 186.659 322.952C186.022 321.76 185.406 320.563 184.841 319.339ZM182.674 331.727C177.458 334.528 171.996 336.763 166.37 338.399C166.301 338.28 166.229 338.163 166.153 338.049C165.744 337.338 165.208 336.697 164.601 336.165C165.112 335.132 165.633 334.101 166.154 333.067C167.417 330.563 168.687 328.045 169.847 325.465C171.413 321.983 172.432 318.23 173.44 314.521C173.672 313.664 173.905 312.81 174.142 311.962C175.2 312.011 176.287 311.768 177.203 311.287C178.789 316.075 180.758 321.247 183.274 325.861C182.252 327.617 182.011 329.773 182.674 331.727Z" stroke="#A0F0B8" stroke-opacity="0.4"/>
<path d="M264.648 65.7666C266.367 61.014 267.95 56.1348 269.003 51.1508C270.822 51.5035 272.413 50.6439 273.404 49.3545C274.927 49.9572 276.589 50.4155 277.999 50.8042C278.601 50.9702 279.157 51.1235 279.636 51.27C279.865 51.3401 280.101 51.4129 280.342 51.4876C282.237 52.0735 284.493 52.7711 286.74 53.128C283.888 55.3886 281.196 58.011 278.583 60.5577C277.318 61.7902 276.071 63.0049 274.833 64.1524C273.582 65.3118 272.308 66.4684 271.026 67.6313C267.187 71.1162 263.287 74.6563 259.775 78.4899C261.293 75.3314 262.483 71.9285 263.625 68.6615C263.968 67.6808 264.307 66.7125 264.648 65.7666ZM264.648 65.7666L264.178 65.5966M264.648 65.7666L264.178 65.5966M264.178 65.5966C263.832 66.5535 263.491 67.5293 263.147 68.5147C261.932 71.9901 260.675 75.5835 259.027 78.8807L268.517 51.029C267.472 55.9862 265.896 60.8469 264.178 65.5966ZM270.684 89.6171L270.684 89.6169C270.008 89.097 269.336 88.5723 268.665 88.0476C266.324 86.2192 263.984 84.3911 261.488 82.7696C261.51 82.2668 261.458 81.7596 261.326 81.2657C264.418 78.7739 267.352 76.0535 270.26 73.3587C271.473 72.2344 272.681 71.1146 273.893 70.0177C275.637 68.4412 277.492 66.8818 279.379 65.2965C280.261 64.5551 281.15 63.8082 282.037 63.0511C284.703 60.7761 287.342 58.4208 289.68 55.8991C289.7 55.9089 289.721 55.9185 289.742 55.9278C289.26 64.1139 287.651 72.3697 284.944 80.4716L284.944 80.4718C283.882 83.6537 282.638 86.7421 281.24 89.7351C278.609 89.0072 275.74 89.8885 273.97 91.9756C272.853 91.215 271.751 90.4398 270.684 89.6171ZM274.507 101.599C271.184 106.498 267.381 111.011 263.155 115.069C263.038 114.995 262.92 114.926 262.8 114.859C262.108 114.42 261.337 114.1 260.552 113.91C260.526 112.758 260.509 111.603 260.492 110.445C260.45 107.64 260.408 104.821 260.239 101.997C260.012 98.1865 259.175 94.3877 258.348 90.6345C258.157 89.7677 257.967 88.9033 257.784 88.0418C258.744 87.5947 259.594 86.8751 260.183 86.0244C263.808 89.5312 267.951 93.2015 272.319 96.1225C272.228 98.1519 273.014 100.175 274.507 101.599Z" stroke="#A0F0B8" stroke-opacity="0.4"/>
<path d="M194.725 84.2167L194.724 84.217C194.161 84.8562 193.592 85.4914 193.024 86.1266C191.043 88.3399 189.063 90.5529 187.279 92.9351C186.778 92.8795 186.269 92.898 185.767 92.9965C183.487 89.7454 180.969 86.6355 178.474 83.5548C177.433 82.2696 176.397 80.9894 175.383 79.7063C173.926 77.8614 172.494 75.906 171.038 73.9179C170.358 72.9883 169.672 72.0516 168.976 71.1158C166.884 68.3036 164.71 65.5132 162.35 63.0124C162.361 62.993 162.372 62.973 162.382 62.9528C170.518 63.9794 178.648 66.1363 186.551 69.3776L186.551 69.3776C189.655 70.6496 192.654 72.0971 195.547 73.6919C194.645 76.2681 195.333 79.1898 197.297 81.0958C196.464 82.1595 195.617 83.2067 194.725 84.2167ZM206.934 81.2015C211.601 84.8445 215.85 88.9397 219.617 93.4277C219.536 93.5389 219.459 93.6521 219.384 93.7676C218.899 94.4285 218.529 95.1772 218.287 95.9474C217.136 95.8965 215.982 95.8365 214.826 95.7764C212.025 95.6309 209.209 95.4845 206.38 95.4648C202.563 95.4369 198.716 96.0185 194.916 96.593C194.039 96.7257 193.164 96.858 192.292 96.9824C191.91 95.9945 191.249 95.0985 190.439 94.454C194.18 91.0711 198.119 87.1828 201.325 83.019C203.343 83.2459 205.414 82.5966 206.934 81.2015Z" stroke="#A0F0B8" stroke-opacity="0.4"/>
<path d="M102.61 199.339L102.61 199.339C103.459 199.26 104.308 199.187 105.157 199.114C108.116 198.86 111.075 198.607 114.007 198.096C114.333 198.479 114.717 198.815 115.15 199.087C114.581 203.017 114.283 207.008 113.987 210.961C113.864 212.61 113.741 214.253 113.599 215.882C113.395 218.223 113.097 220.629 112.794 223.074C112.653 224.218 112.51 225.37 112.375 226.528C111.97 230.01 111.64 233.532 111.644 236.97C111.623 236.977 111.601 236.984 111.579 236.991C106.36 230.667 101.92 223.523 98.3876 215.745L98.3875 215.745C96.9997 212.691 95.8089 209.582 94.796 206.438C97.2186 205.18 98.7207 202.582 98.5972 199.847C99.9332 199.644 101.268 199.462 102.61 199.339ZM91.6532 193.164C90.7529 187.312 90.4669 181.418 90.8011 175.568C90.9362 175.543 91.0701 175.513 91.2033 175.48C92.0095 175.331 92.7927 175.041 93.4967 174.646C94.2999 175.472 95.0988 176.306 95.8995 177.143C97.839 179.169 99.7888 181.206 101.835 183.159C104.595 185.797 107.794 188.01 110.954 190.197C111.684 190.702 112.412 191.205 113.132 191.712C112.733 192.693 112.6 193.799 112.748 194.823C107.705 194.722 102.172 194.852 96.9834 195.686C95.6691 194.137 93.7163 193.19 91.6532 193.164Z" stroke="#A0F0B8" stroke-opacity="0.4"/>
<path d="M113.118 273.916L113.118 273.915C113.057 273.065 113.002 272.215 112.947 271.364C112.757 268.4 112.566 265.437 112.117 262.494C112.507 262.176 112.851 261.8 113.133 261.373C117.049 262.025 121.033 262.408 124.979 262.788C126.625 262.946 128.265 263.104 129.89 263.28C132.227 263.534 134.626 263.883 137.064 264.238C138.204 264.404 139.353 264.571 140.509 264.73C143.981 265.209 147.495 265.614 150.933 265.683C150.939 265.704 150.945 265.726 150.952 265.748C144.518 270.832 137.282 275.119 129.431 278.485L129.431 278.485C126.348 279.808 123.214 280.932 120.049 281.878C118.843 279.43 116.277 277.873 113.541 277.938C113.366 276.598 113.213 275.26 113.118 273.916Z" stroke="#A0F0B8" stroke-opacity="0.4"/>
<path d="M296.533 284.498L296.533 284.498C295.681 284.468 294.83 284.432 293.978 284.396C291.011 284.27 288.044 284.145 285.07 284.278C284.796 283.857 284.458 283.475 284.063 283.15C285.128 279.324 285.933 275.404 286.729 271.521C287.062 269.901 287.393 268.287 287.741 266.689C288.242 264.393 288.844 262.045 289.456 259.658C289.742 258.542 290.03 257.417 290.312 256.285C291.157 252.884 291.933 249.433 292.367 246.022C292.389 246.018 292.411 246.014 292.434 246.009C296.805 252.947 300.299 260.598 302.811 268.763L302.811 268.763C303.799 271.969 304.584 275.204 305.188 278.452C302.625 279.391 300.804 281.777 300.578 284.504C299.227 284.536 297.88 284.546 296.533 284.498Z" stroke="#A0F0B8" stroke-opacity="0.4"/>
<path d="M104.431 262.279L104.431 262.279C103.897 262.944 103.359 263.605 102.822 264.266C100.947 266.57 99.0732 268.874 97.4026 271.337C96.9004 271.305 96.3923 271.348 95.8959 271.47C93.4657 268.329 90.8039 265.341 88.1671 262.381C87.0671 261.146 85.9714 259.916 84.8987 258.682C83.357 256.908 81.8346 255.022 80.2869 253.104C79.5631 252.208 78.8339 251.304 78.0946 250.402C75.8728 247.691 73.5701 245.006 71.0951 242.619C71.1053 242.599 71.1153 242.579 71.1251 242.558C79.3001 243.201 87.5224 244.974 95.5692 247.84L95.5693 247.84C98.7296 248.965 101.793 250.27 104.758 251.727C103.978 254.343 104.802 257.229 106.854 259.04C106.071 260.142 105.274 261.228 104.431 262.279Z" stroke="#A0F0B8" stroke-opacity="0.4"/>
<path d="M331.345 199.764C333.139 204.489 335.118 209.222 337.567 213.688C335.957 214.606 335.311 216.295 335.399 217.919C333.852 218.454 332.292 219.19 330.97 219.813C330.405 220.08 329.883 220.326 329.424 220.527C329.204 220.623 328.978 220.722 328.747 220.822C326.927 221.613 324.762 222.554 322.825 223.747C323.515 220.174 323.848 216.431 324.171 212.796C324.327 211.037 324.481 209.303 324.672 207.626C324.865 205.931 325.078 204.223 325.292 202.507C325.933 197.361 326.584 192.134 326.75 186.938C327.656 190.323 328.972 193.68 330.234 196.902C330.613 197.869 330.988 198.824 331.345 199.764ZM331.345 199.764L331.812 199.587M331.345 199.764L331.812 199.587M331.812 199.587C331.451 198.636 331.074 197.673 330.693 196.701C329.35 193.273 327.961 189.729 327.063 186.154L338.015 213.464C335.577 209.023 333.605 204.309 331.812 199.587ZM311.224 185.607L311.224 185.607C312.076 185.561 312.927 185.522 313.778 185.482C316.745 185.343 319.712 185.205 322.662 184.808C322.972 185.204 323.343 185.554 323.765 185.843C323.043 189.748 322.59 193.724 322.141 197.663C321.954 199.306 321.767 200.942 321.562 202.565C321.267 204.897 320.876 207.289 320.478 209.721C320.292 210.858 320.105 212.004 319.925 213.156C319.386 216.619 318.919 220.125 318.789 223.562C318.767 223.567 318.745 223.573 318.723 223.58C313.754 217.057 309.594 209.746 306.367 201.837L306.367 201.837C305.099 198.732 304.03 195.578 303.14 192.397C305.61 191.235 307.212 188.696 307.195 185.959C308.538 185.809 309.878 185.679 311.224 185.607ZM300.516 179.011C299.844 173.129 299.787 167.228 300.349 161.396C300.485 161.376 300.619 161.351 300.754 161.323C301.565 161.206 302.359 160.946 303.078 160.579C303.848 161.435 304.614 162.3 305.382 163.167C307.241 165.267 309.11 167.378 311.079 169.41C313.734 172.153 316.845 174.489 319.918 176.796C320.627 177.329 321.335 177.861 322.035 178.396C321.598 179.36 321.422 180.46 321.53 181.489C316.495 181.192 310.961 181.107 305.744 181.739C304.491 180.14 302.577 179.118 300.516 179.011Z" stroke="#A0F0B8" stroke-opacity="0.4"/>
<defs>
<filter id="filter0_d" x="73.6653" y="55.3301" width="272.771" height="272.771" filterUnits="userSpaceOnUse" color-interpolation-filters="sRGB">
<feFlood flood-opacity="0" result="BackgroundImageFix"/>
<feColorMatrix in="SourceAlpha" type="matrix" values="0 0 0 0 0 0 0 0 0 0 0 0 0 0 0 0 0 0 127 0"/>
<feOffset/>
<feGaussianBlur stdDeviation="6"/>
<feColorMatrix type="matrix" values="0 0 0 0 1 0 0 0 0 1 0 0 0 0 1 0 0 0 0.78 0"/>
<feBlend mode="normal" in2="BackgroundImageFix" result="effect1_dropShadow"/>
<feBlend mode="normal" in="SourceGraphic" in2="effect1_dropShadow" result="shape"/>
</filter>
<clipPath id="clip0">
<rect width="186" height="186" fill="white" transform="translate(85.6653 148.982) rotate(-26.0394)"/>
</clipPath>
</defs>
</svg>
