<svg viewBox="0 0 410 412" fill="none" xmlns="http://www.w3.org/2000/svg" preserveAspectRatio="xMinYMin meet">
<g clip-path="url(#clip0)" filter="url(#filter0_d)">
<mask id="path-1-inside-1" fill="white">
<path d="M136.743 278.955C146.589 286.816 158.022 292.766 170.099 296.303C170.215 297.44 170.719 298.543 171.624 299.347C173.546 301.054 176.574 300.875 178.281 298.954C178.441 298.774 178.567 298.576 178.694 298.379C187.372 300.049 196.254 300.478 205.017 299.442C208.229 299.063 211.403 298.424 214.535 297.605C214.812 298.021 215.124 298.415 215.501 298.75C218.378 301.306 223.026 300.387 224.731 296.942C225.142 296.111 225.486 294.896 225.444 293.883C237.732 288.685 248.982 280.559 258.261 271.255C259.006 271.405 259.788 271.359 260.546 271.155C262.921 270.822 264.689 268.349 264.551 266.033C264.525 265.575 264.41 265.132 264.26 264.704C274.931 251.811 281.325 236.085 282.607 219.681C284.462 219.745 286.335 219.053 287.64 217.583C289.964 214.968 289.721 210.847 287.104 208.523C285.818 207.38 284.169 206.864 282.549 206.941C282.467 205.995 282.381 205.048 282.266 204.102C280.976 188.706 275.183 173.668 266.221 160.743C266.498 160.515 266.775 160.283 267.036 159.989C272.187 154.192 263.871 146.339 258.399 150.872C246.788 138.041 231.8 128.368 215.219 124.214C214.767 119.39 208.224 115.558 204.038 120.27C203.483 120.894 203.119 121.544 202.852 122.198C202.609 122.179 202.37 122.143 202.127 122.125C191.489 121.418 180.706 122.802 170.383 125.908C168.148 123.597 164.322 122.779 161.566 125.88C160.487 127.095 160.049 128.402 160.036 129.663C151.367 133.365 143.211 138.293 135.963 144.217C133.73 142.693 130.639 142.494 128.318 145.106C126.329 147.344 126.461 149.901 127.653 151.871C125.915 153.677 124.248 155.541 122.675 157.473C114.726 167.235 109.285 178.566 106.371 190.516C104.665 190.431 102.898 191.058 101.416 192.726C97.8504 196.739 100.42 201.703 104.237 203.272C103.32 213.169 104.056 223.254 106.457 233.031C107.347 236.653 108.512 240.169 109.892 243.584C109.84 243.638 109.78 243.681 109.73 243.738C108.961 244.609 108.46 245.614 108.227 246.752C108.022 247.788 108.067 249.078 108.441 250.187C108.622 250.929 108.958 251.675 109.416 252.335C109.719 252.804 110.079 253.226 110.442 253.548C111.723 254.687 113.502 255.148 115.167 254.804C115.258 254.791 115.345 254.761 115.436 254.743C118.857 260.478 122.961 265.798 127.608 270.629C126.495 273.161 127.039 276.263 129.196 278.18C131.313 280.059 134.378 280.267 136.743 278.955ZM174.092 291.192C171.752 286.056 168.393 281.137 165.636 276.355C162.097 270.216 158.728 263.758 154.615 257.918C154.838 257.77 155.04 257.6 155.23 257.417C158.885 260.422 163.159 262.906 167.034 265.397C171.422 268.219 175.96 270.921 180.726 273.08C179.693 274.827 180.235 276.711 181.451 277.97C180.043 279.937 178.902 282.321 177.992 283.906C176.806 285.97 175.254 288.54 174.326 291.155C174.248 291.161 174.171 291.18 174.092 291.192ZM117.523 242.318C118.685 239.986 119.786 237.618 120.92 235.258C124.039 228.77 127.821 222.584 130.953 216.124C131.382 216.201 131.815 216.235 132.25 216.205C134.43 222.186 136.806 228.119 139.004 234.089C141.012 239.545 143.119 246.228 146.784 251.127C142.974 250.435 138.878 250.601 135.145 250.232C130.384 249.758 125.675 248.056 120.926 247.21C120.654 245.164 119.403 243.303 117.523 242.318ZM134.593 206.81C142.093 193.755 143.729 177.569 152.033 164.705C152.145 164.748 152.253 164.804 152.368 164.839C151.896 171.334 153.757 178.221 155.327 184.348C157.133 191.398 158.644 198.92 160.779 206.008C160.698 206.087 160.606 206.151 160.53 206.237C159.374 207.538 159.14 209.366 159.743 210.907C155.709 211.593 151.235 211.222 147.42 211.445C144.191 211.632 140.475 211.094 136.955 211.231C136.981 209.78 136.429 208.325 135.28 207.304C135.063 207.114 134.83 206.959 134.593 206.81ZM202.43 147.352C202.436 147.263 202.439 147.172 202.439 147.081C211.314 149.335 220.596 150.599 229.504 152.382C238.348 154.152 247.238 155.675 256.171 156.894C256.318 157.513 256.546 158.108 256.872 158.658C252.052 160.975 247.274 163.382 242.424 165.634C239.041 167.204 235.591 168.748 232.399 170.682C230.761 168.998 228.226 168.182 225.962 169.297C218.886 161.6 211.146 152.925 202.43 147.352ZM255.994 197.29C250.81 204.378 246.394 213.153 243.785 221.709C243.377 221.738 242.983 221.836 242.602 221.969C240.612 215.049 238.026 208.27 236.408 201.206C234.743 193.939 232.747 186.78 230.898 179.569C231.347 179.346 231.78 179.03 232.195 178.646C239.953 182.23 246.877 187.535 254.695 190.802C253.671 192.938 254.104 195.617 255.947 197.255C255.962 197.268 255.979 197.276 255.994 197.29ZM198.151 203.272C199.937 211.171 201.028 219.093 202.265 227.032C201.359 227.242 200.508 227.71 199.854 228.447C199.825 228.479 199.806 228.519 199.778 228.552C195.327 225.274 189.245 222.931 184.796 220.273C179.56 217.146 174.046 212.907 168.289 210.185C168.536 208.996 168.312 207.734 167.623 206.707C172.253 203.577 176.329 199.357 180.553 195.844C184.625 192.457 189.154 189.456 193.025 185.823C193.466 185.94 193.927 185.995 194.404 185.978C195.059 191.808 196.916 197.81 198.151 203.272ZM196.897 185.16C197.945 184.461 198.726 183.373 198.979 182.092C199.08 181.588 199.089 181.08 199.029 180.584C203.486 180.18 207.985 179.3 212.397 178.901C216.182 178.559 219.896 178.042 223.451 176.925C223.844 177.615 224.383 178.22 225.004 178.724C220.567 186.502 217.586 195.251 214.555 203.588C211.752 211.291 207.762 219.472 205.801 227.612C205.637 227.51 205.466 227.429 205.292 227.349C204.8 220.506 203.155 213.601 201.746 206.989C200.266 200.031 199.141 192.183 196.897 185.16ZM183.514 222.879C187.847 225.299 193.461 229.258 198.795 230.654C198.617 231.602 198.718 232.592 199.117 233.478C190.611 235.992 182.129 238.872 173.614 241.394C167.948 243.07 160.68 245.266 154.985 248.587C154.731 248.429 154.468 248.299 154.2 248.191C156.694 241.934 157.752 234.995 159.633 228.608C161.133 223.508 163.451 218.806 164.302 213.709C165.019 213.646 165.714 213.408 166.334 213.016C171.577 216.873 178.089 219.853 183.514 222.879ZM175.791 243.651C182.813 241.521 190.89 240.273 197.588 236.818C195.083 241.405 193.037 246.35 191.009 251.018C188.335 257.174 185.52 264.109 184.182 270.929C183.41 270.942 182.629 271.186 181.913 271.74C177.488 268.832 172.97 266.057 168.579 263.096C164.717 260.491 161.07 257.374 157.169 254.758C157.565 253.583 157.513 252.3 157.073 251.148C163.303 248.654 169.377 245.595 175.791 243.651ZM186.983 271.95C189.316 265.462 191.094 258.751 193.691 252.337C195.955 246.746 198.831 241.237 201.017 235.572C201.333 235.751 201.667 235.879 202.009 235.977C202.494 239.355 203.527 242.717 204.337 245.958C205.578 250.917 206.954 255.844 208.295 260.778C206.933 262.401 206.897 264.771 208.118 266.432C204.734 267.616 201.382 268.91 198.046 270.205C194.905 271.424 191.487 272.32 188.269 273.548C187.967 272.932 187.524 272.385 186.983 271.95ZM207.983 248.735C207.189 244.589 206.511 239.995 205.387 235.703C205.916 235.449 206.405 235.093 206.814 234.633C207.072 234.342 207.272 234.019 207.443 233.687C213.744 233.335 220.278 231.997 226.447 231.352C231.144 230.861 235.742 230.128 240.128 228.601C240.165 228.675 240.191 228.748 240.229 228.823C240.348 229.056 240.465 229.289 240.583 229.523C240.724 229.804 240.921 230.064 241.154 230.3C236.286 234.711 231.955 239.887 227.503 244.642C222.88 249.576 218.131 254.423 213.88 259.679C212.576 259.012 211.018 259.011 209.72 259.657C209.34 255.991 208.681 252.378 207.983 248.735ZM222.041 228.899C217.494 229.335 212.447 229.414 207.857 230.585C207.811 230.362 207.745 230.147 207.666 229.932C212.134 222.444 214.277 212.944 217.18 204.877C220.226 196.409 224.044 188.266 227.382 179.935C227.844 180.051 228.317 180.105 228.797 180.095C229.633 186.739 231.639 193.281 233.057 199.794C234.782 207.717 236.416 216.652 240.038 224.138C239.827 224.531 239.67 224.949 239.577 225.402C239.5 225.784 239.492 226.139 239.512 226.487C233.722 227.516 227.918 228.336 222.041 228.899ZM212.198 159.191C216.261 162.954 220.277 166.784 224.506 170.362C224.396 170.469 224.279 170.55 224.173 170.67C223.073 171.907 222.682 173.246 222.752 174.522C218.186 175.334 213.58 175.801 208.939 176.214C205.257 176.543 201.337 176.701 197.816 177.914C197.412 177.461 196.931 177.07 196.368 176.791C196.03 176.624 195.684 176.518 195.337 176.438C196.459 172.552 197.539 168.578 198.131 164.646C198.775 160.378 198.556 156.045 198.859 151.741C199.751 151.498 200.583 151.016 201.231 150.286C201.298 150.211 201.343 150.123 201.405 150.045C204.978 153.109 208.747 155.994 212.198 159.191ZM195.244 162.365C194.824 167.194 192.488 171.926 192.311 176.735C191.685 177.012 191.1 177.404 190.604 177.922C190.598 177.93 190.592 177.937 190.584 177.943C190.348 178.188 190.159 178.473 189.992 178.77C179.517 173.289 169.044 167.323 158.306 162.51C158.588 162.09 158.809 161.61 158.96 161.107C164.895 159.563 170.796 157.728 176.692 156.152C182.096 154.709 188.956 153.553 194.304 150.739C194.914 151.265 195.626 151.598 196.371 151.773C195.657 155.229 195.558 158.775 195.244 162.365ZM189.442 180.381C189.262 181.555 189.479 182.798 190.144 183.755C190.15 183.762 190.156 183.77 190.159 183.777C190.351 184.053 190.572 184.302 190.806 184.533C186.504 186.897 182.651 190.159 178.838 193.199C174.325 196.795 169.182 200.491 165.323 204.96C164.85 204.807 164.356 204.747 163.863 204.753C162.839 198.899 160.57 192.982 159.059 187.506C156.992 180.021 155.6 172.588 154.382 164.998C154.7 164.948 155.018 164.867 155.328 164.738C155.977 164.465 156.39 164.271 156.782 164.002C166.711 170.503 178.03 176.703 189.442 180.381ZM151.008 213.908C153.513 213.748 157.917 213.906 161.17 212.805C161.51 213.064 161.874 213.272 162.261 213.42C160.644 218.354 158.545 223.142 156.882 228.057C154.712 234.468 152.754 241.322 151.017 247.993C150.442 248.131 149.874 248.352 149.334 248.659C149.247 248.709 149.169 248.774 149.086 248.83C146.415 242.943 143.318 237.253 141.069 231.101C139.156 225.862 137.259 220.379 134.202 215.663C134.692 215.416 135.142 215.084 135.54 214.675C140.702 214.48 145.882 214.239 151.008 213.908ZM213.533 293.973C202.3 296.842 190.718 297.092 179.363 295.019C179.189 293.996 178.707 293.025 177.886 292.296C177.748 292.173 177.594 292.082 177.446 291.979C178.378 289.652 179.208 287.248 180.305 285.044C181.167 283.317 182.651 281.329 183.784 279.315C185.066 279.598 186.474 279.271 187.615 277.987C187.715 277.874 187.781 277.756 187.867 277.639C193.488 280.112 198.364 283.234 203.565 286.772C206.879 289.028 210.145 291.147 213.773 292.573C213.643 293.039 213.562 293.515 213.533 293.973ZM218.226 287.979C217.05 288.274 215.951 288.904 215.191 289.759C214.96 290.019 214.76 290.313 214.58 290.622C207.152 286.102 200.01 278.728 191.897 275.887C194.314 274.994 196.681 273.916 198.959 273.009C202.699 271.519 206.392 269.792 209.95 267.87C210.85 268.258 211.842 268.353 212.786 268.143C213.481 270.093 214.219 272.028 214.776 273.957C216.119 278.594 217.318 283.251 218.226 287.979ZM255.229 269.195C255.258 269.24 255.297 269.274 255.327 269.318C249.295 275.184 242.483 280.288 235.391 284.66C231.776 286.89 228.07 288.78 224.303 290.359C223.671 289.467 223.009 289.003 222.03 288.417C221.356 288.013 220.59 287.838 219.81 287.812C219.392 283.478 218.742 279.176 217.92 274.887C217.536 272.877 217.096 270.681 216.496 268.514C221.633 269.517 227.269 269.225 232.288 269.128C239.768 268.98 247.235 268.453 254.704 268.031C254.834 268.44 254.996 268.835 255.229 269.195ZM255.671 263.386C255.096 264.037 254.723 264.786 254.549 265.636C254.534 265.708 254.538 265.781 254.527 265.855C248.541 265.421 242.574 265.603 236.539 265.838C229.728 266.106 222.83 265.272 216.045 265.306C216.51 264.034 216.38 262.603 215.703 261.423C220.519 256.634 224.967 251.472 229.559 246.468C234.048 241.572 238.999 236.784 243.047 231.458C243.282 231.541 243.519 231.625 243.743 231.669C243.933 231.707 244.124 231.729 244.315 231.744C245.417 236.926 247.468 242.068 249.306 246.885C251.253 251.99 253.466 257.743 256.795 262.336C256.367 262.608 255.984 262.941 255.671 263.386ZM269.222 251.771C267.119 255.399 264.7 258.819 262.04 262.049C261.104 261.529 259.962 261.269 258.915 261.442C256.746 256.259 253.986 251.285 252.037 245.989C250.25 241.135 249.064 235.927 247.25 231.038C247.667 230.788 248.052 230.481 248.382 230.11C248.828 229.608 249.157 229.019 249.365 228.391C254.673 227.428 259.96 226.237 265.159 224.927C270.255 223.647 275.288 221.856 279.22 218.579C279.398 218.699 279.57 218.827 279.758 218.929C278.508 230.389 275.232 241.403 269.222 251.771ZM277.493 216.807C272.756 219.464 267.587 221.202 262.266 222.571C258.033 223.661 253.634 224.287 249.39 225.385C248.992 224.113 248.1 222.879 246.881 222.435C246.755 222.388 246.63 222.343 246.503 222.296C250.349 214.392 253.69 206.115 257.413 198.15C259.063 198.85 260.979 198.7 262.498 197.737C264.234 199.163 266.101 200.461 267.868 201.786C271.209 204.292 274.499 206.859 277.689 209.553C276.125 211.706 276.087 214.615 277.493 216.807ZM233.865 176.161C234.19 175.161 234.163 174.162 233.899 173.229C237.81 171.311 241.661 169.239 245.592 167.399C250.04 165.317 254.554 163.315 258.668 160.663C259.081 160.983 259.523 161.259 259.992 161.479C257.795 170.015 256.914 179.555 257.401 188.21C256.965 188.395 256.552 188.637 256.171 188.938C248.906 184.568 241.791 178.909 233.865 176.161ZM280.204 201.626C280.303 203.573 280.362 205.511 280.367 207.439C279.909 207.627 279.468 207.853 279.06 208.149C276.592 205.71 273.977 203.451 271.27 201.223C269.043 199.388 266.804 197.352 264.453 195.52C265.454 193.391 265.017 190.735 263.186 189.108C262.333 188.351 261.294 187.922 260.223 187.796C260.7 179.154 260.409 170.547 261.88 162.027C262.383 162.091 262.89 162.096 263.399 162.023C271.9 173.699 277.898 187.419 280.204 201.626ZM213.62 128.784C213.865 128.508 214.046 128.223 214.233 127.94C227.489 131.221 240.031 137.989 251.095 148.172C252.941 149.87 254.717 151.66 256.432 153.52C256.283 153.89 256.175 154.26 256.108 154.63C247.445 152.855 238.777 151.101 230.08 149.5C220.75 147.781 211.212 145.35 201.699 144.384C201.457 143.993 201.178 143.619 200.818 143.299C200.809 143.291 200.798 143.285 200.79 143.278C201.874 141.367 202.898 139.416 204.009 137.549C205.309 135.361 206.714 133.124 207.879 130.793C209.803 131.206 211.91 130.709 213.62 128.784ZM172.056 128.956C182.324 126.025 192.629 125.048 202.663 125.982C203.085 127.389 204.005 128.631 205.195 129.526C204.225 131.215 203.27 132.915 202.259 134.565C200.746 137.034 199.01 139.495 197.606 142.092C196.211 142.074 194.814 142.608 193.832 143.713C193.562 144.017 193.352 144.353 193.171 144.701C188.739 142.452 184.23 140.342 179.861 137.941C177.031 136.386 174.195 134.614 171.249 133.133C172.152 131.748 172.35 130.298 172.056 128.956ZM168.854 135.352C172.723 137.44 176.79 139.276 180.624 141.292C184.366 143.26 188.43 145.393 192.641 146.412C192.564 147.076 192.627 147.75 192.813 148.392C186.679 150.453 180.355 152.029 174.112 153.651C169.413 154.873 163.739 155.689 158.688 157.361C158.28 156.441 157.641 155.665 156.835 155.108C158.124 152.149 159.004 148.85 160.326 146.006C161.9 142.616 163.611 139.269 165.007 135.8C166.26 136.115 167.596 136.009 168.854 135.352ZM138.178 146.701C144.812 141.254 152.238 136.688 160.217 133.213C160.48 133.099 160.744 132.997 161.006 132.884C161.538 133.708 162.243 134.431 163.07 134.962C160.759 138.542 158.789 142.368 156.946 146.188C155.794 148.574 154.28 151.401 153.61 154.223C152.385 154.308 151.238 154.841 150.361 155.692C148.313 154.436 146.18 153.314 144.019 152.293C142.438 151.545 140.654 150.656 138.795 149.866C138.921 148.757 138.678 147.672 138.178 146.701ZM132.87 155.087C134.399 155.15 135.979 154.584 137.305 153.091C137.348 153.044 137.371 152.993 137.411 152.945C141.351 154.333 145.336 155.594 149.161 157.295C148.509 158.557 148.37 160.12 148.793 161.419C149.077 162.288 149.643 163.071 150.357 163.695C145.73 170.047 142.707 177.105 139.998 184.549C137.911 190.282 135.71 195.832 133.35 201.35C133.815 195.02 133.32 188.412 133.144 182.4C132.879 173.338 133.171 164.163 132.87 155.087ZM109.208 191.33C112.791 177.293 120.139 164.622 130.057 154.231C130.214 154.323 130.376 154.404 130.541 154.483C129.469 162.173 130.056 170.265 130.272 177.902C130.537 187.344 129.756 196.977 129.985 206.416C129.267 206.698 128.601 207.124 128.061 207.732C127.893 207.921 127.761 208.128 127.626 208.335C124.209 206.791 120.304 203.649 118.224 202.387C116.554 201.373 114.751 200.021 112.879 198.718C113.609 195.714 111.804 192.73 109.208 191.33ZM106.83 207.411C106.882 206.185 106.971 204.969 107.079 203.757C108.434 203.668 109.796 203.099 110.998 201.909C113.818 203.441 116.751 204.819 119.289 206.235C121.078 207.233 124.054 209.17 126.913 210.091C126.563 211.827 127.09 213.709 128.487 214.95C128.718 215.155 128.966 215.324 129.221 215.479C125.576 219.506 122.955 224.506 120.484 229.292C118.391 233.345 116.293 237.446 114.314 241.593C113.784 241.614 113.261 241.717 112.751 241.866C108.431 231.141 106.321 219.457 106.83 207.411ZM118.396 253.294C118.594 253.12 118.777 252.936 118.952 252.74C119.591 252.11 120.105 251.343 120.454 250.535C124.465 251.349 128.443 252.282 132.506 252.958C137.229 253.745 142.138 253.581 146.997 253.673C147.167 254.932 147.823 256.159 148.735 256.969C148.756 256.988 148.781 256.999 148.802 257.018C148.806 257.022 148.81 257.025 148.812 257.029C144.366 259.9 139.587 263.288 135.596 267.099C133.572 266.445 131.292 266.8 129.569 268.11C125.292 263.568 121.547 258.602 118.396 253.294ZM138.456 269.02C139.56 267.988 140.679 266.97 141.85 266.005C144.89 263.494 147.968 261.119 150.754 258.385C151.304 258.573 151.888 258.657 152.475 258.623C152.55 258.618 152.617 258.599 152.689 258.593C155.177 263.747 158.211 268.667 160.997 273.639C164.377 279.674 167.422 286.665 171.46 292.482C171.387 292.555 171.302 292.613 171.232 292.692C171.133 292.804 171.059 292.931 170.973 293.051C162.935 290.746 155.087 287.286 147.648 282.757C144.639 280.925 141.775 278.923 139.051 276.781C140.563 274.369 140.324 271.183 138.456 269.02Z"/>
</mask>
<path d="M136.743 278.955C146.589 286.816 158.022 292.766 170.099 296.303C170.215 297.44 170.719 298.543 171.624 299.347C173.546 301.054 176.574 300.875 178.281 298.954C178.441 298.774 178.567 298.576 178.694 298.379C187.372 300.049 196.254 300.478 205.017 299.442C208.229 299.063 211.403 298.424 214.535 297.605C214.812 298.021 215.124 298.415 215.501 298.75C218.378 301.306 223.026 300.387 224.731 296.942C225.142 296.111 225.486 294.896 225.444 293.883C237.732 288.685 248.982 280.559 258.261 271.255C259.006 271.405 259.788 271.359 260.546 271.155C262.921 270.822 264.689 268.349 264.551 266.033C264.525 265.575 264.41 265.132 264.26 264.704C274.931 251.811 281.325 236.085 282.607 219.681C284.462 219.745 286.335 219.053 287.64 217.583C289.964 214.968 289.721 210.847 287.104 208.523C285.818 207.38 284.169 206.864 282.549 206.941C282.467 205.995 282.381 205.048 282.266 204.102C280.976 188.706 275.183 173.668 266.221 160.743C266.498 160.515 266.775 160.283 267.036 159.989C272.187 154.192 263.871 146.339 258.399 150.872C246.788 138.041 231.8 128.368 215.219 124.214C214.767 119.39 208.224 115.558 204.038 120.27C203.483 120.894 203.119 121.544 202.852 122.198C202.609 122.179 202.37 122.143 202.127 122.125C191.489 121.418 180.706 122.802 170.383 125.908C168.148 123.597 164.322 122.779 161.566 125.88C160.487 127.095 160.049 128.402 160.036 129.663C151.367 133.365 143.211 138.293 135.963 144.217C133.73 142.693 130.639 142.494 128.318 145.106C126.329 147.344 126.461 149.901 127.653 151.871C125.915 153.677 124.248 155.541 122.675 157.473C114.726 167.235 109.285 178.566 106.371 190.516C104.665 190.431 102.898 191.058 101.416 192.726C97.8504 196.739 100.42 201.703 104.237 203.272C103.32 213.169 104.056 223.254 106.457 233.031C107.347 236.653 108.512 240.169 109.892 243.584C109.84 243.638 109.78 243.681 109.73 243.738C108.961 244.609 108.46 245.614 108.227 246.752C108.022 247.788 108.067 249.078 108.441 250.187C108.622 250.929 108.958 251.675 109.416 252.335C109.719 252.804 110.079 253.226 110.442 253.548C111.723 254.687 113.502 255.148 115.167 254.804C115.258 254.791 115.345 254.761 115.436 254.743C118.857 260.478 122.961 265.798 127.608 270.629C126.495 273.161 127.039 276.263 129.196 278.18C131.313 280.059 134.378 280.267 136.743 278.955ZM174.092 291.192C171.752 286.056 168.393 281.137 165.636 276.355C162.097 270.216 158.728 263.758 154.615 257.918C154.838 257.77 155.04 257.6 155.23 257.417C158.885 260.422 163.159 262.906 167.034 265.397C171.422 268.219 175.96 270.921 180.726 273.08C179.693 274.827 180.235 276.711 181.451 277.97C180.043 279.937 178.902 282.321 177.992 283.906C176.806 285.97 175.254 288.54 174.326 291.155C174.248 291.161 174.171 291.18 174.092 291.192ZM117.523 242.318C118.685 239.986 119.786 237.618 120.92 235.258C124.039 228.77 127.821 222.584 130.953 216.124C131.382 216.201 131.815 216.235 132.25 216.205C134.43 222.186 136.806 228.119 139.004 234.089C141.012 239.545 143.119 246.228 146.784 251.127C142.974 250.435 138.878 250.601 135.145 250.232C130.384 249.758 125.675 248.056 120.926 247.21C120.654 245.164 119.403 243.303 117.523 242.318ZM134.593 206.81C142.093 193.755 143.729 177.569 152.033 164.705C152.145 164.748 152.253 164.804 152.368 164.839C151.896 171.334 153.757 178.221 155.327 184.348C157.133 191.398 158.644 198.92 160.779 206.008C160.698 206.087 160.606 206.151 160.53 206.237C159.374 207.538 159.14 209.366 159.743 210.907C155.709 211.593 151.235 211.222 147.42 211.445C144.191 211.632 140.475 211.094 136.955 211.231C136.981 209.78 136.429 208.325 135.28 207.304C135.063 207.114 134.83 206.959 134.593 206.81ZM202.43 147.352C202.436 147.263 202.439 147.172 202.439 147.081C211.314 149.335 220.596 150.599 229.504 152.382C238.348 154.152 247.238 155.675 256.171 156.894C256.318 157.513 256.546 158.108 256.872 158.658C252.052 160.975 247.274 163.382 242.424 165.634C239.041 167.204 235.591 168.748 232.399 170.682C230.761 168.998 228.226 168.182 225.962 169.297C218.886 161.6 211.146 152.925 202.43 147.352ZM255.994 197.29C250.81 204.378 246.394 213.153 243.785 221.709C243.377 221.738 242.983 221.836 242.602 221.969C240.612 215.049 238.026 208.27 236.408 201.206C234.743 193.939 232.747 186.78 230.898 179.569C231.347 179.346 231.78 179.03 232.195 178.646C239.953 182.23 246.877 187.535 254.695 190.802C253.671 192.938 254.104 195.617 255.947 197.255C255.962 197.268 255.979 197.276 255.994 197.29ZM198.151 203.272C199.937 211.171 201.028 219.093 202.265 227.032C201.359 227.242 200.508 227.71 199.854 228.447C199.825 228.479 199.806 228.519 199.778 228.552C195.327 225.274 189.245 222.931 184.796 220.273C179.56 217.146 174.046 212.907 168.289 210.185C168.536 208.996 168.312 207.734 167.623 206.707C172.253 203.577 176.329 199.357 180.553 195.844C184.625 192.457 189.154 189.456 193.025 185.823C193.466 185.94 193.927 185.995 194.404 185.978C195.059 191.808 196.916 197.81 198.151 203.272ZM196.897 185.16C197.945 184.461 198.726 183.373 198.979 182.092C199.08 181.588 199.089 181.08 199.029 180.584C203.486 180.18 207.985 179.3 212.397 178.901C216.182 178.559 219.896 178.042 223.451 176.925C223.844 177.615 224.383 178.22 225.004 178.724C220.567 186.502 217.586 195.251 214.555 203.588C211.752 211.291 207.762 219.472 205.801 227.612C205.637 227.51 205.466 227.429 205.292 227.349C204.8 220.506 203.155 213.601 201.746 206.989C200.266 200.031 199.141 192.183 196.897 185.16ZM183.514 222.879C187.847 225.299 193.461 229.258 198.795 230.654C198.617 231.602 198.718 232.592 199.117 233.478C190.611 235.992 182.129 238.872 173.614 241.394C167.948 243.07 160.68 245.266 154.985 248.587C154.731 248.429 154.468 248.299 154.2 248.191C156.694 241.934 157.752 234.995 159.633 228.608C161.133 223.508 163.451 218.806 164.302 213.709C165.019 213.646 165.714 213.408 166.334 213.016C171.577 216.873 178.089 219.853 183.514 222.879ZM175.791 243.651C182.813 241.521 190.89 240.273 197.588 236.818C195.083 241.405 193.037 246.35 191.009 251.018C188.335 257.174 185.52 264.109 184.182 270.929C183.41 270.942 182.629 271.186 181.913 271.74C177.488 268.832 172.97 266.057 168.579 263.096C164.717 260.491 161.07 257.374 157.169 254.758C157.565 253.583 157.513 252.3 157.073 251.148C163.303 248.654 169.377 245.595 175.791 243.651ZM186.983 271.95C189.316 265.462 191.094 258.751 193.691 252.337C195.955 246.746 198.831 241.237 201.017 235.572C201.333 235.751 201.667 235.879 202.009 235.977C202.494 239.355 203.527 242.717 204.337 245.958C205.578 250.917 206.954 255.844 208.295 260.778C206.933 262.401 206.897 264.771 208.118 266.432C204.734 267.616 201.382 268.91 198.046 270.205C194.905 271.424 191.487 272.32 188.269 273.548C187.967 272.932 187.524 272.385 186.983 271.95ZM207.983 248.735C207.189 244.589 206.511 239.995 205.387 235.703C205.916 235.449 206.405 235.093 206.814 234.633C207.072 234.342 207.272 234.019 207.443 233.687C213.744 233.335 220.278 231.997 226.447 231.352C231.144 230.861 235.742 230.128 240.128 228.601C240.165 228.675 240.191 228.748 240.229 228.823C240.348 229.056 240.465 229.289 240.583 229.523C240.724 229.804 240.921 230.064 241.154 230.3C236.286 234.711 231.955 239.887 227.503 244.642C222.88 249.576 218.131 254.423 213.88 259.679C212.576 259.012 211.018 259.011 209.72 259.657C209.34 255.991 208.681 252.378 207.983 248.735ZM222.041 228.899C217.494 229.335 212.447 229.414 207.857 230.585C207.811 230.362 207.745 230.147 207.666 229.932C212.134 222.444 214.277 212.944 217.18 204.877C220.226 196.409 224.044 188.266 227.382 179.935C227.844 180.051 228.317 180.105 228.797 180.095C229.633 186.739 231.639 193.281 233.057 199.794C234.782 207.717 236.416 216.652 240.038 224.138C239.827 224.531 239.67 224.949 239.577 225.402C239.5 225.784 239.492 226.139 239.512 226.487C233.722 227.516 227.918 228.336 222.041 228.899ZM212.198 159.191C216.261 162.954 220.277 166.784 224.506 170.362C224.396 170.469 224.279 170.55 224.173 170.67C223.073 171.907 222.682 173.246 222.752 174.522C218.186 175.334 213.58 175.801 208.939 176.214C205.257 176.543 201.337 176.701 197.816 177.914C197.412 177.461 196.931 177.07 196.368 176.791C196.03 176.624 195.684 176.518 195.337 176.438C196.459 172.552 197.539 168.578 198.131 164.646C198.775 160.378 198.556 156.045 198.859 151.741C199.751 151.498 200.583 151.016 201.231 150.286C201.298 150.211 201.343 150.123 201.405 150.045C204.978 153.109 208.747 155.994 212.198 159.191ZM195.244 162.365C194.824 167.194 192.488 171.926 192.311 176.735C191.685 177.012 191.1 177.404 190.604 177.922C190.598 177.93 190.592 177.937 190.584 177.943C190.348 178.188 190.159 178.473 189.992 178.77C179.517 173.289 169.044 167.323 158.306 162.51C158.588 162.09 158.809 161.61 158.96 161.107C164.895 159.563 170.796 157.728 176.692 156.152C182.096 154.709 188.956 153.553 194.304 150.739C194.914 151.265 195.626 151.598 196.371 151.773C195.657 155.229 195.558 158.775 195.244 162.365ZM189.442 180.381C189.262 181.555 189.479 182.798 190.144 183.755C190.15 183.762 190.156 183.77 190.159 183.777C190.351 184.053 190.572 184.302 190.806 184.533C186.504 186.897 182.651 190.159 178.838 193.199C174.325 196.795 169.182 200.491 165.323 204.96C164.85 204.807 164.356 204.747 163.863 204.753C162.839 198.899 160.57 192.982 159.059 187.506C156.992 180.021 155.6 172.588 154.382 164.998C154.7 164.948 155.018 164.867 155.328 164.738C155.977 164.465 156.39 164.271 156.782 164.002C166.711 170.503 178.03 176.703 189.442 180.381ZM151.008 213.908C153.513 213.748 157.917 213.906 161.17 212.805C161.51 213.064 161.874 213.272 162.261 213.42C160.644 218.354 158.545 223.142 156.882 228.057C154.712 234.468 152.754 241.322 151.017 247.993C150.442 248.131 149.874 248.352 149.334 248.659C149.247 248.709 149.169 248.774 149.086 248.83C146.415 242.943 143.318 237.253 141.069 231.101C139.156 225.862 137.259 220.379 134.202 215.663C134.692 215.416 135.142 215.084 135.54 214.675C140.702 214.48 145.882 214.239 151.008 213.908ZM213.533 293.973C202.3 296.842 190.718 297.092 179.363 295.019C179.189 293.996 178.707 293.025 177.886 292.296C177.748 292.173 177.594 292.082 177.446 291.979C178.378 289.652 179.208 287.248 180.305 285.044C181.167 283.317 182.651 281.329 183.784 279.315C185.066 279.598 186.474 279.271 187.615 277.987C187.715 277.874 187.781 277.756 187.867 277.639C193.488 280.112 198.364 283.234 203.565 286.772C206.879 289.028 210.145 291.147 213.773 292.573C213.643 293.039 213.562 293.515 213.533 293.973ZM218.226 287.979C217.05 288.274 215.951 288.904 215.191 289.759C214.96 290.019 214.76 290.313 214.58 290.622C207.152 286.102 200.01 278.728 191.897 275.887C194.314 274.994 196.681 273.916 198.959 273.009C202.699 271.519 206.392 269.792 209.95 267.87C210.85 268.258 211.842 268.353 212.786 268.143C213.481 270.093 214.219 272.028 214.776 273.957C216.119 278.594 217.318 283.251 218.226 287.979ZM255.229 269.195C255.258 269.24 255.297 269.274 255.327 269.318C249.295 275.184 242.483 280.288 235.391 284.66C231.776 286.89 228.07 288.78 224.303 290.359C223.671 289.467 223.009 289.003 222.03 288.417C221.356 288.013 220.59 287.838 219.81 287.812C219.392 283.478 218.742 279.176 217.92 274.887C217.536 272.877 217.096 270.681 216.496 268.514C221.633 269.517 227.269 269.225 232.288 269.128C239.768 268.98 247.235 268.453 254.704 268.031C254.834 268.44 254.996 268.835 255.229 269.195ZM255.671 263.386C255.096 264.037 254.723 264.786 254.549 265.636C254.534 265.708 254.538 265.781 254.527 265.855C248.541 265.421 242.574 265.603 236.539 265.838C229.728 266.106 222.83 265.272 216.045 265.306C216.51 264.034 216.38 262.603 215.703 261.423C220.519 256.634 224.967 251.472 229.559 246.468C234.048 241.572 238.999 236.784 243.047 231.458C243.282 231.541 243.519 231.625 243.743 231.669C243.933 231.707 244.124 231.729 244.315 231.744C245.417 236.926 247.468 242.068 249.306 246.885C251.253 251.99 253.466 257.743 256.795 262.336C256.367 262.608 255.984 262.941 255.671 263.386ZM269.222 251.771C267.119 255.399 264.7 258.819 262.04 262.049C261.104 261.529 259.962 261.269 258.915 261.442C256.746 256.259 253.986 251.285 252.037 245.989C250.25 241.135 249.064 235.927 247.25 231.038C247.667 230.788 248.052 230.481 248.382 230.11C248.828 229.608 249.157 229.019 249.365 228.391C254.673 227.428 259.96 226.237 265.159 224.927C270.255 223.647 275.288 221.856 279.22 218.579C279.398 218.699 279.57 218.827 279.758 218.929C278.508 230.389 275.232 241.403 269.222 251.771ZM277.493 216.807C272.756 219.464 267.587 221.202 262.266 222.571C258.033 223.661 253.634 224.287 249.39 225.385C248.992 224.113 248.1 222.879 246.881 222.435C246.755 222.388 246.63 222.343 246.503 222.296C250.349 214.392 253.69 206.115 257.413 198.15C259.063 198.85 260.979 198.7 262.498 197.737C264.234 199.163 266.101 200.461 267.868 201.786C271.209 204.292 274.499 206.859 277.689 209.553C276.125 211.706 276.087 214.615 277.493 216.807ZM233.865 176.161C234.19 175.161 234.163 174.162 233.899 173.229C237.81 171.311 241.661 169.239 245.592 167.399C250.04 165.317 254.554 163.315 258.668 160.663C259.081 160.983 259.523 161.259 259.992 161.479C257.795 170.015 256.914 179.555 257.401 188.21C256.965 188.395 256.552 188.637 256.171 188.938C248.906 184.568 241.791 178.909 233.865 176.161ZM280.204 201.626C280.303 203.573 280.362 205.511 280.367 207.439C279.909 207.627 279.468 207.853 279.06 208.149C276.592 205.71 273.977 203.451 271.27 201.223C269.043 199.388 266.804 197.352 264.453 195.52C265.454 193.391 265.017 190.735 263.186 189.108C262.333 188.351 261.294 187.922 260.223 187.796C260.7 179.154 260.409 170.547 261.88 162.027C262.383 162.091 262.89 162.096 263.399 162.023C271.9 173.699 277.898 187.419 280.204 201.626ZM213.62 128.784C213.865 128.508 214.046 128.223 214.233 127.94C227.489 131.221 240.031 137.989 251.095 148.172C252.941 149.87 254.717 151.66 256.432 153.52C256.283 153.89 256.175 154.26 256.108 154.63C247.445 152.855 238.777 151.101 230.08 149.5C220.75 147.781 211.212 145.35 201.699 144.384C201.457 143.993 201.178 143.619 200.818 143.299C200.809 143.291 200.798 143.285 200.79 143.278C201.874 141.367 202.898 139.416 204.009 137.549C205.309 135.361 206.714 133.124 207.879 130.793C209.803 131.206 211.91 130.709 213.62 128.784ZM172.056 128.956C182.324 126.025 192.629 125.048 202.663 125.982C203.085 127.389 204.005 128.631 205.195 129.526C204.225 131.215 203.27 132.915 202.259 134.565C200.746 137.034 199.01 139.495 197.606 142.092C196.211 142.074 194.814 142.608 193.832 143.713C193.562 144.017 193.352 144.353 193.171 144.701C188.739 142.452 184.23 140.342 179.861 137.941C177.031 136.386 174.195 134.614 171.249 133.133C172.152 131.748 172.35 130.298 172.056 128.956ZM168.854 135.352C172.723 137.44 176.79 139.276 180.624 141.292C184.366 143.26 188.43 145.393 192.641 146.412C192.564 147.076 192.627 147.75 192.813 148.392C186.679 150.453 180.355 152.029 174.112 153.651C169.413 154.873 163.739 155.689 158.688 157.361C158.28 156.441 157.641 155.665 156.835 155.108C158.124 152.149 159.004 148.85 160.326 146.006C161.9 142.616 163.611 139.269 165.007 135.8C166.26 136.115 167.596 136.009 168.854 135.352ZM138.178 146.701C144.812 141.254 152.238 136.688 160.217 133.213C160.48 133.099 160.744 132.997 161.006 132.884C161.538 133.708 162.243 134.431 163.07 134.962C160.759 138.542 158.789 142.368 156.946 146.188C155.794 148.574 154.28 151.401 153.61 154.223C152.385 154.308 151.238 154.841 150.361 155.692C148.313 154.436 146.18 153.314 144.019 152.293C142.438 151.545 140.654 150.656 138.795 149.866C138.921 148.757 138.678 147.672 138.178 146.701ZM132.87 155.087C134.399 155.15 135.979 154.584 137.305 153.091C137.348 153.044 137.371 152.993 137.411 152.945C141.351 154.333 145.336 155.594 149.161 157.295C148.509 158.557 148.37 160.12 148.793 161.419C149.077 162.288 149.643 163.071 150.357 163.695C145.73 170.047 142.707 177.105 139.998 184.549C137.911 190.282 135.71 195.832 133.35 201.35C133.815 195.02 133.32 188.412 133.144 182.4C132.879 173.338 133.171 164.163 132.87 155.087ZM109.208 191.33C112.791 177.293 120.139 164.622 130.057 154.231C130.214 154.323 130.376 154.404 130.541 154.483C129.469 162.173 130.056 170.265 130.272 177.902C130.537 187.344 129.756 196.977 129.985 206.416C129.267 206.698 128.601 207.124 128.061 207.732C127.893 207.921 127.761 208.128 127.626 208.335C124.209 206.791 120.304 203.649 118.224 202.387C116.554 201.373 114.751 200.021 112.879 198.718C113.609 195.714 111.804 192.73 109.208 191.33ZM106.83 207.411C106.882 206.185 106.971 204.969 107.079 203.757C108.434 203.668 109.796 203.099 110.998 201.909C113.818 203.441 116.751 204.819 119.289 206.235C121.078 207.233 124.054 209.17 126.913 210.091C126.563 211.827 127.09 213.709 128.487 214.95C128.718 215.155 128.966 215.324 129.221 215.479C125.576 219.506 122.955 224.506 120.484 229.292C118.391 233.345 116.293 237.446 114.314 241.593C113.784 241.614 113.261 241.717 112.751 241.866C108.431 231.141 106.321 219.457 106.83 207.411ZM118.396 253.294C118.594 253.12 118.777 252.936 118.952 252.74C119.591 252.11 120.105 251.343 120.454 250.535C124.465 251.349 128.443 252.282 132.506 252.958C137.229 253.745 142.138 253.581 146.997 253.673C147.167 254.932 147.823 256.159 148.735 256.969C148.756 256.988 148.781 256.999 148.802 257.018C148.806 257.022 148.81 257.025 148.812 257.029C144.366 259.9 139.587 263.288 135.596 267.099C133.572 266.445 131.292 266.8 129.569 268.11C125.292 263.568 121.547 258.602 118.396 253.294ZM138.456 269.02C139.56 267.988 140.679 266.97 141.85 266.005C144.89 263.494 147.968 261.119 150.754 258.385C151.304 258.573 151.888 258.657 152.475 258.623C152.55 258.618 152.617 258.599 152.689 258.593C155.177 263.747 158.211 268.667 160.997 273.639C164.377 279.674 167.422 286.665 171.46 292.482C171.387 292.555 171.302 292.613 171.232 292.692C171.133 292.804 171.059 292.931 170.973 293.051C162.935 290.746 155.087 287.286 147.648 282.757C144.639 280.925 141.775 278.923 139.051 276.781C140.563 274.369 140.324 271.183 138.456 269.02Z" stroke="#A0F0B8" stroke-opacity="0.4" stroke-width="2" mask="url(#path-1-inside-1)"/>
</g>
<path d="M246.11 111.924L283.151 144.836C289.774 139.983 299.127 140.22 305.508 145.889C316.049 155.255 311.952 172.542 298.544 176.329L301.495 226.332C315.261 228.516 321.356 245.203 311.993 255.741C300.456 268.726 278.892 259.098 281.008 241.731L241.732 228.063L243.984 266.197L271.336 252.968C273.2 252.067 275.443 252.847 276.344 254.711C277.246 256.576 276.466 258.818 274.601 259.72L244.461 274.298L245.353 289.39C259.151 291.5 265.357 308.229 255.95 318.815C246.585 329.357 229.297 325.259 225.511 311.851L175.508 314.803C173.323 328.568 156.636 334.664 146.098 325.301C137.8 317.927 138.202 304.794 146.973 297.945L135.34 273.893L110.086 265.171C104.326 274.67 91.3349 276.643 83.0238 269.258C72.4827 259.892 76.5801 242.605 89.9882 238.818L87.0366 188.815C73.2711 186.632 67.1756 169.944 76.5388 159.406C82.2081 153.025 91.4684 151.69 98.6162 155.73L131.528 118.688C126.675 112.065 126.912 102.712 132.581 96.3318C139.105 88.9895 150.386 88.3236 157.728 94.8472C165.07 101.371 165.736 112.652 159.212 119.994C153.543 126.375 144.283 127.71 137.135 123.67L105.142 159.677L213.303 107.363C209.183 90.2939 229.553 78.4016 242.433 89.8464C248.814 95.5157 250.149 104.776 246.11 111.924V111.924ZM279.663 170.193L269.565 175.106L293.932 225.486L291.059 176.814C286.68 176.17 282.579 173.911 279.663 170.193ZM276.386 163.447C275.331 159.117 275.905 154.449 278.169 150.443L242.162 118.449L266.299 168.354L276.386 163.447ZM235.46 121.82L238.992 181.642L259.555 171.636L235.46 121.82ZM300.526 151.495C296.275 147.719 289.745 148.104 285.968 152.355C282.191 156.606 282.576 163.137 286.827 166.914C291.078 170.691 297.609 170.305 301.386 166.054C305.163 161.803 304.777 155.272 300.526 151.495ZM306.386 250.76C310.163 246.509 309.778 239.978 305.527 236.201C301.276 232.424 294.745 232.809 290.968 237.06C287.191 241.311 287.577 247.842 291.828 251.619C296.078 255.396 302.609 255.01 306.386 250.76ZM283.468 234.646C284.594 232.799 285.989 231.223 287.721 229.87L262.821 178.388L239.471 189.749L241.254 219.956L283.468 234.646ZM232.167 193.303L204.02 206.998L233.582 217.286L232.167 193.303ZM227.403 297.756C229.797 293.809 233.534 291.03 237.865 289.832L237.157 277.831L209.06 291.42L227.403 297.756ZM199.489 296.049L176.354 307.239L223.78 304.44L199.489 296.049ZM250.344 313.834C254.121 309.583 253.735 303.052 249.484 299.275C245.234 295.498 238.703 295.884 234.926 300.135C231.149 304.386 231.534 310.916 235.785 314.693C240.036 318.47 246.567 318.085 250.344 313.834ZM151.08 319.694C155.331 323.471 161.862 323.085 165.638 318.834C169.415 314.584 169.03 308.053 164.779 304.276C160.528 300.499 153.997 300.884 150.22 305.135C146.443 309.386 146.829 315.917 151.08 319.694ZM153.728 294.685C160.48 293.056 167.602 295.437 171.969 301.029L189.44 292.579L145.343 277.348L153.728 294.685ZM130.732 264.366L122.232 246.792L112.146 251.7C112.654 253.785 112.783 255.948 112.529 258.079L130.732 264.366ZM108.869 244.954L118.966 240.041L94.5998 189.661L97.4724 238.333C101.842 238.976 105.947 241.229 108.869 244.954V244.954ZM88.0053 263.651C92.2562 267.428 98.7871 267.043 102.564 262.792C106.341 258.541 105.955 252.01 101.705 248.233C97.4537 244.456 90.9228 244.842 87.1459 249.093C83.3689 253.344 83.7545 259.874 88.0053 263.651ZM82.1454 164.387C78.3684 168.638 78.754 175.169 83.0048 178.946C87.2557 182.723 93.7866 182.338 97.5636 178.087C101.341 173.836 100.955 167.305 96.7041 163.528C92.4532 159.751 85.9223 160.137 82.1454 164.387ZM153.606 115.012C157.383 110.761 156.997 104.23 152.747 100.453C148.496 96.6765 141.965 97.0621 138.188 101.313C134.411 105.564 134.796 112.095 139.047 115.872C143.298 119.649 149.829 119.263 153.606 115.012ZM107.154 167.035C108.781 173.775 106.413 180.9 100.811 185.277L125.711 236.759L139.928 229.842C141.79 228.935 144.034 229.71 144.941 231.573C145.847 233.435 145.071 235.679 143.209 236.585L128.977 243.51L140.735 267.821L199.011 287.95L236.679 269.731L234.061 225.394L194.505 211.628L169.702 223.696C167.839 224.602 165.595 223.827 164.689 221.965C163.778 220.093 164.567 217.854 166.42 216.952L184.511 208.15L118.3 185.108C115.773 184.229 114.963 181.062 116.728 179.076C117.706 177.974 119.288 177.51 120.765 178.025L194.026 203.52L231.688 185.196L227.884 120.757C223.447 120.079 219.406 117.761 216.562 114.119L107.154 167.035ZM222.893 96.3124C219.116 100.563 219.502 107.094 223.753 110.871C228.004 114.648 234.534 114.263 238.311 110.012C242.088 105.761 241.703 99.2299 237.452 95.453C233.201 91.676 226.67 92.0616 222.893 96.3124Z" stroke="#96E5B5" stroke-opacity="0.2"/>
<path d="M301.123 201.482C304.125 197.416 307.033 193.19 309.462 188.712C311.105 189.569 312.875 189.198 314.192 188.245C315.48 189.256 316.943 190.169 318.184 190.944C318.714 191.274 319.203 191.58 319.621 191.857C319.82 191.989 320.025 192.126 320.235 192.266C321.885 193.368 323.848 194.68 325.9 195.662C322.523 197.016 319.195 198.763 315.964 200.459C314.4 201.28 312.859 202.089 311.345 202.836C309.816 203.591 308.265 204.337 306.706 205.086C302.033 207.333 297.285 209.615 292.827 212.289C295.182 209.694 297.292 206.771 299.318 203.965C299.926 203.123 300.526 202.291 301.123 201.482ZM301.123 201.482L300.721 201.185M301.123 201.482L300.721 201.185M300.721 201.185C300.117 202.003 299.512 202.842 298.901 203.688C296.746 206.673 294.518 209.759 291.998 212.45L309.031 188.457C306.616 192.911 303.721 197.121 300.721 201.185ZM300.113 226.063L300.112 226.063C299.613 225.372 299.119 224.678 298.624 223.983C296.902 221.564 295.18 219.145 293.249 216.879C293.414 216.404 293.508 215.902 293.522 215.392C297.196 213.884 300.784 212.113 304.339 210.358C305.822 209.626 307.299 208.897 308.774 208.191C310.894 207.176 313.117 206.21 315.377 205.228C316.434 204.769 317.499 204.306 318.565 203.834C321.769 202.413 324.97 200.907 327.929 199.156C327.946 199.171 327.963 199.186 327.98 199.201C325.186 206.911 321.291 214.365 316.388 221.36L316.388 221.36C314.463 224.108 312.391 226.714 310.198 229.184C307.883 227.737 304.882 227.764 302.59 229.26C301.736 228.213 300.901 227.156 300.113 226.063ZM300.363 238.637C295.782 242.387 290.851 245.629 285.643 248.314C285.553 248.211 285.459 248.111 285.363 248.013C284.825 247.394 284.177 246.867 283.479 246.462C283.782 245.35 284.095 244.238 284.408 243.123C285.167 240.423 285.93 237.709 286.573 234.954C287.441 231.236 287.721 227.357 287.998 223.523C288.062 222.638 288.126 221.755 288.197 220.878C289.244 220.723 290.264 220.275 291.071 219.627C293.547 224.022 296.472 228.72 299.827 232.765C299.161 234.684 299.338 236.847 300.363 238.637Z" stroke="#A0F0B8" stroke-opacity="0.4"/>
<path d="M171.644 107.158C169.495 111.733 167.47 116.445 165.963 121.311C164.183 120.792 162.52 121.502 161.415 122.695C159.954 121.954 158.341 121.345 156.973 120.828C156.389 120.607 155.849 120.403 155.385 120.213C155.164 120.123 154.936 120.028 154.702 119.932C152.869 119.174 150.687 118.271 148.483 117.709C151.531 115.721 154.452 113.357 157.29 111.062C158.663 109.951 160.016 108.857 161.355 107.828C162.707 106.789 164.082 105.754 165.465 104.714C169.609 101.598 173.818 98.4318 177.668 94.9379C175.866 97.9432 174.368 101.222 172.93 104.37C172.498 105.315 172.072 106.248 171.644 107.158ZM171.644 107.158L172.097 107.371M171.644 107.158L172.097 107.371M172.097 107.371C172.529 106.45 172.959 105.51 173.393 104.56C174.923 101.212 176.505 97.7491 178.45 94.6177L166.435 121.477C167.932 116.637 169.949 111.942 172.097 107.371ZM167.831 82.8535L167.831 82.8538C168.455 83.4336 169.076 84.018 169.697 84.6023C171.859 86.6384 174.021 88.6742 176.357 90.5187C176.289 91.0173 176.294 91.5272 176.38 92.0311C173.072 94.2277 169.899 96.6662 166.756 99.0819C165.445 100.09 164.138 101.094 162.83 102.074C160.949 103.483 158.957 104.865 156.933 106.27C155.986 106.927 155.033 107.589 154.079 108.261C151.215 110.281 148.37 112.383 145.81 114.679C145.791 114.668 145.771 114.656 145.751 114.645C146.985 106.538 149.347 98.4654 152.788 90.647L152.788 90.6469C154.139 87.5763 155.662 84.6155 157.33 81.764C159.882 82.7311 162.821 82.1177 164.776 80.2025C165.818 81.0628 166.843 81.936 167.831 82.8535ZM165.127 70.571C168.887 65.9982 173.089 61.8549 177.671 58.2034C177.78 58.2871 177.891 58.3672 178.005 58.4443C178.653 58.946 179.392 59.3357 180.156 59.5969C180.076 60.7464 179.987 61.8983 179.897 63.0528C179.681 65.8492 179.463 68.6604 179.371 71.4879C179.246 75.3032 179.73 79.163 180.208 82.9763C180.318 83.857 180.428 84.7353 180.53 85.61C179.533 85.9667 178.62 86.605 177.956 87.3979C174.669 83.5722 170.882 79.536 166.801 76.2252C167.079 74.2128 166.483 72.1261 165.127 70.571Z" stroke="#A0F0B8" stroke-opacity="0.4"/>
<path d="M190.393 347.729C190.61 352.778 191 357.893 191.921 362.903C190.104 363.268 188.959 364.668 188.532 366.237C186.895 366.258 185.183 366.466 183.732 366.643C183.111 366.718 182.539 366.788 182.04 366.834C181.801 366.856 181.556 366.879 181.304 366.901C179.329 367.08 176.977 367.292 174.763 367.816C176.542 364.641 178.034 361.192 179.484 357.843C180.186 356.222 180.877 354.625 181.586 353.093C182.303 351.545 183.042 349.991 183.785 348.428C186.011 343.746 188.273 338.989 190.064 334.108C189.861 337.607 190.054 341.206 190.239 344.662C190.294 345.7 190.349 346.724 190.393 347.729ZM190.393 347.729L190.892 347.707M190.393 347.729L190.892 347.707M190.892 347.707C190.848 346.691 190.793 345.659 190.737 344.616C190.54 340.94 190.337 337.139 190.608 333.462L192.416 362.831C191.499 357.848 191.109 352.753 190.892 347.707ZM175.745 327.962L175.745 327.962C176.568 328.187 177.388 328.417 178.209 328.647C181.069 329.448 183.928 330.25 186.853 330.801C187.024 331.274 187.265 331.723 187.575 332.13C185.662 335.61 183.982 339.242 182.317 342.839C181.622 344.34 180.931 345.835 180.226 347.311C179.212 349.432 178.089 351.579 176.947 353.763C176.412 354.784 175.874 355.812 175.341 356.85C173.74 359.967 172.194 363.149 170.99 366.37C170.968 366.369 170.945 366.368 170.922 366.367C168.256 358.612 166.607 350.364 166.031 341.842L166.031 341.842C165.804 338.495 165.781 335.165 165.936 331.866C168.646 331.539 170.965 329.633 171.809 327.03C173.132 327.309 174.445 327.607 175.745 327.962ZM167.655 318.333C168.866 312.538 170.668 306.919 173.035 301.559C173.171 301.583 173.306 301.602 173.443 301.618C174.25 301.762 175.085 301.764 175.883 301.642C176.345 302.697 176.8 303.759 177.256 304.824C178.361 307.402 179.471 309.994 180.701 312.541C182.359 315.98 184.577 319.175 186.768 322.333C187.274 323.062 187.779 323.789 188.275 324.517C187.557 325.295 187.044 326.284 186.823 327.294C182.137 325.429 176.91 323.608 171.76 322.567C171.073 320.655 169.577 319.083 167.655 318.333Z" stroke="#A0F0B8" stroke-opacity="0.4"/>
<path d="M248.056 304.086L248.056 304.086C248.335 303.28 248.619 302.477 248.903 301.673C249.894 298.873 250.884 296.074 251.63 293.192C252.113 293.053 252.578 292.843 253.004 292.561C256.349 294.701 259.86 296.621 263.339 298.522C264.79 299.315 266.235 300.105 267.66 300.907C269.709 302.059 271.777 303.324 273.879 304.609C274.862 305.21 275.853 305.816 276.852 306.417C279.856 308.223 282.927 309.978 286.061 311.394C286.058 311.416 286.055 311.439 286.053 311.461C278.138 313.604 269.798 314.699 261.256 314.705L261.256 314.705C257.902 314.708 254.578 314.509 251.296 314.134C251.151 311.408 249.404 308.967 246.863 307.951C247.23 306.65 247.615 305.36 248.056 304.086ZM237.909 311.516C232.207 309.92 226.721 307.747 221.531 305.028C221.564 304.894 221.592 304.76 221.617 304.625C221.814 303.829 221.873 302.996 221.803 302.192C222.888 301.801 223.978 301.418 225.07 301.034C227.716 300.104 230.376 299.169 233 298.112C236.542 296.687 239.878 294.687 243.175 292.712C243.936 292.255 244.695 291.8 245.454 291.354C246.183 292.123 247.135 292.7 248.129 292.988C245.955 297.539 243.789 302.633 242.407 307.703C240.453 308.26 238.784 309.648 237.909 311.516Z" stroke="#A0F0B8" stroke-opacity="0.4"/>
<path d="M289.501 162.592L289.501 162.593C288.746 162.988 287.988 163.378 287.23 163.768C284.59 165.128 281.949 166.487 279.432 168.074C278.984 167.844 278.502 167.679 277.998 167.591C277.03 163.74 275.79 159.936 274.56 156.167C274.048 154.595 273.537 153.029 273.049 151.468C272.348 149.224 271.709 146.886 271.06 144.509C270.756 143.398 270.45 142.278 270.134 141.155C269.185 137.781 268.152 134.398 266.842 131.219C266.859 131.205 266.876 131.19 266.893 131.175C274.125 135.041 280.947 139.961 287.171 145.812L287.171 145.812C289.615 148.11 291.898 150.533 294.03 153.056C292.267 155.14 291.866 158.115 293.019 160.597C291.861 161.292 290.696 161.968 289.501 162.592ZM301.983 164.139C305.039 169.21 307.544 174.553 309.458 180.09C309.343 180.165 309.231 180.243 309.12 180.325C308.431 180.769 307.817 181.336 307.316 181.968C306.259 181.51 305.203 181.041 304.144 180.572C301.58 179.435 299.003 178.292 296.368 177.263C292.812 175.873 289.012 175.041 285.258 174.22C284.391 174.03 283.526 173.841 282.667 173.646C282.664 172.587 282.366 171.513 281.84 170.622C286.543 168.8 291.611 166.575 296.094 163.832C297.898 164.766 300.064 164.899 301.983 164.139Z" stroke="#A0F0B8" stroke-opacity="0.4"/>
<path d="M251.436 97.6063L251.436 97.6066C251.816 98.3699 252.19 99.1358 252.564 99.9017C253.867 102.571 255.169 105.239 256.703 107.79C256.463 108.233 256.288 108.712 256.19 109.213C252.319 110.099 248.489 111.259 244.695 112.407C243.112 112.887 241.535 113.364 239.965 113.819C237.707 114.472 235.356 115.061 232.965 115.66C231.848 115.94 230.721 116.222 229.592 116.514C226.199 117.391 222.794 118.352 219.588 119.594C219.574 119.577 219.56 119.559 219.546 119.542C223.564 112.394 228.628 105.677 234.61 99.5801L234.61 99.58C236.959 97.1849 239.43 94.9536 241.999 92.8757C244.044 94.6825 247.01 95.1472 249.516 94.0467C250.187 95.2199 250.837 96.3991 251.436 97.6063Z" stroke="#A0F0B8" stroke-opacity="0.4"/>
<path d="M77.7636 157.533L77.764 157.532C78.5632 157.236 79.3646 156.946 80.1659 156.656C82.9582 155.644 85.7502 154.632 88.4499 153.378C88.8641 153.664 89.3217 153.889 89.8102 154.04C90.2792 157.983 91.0252 161.914 91.7642 165.809C92.0724 167.434 92.3795 169.052 92.6647 170.662C93.0744 172.977 93.4101 175.378 93.7513 177.818C93.9108 178.959 94.0716 180.109 94.2417 181.263C94.753 184.73 95.3468 188.217 96.2416 191.537C96.2227 191.549 96.2035 191.562 96.1846 191.574C89.5044 186.818 83.3644 181.07 77.9376 174.473L77.9375 174.473C75.8057 171.883 73.8497 169.188 72.0566 166.414C74.0706 164.572 74.848 161.672 74.0201 159.064C75.2579 158.521 76.4996 158 77.7636 157.533Z" stroke="#A0F0B8" stroke-opacity="0.4"/>
<path d="M263.894 105.068L263.894 105.068C264.135 104.25 264.381 103.434 264.627 102.618C265.485 99.7745 266.343 96.9314 266.952 94.0179C267.428 93.8567 267.882 93.6243 268.295 93.3228C271.736 95.3038 275.334 97.056 278.898 98.7917C280.385 99.5158 281.866 100.237 283.327 100.971C285.428 102.026 287.553 103.192 289.713 104.377C290.723 104.931 291.741 105.49 292.768 106.043C295.853 107.706 299.004 109.314 302.2 110.582C302.198 110.604 302.197 110.627 302.196 110.65C294.39 113.162 286.111 114.648 277.579 115.055L277.578 115.055C274.228 115.216 270.899 115.173 267.602 114.952C267.33 112.236 265.47 109.88 262.884 108.984C263.189 107.668 263.513 106.361 263.894 105.068Z" stroke="#A0F0B8" stroke-opacity="0.4"/>
<path d="M77.7708 249.138C74.3158 245.45 70.6866 241.825 66.7234 238.625C67.8634 237.163 67.8196 235.355 67.1203 233.887C68.3486 232.804 69.5114 231.531 70.4975 230.451C70.9188 229.99 71.3078 229.564 71.6559 229.203C71.8223 229.031 71.9941 228.854 72.1702 228.673C73.5523 227.251 75.1979 225.557 76.5356 223.717C77.2556 227.284 78.3707 230.873 79.4536 234.358C79.9776 236.044 80.4942 237.707 80.9548 239.331C81.4201 240.971 81.8724 242.632 82.3271 244.301C83.6898 249.304 85.0742 254.386 86.8962 259.256C84.7709 256.469 82.2786 253.864 79.8859 251.364C79.1677 250.613 78.4585 249.872 77.7708 249.138ZM77.7708 249.138L77.4059 249.48M77.7708 249.138L77.4059 249.48M77.4059 249.48C78.1016 250.222 78.8163 250.969 79.5379 251.724C82.0832 254.384 84.7149 257.134 86.9047 260.1L66.3946 239.002C70.3372 242.183 73.953 245.794 77.4059 249.48ZM101.762 254.585L101.762 254.585C100.992 254.951 100.22 255.312 99.4475 255.672C96.756 256.928 94.0649 258.183 91.4871 259.672C91.0491 259.424 90.5734 259.24 90.0735 259.133C89.2563 255.248 88.1644 251.398 87.0826 247.584C86.6314 245.993 86.1819 244.408 85.7549 242.83C85.1414 240.561 84.594 238.2 84.0375 235.799C83.7773 234.677 83.5152 233.546 83.2433 232.411C82.4263 229.003 81.5254 225.582 80.3394 222.355C80.3572 222.341 80.3751 222.327 80.3929 222.313C87.4688 226.457 94.0948 231.638 100.086 237.727L100.086 237.727C102.439 240.118 104.626 242.628 106.659 245.233C104.816 247.246 104.299 250.203 105.355 252.728C104.171 253.378 102.98 254.008 101.762 254.585ZM114.174 256.616C117.031 261.802 119.327 267.238 121.024 272.846C120.906 272.916 120.791 272.99 120.677 273.067C119.971 273.484 119.336 274.026 118.81 274.639C117.772 274.14 116.735 273.631 115.695 273.12C113.177 271.885 110.646 270.643 108.053 269.512C104.555 267.984 100.79 267.006 97.0702 266.039C96.2111 265.816 95.3544 265.593 94.504 265.365C94.5414 264.306 94.2859 263.222 93.7952 262.311C98.5653 260.673 103.716 258.647 108.302 256.081C110.068 257.083 112.228 257.301 114.174 256.616Z" stroke="#A0F0B8" stroke-opacity="0.4"/>
<defs>
<filter id="filter0_d" x="49.7273" y="67.187" width="286.587" height="286.587" filterUnits="userSpaceOnUse" color-interpolation-filters="sRGB">
<feFlood flood-opacity="0" result="BackgroundImageFix"/>
<feColorMatrix in="SourceAlpha" type="matrix" values="0 0 0 0 0 0 0 0 0 0 0 0 0 0 0 0 0 0 127 0"/>
<feOffset/>
<feGaussianBlur stdDeviation="6"/>
<feColorMatrix type="matrix" values="0 0 0 0 1 0 0 0 0 1 0 0 0 0 1 0 0 0 0.78 0"/>
<feBlend mode="normal" in2="BackgroundImageFix" result="effect1_dropShadow"/>
<feBlend mode="normal" in="SourceGraphic" in2="effect1_dropShadow" result="shape"/>
</filter>
<clipPath id="clip0">
<rect width="186" height="186" fill="white" transform="translate(324.314 202.729) rotate(131.622)"/>
</clipPath>
</defs>
</svg>
