<svg viewBox="0 0 309 285" fill="none" xmlns="http://www.w3.org/2000/svg" preserveAspectRatio="xMinYMin meet">
<g clip-path="url(#clip0)" filter="url(#filter0_d)">
<mask id="path-1-inside-1" fill="white">
<path d="M54.3905 138.532C54.8366 151.124 57.7663 163.675 62.9456 175.144C62.1586 175.973 61.6498 177.073 61.6289 178.283C61.5845 180.853 63.6921 183.035 66.2625 183.08C66.5032 183.084 66.735 183.051 66.9669 183.018C71.3507 190.692 76.8097 197.712 83.3016 203.688C85.6812 205.878 88.2328 207.872 90.8932 209.715C90.7584 210.196 90.6628 210.689 90.654 211.194C90.5875 215.041 94.312 217.97 98.0368 217.021C98.9346 216.792 100.081 216.262 100.822 215.57C112.769 221.511 126.262 224.758 139.365 225.74C139.737 226.404 140.281 226.967 140.929 227.409C142.728 228.996 145.756 228.727 147.424 227.114C147.755 226.796 148.016 226.421 148.243 226.027C164.977 225.73 181.075 220.343 194.359 210.633C195.519 212.083 197.264 213.053 199.229 213.087C202.727 213.148 205.696 210.28 205.756 206.78C205.786 205.06 205.103 203.473 203.99 202.293C204.655 201.615 205.317 200.932 205.961 200.229C216.804 189.225 224.445 175.036 228.418 159.818C228.771 159.88 229.128 159.939 229.521 159.946C237.275 160.08 237.819 148.655 230.816 147.454C232.993 130.287 230.574 112.613 222.929 97.3242C226.296 93.8399 224.943 86.3792 218.641 86.2703C217.806 86.2559 217.076 86.4024 216.405 86.6261C216.262 86.4291 216.134 86.2242 215.989 86.0285C209.598 77.4945 201.526 70.2128 192.447 64.4006C192.746 61.1994 190.875 57.7633 186.727 57.6916C185.101 57.6635 183.825 58.1815 182.86 58.9933C174.405 54.8244 165.354 51.8437 156.138 50.2016C155.841 47.5137 153.979 45.0382 150.485 44.9778C147.492 44.9261 145.637 46.6911 144.917 48.8784C142.415 48.7359 139.916 48.6845 137.425 48.7489C124.84 49.0727 112.698 52.3223 101.731 57.8926C100.685 56.5427 99.0576 55.6099 96.8272 55.5714C91.4593 55.4785 89.3659 60.6608 90.6599 64.5794C82.5518 70.3284 75.3777 77.4539 69.5211 85.6429C67.3518 88.6772 65.4427 91.8507 63.7496 95.1217C63.6749 95.1177 63.6031 95.1001 63.5269 95.0988C62.3654 95.0828 61.2764 95.3565 60.2613 95.9212C59.3409 96.4399 58.3912 97.3145 57.7929 98.3204C57.3482 98.9412 57.0007 99.6821 56.7982 100.459C56.6393 100.994 56.5536 101.542 56.5452 102.028C56.5156 103.741 57.3237 105.392 58.6689 106.431C58.7386 106.492 58.818 106.539 58.8905 106.596C56.7663 112.927 55.401 119.505 54.7605 126.178C52.1142 126.982 50.1145 129.416 50.0647 132.3C50.0171 135.13 51.8546 137.592 54.3905 138.532ZM69.4249 174.845C71.7989 169.725 73.3445 163.973 75.1785 158.767C77.5333 152.083 80.2404 145.321 81.994 138.397C82.2512 138.47 82.5116 138.512 82.7751 138.537C82.8743 143.268 83.7724 148.129 84.405 152.692C85.121 157.86 86.0255 163.063 87.4909 168.086C85.4918 168.44 84.4146 170.078 84.2512 171.82C81.8423 172.033 79.2892 172.72 77.4944 173.061C75.155 173.505 72.1943 174.001 69.6059 175C69.5497 174.944 69.4852 174.898 69.4249 174.845ZM69.6794 100.089C72.2058 99.4525 74.7198 98.745 77.2496 98.0691C84.2048 96.2114 91.3615 95.0536 98.3039 93.2242C98.5246 93.5994 98.7811 93.9507 99.0873 94.2607C95.9672 99.8103 93.0124 105.477 89.9125 111.032C87.0795 116.109 83.3797 122.06 82.048 128.032C80.0924 124.69 77.2997 121.689 75.149 118.616C72.4076 114.694 70.6329 110.012 68.1826 105.857C69.5587 104.318 70.1565 102.157 69.6794 100.089ZM107.742 89.9211C122.535 87.1118 135.883 77.813 151.054 75.7381C151.094 75.8517 151.122 75.9706 151.17 76.0802C145.934 79.9512 141.919 85.8485 138.291 91.0301C134.117 96.9913 129.392 103.036 125.403 109.272C125.29 109.262 125.182 109.234 125.068 109.232C123.327 109.202 121.787 110.215 121.011 111.676C117.863 109.061 115.231 105.424 112.578 102.674C110.333 100.346 108.322 97.1752 105.926 94.5925C107.044 93.6678 107.788 92.3012 107.815 90.7644C107.818 90.4761 107.784 90.1979 107.742 89.9211ZM197.041 102.686C197.113 102.632 197.183 102.575 197.252 102.516C201.321 110.719 206.406 118.587 210.854 126.508C215.27 134.373 219.903 142.111 224.794 149.684C224.421 150.199 224.117 150.759 223.912 151.365C219.015 149.216 214.077 147.158 209.21 144.943C205.815 143.398 202.397 141.785 198.851 140.622C199.062 138.283 198.03 135.827 195.71 134.835C196.944 124.453 198.487 112.93 197.041 102.686ZM194.023 175.855C185.268 176.537 175.733 178.899 167.539 182.491C167.252 182.2 166.921 181.964 166.573 181.763C170.528 175.746 173.989 169.37 178.296 163.541C182.727 157.545 186.861 151.368 191.129 145.27C191.591 145.466 192.112 145.588 192.674 145.653C195.005 153.875 195.489 162.584 198.1 170.645C195.812 171.258 194.061 173.331 194.018 175.797C194.018 175.817 194.023 175.835 194.023 175.855ZM151.816 135.852C146.984 142.352 141.682 148.338 136.463 154.448C135.713 153.896 134.804 153.555 133.819 153.538C133.776 153.537 133.733 153.549 133.69 153.549C133.279 148.037 131.097 141.895 130.217 136.788C129.181 130.779 128.807 123.833 127.124 117.691C128.187 117.104 128.999 116.113 129.33 114.922C134.72 116.397 140.577 116.742 145.993 117.66C151.216 118.545 156.442 120.028 161.72 120.599C161.919 121.011 162.177 121.396 162.5 121.747C158.503 126.041 155.157 131.358 151.816 135.852ZM164.745 123.107C165.958 123.447 167.292 123.331 168.429 122.689C168.877 122.437 169.269 122.113 169.606 121.745C172.816 124.864 176.412 127.706 179.588 130.794C182.312 133.444 185.124 135.926 188.287 137.896C188.018 138.644 187.91 139.448 187.932 140.246C179.14 141.945 170.559 145.38 162.258 148.508C154.587 151.397 145.78 153.696 138.326 157.508C138.296 157.317 138.246 157.135 138.194 156.951C143.066 152.121 147.235 146.376 151.336 141.001C155.652 135.347 160.876 129.383 164.745 123.107ZM127.404 137.512C128.39 142.376 129.04 149.215 131.455 154.172C130.619 154.654 129.933 155.375 129.521 156.255C122.074 151.437 114.365 146.876 106.906 142.055C101.945 138.847 95.5452 134.761 89.3165 132.602C89.2713 132.306 89.1987 132.022 89.1054 131.748C95.4786 129.566 101.433 125.85 107.506 123.119C112.353 120.936 117.43 119.634 121.853 116.961C122.368 117.464 123.001 117.836 123.702 118.051C124.19 124.542 126.168 131.424 127.404 137.512ZM106.612 145.177C112.8 149.119 119.007 154.437 125.991 157.27C120.879 158.356 115.793 160.023 110.93 161.524C104.517 163.504 97.4205 165.883 91.3727 169.308C90.8603 168.731 90.1672 168.297 89.2807 168.115C88.6056 162.863 87.7697 157.627 87.1573 152.367C86.6197 147.739 86.6101 142.942 86.0555 138.277C87.2049 137.813 88.1451 136.938 88.7324 135.854C94.6822 138.958 100.959 141.575 106.612 145.177ZM92.4223 172.099C98.8655 169.645 105.117 166.624 111.676 164.418C117.393 162.495 123.446 161.091 129.169 159.061C129.239 159.417 129.36 159.754 129.508 160.078C127.26 162.645 125.381 165.618 123.449 168.343C120.494 172.515 117.651 176.767 114.779 180.998C112.66 181.021 110.839 182.538 110.373 184.546C107.271 182.748 104.106 181.047 100.95 179.359C97.9809 177.769 95.0744 175.758 92.0474 174.116C92.3181 173.485 92.4444 172.793 92.4223 172.099ZM123.715 172.919C126.345 169.617 129.39 166.11 131.915 162.463C132.453 162.698 133.041 162.838 133.657 162.848C134.046 162.855 134.421 162.796 134.784 162.71C139.154 167.263 144.424 171.351 148.931 175.612C152.363 178.857 155.913 181.869 159.928 184.204C159.896 184.279 159.858 184.347 159.825 184.425C159.726 184.667 159.625 184.907 159.524 185.149C159.404 185.44 159.334 185.758 159.307 186.088C152.79 185.267 146.041 185.35 139.533 185.067C132.779 184.772 126.007 184.325 119.25 184.521C118.907 183.097 117.893 181.914 116.558 181.349C119.092 178.674 121.405 175.822 123.715 172.919ZM147.924 170.671C144.632 167.504 141.286 163.726 137.408 161.005C137.547 160.825 137.667 160.634 137.78 160.434C146.372 158.949 154.976 154.389 162.989 151.339C171.4 148.137 180.065 145.732 188.562 142.839C188.775 143.266 189.041 143.66 189.362 144.018C184.864 148.979 181.205 154.761 177.186 160.079C172.296 166.547 166.579 173.606 163.257 181.229C162.821 181.325 162.401 181.478 161.997 181.702C161.657 181.892 161.382 182.118 161.131 182.36C156.58 178.635 152.178 174.765 147.924 170.671ZM194.417 117.809C194.207 123.342 193.915 128.884 193.954 134.423C193.801 134.41 193.664 134.373 193.503 134.371C191.848 134.342 190.577 134.917 189.655 135.801C186.065 132.865 182.711 129.673 179.376 126.42C176.728 123.84 174.056 120.968 170.842 119.085C170.923 118.484 170.907 117.865 170.751 117.255C170.658 116.89 170.513 116.559 170.349 116.243C174.028 114.564 177.748 112.796 181.117 110.684C184.775 108.394 187.92 105.406 191.385 102.834C192.15 103.352 193.057 103.67 194.034 103.686C194.135 103.688 194.23 103.665 194.33 103.662C194.331 108.369 194.596 113.107 194.417 117.809ZM180.968 107.009C177.03 109.834 171.917 111.143 168.153 114.14C167.535 113.845 166.856 113.656 166.14 113.618C166.13 113.618 166.121 113.618 166.111 113.616C165.772 113.597 165.432 113.638 165.098 113.705C162.436 102.187 160.144 90.3536 156.805 79.0699C157.307 79.0105 157.815 78.8656 158.295 78.6521C163.332 82.1511 168.567 85.4345 173.602 88.8831C178.216 92.0442 183.561 96.498 189.179 98.7242C189.177 99.5295 189.388 100.287 189.74 100.966C186.652 102.675 183.897 104.908 180.968 107.009ZM163.517 114.337C162.509 114.965 161.707 115.938 161.414 117.067C161.413 117.076 161.41 117.086 161.407 117.092C161.322 117.417 161.277 117.747 161.254 118.076C156.658 116.35 151.674 115.55 146.884 114.636C141.216 113.553 135.063 112.056 129.158 112.039C128.966 111.58 128.69 111.165 128.364 110.795C132.14 106.206 135.153 100.631 138.325 95.9186C142.659 89.4759 147.393 83.5788 152.361 77.7115C152.606 77.9212 152.875 78.1095 153.175 78.2602C153.804 78.5759 154.22 78.7626 154.679 78.8848C156.212 90.6529 158.877 103.281 163.517 114.337ZM113.045 107.001C114.798 108.797 117.546 112.243 120.5 113.995C120.524 114.421 120.604 114.833 120.743 115.223C115.946 117.21 110.946 118.734 106.132 120.672C99.8535 123.2 93.3768 126.178 87.1837 129.204C86.704 128.857 86.1662 128.57 85.5821 128.36C85.4874 128.327 85.3871 128.31 85.291 128.282C88.0192 122.423 90.3209 116.367 93.5255 110.654C96.2556 105.79 99.1813 100.78 100.77 95.389C101.276 95.6005 101.821 95.7255 102.39 95.7612C105.9 99.5521 109.456 103.326 113.045 107.001ZM92.9973 206.59C83.5053 199.932 75.7736 191.306 69.9534 181.338C70.6161 180.54 71.0388 179.542 71.0578 178.445C71.061 178.26 71.03 178.084 71.0113 177.904C73.3842 177.096 75.7498 176.16 78.1369 175.558C80.0088 175.087 82.4835 174.919 84.7496 174.467C85.3703 175.624 86.535 176.48 88.2527 176.51C88.4036 176.512 88.536 176.486 88.6804 176.475C90.4643 182.351 91.2699 188.084 91.9712 194.335C92.418 198.319 92.9362 202.178 94.2166 205.86C93.7778 206.065 93.364 206.313 92.9973 206.59ZM100.602 206.248C99.6133 205.548 98.4194 205.123 97.2757 205.103C96.9275 205.097 96.5744 205.137 96.2224 205.202C94.8158 196.621 95.7611 186.399 92.6346 178.392C94.8862 179.644 97.2452 180.739 99.4172 181.878C102.983 183.746 106.699 185.423 110.475 186.872C110.766 187.808 111.34 188.623 112.114 189.202C111.087 190.999 110.099 192.82 108.998 194.499C106.353 198.537 103.599 202.48 100.602 206.248ZM138.954 222.098C138.938 222.15 138.939 222.201 138.924 222.253C130.545 221.495 122.235 219.649 114.299 217.113C110.252 215.822 106.405 214.24 102.754 212.41C103.019 211.349 102.94 210.545 102.747 209.421C102.615 208.646 102.249 207.95 101.76 207.341C104.778 204.202 107.619 200.907 110.339 197.491C111.614 195.89 112.994 194.126 114.248 192.259C116.832 196.811 120.724 200.898 124.066 204.644C129.049 210.225 134.312 215.548 139.495 220.942C139.27 221.307 139.076 221.687 138.954 222.098ZM143.65 218.651C142.782 218.638 141.971 218.843 141.213 219.264C141.148 219.3 141.095 219.351 141.032 219.39C137.463 214.565 133.439 210.155 129.331 205.728C124.693 200.733 120.834 194.955 116.389 189.829C117.657 189.353 118.659 188.322 119.114 187.041C125.884 187.577 132.698 187.591 139.486 187.817C146.125 188.036 152.982 188.675 159.661 188.279C159.75 188.512 159.842 188.746 159.954 188.945C160.049 189.114 160.156 189.273 160.269 189.428C157.054 193.639 154.488 198.544 152.029 203.075C149.422 207.877 146.497 213.303 145.179 218.82C144.694 218.673 144.192 218.599 143.65 218.651ZM161.29 221.372C157.167 222.138 152.996 222.529 148.812 222.614C148.598 221.564 148.051 220.529 147.239 219.847C149.759 214.826 151.737 209.492 154.487 204.565C157.007 200.047 160.187 195.755 162.716 191.196C163.177 191.349 163.661 191.442 164.158 191.45C164.829 191.462 165.49 191.328 166.103 191.077C170.29 194.479 174.636 197.715 179.016 200.808C183.306 203.841 187.943 206.495 192.99 207.344C193.015 207.558 193.03 207.772 193.074 207.981C183.564 214.495 173.072 219.181 161.29 221.372ZM193.211 204.881C188.109 203.016 183.424 200.225 178.92 197.078C175.336 194.575 171.997 191.644 168.4 189.139C169.106 188.008 169.461 186.528 169.005 185.313C168.958 185.187 168.911 185.062 168.864 184.937C177.367 182.708 185.824 179.853 194.294 177.493C194.837 179.2 196.198 180.557 197.918 181.083C197.967 183.328 198.197 185.591 198.342 187.794C198.616 191.962 198.81 196.131 198.843 200.305C196.191 200.52 193.959 202.386 193.211 204.881ZM195.647 145.302C196.618 144.898 197.358 144.227 197.895 143.418C201.897 145.138 205.977 146.712 209.934 148.497C214.41 150.517 218.869 152.639 223.56 154.034C223.587 154.555 223.665 155.071 223.803 155.57C215.894 159.461 208.081 165.004 201.83 171.01C201.405 170.8 200.953 170.644 200.476 170.551C199.061 162.192 198.723 153.107 195.647 145.302ZM206.497 197.053C205.084 198.395 203.652 199.702 202.192 200.961C201.751 200.736 201.292 200.549 200.801 200.431C201.045 196.971 201.057 193.515 200.985 190.01C200.928 187.125 201.014 184.099 200.874 181.123C203.142 180.496 204.872 178.435 204.915 175.985C204.934 174.846 204.583 173.777 203.981 172.882C210.851 167.617 217.193 161.791 224.617 157.359C224.895 157.783 225.222 158.171 225.609 158.51C222.283 172.565 215.777 186.051 206.497 197.053ZM218.42 99.0869C218.788 99.0932 219.122 99.0446 219.459 99.0028C225.601 111.199 228.632 125.125 228.109 140.152C228.022 142.659 227.82 145.172 227.525 147.685C227.148 147.814 226.797 147.972 226.472 148.162C222.178 140.432 217.864 132.712 213.416 125.068C208.645 116.868 204.279 108.047 198.818 100.198C198.957 99.7598 199.059 99.3045 199.067 98.823C199.067 98.8108 199.065 98.7985 199.065 98.7876C201.222 98.3664 203.369 97.873 205.508 97.5005C208.016 97.0623 210.628 96.6721 213.156 96.0383C214.096 97.7673 215.845 99.0424 218.42 99.0869ZM191.223 67.6553C200.134 73.5394 207.586 80.7233 213.411 88.9469C212.618 90.1834 212.275 91.6902 212.37 93.1761C210.457 93.5402 208.544 93.9221 206.634 94.2292C203.775 94.6885 200.777 94.9741 197.892 95.599C196.997 94.5292 195.682 93.8167 194.204 93.7912C193.797 93.7841 193.406 93.844 193.023 93.9326C191.844 89.1046 190.509 84.3092 189.486 79.4295C188.824 76.2687 188.322 72.9624 187.527 69.7626C189.166 69.5461 190.396 68.7525 191.223 67.6553ZM184.284 69.3896C185.219 73.6856 186.474 77.968 187.44 82.1911C188.384 86.3117 189.411 90.7848 191.38 94.6443C190.826 95.0184 190.355 95.5054 189.989 96.065C184.431 92.7515 179.117 88.9784 173.821 85.2968C169.834 82.5261 165.518 78.7512 160.961 76.0074C161.393 75.0979 161.567 74.1078 161.464 73.1334C164.549 72.1855 167.626 70.7041 170.645 69.8557C174.243 68.8432 177.897 67.9623 181.438 66.7624C182.016 67.9179 182.966 68.8635 184.284 69.3896ZM155.695 53.4996C164.149 54.9872 172.45 57.6502 180.283 61.4423C180.54 61.5679 180.79 61.7014 181.046 61.8269C180.767 62.7676 180.678 63.7727 180.813 64.7464C176.592 65.3237 172.405 66.3206 168.306 67.4088C165.745 68.0882 162.614 68.7809 160.036 70.109C159.173 69.2357 158.022 68.7124 156.805 68.6002C156.424 66.2279 155.887 63.8787 155.255 61.5742C154.793 59.8875 154.306 57.9541 153.695 56.0294C154.619 55.4019 155.284 54.5115 155.695 53.4996ZM145.874 54.9324C146.822 56.1337 148.281 56.9643 150.277 56.9988C150.341 56.9999 150.394 56.9845 150.457 56.9842C151.969 60.878 153.607 64.7236 154.807 68.733C153.425 69.0601 152.148 69.9726 151.438 71.1398C150.963 71.9206 150.738 72.8609 150.729 73.8089C142.895 74.4339 135.57 76.7356 128.157 79.5268C122.447 81.6769 116.801 83.6199 111.077 85.4227C116.184 81.6529 120.876 76.974 125.324 72.9262C132.029 66.8237 139.182 61.0705 145.874 54.9324ZM102.96 60.5762C115.946 54.1538 130.347 51.4793 144.692 52.2401C144.724 52.4189 144.769 52.5952 144.816 52.7715C138.282 56.9656 132.524 62.6803 126.868 67.8174C119.875 74.1665 112.055 79.847 105.042 86.1673C104.359 85.8059 103.603 85.5778 102.79 85.5638C102.537 85.5594 102.294 85.5947 102.048 85.6271C100.995 82.0284 100.837 77.018 100.44 74.6182C100.123 72.6904 99.9739 70.4419 99.7437 68.1728C102.5 66.7703 103.588 63.4575 102.96 60.5762ZM89.208 69.2422C90.172 68.4835 91.1532 67.759 92.1435 67.0524C93.0926 68.0224 94.4116 68.686 96.0975 68.8226C96.7711 71.9605 97.6354 75.0839 98.2133 77.9317C98.6207 79.9399 99.089 83.4592 100.252 86.2287C98.7065 87.0944 97.6213 88.719 97.589 90.5876C97.5837 90.8963 97.6166 91.1948 97.666 91.4895C92.2364 91.3453 86.7348 92.6119 81.4935 93.8532C77.054 94.9042 72.576 95.9831 68.1394 97.1811C67.7788 96.7926 67.3601 96.4629 66.9148 96.1723C72.2413 85.9103 79.7345 76.7008 89.208 69.2422ZM61.918 107.898C62.1786 107.935 62.4381 107.955 62.7005 107.959C63.5944 108.035 64.5118 107.925 65.3516 107.664C67.3468 111.238 69.2281 114.865 71.3615 118.388C73.84 122.485 77.1608 126.104 80.2548 129.851C79.41 130.8 78.9059 132.097 78.8849 133.317C78.8844 133.345 78.8921 133.371 78.8916 133.4C78.8915 133.405 78.8914 133.409 78.89 133.413C73.8158 131.91 68.1322 130.489 62.6416 129.941C61.8198 127.98 60.0663 126.481 57.9492 126.026C58.6115 119.822 59.9409 113.746 61.918 107.898ZM63.0463 133.363C64.548 133.529 66.0494 133.715 67.5441 133.975C71.43 134.648 75.2363 135.437 79.1254 135.771C79.3405 136.311 79.6571 136.809 80.066 137.232C80.1181 137.286 80.176 137.324 80.2281 137.375C77.9364 142.619 76.1774 148.126 74.2184 153.477C71.8397 159.973 68.5173 166.836 66.7323 173.689C66.629 173.68 66.5302 173.654 66.4241 173.652C66.2745 173.65 66.1298 173.677 65.9827 173.689C62.4982 166.088 60.0132 157.879 58.6068 149.284C58.0371 145.808 57.6918 142.33 57.5435 138.868C60.3587 138.445 62.6206 136.189 63.0463 133.363Z"/>
</mask>
<path d="M54.3905 138.532C54.8366 151.124 57.7663 163.675 62.9456 175.144C62.1586 175.973 61.6498 177.073 61.6289 178.283C61.5845 180.853 63.6921 183.035 66.2625 183.08C66.5032 183.084 66.735 183.051 66.9669 183.018C71.3507 190.692 76.8097 197.712 83.3016 203.688C85.6812 205.878 88.2328 207.872 90.8932 209.715C90.7584 210.196 90.6628 210.689 90.654 211.194C90.5875 215.041 94.312 217.97 98.0368 217.021C98.9346 216.792 100.081 216.262 100.822 215.57C112.769 221.511 126.262 224.758 139.365 225.74C139.737 226.404 140.281 226.967 140.929 227.409C142.728 228.996 145.756 228.727 147.424 227.114C147.755 226.796 148.016 226.421 148.243 226.027C164.977 225.73 181.075 220.343 194.359 210.633C195.519 212.083 197.264 213.053 199.229 213.087C202.727 213.148 205.696 210.28 205.756 206.78C205.786 205.06 205.103 203.473 203.99 202.293C204.655 201.615 205.317 200.932 205.961 200.229C216.804 189.225 224.445 175.036 228.418 159.818C228.771 159.88 229.128 159.939 229.521 159.946C237.275 160.08 237.819 148.655 230.816 147.454C232.993 130.287 230.574 112.613 222.929 97.3242C226.296 93.8399 224.943 86.3792 218.641 86.2703C217.806 86.2559 217.076 86.4024 216.405 86.6261C216.262 86.4291 216.134 86.2242 215.989 86.0285C209.598 77.4945 201.526 70.2128 192.447 64.4006C192.746 61.1994 190.875 57.7633 186.727 57.6916C185.101 57.6635 183.825 58.1815 182.86 58.9933C174.405 54.8244 165.354 51.8437 156.138 50.2016C155.841 47.5137 153.979 45.0382 150.485 44.9778C147.492 44.9261 145.637 46.6911 144.917 48.8784C142.415 48.7359 139.916 48.6845 137.425 48.7489C124.84 49.0727 112.698 52.3223 101.731 57.8926C100.685 56.5427 99.0576 55.6099 96.8272 55.5714C91.4593 55.4785 89.3659 60.6608 90.6599 64.5794C82.5518 70.3284 75.3777 77.4539 69.5211 85.6429C67.3518 88.6772 65.4427 91.8507 63.7496 95.1217C63.6749 95.1177 63.6031 95.1001 63.5269 95.0988C62.3654 95.0828 61.2764 95.3565 60.2613 95.9212C59.3409 96.4399 58.3912 97.3145 57.7929 98.3204C57.3482 98.9412 57.0007 99.6821 56.7982 100.459C56.6393 100.994 56.5536 101.542 56.5452 102.028C56.5156 103.741 57.3237 105.392 58.6689 106.431C58.7386 106.492 58.818 106.539 58.8905 106.596C56.7663 112.927 55.401 119.505 54.7605 126.178C52.1142 126.982 50.1145 129.416 50.0647 132.3C50.0171 135.13 51.8546 137.592 54.3905 138.532ZM69.4249 174.845C71.7989 169.725 73.3445 163.973 75.1785 158.767C77.5333 152.083 80.2404 145.321 81.994 138.397C82.2512 138.47 82.5116 138.512 82.7751 138.537C82.8743 143.268 83.7724 148.129 84.405 152.692C85.121 157.86 86.0255 163.063 87.4909 168.086C85.4918 168.44 84.4146 170.078 84.2512 171.82C81.8423 172.033 79.2892 172.72 77.4944 173.061C75.155 173.505 72.1943 174.001 69.6059 175C69.5497 174.944 69.4852 174.898 69.4249 174.845ZM69.6794 100.089C72.2058 99.4525 74.7198 98.745 77.2496 98.0691C84.2048 96.2114 91.3615 95.0536 98.3039 93.2242C98.5246 93.5994 98.7811 93.9507 99.0873 94.2607C95.9672 99.8103 93.0124 105.477 89.9125 111.032C87.0795 116.109 83.3797 122.06 82.048 128.032C80.0924 124.69 77.2997 121.689 75.149 118.616C72.4076 114.694 70.6329 110.012 68.1826 105.857C69.5587 104.318 70.1565 102.157 69.6794 100.089ZM107.742 89.9211C122.535 87.1118 135.883 77.813 151.054 75.7381C151.094 75.8517 151.122 75.9706 151.17 76.0802C145.934 79.9512 141.919 85.8485 138.291 91.0301C134.117 96.9913 129.392 103.036 125.403 109.272C125.29 109.262 125.182 109.234 125.068 109.232C123.327 109.202 121.787 110.215 121.011 111.676C117.863 109.061 115.231 105.424 112.578 102.674C110.333 100.346 108.322 97.1752 105.926 94.5925C107.044 93.6678 107.788 92.3012 107.815 90.7644C107.818 90.4761 107.784 90.1979 107.742 89.9211ZM197.041 102.686C197.113 102.632 197.183 102.575 197.252 102.516C201.321 110.719 206.406 118.587 210.854 126.508C215.27 134.373 219.903 142.111 224.794 149.684C224.421 150.199 224.117 150.759 223.912 151.365C219.015 149.216 214.077 147.158 209.21 144.943C205.815 143.398 202.397 141.785 198.851 140.622C199.062 138.283 198.03 135.827 195.71 134.835C196.944 124.453 198.487 112.93 197.041 102.686ZM194.023 175.855C185.268 176.537 175.733 178.899 167.539 182.491C167.252 182.2 166.921 181.964 166.573 181.763C170.528 175.746 173.989 169.37 178.296 163.541C182.727 157.545 186.861 151.368 191.129 145.27C191.591 145.466 192.112 145.588 192.674 145.653C195.005 153.875 195.489 162.584 198.1 170.645C195.812 171.258 194.061 173.331 194.018 175.797C194.018 175.817 194.023 175.835 194.023 175.855ZM151.816 135.852C146.984 142.352 141.682 148.338 136.463 154.448C135.713 153.896 134.804 153.555 133.819 153.538C133.776 153.537 133.733 153.549 133.69 153.549C133.279 148.037 131.097 141.895 130.217 136.788C129.181 130.779 128.807 123.833 127.124 117.691C128.187 117.104 128.999 116.113 129.33 114.922C134.72 116.397 140.577 116.742 145.993 117.66C151.216 118.545 156.442 120.028 161.72 120.599C161.919 121.011 162.177 121.396 162.5 121.747C158.503 126.041 155.157 131.358 151.816 135.852ZM164.745 123.107C165.958 123.447 167.292 123.331 168.429 122.689C168.877 122.437 169.269 122.113 169.606 121.745C172.816 124.864 176.412 127.706 179.588 130.794C182.312 133.444 185.124 135.926 188.287 137.896C188.018 138.644 187.91 139.448 187.932 140.246C179.14 141.945 170.559 145.38 162.258 148.508C154.587 151.397 145.78 153.696 138.326 157.508C138.296 157.317 138.246 157.135 138.194 156.951C143.066 152.121 147.235 146.376 151.336 141.001C155.652 135.347 160.876 129.383 164.745 123.107ZM127.404 137.512C128.39 142.376 129.04 149.215 131.455 154.172C130.619 154.654 129.933 155.375 129.521 156.255C122.074 151.437 114.365 146.876 106.906 142.055C101.945 138.847 95.5452 134.761 89.3165 132.602C89.2713 132.306 89.1987 132.022 89.1054 131.748C95.4786 129.566 101.433 125.85 107.506 123.119C112.353 120.936 117.43 119.634 121.853 116.961C122.368 117.464 123.001 117.836 123.702 118.051C124.19 124.542 126.168 131.424 127.404 137.512ZM106.612 145.177C112.8 149.119 119.007 154.437 125.991 157.27C120.879 158.356 115.793 160.023 110.93 161.524C104.517 163.504 97.4205 165.883 91.3727 169.308C90.8603 168.731 90.1672 168.297 89.2807 168.115C88.6056 162.863 87.7697 157.627 87.1573 152.367C86.6197 147.739 86.6101 142.942 86.0555 138.277C87.2049 137.813 88.1451 136.938 88.7324 135.854C94.6822 138.958 100.959 141.575 106.612 145.177ZM92.4223 172.099C98.8655 169.645 105.117 166.624 111.676 164.418C117.393 162.495 123.446 161.091 129.169 159.061C129.239 159.417 129.36 159.754 129.508 160.078C127.26 162.645 125.381 165.618 123.449 168.343C120.494 172.515 117.651 176.767 114.779 180.998C112.66 181.021 110.839 182.538 110.373 184.546C107.271 182.748 104.106 181.047 100.95 179.359C97.9809 177.769 95.0744 175.758 92.0474 174.116C92.3181 173.485 92.4444 172.793 92.4223 172.099ZM123.715 172.919C126.345 169.617 129.39 166.11 131.915 162.463C132.453 162.698 133.041 162.838 133.657 162.848C134.046 162.855 134.421 162.796 134.784 162.71C139.154 167.263 144.424 171.351 148.931 175.612C152.363 178.857 155.913 181.869 159.928 184.204C159.896 184.279 159.858 184.347 159.825 184.425C159.726 184.667 159.625 184.907 159.524 185.149C159.404 185.44 159.334 185.758 159.307 186.088C152.79 185.267 146.041 185.35 139.533 185.067C132.779 184.772 126.007 184.325 119.25 184.521C118.907 183.097 117.893 181.914 116.558 181.349C119.092 178.674 121.405 175.822 123.715 172.919ZM147.924 170.671C144.632 167.504 141.286 163.726 137.408 161.005C137.547 160.825 137.667 160.634 137.78 160.434C146.372 158.949 154.976 154.389 162.989 151.339C171.4 148.137 180.065 145.732 188.562 142.839C188.775 143.266 189.041 143.66 189.362 144.018C184.864 148.979 181.205 154.761 177.186 160.079C172.296 166.547 166.579 173.606 163.257 181.229C162.821 181.325 162.401 181.478 161.997 181.702C161.657 181.892 161.382 182.118 161.131 182.36C156.58 178.635 152.178 174.765 147.924 170.671ZM194.417 117.809C194.207 123.342 193.915 128.884 193.954 134.423C193.801 134.41 193.664 134.373 193.503 134.371C191.848 134.342 190.577 134.917 189.655 135.801C186.065 132.865 182.711 129.673 179.376 126.42C176.728 123.84 174.056 120.968 170.842 119.085C170.923 118.484 170.907 117.865 170.751 117.255C170.658 116.89 170.513 116.559 170.349 116.243C174.028 114.564 177.748 112.796 181.117 110.684C184.775 108.394 187.92 105.406 191.385 102.834C192.15 103.352 193.057 103.67 194.034 103.686C194.135 103.688 194.23 103.665 194.33 103.662C194.331 108.369 194.596 113.107 194.417 117.809ZM180.968 107.009C177.03 109.834 171.917 111.143 168.153 114.14C167.535 113.845 166.856 113.656 166.14 113.618C166.13 113.618 166.121 113.618 166.111 113.616C165.772 113.597 165.432 113.638 165.098 113.705C162.436 102.187 160.144 90.3536 156.805 79.0699C157.307 79.0105 157.815 78.8656 158.295 78.6521C163.332 82.1511 168.567 85.4345 173.602 88.8831C178.216 92.0442 183.561 96.498 189.179 98.7242C189.177 99.5295 189.388 100.287 189.74 100.966C186.652 102.675 183.897 104.908 180.968 107.009ZM163.517 114.337C162.509 114.965 161.707 115.938 161.414 117.067C161.413 117.076 161.41 117.086 161.407 117.092C161.322 117.417 161.277 117.747 161.254 118.076C156.658 116.35 151.674 115.55 146.884 114.636C141.216 113.553 135.063 112.056 129.158 112.039C128.966 111.58 128.69 111.165 128.364 110.795C132.14 106.206 135.153 100.631 138.325 95.9186C142.659 89.4759 147.393 83.5788 152.361 77.7115C152.606 77.9212 152.875 78.1095 153.175 78.2602C153.804 78.5759 154.22 78.7626 154.679 78.8848C156.212 90.6529 158.877 103.281 163.517 114.337ZM113.045 107.001C114.798 108.797 117.546 112.243 120.5 113.995C120.524 114.421 120.604 114.833 120.743 115.223C115.946 117.21 110.946 118.734 106.132 120.672C99.8535 123.2 93.3768 126.178 87.1837 129.204C86.704 128.857 86.1662 128.57 85.5821 128.36C85.4874 128.327 85.3871 128.31 85.291 128.282C88.0192 122.423 90.3209 116.367 93.5255 110.654C96.2556 105.79 99.1813 100.78 100.77 95.389C101.276 95.6005 101.821 95.7255 102.39 95.7612C105.9 99.5521 109.456 103.326 113.045 107.001ZM92.9973 206.59C83.5053 199.932 75.7736 191.306 69.9534 181.338C70.6161 180.54 71.0388 179.542 71.0578 178.445C71.061 178.26 71.03 178.084 71.0113 177.904C73.3842 177.096 75.7498 176.16 78.1369 175.558C80.0088 175.087 82.4835 174.919 84.7496 174.467C85.3703 175.624 86.535 176.48 88.2527 176.51C88.4036 176.512 88.536 176.486 88.6804 176.475C90.4643 182.351 91.2699 188.084 91.9712 194.335C92.418 198.319 92.9362 202.178 94.2166 205.86C93.7778 206.065 93.364 206.313 92.9973 206.59ZM100.602 206.248C99.6133 205.548 98.4194 205.123 97.2757 205.103C96.9275 205.097 96.5744 205.137 96.2224 205.202C94.8158 196.621 95.7611 186.399 92.6346 178.392C94.8862 179.644 97.2452 180.739 99.4172 181.878C102.983 183.746 106.699 185.423 110.475 186.872C110.766 187.808 111.34 188.623 112.114 189.202C111.087 190.999 110.099 192.82 108.998 194.499C106.353 198.537 103.599 202.48 100.602 206.248ZM138.954 222.098C138.938 222.15 138.939 222.201 138.924 222.253C130.545 221.495 122.235 219.649 114.299 217.113C110.252 215.822 106.405 214.24 102.754 212.41C103.019 211.349 102.94 210.545 102.747 209.421C102.615 208.646 102.249 207.95 101.76 207.341C104.778 204.202 107.619 200.907 110.339 197.491C111.614 195.89 112.994 194.126 114.248 192.259C116.832 196.811 120.724 200.898 124.066 204.644C129.049 210.225 134.312 215.548 139.495 220.942C139.27 221.307 139.076 221.687 138.954 222.098ZM143.65 218.651C142.782 218.638 141.971 218.843 141.213 219.264C141.148 219.3 141.095 219.351 141.032 219.39C137.463 214.565 133.439 210.155 129.331 205.728C124.693 200.733 120.834 194.955 116.389 189.829C117.657 189.353 118.659 188.322 119.114 187.041C125.884 187.577 132.698 187.591 139.486 187.817C146.125 188.036 152.982 188.675 159.661 188.279C159.75 188.512 159.842 188.746 159.954 188.945C160.049 189.114 160.156 189.273 160.269 189.428C157.054 193.639 154.488 198.544 152.029 203.075C149.422 207.877 146.497 213.303 145.179 218.82C144.694 218.673 144.192 218.599 143.65 218.651ZM161.29 221.372C157.167 222.138 152.996 222.529 148.812 222.614C148.598 221.564 148.051 220.529 147.239 219.847C149.759 214.826 151.737 209.492 154.487 204.565C157.007 200.047 160.187 195.755 162.716 191.196C163.177 191.349 163.661 191.442 164.158 191.45C164.829 191.462 165.49 191.328 166.103 191.077C170.29 194.479 174.636 197.715 179.016 200.808C183.306 203.841 187.943 206.495 192.99 207.344C193.015 207.558 193.03 207.772 193.074 207.981C183.564 214.495 173.072 219.181 161.29 221.372ZM193.211 204.881C188.109 203.016 183.424 200.225 178.92 197.078C175.336 194.575 171.997 191.644 168.4 189.139C169.106 188.008 169.461 186.528 169.005 185.313C168.958 185.187 168.911 185.062 168.864 184.937C177.367 182.708 185.824 179.853 194.294 177.493C194.837 179.2 196.198 180.557 197.918 181.083C197.967 183.328 198.197 185.591 198.342 187.794C198.616 191.962 198.81 196.131 198.843 200.305C196.191 200.52 193.959 202.386 193.211 204.881ZM195.647 145.302C196.618 144.898 197.358 144.227 197.895 143.418C201.897 145.138 205.977 146.712 209.934 148.497C214.41 150.517 218.869 152.639 223.56 154.034C223.587 154.555 223.665 155.071 223.803 155.57C215.894 159.461 208.081 165.004 201.83 171.01C201.405 170.8 200.953 170.644 200.476 170.551C199.061 162.192 198.723 153.107 195.647 145.302ZM206.497 197.053C205.084 198.395 203.652 199.702 202.192 200.961C201.751 200.736 201.292 200.549 200.801 200.431C201.045 196.971 201.057 193.515 200.985 190.01C200.928 187.125 201.014 184.099 200.874 181.123C203.142 180.496 204.872 178.435 204.915 175.985C204.934 174.846 204.583 173.777 203.981 172.882C210.851 167.617 217.193 161.791 224.617 157.359C224.895 157.783 225.222 158.171 225.609 158.51C222.283 172.565 215.777 186.051 206.497 197.053ZM218.42 99.0869C218.788 99.0932 219.122 99.0446 219.459 99.0028C225.601 111.199 228.632 125.125 228.109 140.152C228.022 142.659 227.82 145.172 227.525 147.685C227.148 147.814 226.797 147.972 226.472 148.162C222.178 140.432 217.864 132.712 213.416 125.068C208.645 116.868 204.279 108.047 198.818 100.198C198.957 99.7598 199.059 99.3045 199.067 98.823C199.067 98.8108 199.065 98.7985 199.065 98.7876C201.222 98.3664 203.369 97.873 205.508 97.5005C208.016 97.0623 210.628 96.6721 213.156 96.0383C214.096 97.7673 215.845 99.0424 218.42 99.0869ZM191.223 67.6553C200.134 73.5394 207.586 80.7233 213.411 88.9469C212.618 90.1834 212.275 91.6902 212.37 93.1761C210.457 93.5402 208.544 93.9221 206.634 94.2292C203.775 94.6885 200.777 94.9741 197.892 95.599C196.997 94.5292 195.682 93.8167 194.204 93.7912C193.797 93.7841 193.406 93.844 193.023 93.9326C191.844 89.1046 190.509 84.3092 189.486 79.4295C188.824 76.2687 188.322 72.9624 187.527 69.7626C189.166 69.5461 190.396 68.7525 191.223 67.6553ZM184.284 69.3896C185.219 73.6856 186.474 77.968 187.44 82.1911C188.384 86.3117 189.411 90.7848 191.38 94.6443C190.826 95.0184 190.355 95.5054 189.989 96.065C184.431 92.7515 179.117 88.9784 173.821 85.2968C169.834 82.5261 165.518 78.7512 160.961 76.0074C161.393 75.0979 161.567 74.1078 161.464 73.1334C164.549 72.1855 167.626 70.7041 170.645 69.8557C174.243 68.8432 177.897 67.9623 181.438 66.7624C182.016 67.9179 182.966 68.8635 184.284 69.3896ZM155.695 53.4996C164.149 54.9872 172.45 57.6502 180.283 61.4423C180.54 61.5679 180.79 61.7014 181.046 61.8269C180.767 62.7676 180.678 63.7727 180.813 64.7464C176.592 65.3237 172.405 66.3206 168.306 67.4088C165.745 68.0882 162.614 68.7809 160.036 70.109C159.173 69.2357 158.022 68.7124 156.805 68.6002C156.424 66.2279 155.887 63.8787 155.255 61.5742C154.793 59.8875 154.306 57.9541 153.695 56.0294C154.619 55.4019 155.284 54.5115 155.695 53.4996ZM145.874 54.9324C146.822 56.1337 148.281 56.9643 150.277 56.9988C150.341 56.9999 150.394 56.9845 150.457 56.9842C151.969 60.878 153.607 64.7236 154.807 68.733C153.425 69.0601 152.148 69.9726 151.438 71.1398C150.963 71.9206 150.738 72.8609 150.729 73.8089C142.895 74.4339 135.57 76.7356 128.157 79.5268C122.447 81.6769 116.801 83.6199 111.077 85.4227C116.184 81.6529 120.876 76.974 125.324 72.9262C132.029 66.8237 139.182 61.0705 145.874 54.9324ZM102.96 60.5762C115.946 54.1538 130.347 51.4793 144.692 52.2401C144.724 52.4189 144.769 52.5952 144.816 52.7715C138.282 56.9656 132.524 62.6803 126.868 67.8174C119.875 74.1665 112.055 79.847 105.042 86.1673C104.359 85.8059 103.603 85.5778 102.79 85.5638C102.537 85.5594 102.294 85.5947 102.048 85.6271C100.995 82.0284 100.837 77.018 100.44 74.6182C100.123 72.6904 99.9739 70.4419 99.7437 68.1728C102.5 66.7703 103.588 63.4575 102.96 60.5762ZM89.208 69.2422C90.172 68.4835 91.1532 67.759 92.1435 67.0524C93.0926 68.0224 94.4116 68.686 96.0975 68.8226C96.7711 71.9605 97.6354 75.0839 98.2133 77.9317C98.6207 79.9399 99.089 83.4592 100.252 86.2287C98.7065 87.0944 97.6213 88.719 97.589 90.5876C97.5837 90.8963 97.6166 91.1948 97.666 91.4895C92.2364 91.3453 86.7348 92.6119 81.4935 93.8532C77.054 94.9042 72.576 95.9831 68.1394 97.1811C67.7788 96.7926 67.3601 96.4629 66.9148 96.1723C72.2413 85.9103 79.7345 76.7008 89.208 69.2422ZM61.918 107.898C62.1786 107.935 62.4381 107.955 62.7005 107.959C63.5944 108.035 64.5118 107.925 65.3516 107.664C67.3468 111.238 69.2281 114.865 71.3615 118.388C73.84 122.485 77.1608 126.104 80.2548 129.851C79.41 130.8 78.9059 132.097 78.8849 133.317C78.8844 133.345 78.8921 133.371 78.8916 133.4C78.8915 133.405 78.8914 133.409 78.89 133.413C73.8158 131.91 68.1322 130.489 62.6416 129.941C61.8198 127.98 60.0663 126.481 57.9492 126.026C58.6115 119.822 59.9409 113.746 61.918 107.898ZM63.0463 133.363C64.548 133.529 66.0494 133.715 67.5441 133.975C71.43 134.648 75.2363 135.437 79.1254 135.771C79.3405 136.311 79.6571 136.809 80.066 137.232C80.1181 137.286 80.176 137.324 80.2281 137.375C77.9364 142.619 76.1774 148.126 74.2184 153.477C71.8397 159.973 68.5173 166.836 66.7323 173.689C66.629 173.68 66.5302 173.654 66.4241 173.652C66.2745 173.65 66.1298 173.677 65.9827 173.689C62.4982 166.088 60.0132 157.879 58.6068 149.284C58.0371 145.808 57.6918 142.33 57.5435 138.868C60.3587 138.445 62.6206 136.189 63.0463 133.363Z" stroke="#A0F0B8" stroke-opacity="0.4" stroke-width="2" mask="url(#path-1-inside-1)"/>
</g>
<path d="M252.371 112.765L251.515 162.308C259.511 164.174 265.422 171.427 265.274 179.961C265.03 194.06 249.243 202.207 237.638 194.497L201.611 229.299C208.918 241.168 200.223 256.66 186.128 256.416C168.761 256.116 162.026 233.482 176.583 223.778L161.381 185.071L133.906 211.612L161.757 223.755C163.656 224.583 164.524 226.793 163.696 228.692C162.868 230.59 160.658 231.458 158.759 230.63L128.07 217.249L117.196 227.754C124.581 239.6 115.925 255.203 101.766 254.958C87.6669 254.714 79.5194 238.926 87.2291 227.321L52.4279 191.295C40.5586 198.601 25.0663 189.907 25.31 175.812C25.5019 164.713 35.7311 156.466 46.6405 158.662L57.3185 134.172L47.4931 109.326C36.533 111.14 26.5763 102.566 26.7685 91.4495C27.0123 77.3507 42.8 69.2032 54.405 76.9129L90.4312 42.1117C83.1245 30.2429 91.8199 14.7501 105.915 14.9938C114.449 15.1413 121.492 21.2996 123.081 29.3552L172.624 30.2117C174.49 22.2159 181.743 16.3048 190.276 16.4523C200.097 16.6221 207.948 24.7498 207.778 34.5701C207.609 44.3903 199.481 52.2418 189.661 52.072C181.126 51.9245 174.083 45.7661 172.495 37.7106L124.335 36.878L234.469 84.8971C244.741 70.6552 267.031 78.3701 266.733 95.5983C266.585 104.133 260.427 111.176 252.371 112.765V112.765ZM229.999 176.173L219.695 171.709L197.329 223.008L232.396 189.133C230.033 185.391 229.077 180.807 229.999 176.173ZM232.986 169.293C235.584 165.673 239.501 163.069 244.016 162.178L244.848 114.018L222.693 164.834L232.986 169.293ZM237.927 111.127L194.826 152.762L215.81 161.852L237.927 111.127ZM257.775 179.831C257.874 174.146 253.328 169.44 247.643 169.342C241.957 169.244 237.252 173.789 237.153 179.475C237.055 185.16 241.6 189.865 247.286 189.964C252.972 190.062 257.677 185.517 257.775 179.831ZM186.258 248.918C191.943 249.016 196.649 244.47 196.747 238.785C196.845 233.099 192.3 228.394 186.614 228.296C180.929 228.197 176.223 232.743 176.125 238.428C176.027 244.114 180.572 248.819 186.258 248.918ZM183.562 221.032C185.697 220.683 187.802 220.716 189.957 221.15L212.813 168.728L188.985 158.405L167.223 179.429L183.562 221.032ZM181.532 155.176L152.81 142.733L164.253 171.868L181.532 155.176ZM99.1589 219.579C103.712 218.826 108.255 219.852 111.985 222.359L120.632 214.006L92.0223 201.532L99.1589 219.579ZM82.2764 197.283L58.719 187.012L91.7271 221.182L82.2764 197.283ZM101.895 247.459C107.581 247.557 112.286 243.012 112.385 237.326C112.483 231.641 107.937 226.935 102.252 226.837C96.5663 226.739 91.861 231.284 91.7627 236.97C91.6644 242.655 96.2098 247.361 101.895 247.459ZM32.8088 175.942C32.7105 181.627 37.256 186.332 42.9415 186.431C48.6271 186.529 53.3325 181.984 53.4308 176.298C53.5291 170.613 48.9836 165.907 43.2981 165.809C37.6125 165.711 32.9071 170.256 32.8088 175.942ZM53.5131 161.666C59.1465 165.729 61.9775 172.685 60.5773 179.641L78.3667 187.397L61.2102 144.012L53.5131 161.666ZM61.548 124.471L69.3506 106.576L59.0574 102.117C57.806 103.86 56.2487 105.367 54.4658 106.562L61.548 124.471ZM62.0436 95.2375L72.3475 99.7012L94.7144 48.4023L59.647 82.2768C62.0048 86.0119 62.9673 90.5939 62.0436 95.2375V95.2375ZM34.2674 91.5792C34.1691 97.2647 38.7145 101.97 44.4001 102.068C50.0856 102.167 54.791 97.6213 54.8893 91.9357C54.9876 86.2502 50.4422 81.5448 44.7566 81.4465C39.0711 81.3482 34.3657 85.8936 34.2674 91.5792ZM105.785 22.4927C100.099 22.3944 95.3939 26.9398 95.2956 32.6253C95.1973 38.3109 99.7428 43.0163 105.428 43.1146C111.114 43.2129 115.819 38.6674 115.918 32.9819C116.016 27.2963 111.47 22.591 105.785 22.4927ZM189.791 44.5731C195.476 44.6714 200.182 40.126 200.28 34.4404C200.378 28.7549 195.833 24.0495 190.147 23.9512C184.462 23.8529 179.756 28.3983 179.658 34.0839C179.56 39.7695 184.105 44.4748 189.791 44.5731ZM120.061 43.1964C116.005 48.8197 109.056 51.6629 102.086 50.2611L79.2298 102.683L93.7376 108.968C95.638 109.791 96.5112 111.999 95.6879 113.899C94.8646 115.8 92.6564 116.672 90.7564 115.85L76.2329 109.558L65.4393 134.312L88.1122 191.646L126.467 208.369L158.411 177.511L143.1 138.527L117.79 127.562C115.89 126.738 115.016 124.531 115.84 122.63C116.667 120.72 118.88 119.86 120.771 120.68L139.231 128.677L113.603 63.4241C112.625 60.9337 114.501 58.2568 117.157 58.3027C118.63 58.3282 120.012 59.226 120.584 60.6822L148.941 132.884L187.373 149.533L233.799 104.685C231.425 100.876 230.552 96.3 231.464 91.7701L120.061 43.1964ZM249.101 84.9794C243.416 84.8811 238.71 89.4266 238.612 95.1121C238.514 100.798 243.059 105.503 248.745 105.601C254.43 105.7 259.135 101.154 259.234 95.4687C259.332 89.7831 254.787 85.0777 249.101 84.9794Z" stroke="#96E5B5" stroke-opacity="0.2"/>
<path d="M220.229 212.835C225.269 212.465 230.369 211.92 235.349 210.848C235.769 212.653 237.203 213.755 238.785 214.133C238.856 215.769 239.115 217.474 239.335 218.919C239.43 219.537 239.516 220.107 239.578 220.605C239.608 220.842 239.637 221.087 239.668 221.338C239.906 223.307 240.189 225.652 240.78 227.848C237.552 226.167 234.06 224.779 230.669 223.431C229.027 222.779 227.41 222.136 225.857 221.474C224.288 220.805 222.712 220.114 221.128 219.418C216.38 217.335 211.557 215.218 206.624 213.575C210.127 213.673 213.719 213.371 217.168 213.081C218.203 212.994 219.225 212.908 220.229 212.835ZM220.229 212.835L220.192 212.336M220.229 212.835L220.192 212.336M220.192 212.336C219.177 212.41 218.147 212.497 217.107 212.584C213.438 212.893 209.645 213.212 205.962 213.051L235.262 210.355C230.31 211.422 225.229 211.966 220.192 212.336ZM200.915 228.074L200.915 228.074C201.114 227.245 201.319 226.418 201.524 225.591C202.239 222.708 202.953 219.826 203.415 216.885C203.883 216.7 204.325 216.445 204.722 216.124C208.259 217.93 211.94 219.5 215.586 221.055C217.107 221.704 218.622 222.35 220.119 223.009C222.269 223.958 224.45 225.016 226.667 226.092C227.704 226.595 228.748 227.101 229.801 227.603C232.966 229.109 236.193 230.558 239.449 231.663C239.448 231.686 239.448 231.708 239.448 231.731C231.778 234.631 223.584 236.53 215.082 237.364L215.082 237.364C211.744 237.692 208.417 237.816 205.114 237.761C204.705 235.062 202.73 232.802 200.102 232.036C200.341 230.706 200.599 229.385 200.915 228.074ZM191.536 236.453C185.706 235.417 180.035 233.787 174.606 231.583C174.626 231.447 174.641 231.311 174.652 231.174C174.772 230.363 174.749 229.528 174.602 228.734C175.643 228.24 176.691 227.753 177.741 227.265C180.285 226.083 182.842 224.895 185.351 223.588C188.737 221.827 191.864 219.513 194.954 217.227C195.667 216.699 196.379 216.172 197.091 215.654C197.891 216.349 198.895 216.831 199.912 217.022C198.189 221.762 196.527 227.041 195.643 232.222C193.752 232.966 192.226 234.509 191.536 236.453Z" stroke="#A0F0B8" stroke-opacity="0.4"/>
<path d="M207.497 53.1483C202.627 54.4963 197.731 56.0279 193.057 58.0526C192.292 56.3646 190.67 55.5641 189.045 55.502C188.656 53.9112 188.068 52.2902 187.57 50.9156C187.357 50.3283 187.16 49.786 187.002 49.3102C186.927 49.083 186.85 48.8487 186.771 48.6086C186.153 46.724 185.417 44.4803 184.408 42.4415C187.902 43.4596 191.598 44.1378 195.187 44.7965C196.924 45.1153 198.637 45.4295 200.289 45.7754C201.958 46.1249 203.639 46.4952 205.328 46.8673C210.392 47.9827 215.536 49.1159 220.695 49.7625C217.24 50.3513 213.776 51.3497 210.451 52.3082C209.452 52.5959 208.467 52.88 207.497 53.1483ZM207.497 53.1483L207.631 53.6302M207.497 53.1483L207.631 53.6302M207.631 53.6302C208.611 53.3587 209.605 53.0725 210.608 52.7834C214.145 51.7639 217.803 50.7098 221.447 50.1469L193.238 58.5189C197.887 56.5039 202.763 54.9774 207.631 53.6302ZM223.459 34.4271L223.459 34.4275C223.426 35.2792 223.387 36.1306 223.347 36.9821C223.21 39.9489 223.073 42.9154 223.194 45.8894C222.772 46.1622 222.388 46.4985 222.062 46.8917C218.24 45.8115 214.324 44.9915 210.444 44.1792C208.825 43.8403 207.213 43.5028 205.616 43.1482C203.322 42.6382 200.976 42.0269 198.592 41.4055C197.477 41.1149 196.353 40.822 195.223 40.5363C191.824 39.6777 188.376 38.8877 184.967 38.4398C184.963 38.4178 184.959 38.3954 184.955 38.373C191.91 34.0296 199.575 30.5661 207.75 28.0864L207.75 28.0864C210.96 27.1118 214.198 26.3398 217.449 25.7486C218.377 28.3155 220.756 30.1459 223.482 30.3827C223.508 31.7338 223.513 33.0806 223.459 34.4271ZM231.02 24.3768C236.939 24.253 242.82 24.7438 248.575 25.8436C248.582 25.9809 248.594 26.1175 248.61 26.2539C248.651 27.0726 248.837 27.8872 249.136 28.637C248.211 29.3247 247.279 30.0071 246.344 30.691C244.081 32.3475 241.806 34.0128 239.6 35.7845C236.623 38.1742 234.009 41.0546 231.426 43.9003C230.83 44.5576 230.235 45.213 229.637 45.8601C228.717 45.3356 227.639 45.0587 226.604 45.0705C227.367 40.0848 227.964 34.5826 227.819 29.3295C229.528 28.2301 230.723 26.4186 231.02 24.3768Z" stroke="#A0F0B8" stroke-opacity="0.4"/>
<path d="M37.1327 224.033C33.4422 227.486 29.8145 231.112 26.6119 235.074C25.1515 233.932 23.3435 233.975 21.875 234.673C20.7924 233.444 19.52 232.281 18.441 231.294C17.98 230.872 17.5543 230.483 17.1938 230.135C17.0218 229.968 16.845 229.796 16.6639 229.62C15.2423 228.237 13.5496 226.59 11.7109 225.252C15.2783 224.534 18.8676 223.421 22.3534 222.341C24.0403 221.818 25.703 221.302 27.3273 220.843C28.9684 220.378 30.6291 219.927 32.2987 219.473C37.3024 218.114 42.3855 216.733 47.256 214.914C44.4681 217.038 41.8618 219.528 39.3597 221.919C38.6087 222.637 37.867 223.346 37.1327 224.033ZM37.1327 224.033L37.4743 224.398M37.1327 224.033L37.4743 224.398M37.4743 224.398C38.2172 223.703 38.9646 222.989 39.7193 222.268C42.3811 219.724 45.1333 217.094 48.1003 214.906L26.9888 235.403C30.1731 231.462 33.786 227.849 37.4743 224.398ZM42.5955 200.045L42.5956 200.045C42.961 200.815 43.3209 201.588 43.6808 202.361C44.9348 205.053 46.1886 207.745 47.675 210.324C47.4268 210.761 47.2431 211.237 47.136 211.737C43.2496 212.551 39.399 213.641 35.5846 214.72C33.9932 215.17 32.4082 215.619 30.8295 216.045C28.56 216.657 26.1985 217.203 23.7976 217.757C22.675 218.017 21.5438 218.278 20.4094 218.55C17.0004 219.364 13.5792 220.263 10.3508 221.447C10.3374 221.429 10.3233 221.411 10.309 221.393C14.458 214.32 19.6435 207.698 25.7364 201.711L25.7365 201.71C28.1285 199.359 30.6403 197.173 33.246 195.142C35.2585 196.986 38.2148 197.505 40.7406 196.451C41.3898 197.636 42.0187 198.827 42.5955 200.045ZM44.6347 187.635C49.8217 184.781 55.2597 182.489 60.8688 180.795C60.939 180.913 61.0126 181.029 61.0896 181.143C61.506 181.849 62.048 182.484 62.6606 183.01C62.1603 184.048 61.6506 185.085 61.1398 186.124C59.9025 188.641 58.6585 191.172 57.5259 193.764C55.9963 197.262 55.0154 201.026 54.0463 204.745C53.8225 205.604 53.5993 206.46 53.3701 207.31C52.3117 207.272 51.2276 207.527 50.3163 208.017C48.6809 203.246 46.6589 198.094 44.095 193.507C45.0989 191.741 45.318 189.581 44.6347 187.635Z" stroke="#A0F0B8" stroke-opacity="0.4"/>
<path d="M107.803 239.375L107.804 239.375C108.597 239.062 109.391 238.755 110.186 238.447C112.956 237.376 115.726 236.304 118.398 234.993C118.819 235.27 119.281 235.485 119.772 235.625C120.326 239.557 121.156 243.472 121.978 247.35C122.321 248.968 122.663 250.579 122.982 252.183C123.442 254.488 123.829 256.881 124.222 259.313C124.406 260.451 124.591 261.597 124.786 262.747C125.372 266.203 126.04 269.676 127.006 272.977C126.987 272.989 126.968 273.002 126.949 273.015C120.169 268.403 113.907 262.787 108.34 256.308L108.34 256.308C106.153 253.764 104.14 251.112 102.288 248.377C104.262 246.492 104.977 243.577 104.094 240.986C105.319 240.418 106.55 239.87 107.803 239.375ZM95.557 236.512C93.0555 231.146 91.1319 225.568 89.8162 219.858C89.9387 219.796 90.059 219.73 90.1776 219.661C90.91 219.293 91.5805 218.794 92.1459 218.218C93.1482 218.786 94.1487 219.364 95.1515 219.943C97.5803 221.346 100.022 222.756 102.533 224.059C105.921 225.819 109.611 227.049 113.257 228.264C114.099 228.544 114.939 228.824 115.772 229.11C115.663 230.163 115.845 231.262 116.273 232.204C111.404 233.517 106.128 235.191 101.38 237.443C99.6849 236.323 97.5451 235.961 95.557 236.512Z" stroke="#A0F0B8" stroke-opacity="0.4"/>
<path d="M242.174 178.69L242.174 178.69C241.382 178.375 240.593 178.054 239.803 177.733C237.052 176.614 234.301 175.495 231.457 174.618C231.34 174.128 231.151 173.655 230.89 173.216C233.182 169.973 235.262 166.554 237.321 163.167C238.181 161.754 239.037 160.347 239.903 158.96C241.149 156.967 242.508 154.96 243.889 152.919C244.535 151.965 245.185 151.003 245.832 150.032C247.775 147.115 249.669 144.128 251.229 141.063C251.251 141.067 251.273 141.071 251.296 141.074C253.071 149.08 253.78 157.461 253.391 165.994L253.391 165.995C253.24 169.346 252.887 172.657 252.361 175.918C249.631 175.937 247.112 177.569 245.98 180.061C244.697 179.634 243.426 179.19 242.174 178.69ZM249.128 189.17C247.27 194.791 244.847 200.172 241.89 205.231C241.759 205.192 241.626 205.157 241.492 205.126C240.706 204.892 239.877 204.796 239.07 204.828C238.73 203.727 238.398 202.62 238.064 201.511C237.258 198.825 236.446 196.124 235.512 193.454C234.252 189.851 232.408 186.426 230.587 183.042C230.166 182.26 229.746 181.481 229.335 180.702C230.137 180.009 230.758 179.085 231.092 178.105C235.537 180.487 240.525 182.885 245.526 184.501C245.993 186.478 247.302 188.209 249.128 189.17Z" stroke="#A0F0B8" stroke-opacity="0.4"/>
<path d="M266.706 107.484L266.706 107.484C266.374 108.269 266.036 109.052 265.698 109.834C264.521 112.561 263.344 115.288 262.407 118.113C261.915 118.218 261.437 118.397 260.993 118.65C257.8 116.289 254.426 114.137 251.083 112.006C249.689 111.117 248.3 110.231 246.932 109.335C244.966 108.047 242.988 106.646 240.977 105.222C240.037 104.556 239.089 103.885 238.132 103.218C235.257 101.214 232.311 99.2563 229.28 97.6323C229.284 97.6104 229.288 97.5879 229.292 97.5654C237.334 95.9608 245.728 95.4301 254.251 95.9998L254.251 95.9998C257.598 96.2225 260.901 96.6452 264.15 97.241C264.111 99.9702 265.69 102.523 268.157 103.709C267.703 104.982 267.232 106.243 266.706 107.484Z" stroke="#A0F0B8" stroke-opacity="0.4"/>
<path d="M108.134 14.7036L108.134 14.7038C108.879 15.1175 109.621 15.5366 110.364 15.9556C112.95 17.4158 115.536 18.8758 118.245 20.1084C118.298 20.6089 118.425 21.1027 118.629 21.5715C115.942 24.4951 113.444 27.6214 110.969 30.7184C109.937 32.0104 108.909 33.2973 107.873 34.5623C106.383 36.3804 104.78 38.1983 103.15 40.0464C102.388 40.9105 101.62 41.7813 100.855 42.6618C98.5561 45.3078 96.2963 48.0292 94.3593 50.8703C94.338 50.8636 94.3161 50.8572 94.2941 50.8511C93.5535 42.6843 93.9181 34.2811 95.3906 25.8668L95.3906 25.8667C95.9679 22.5623 96.7393 19.3233 97.6771 16.1557C100.387 16.4846 103.093 15.1866 104.534 12.8595C105.752 13.4458 106.956 14.0486 108.134 14.7036Z" stroke="#A0F0B8" stroke-opacity="0.4"/>
<path d="M269.156 121.797L269.156 121.797C269.933 121.447 270.713 121.103 271.492 120.758C274.209 119.558 276.925 118.357 279.533 116.922C279.966 117.179 280.438 117.372 280.935 117.489C281.673 121.391 282.686 125.262 283.689 129.097C284.108 130.697 284.525 132.291 284.92 133.878C285.487 136.159 285.986 138.531 286.493 140.942C286.73 142.07 286.969 143.206 287.218 144.345C287.965 147.77 288.796 151.208 289.916 154.459C289.897 154.472 289.879 154.486 289.861 154.5C282.871 150.212 276.353 144.896 270.488 138.686L270.487 138.686C268.184 136.248 266.048 133.693 264.069 131.048C265.953 129.072 266.53 126.127 265.526 123.581C266.723 122.955 267.927 122.35 269.156 121.797Z" stroke="#A0F0B8" stroke-opacity="0.4"/>
<path d="M38.6174 74.3612C39.1666 69.3374 39.5546 64.2224 39.4024 59.1308C41.2537 59.0446 42.5972 57.834 43.256 56.3473C44.878 56.574 46.6015 56.6274 48.063 56.6727C48.6874 56.6921 49.264 56.7099 49.7644 56.7392C50.0034 56.7533 50.2495 56.7686 50.5017 56.7842C52.4813 56.9068 54.8383 57.0527 57.1055 56.87C54.8673 59.7392 52.87 62.9223 50.9303 66.0135C49.9915 67.5095 49.0663 68.9841 48.1338 70.3911C47.1916 71.8127 46.226 73.2372 45.2552 74.6693C42.3459 78.9613 39.3904 83.3213 36.8814 87.8749C37.6123 84.4474 37.966 80.8599 38.3056 77.4157C38.4075 76.3819 38.5082 75.361 38.6174 74.3612ZM38.6174 74.3612L38.1203 74.3069M38.6174 74.3612L38.1203 74.3069M38.1203 74.3069C38.0099 75.3183 37.9084 76.3471 37.8059 77.3859C37.4445 81.0499 37.0709 84.8382 36.2463 88.4312L38.9021 59.1269C39.0548 64.1909 38.6693 69.2861 38.1203 74.3069ZM50.1065 96.116L50.1061 96.1159C49.3272 95.7699 48.5507 95.4184 47.7742 95.0669C45.0686 93.842 42.3632 92.6172 39.5552 91.63C39.4582 91.1361 39.2876 90.6556 39.0431 90.2067C41.46 87.0562 43.6707 83.7205 45.8606 80.4161C46.7742 79.0375 47.6842 77.6644 48.604 76.3125C49.9266 74.3693 51.3621 72.4164 52.8215 70.4309C53.5039 69.5025 54.1915 68.567 54.8753 67.6221C56.93 64.7825 58.9393 61.8714 60.6165 58.8695C60.6384 58.8743 60.6607 58.8787 60.6831 58.8829C62.1457 66.9517 62.5283 75.3541 61.8084 83.8658L61.8084 83.866C61.5267 87.2086 61.0459 90.5033 60.3928 93.7416C57.6647 93.6545 55.0842 95.1875 53.8556 97.6333C52.5908 97.1575 51.3377 96.6639 50.1065 96.116ZM56.6473 106.858C54.5729 112.403 51.9417 117.685 48.7911 122.625C48.6608 122.581 48.5296 122.542 48.3971 122.506C47.6211 122.241 46.7957 122.112 45.9885 122.113C45.6915 121 45.4024 119.881 45.1126 118.76C44.4108 116.044 43.7053 113.314 42.875 110.61C41.756 106.96 40.0469 103.466 38.3583 100.014C37.9683 99.2162 37.5795 98.4211 37.1992 97.6268C38.0269 96.9659 38.6831 96.0662 39.0549 95.1006C43.4046 97.6537 48.2957 100.244 53.2298 102.052C53.6193 104.046 54.8602 105.827 56.6473 106.858Z" stroke="#A0F0B8" stroke-opacity="0.4"/>
<defs>
<filter id="filter0_d" x="36.4109" y="30.0593" width="213.188" height="213.188" filterUnits="userSpaceOnUse" color-interpolation-filters="sRGB">
<feFlood flood-opacity="0" result="BackgroundImageFix"/>
<feColorMatrix in="SourceAlpha" type="matrix" values="0 0 0 0 0 0 0 0 0 0 0 0 0 0 0 0 0 0 127 0"/>
<feOffset/>
<feGaussianBlur stdDeviation="6"/>
<feColorMatrix type="matrix" values="0 0 0 0 1 0 0 0 0 1 0 0 0 0 1 0 0 0 0.78 0"/>
<feBlend mode="normal" in2="BackgroundImageFix" result="effect1_dropShadow"/>
<feBlend mode="normal" in="SourceGraphic" in2="effect1_dropShadow" result="shape"/>
</filter>
<clipPath id="clip0">
<rect width="186" height="186" fill="white" transform="translate(234.383 231.247) rotate(-179.009)"/>
</clipPath>
</defs>
</svg>
