<svg viewBox="0 0 384 395" fill="none" xmlns="http://www.w3.org/2000/svg" preserveAspectRatio="xMinYMin meet">
<g clip-path="url(#clip0)" filter="url(#filter0_d)">
<mask id="path-1-inside-1" fill="white">
<path d="M233.308 288.154C244.328 282.046 254.186 273.744 262.06 263.926C263.155 264.252 264.366 264.207 265.454 263.677C267.765 262.551 268.754 259.683 267.628 257.372C267.523 257.155 267.388 256.963 267.254 256.772C272.105 249.385 275.887 241.336 278.269 232.84C279.142 229.726 279.762 226.548 280.198 223.341C280.688 223.243 281.171 223.104 281.624 222.883C285.084 221.198 286.006 216.55 283.471 213.661C282.859 212.964 281.867 212.183 280.914 211.836C280.792 198.495 277.566 184.996 272.501 172.872C272.923 172.24 273.179 171.5 273.279 170.721C273.877 168.398 272.264 165.822 270.07 165.066C269.636 164.916 269.184 164.853 268.73 164.829C260.877 150.049 248.775 138.145 234.098 130.708C234.864 129.017 234.938 127.022 234.077 125.255C232.544 122.11 228.642 120.765 225.496 122.297C223.949 123.051 222.844 124.379 222.297 125.906C221.391 125.621 220.483 125.34 219.564 125.086C204.839 120.412 188.728 120.036 173.363 123.396C173.258 123.052 173.149 122.708 172.977 122.354C169.58 115.383 159.151 120.079 161.256 126.865C144.968 132.71 130.313 142.881 120.153 156.627C115.521 155.206 109.485 159.795 112.245 165.461C112.611 166.212 113.073 166.796 113.577 167.292C113.466 167.51 113.342 167.717 113.233 167.935C108.525 177.501 105.695 187.997 104.632 198.725C101.643 199.91 99.4294 203.136 101.246 206.865C101.958 208.326 102.999 209.23 104.16 209.721C104.279 219.148 105.726 228.566 108.442 237.524C106.181 239.008 104.819 241.79 106.35 244.932C107.661 247.623 110.075 248.476 112.351 248.125C113.358 250.42 114.446 252.671 115.633 254.861C121.628 265.931 130.031 275.28 139.969 282.528C139.24 284.073 139.146 285.946 140.123 287.951C142.475 292.778 148.043 292.294 150.949 289.363C159.749 293.983 169.354 297.146 179.308 298.652C182.996 299.209 186.69 299.472 190.373 299.498C190.404 299.566 190.421 299.638 190.454 299.706C190.966 300.749 191.704 301.595 192.668 302.244C193.547 302.829 194.758 303.279 195.925 303.356C196.68 303.471 197.498 303.445 198.283 303.273C198.831 303.172 199.359 303 199.795 302.787C201.336 302.036 202.441 300.568 202.757 298.897C202.78 298.808 202.785 298.716 202.803 298.625C209.409 297.648 215.892 295.881 222.129 293.426C224.046 295.42 227.122 296.099 229.715 294.835C232.259 293.594 233.62 290.84 233.308 288.154ZM258.855 258.287C253.215 258.493 247.387 259.724 241.916 260.45C234.891 261.382 227.637 262.036 220.67 263.613C220.618 263.351 220.538 263.099 220.441 262.853C224.612 260.62 228.537 257.615 232.317 254.982C236.599 252 240.826 248.834 244.639 245.25C245.86 246.872 247.809 247.089 249.436 246.445C250.718 248.495 252.487 250.459 253.606 251.904C255.062 253.788 256.847 256.202 258.91 258.056C258.887 258.131 258.875 258.209 258.855 258.287ZM192.112 291.96C190.399 289.997 188.628 288.077 186.878 286.129C182.069 280.772 177.791 274.919 173.013 269.561C173.247 269.194 173.444 268.806 173.581 268.393C179.942 268.657 186.333 268.721 192.69 268.964C198.5 269.187 205.481 269.786 211.407 268.265C209.315 271.524 207.908 275.373 206.144 278.684C203.891 282.906 200.523 286.61 197.931 290.678C195.935 290.15 193.738 290.597 192.112 291.96ZM165.789 262.647C156.577 250.736 142.236 243.056 133.507 230.476C133.59 230.389 133.684 230.31 133.76 230.217C139.584 233.129 146.661 234.032 152.924 234.916C160.13 235.934 167.66 237.404 175.027 238.131C175.069 238.236 175.094 238.345 175.144 238.448C175.906 240.013 177.507 240.926 179.161 240.955C178.258 244.946 176.21 248.942 174.962 252.553C173.905 255.61 171.991 258.841 170.776 262.147C169.445 261.57 167.889 261.526 166.507 262.199C166.249 262.327 166.017 262.484 165.789 262.647ZM136.671 177.269C136.591 177.229 136.508 177.192 136.424 177.157C141.89 169.811 146.597 161.711 151.64 154.155C156.647 146.653 161.442 139.015 165.974 131.22C166.602 131.32 167.24 131.336 167.873 131.244C168.177 136.584 168.582 141.918 168.816 147.26C168.978 150.987 169.09 154.764 169.662 158.453C167.481 159.325 165.761 161.359 165.928 163.876C156.116 167.485 145.146 171.334 136.671 177.269ZM203.254 146.779C207.831 154.273 214.261 161.7 221.177 167.373C221.048 167.761 220.988 168.163 220.967 168.565C213.81 167.769 206.558 167.575 199.41 166.38C192.057 165.149 184.677 164.266 177.306 163.227C177.271 162.727 177.143 162.207 176.947 161.676C183.218 155.87 190.761 151.49 196.761 145.507C198.345 147.268 200.987 147.889 203.204 146.809C203.222 146.8 203.236 146.787 203.254 146.779ZM186.74 202.537C194.724 203.896 202.464 205.906 210.275 207.788C210.124 208.706 210.232 209.671 210.664 210.557C210.683 210.596 210.712 210.628 210.732 210.667C206.005 213.533 201.521 218.263 197.368 221.363C192.482 225.012 186.461 228.494 181.751 232.779C180.745 232.098 179.494 231.824 178.282 232.069C177.152 226.596 174.804 221.219 173.166 215.976C171.586 210.92 170.538 205.589 168.654 200.626C168.931 200.262 169.157 199.857 169.323 199.41C174.963 201.026 181.219 201.597 186.74 202.537ZM169.518 196.793C169.27 195.558 168.562 194.422 167.474 193.699C167.047 193.414 166.58 193.211 166.099 193.078C167.424 188.803 168.325 184.309 169.638 180.077C170.764 176.448 171.702 172.817 172.023 169.104C172.812 169.005 173.577 168.736 174.279 168.355C179.779 175.421 186.732 181.511 193.284 187.491C199.337 193.018 205.38 199.825 212.158 204.74C212.002 204.853 211.862 204.98 211.721 205.11C205.208 202.958 198.197 201.847 191.547 200.629C184.55 199.346 176.865 197.395 169.518 196.793ZM199.289 223.541C203.177 220.457 208.978 216.776 212.301 212.377C213.109 212.903 214.063 213.187 215.034 213.155C214.117 221.977 213.548 230.917 212.633 239.751C212.024 245.627 211.284 253.184 212.185 259.714C211.941 259.889 211.721 260.083 211.519 260.29C206.684 255.599 200.672 251.977 195.484 247.803C191.341 244.473 187.878 240.538 183.49 237.808C183.704 237.121 183.749 236.388 183.623 235.666C189.187 232.288 194.424 227.403 199.289 223.541ZM215.55 238.597C216.257 231.294 218.182 223.351 217.54 215.841C220.826 219.905 224.618 223.682 228.161 227.336C232.834 232.154 238.172 237.4 243.968 241.236C243.685 241.955 243.613 242.769 243.852 243.642C239.477 246.626 235.19 249.745 230.779 252.676C226.898 255.254 222.627 257.438 218.721 260.047C217.786 259.234 216.58 258.792 215.348 258.76C215.416 252.05 214.903 245.269 215.55 238.597ZM245.979 239.035C240.87 234.406 235.342 230.204 230.402 225.359C226.096 221.135 222.099 216.377 217.695 212.197C217.981 211.973 218.226 211.712 218.447 211.434C221.755 212.273 225.256 212.599 228.562 213.086C233.62 213.828 238.699 214.433 243.772 215.074C244.753 216.952 246.931 217.888 248.932 217.393C248.737 220.973 248.656 224.565 248.582 228.143C248.511 231.51 248.037 235.012 247.946 238.455C247.261 238.5 246.588 238.701 245.979 239.035ZM232.519 210.773C228.383 209.927 223.877 208.803 219.482 208.206C219.448 207.62 219.305 207.033 219.035 206.479C218.865 206.13 218.642 205.822 218.401 205.537C220.477 199.578 221.73 193.027 223.485 187.078C224.821 182.547 225.895 178.017 226.155 173.38C226.238 173.375 226.315 173.378 226.399 173.372C226.66 173.351 226.92 173.331 227.181 173.312C227.495 173.288 227.81 173.205 228.117 173.08C230.34 179.261 233.475 185.238 236.174 191.166C238.974 197.32 241.645 203.558 244.885 209.492C243.771 210.443 243.176 211.883 243.279 213.329C239.745 212.284 236.154 211.516 232.519 210.773ZM219.538 190.216C218.208 194.586 216.358 199.282 215.691 203.972C215.468 203.93 215.243 203.909 215.014 203.899C209.794 196.915 201.828 191.314 195.476 185.556C188.808 179.511 182.735 172.879 176.304 166.618C176.588 166.234 176.818 165.818 176.992 165.37C183.453 167.129 190.266 167.768 196.828 168.939C204.81 170.364 213.694 172.259 221.995 171.762C222.278 172.107 222.605 172.412 222.988 172.671C223.312 172.888 223.637 173.031 223.966 173.144C222.71 178.89 221.257 184.568 219.538 190.216ZM151.34 172.75C156.367 170.428 161.439 168.174 166.358 165.628C166.415 165.771 166.445 165.909 166.515 166.054C167.24 167.542 168.329 168.414 169.535 168.835C168.547 173.366 167.222 177.803 165.835 182.251C164.736 185.78 163.389 189.465 163.168 193.182C162.595 193.383 162.051 193.678 161.578 194.093C161.295 194.341 161.065 194.621 160.859 194.911C157.694 192.394 154.431 189.88 151.021 187.834C147.321 185.612 143.232 184.164 139.368 182.243C139.483 181.326 139.355 180.373 138.927 179.495C138.883 179.405 138.819 179.33 138.771 179.243C142.965 177.107 147.068 174.722 151.34 172.75ZM147.812 189.634C152.117 191.862 155.602 195.826 159.98 197.822C159.997 198.507 160.137 199.197 160.428 199.852C160.432 199.861 160.436 199.87 160.439 199.879C160.576 200.19 160.767 200.474 160.977 200.742C151.919 208.338 142.412 215.746 133.869 223.839C133.588 223.419 133.229 223.031 132.821 222.7C133.655 216.624 134.208 210.47 134.998 204.418C135.723 198.872 137.269 192.089 136.706 186.073C137.424 185.709 138.003 185.177 138.45 184.556C141.372 186.533 144.613 187.976 147.812 189.634ZM162.258 201.864C163.274 202.478 164.506 202.751 165.644 202.501C165.653 202.498 165.663 202.496 165.67 202.495C165.998 202.423 166.313 202.314 166.616 202.186C167.162 207.064 168.709 211.869 170.067 216.554C171.672 222.096 173.128 228.259 175.79 233.53C175.468 233.909 175.224 234.343 175.042 234.801C169.24 233.517 162.904 233.36 157.266 232.669C149.558 231.728 142.155 230.183 134.673 228.416C134.749 228.102 134.795 227.777 134.794 227.442C134.789 226.737 134.767 226.282 134.668 225.818C144.462 219.115 154.508 211.013 162.258 201.864ZM178.607 250.175C179.413 247.799 181.238 243.786 181.46 240.359C181.829 240.144 182.16 239.886 182.445 239.586C186.39 242.96 190.016 246.726 193.927 250.137C199.027 254.587 204.617 259.009 210.123 263.156C210.031 263.741 210.019 264.351 210.097 264.967C210.111 265.066 210.141 265.163 210.16 265.261C203.7 265.487 197.259 266.181 190.714 265.916C185.141 265.688 179.349 265.352 173.824 266.382C173.783 265.834 173.647 265.292 173.421 264.768C175.208 259.921 176.959 255.04 178.607 250.175ZM276.459 222.883C274.829 234.361 270.647 245.164 264.402 254.872C263.391 254.643 262.309 254.719 261.323 255.2C261.156 255.281 261.013 255.388 260.862 255.486C259.066 253.738 257.159 252.054 255.54 250.199C254.271 248.744 252.999 246.615 251.568 244.8C252.319 243.722 252.553 242.296 251.801 240.752C251.734 240.616 251.651 240.51 251.576 240.386C256.004 236.132 260.749 232.814 266.002 229.354C269.35 227.149 272.554 224.937 275.255 222.127C275.637 222.425 276.046 222.681 276.459 222.883ZM272.705 216.259C272.53 217.458 272.693 218.715 273.194 219.743C273.346 220.056 273.542 220.353 273.759 220.637C266.749 225.782 257.21 229.575 251.491 235.993C251.586 233.418 251.493 230.819 251.522 228.367C251.57 224.342 251.38 220.269 250.959 216.246C251.661 215.562 252.128 214.682 252.293 213.729C254.36 213.83 256.431 213.884 258.427 214.104C263.225 214.631 267.988 215.297 272.705 216.259ZM269.441 174.89C269.494 174.881 269.54 174.857 269.592 174.846C272.716 182.658 274.839 190.902 276.178 199.125C276.862 203.317 277.197 207.463 277.221 211.547C276.156 211.793 275.475 212.227 274.56 212.909C273.93 213.378 273.475 214.02 273.155 214.732C268.988 213.466 264.763 212.427 260.485 211.552C258.48 211.142 256.282 210.712 254.05 210.441C256.935 206.074 258.813 200.751 260.636 196.074C263.35 189.102 265.708 181.998 268.165 174.932C268.592 174.967 269.019 174.968 269.441 174.89ZM264.239 172.268C264.621 173.047 265.172 173.677 265.891 174.162C265.952 174.204 266.021 174.227 266.085 174.266C263.402 179.635 261.297 185.221 259.215 190.89C256.866 197.289 253.466 203.349 250.912 209.634C249.913 208.72 248.541 208.295 247.192 208.471C244.599 202.193 241.522 196.113 238.646 189.962C235.83 183.945 233.29 177.543 229.909 171.771C230.076 171.585 230.243 171.398 230.37 171.207C230.477 171.046 230.57 170.879 230.657 170.707C235.868 171.664 241.403 171.727 246.557 171.863C252.019 172.009 258.181 172.155 263.696 170.829C263.785 171.327 263.946 171.808 264.239 172.268ZM258.665 155.312C261.218 158.639 263.457 162.18 265.43 165.87C264.592 166.537 263.917 167.493 263.678 168.527C258.06 168.557 252.409 169.214 246.77 168.997C241.601 168.799 236.334 167.911 231.123 167.725C231.05 167.244 230.914 166.771 230.696 166.325C230.402 165.721 229.983 165.192 229.482 164.76C230.614 159.486 231.528 154.145 232.299 148.838C233.057 143.639 233.32 138.303 231.788 133.42C231.967 133.3 232.151 133.19 232.317 133.056C242.435 138.578 251.37 145.805 258.665 155.312ZM229.491 134.34C230.143 139.733 229.78 145.174 229.017 150.615C228.412 154.944 227.314 159.25 226.712 163.592C225.384 163.475 223.904 163.83 223.028 164.788C222.937 164.886 222.847 164.985 222.756 165.084C216.914 158.516 210.535 152.273 204.59 145.795C205.865 144.536 206.457 142.708 206.146 140.936C208.126 139.875 210.038 138.644 211.936 137.515C215.526 135.381 219.154 133.317 222.859 131.395C224.254 133.662 226.929 134.805 229.491 134.34ZM175.286 159.186C174.486 158.504 173.552 158.148 172.588 158.037C172.305 153.69 171.858 149.34 171.655 145.004C171.425 140.099 171.294 135.162 170.411 130.348C170.863 130.088 171.288 129.785 171.67 129.435C178.724 134.719 187.208 139.169 195.395 142.018C195.401 142.492 195.466 142.965 195.6 143.432C188.791 148.484 180.847 152.905 175.286 159.186ZM216.49 126.048C218.327 126.699 220.142 127.383 221.926 128.113C221.925 128.608 221.966 129.102 222.084 129.593C218.889 130.945 215.804 132.501 212.712 134.154C210.167 135.514 207.431 136.809 204.842 138.284C203.255 136.547 200.633 135.939 198.431 137.012C197.406 137.511 196.613 138.309 196.089 139.252C188.28 135.516 180.212 132.506 172.895 127.898C173.147 127.458 173.344 126.991 173.471 126.492C187.506 123.083 202.476 122.766 216.49 126.048ZM123.769 159.847C123.608 159.515 123.413 159.239 123.223 158.958C131.307 147.953 142.345 138.937 155.976 132.589C158.249 131.53 160.581 130.569 162.954 129.693C163.24 129.971 163.54 130.212 163.857 130.415C158.914 137.748 153.99 145.094 149.195 152.524C144.05 160.495 138.167 168.387 133.648 176.813C133.195 176.888 132.743 177.004 132.31 177.215C132.299 177.22 132.289 177.228 132.279 177.233C130.926 175.501 129.512 173.811 128.21 172.073C126.682 170.037 125.15 167.886 123.439 165.92C124.554 164.298 124.897 162.161 123.769 159.847ZM108.088 198.339C109.291 187.729 112.315 177.83 117.003 168.909C118.465 169.055 119.963 168.677 121.244 167.919C122.437 169.459 123.644 170.99 124.784 172.553C126.49 174.894 128.104 177.436 129.969 179.724C129.421 181.006 129.383 182.502 130.03 183.831C130.209 184.197 130.439 184.518 130.692 184.819C126.923 188.059 123.255 191.423 119.369 194.548C116.853 196.572 114.133 198.518 111.642 200.678C110.706 199.315 109.441 198.579 108.088 198.339ZM112.78 203.738C116.185 200.956 119.433 197.896 122.759 195.119C126.003 192.41 129.524 189.466 132.071 185.961C132.656 186.285 133.303 186.484 133.968 186.556C133.535 193.013 132.582 199.46 131.703 205.85C131.041 210.66 129.634 216.218 129.255 221.524C128.248 221.551 127.287 221.845 126.465 222.379C124.221 220.059 121.506 217.988 119.381 215.683C116.847 212.935 114.404 210.077 111.729 207.465C112.497 206.427 112.909 205.15 112.78 203.738ZM111.582 236.424C109.075 228.215 107.684 219.608 107.511 210.908C107.507 210.621 107.512 210.338 107.508 210.053C108.473 209.875 109.409 209.499 110.216 208.936C112.645 212.437 115.432 215.717 118.26 218.876C120.027 220.851 122.065 223.328 124.417 225.023C124.03 226.188 124.086 227.451 124.538 228.587C122.596 230.002 120.746 231.546 118.979 233.155C117.685 234.331 116.182 235.641 114.744 237.059C113.766 236.52 112.67 236.331 111.582 236.424ZM117.313 244.527C117.954 243.138 118.032 241.461 117.158 239.666C117.13 239.608 117.092 239.568 117.063 239.512C119.848 236.399 122.533 233.195 125.562 230.307C126.48 231.391 127.873 232.115 129.235 232.219C130.146 232.288 131.086 232.062 131.935 231.64C136.045 238.339 141.418 243.824 147.267 249.165C151.773 253.28 156.065 257.43 160.267 261.714C154.592 258.872 148.293 256.812 142.669 254.683C134.189 251.475 125.818 247.708 117.313 244.527ZM141.803 280.216C130.19 271.554 121.276 259.931 115.449 246.802C115.594 246.692 115.731 246.572 115.867 246.45C122.568 250.372 130.272 252.913 137.415 255.624C146.245 258.978 154.854 263.371 163.668 266.756C163.655 267.528 163.795 268.305 164.151 269.037C164.262 269.264 164.403 269.464 164.544 269.668C161.814 272.239 157.42 274.652 155.461 276.094C153.887 277.251 151.95 278.404 150.032 279.638C147.532 277.817 144.086 278.35 141.803 280.216ZM155.763 288.543C154.65 288.028 153.559 287.482 152.48 286.92C152.914 285.634 152.908 284.157 152.265 282.593C154.756 280.569 157.148 278.383 159.424 276.576C161.029 275.303 163.953 273.289 165.894 270.997C167.367 271.982 169.307 272.212 170.987 271.394C171.265 271.258 171.516 271.094 171.756 270.916C174.09 275.821 177.713 280.15 181.196 284.258C184.146 287.738 187.139 291.24 190.218 294.651C190.035 295.149 189.931 295.672 189.874 296.2C178.313 296.106 166.707 293.604 155.763 288.543ZM202.591 295.336C202.506 295.087 202.406 294.847 202.291 294.611C201.953 293.78 201.439 293.012 200.825 292.382C203.106 288.983 205.485 285.662 207.658 282.163C210.186 278.096 211.905 273.495 213.842 269.038C215.07 269.361 216.455 269.222 217.552 268.688C217.578 268.675 217.597 268.657 217.623 268.644C217.628 268.642 217.632 268.64 217.636 268.639C218.596 273.844 219.908 279.554 221.909 284.696C220.534 286.317 219.993 288.56 220.548 290.653C214.718 292.876 208.7 294.446 202.591 295.336ZM224.775 282.783C224.242 281.37 223.728 279.947 223.281 278.497C222.119 274.729 221.096 270.978 219.63 267.36C220.014 266.924 220.314 266.416 220.506 265.86C220.53 265.789 220.538 265.72 220.56 265.65C226.273 265.315 231.978 264.385 237.637 263.704C244.505 262.879 252.128 262.728 259.045 261.211C259.084 261.307 259.106 261.407 259.152 261.503C259.218 261.637 259.308 261.754 259.386 261.879C254.191 268.432 248.001 274.369 240.979 279.52C238.139 281.604 235.196 283.489 232.178 285.191C230.524 282.874 227.487 281.881 224.775 282.783Z"/>
</mask>
<path d="M233.308 288.154C244.328 282.046 254.186 273.744 262.06 263.926C263.155 264.252 264.366 264.207 265.454 263.677C267.765 262.551 268.754 259.683 267.628 257.372C267.523 257.155 267.388 256.963 267.254 256.772C272.105 249.385 275.887 241.336 278.269 232.84C279.142 229.726 279.762 226.548 280.198 223.341C280.688 223.243 281.171 223.104 281.624 222.883C285.084 221.198 286.006 216.55 283.471 213.661C282.859 212.964 281.867 212.183 280.914 211.836C280.792 198.495 277.566 184.996 272.501 172.872C272.923 172.24 273.179 171.5 273.279 170.721C273.877 168.398 272.264 165.822 270.07 165.066C269.636 164.916 269.184 164.853 268.73 164.829C260.877 150.049 248.775 138.145 234.098 130.708C234.864 129.017 234.938 127.022 234.077 125.255C232.544 122.11 228.642 120.765 225.496 122.297C223.949 123.051 222.844 124.379 222.297 125.906C221.391 125.621 220.483 125.34 219.564 125.086C204.839 120.412 188.728 120.036 173.363 123.396C173.258 123.052 173.149 122.708 172.977 122.354C169.58 115.383 159.151 120.079 161.256 126.865C144.968 132.71 130.313 142.881 120.153 156.627C115.521 155.206 109.485 159.795 112.245 165.461C112.611 166.212 113.073 166.796 113.577 167.292C113.466 167.51 113.342 167.717 113.233 167.935C108.525 177.501 105.695 187.997 104.632 198.725C101.643 199.91 99.4294 203.136 101.246 206.865C101.958 208.326 102.999 209.23 104.16 209.721C104.279 219.148 105.726 228.566 108.442 237.524C106.181 239.008 104.819 241.79 106.35 244.932C107.661 247.623 110.075 248.476 112.351 248.125C113.358 250.42 114.446 252.671 115.633 254.861C121.628 265.931 130.031 275.28 139.969 282.528C139.24 284.073 139.146 285.946 140.123 287.951C142.475 292.778 148.043 292.294 150.949 289.363C159.749 293.983 169.354 297.146 179.308 298.652C182.996 299.209 186.69 299.472 190.373 299.498C190.404 299.566 190.421 299.638 190.454 299.706C190.966 300.749 191.704 301.595 192.668 302.244C193.547 302.829 194.758 303.279 195.925 303.356C196.68 303.471 197.498 303.445 198.283 303.273C198.831 303.172 199.359 303 199.795 302.787C201.336 302.036 202.441 300.568 202.757 298.897C202.78 298.808 202.785 298.716 202.803 298.625C209.409 297.648 215.892 295.881 222.129 293.426C224.046 295.42 227.122 296.099 229.715 294.835C232.259 293.594 233.62 290.84 233.308 288.154ZM258.855 258.287C253.215 258.493 247.387 259.724 241.916 260.45C234.891 261.382 227.637 262.036 220.67 263.613C220.618 263.351 220.538 263.099 220.441 262.853C224.612 260.62 228.537 257.615 232.317 254.982C236.599 252 240.826 248.834 244.639 245.25C245.86 246.872 247.809 247.089 249.436 246.445C250.718 248.495 252.487 250.459 253.606 251.904C255.062 253.788 256.847 256.202 258.91 258.056C258.887 258.131 258.875 258.209 258.855 258.287ZM192.112 291.96C190.399 289.997 188.628 288.077 186.878 286.129C182.069 280.772 177.791 274.919 173.013 269.561C173.247 269.194 173.444 268.806 173.581 268.393C179.942 268.657 186.333 268.721 192.69 268.964C198.5 269.187 205.481 269.786 211.407 268.265C209.315 271.524 207.908 275.373 206.144 278.684C203.891 282.906 200.523 286.61 197.931 290.678C195.935 290.15 193.738 290.597 192.112 291.96ZM165.789 262.647C156.577 250.736 142.236 243.056 133.507 230.476C133.59 230.389 133.684 230.31 133.76 230.217C139.584 233.129 146.661 234.032 152.924 234.916C160.13 235.934 167.66 237.404 175.027 238.131C175.069 238.236 175.094 238.345 175.144 238.448C175.906 240.013 177.507 240.926 179.161 240.955C178.258 244.946 176.21 248.942 174.962 252.553C173.905 255.61 171.991 258.841 170.776 262.147C169.445 261.57 167.889 261.526 166.507 262.199C166.249 262.327 166.017 262.484 165.789 262.647ZM136.671 177.269C136.591 177.229 136.508 177.192 136.424 177.157C141.89 169.811 146.597 161.711 151.64 154.155C156.647 146.653 161.442 139.015 165.974 131.22C166.602 131.32 167.24 131.336 167.873 131.244C168.177 136.584 168.582 141.918 168.816 147.26C168.978 150.987 169.09 154.764 169.662 158.453C167.481 159.325 165.761 161.359 165.928 163.876C156.116 167.485 145.146 171.334 136.671 177.269ZM203.254 146.779C207.831 154.273 214.261 161.7 221.177 167.373C221.048 167.761 220.988 168.163 220.967 168.565C213.81 167.769 206.558 167.575 199.41 166.38C192.057 165.149 184.677 164.266 177.306 163.227C177.271 162.727 177.143 162.207 176.947 161.676C183.218 155.87 190.761 151.49 196.761 145.507C198.345 147.268 200.987 147.889 203.204 146.809C203.222 146.8 203.236 146.787 203.254 146.779ZM186.74 202.537C194.724 203.896 202.464 205.906 210.275 207.788C210.124 208.706 210.232 209.671 210.664 210.557C210.683 210.596 210.712 210.628 210.732 210.667C206.005 213.533 201.521 218.263 197.368 221.363C192.482 225.012 186.461 228.494 181.751 232.779C180.745 232.098 179.494 231.824 178.282 232.069C177.152 226.596 174.804 221.219 173.166 215.976C171.586 210.92 170.538 205.589 168.654 200.626C168.931 200.262 169.157 199.857 169.323 199.41C174.963 201.026 181.219 201.597 186.74 202.537ZM169.518 196.793C169.27 195.558 168.562 194.422 167.474 193.699C167.047 193.414 166.58 193.211 166.099 193.078C167.424 188.803 168.325 184.309 169.638 180.077C170.764 176.448 171.702 172.817 172.023 169.104C172.812 169.005 173.577 168.736 174.279 168.355C179.779 175.421 186.732 181.511 193.284 187.491C199.337 193.018 205.38 199.825 212.158 204.74C212.002 204.853 211.862 204.98 211.721 205.11C205.208 202.958 198.197 201.847 191.547 200.629C184.55 199.346 176.865 197.395 169.518 196.793ZM199.289 223.541C203.177 220.457 208.978 216.776 212.301 212.377C213.109 212.903 214.063 213.187 215.034 213.155C214.117 221.977 213.548 230.917 212.633 239.751C212.024 245.627 211.284 253.184 212.185 259.714C211.941 259.889 211.721 260.083 211.519 260.29C206.684 255.599 200.672 251.977 195.484 247.803C191.341 244.473 187.878 240.538 183.49 237.808C183.704 237.121 183.749 236.388 183.623 235.666C189.187 232.288 194.424 227.403 199.289 223.541ZM215.55 238.597C216.257 231.294 218.182 223.351 217.54 215.841C220.826 219.905 224.618 223.682 228.161 227.336C232.834 232.154 238.172 237.4 243.968 241.236C243.685 241.955 243.613 242.769 243.852 243.642C239.477 246.626 235.19 249.745 230.779 252.676C226.898 255.254 222.627 257.438 218.721 260.047C217.786 259.234 216.58 258.792 215.348 258.76C215.416 252.05 214.903 245.269 215.55 238.597ZM245.979 239.035C240.87 234.406 235.342 230.204 230.402 225.359C226.096 221.135 222.099 216.377 217.695 212.197C217.981 211.973 218.226 211.712 218.447 211.434C221.755 212.273 225.256 212.599 228.562 213.086C233.62 213.828 238.699 214.433 243.772 215.074C244.753 216.952 246.931 217.888 248.932 217.393C248.737 220.973 248.656 224.565 248.582 228.143C248.511 231.51 248.037 235.012 247.946 238.455C247.261 238.5 246.588 238.701 245.979 239.035ZM232.519 210.773C228.383 209.927 223.877 208.803 219.482 208.206C219.448 207.62 219.305 207.033 219.035 206.479C218.865 206.13 218.642 205.822 218.401 205.537C220.477 199.578 221.73 193.027 223.485 187.078C224.821 182.547 225.895 178.017 226.155 173.38C226.238 173.375 226.315 173.378 226.399 173.372C226.66 173.351 226.92 173.331 227.181 173.312C227.495 173.288 227.81 173.205 228.117 173.08C230.34 179.261 233.475 185.238 236.174 191.166C238.974 197.32 241.645 203.558 244.885 209.492C243.771 210.443 243.176 211.883 243.279 213.329C239.745 212.284 236.154 211.516 232.519 210.773ZM219.538 190.216C218.208 194.586 216.358 199.282 215.691 203.972C215.468 203.93 215.243 203.909 215.014 203.899C209.794 196.915 201.828 191.314 195.476 185.556C188.808 179.511 182.735 172.879 176.304 166.618C176.588 166.234 176.818 165.818 176.992 165.37C183.453 167.129 190.266 167.768 196.828 168.939C204.81 170.364 213.694 172.259 221.995 171.762C222.278 172.107 222.605 172.412 222.988 172.671C223.312 172.888 223.637 173.031 223.966 173.144C222.71 178.89 221.257 184.568 219.538 190.216ZM151.34 172.75C156.367 170.428 161.439 168.174 166.358 165.628C166.415 165.771 166.445 165.909 166.515 166.054C167.24 167.542 168.329 168.414 169.535 168.835C168.547 173.366 167.222 177.803 165.835 182.251C164.736 185.78 163.389 189.465 163.168 193.182C162.595 193.383 162.051 193.678 161.578 194.093C161.295 194.341 161.065 194.621 160.859 194.911C157.694 192.394 154.431 189.88 151.021 187.834C147.321 185.612 143.232 184.164 139.368 182.243C139.483 181.326 139.355 180.373 138.927 179.495C138.883 179.405 138.819 179.33 138.771 179.243C142.965 177.107 147.068 174.722 151.34 172.75ZM147.812 189.634C152.117 191.862 155.602 195.826 159.98 197.822C159.997 198.507 160.137 199.197 160.428 199.852C160.432 199.861 160.436 199.87 160.439 199.879C160.576 200.19 160.767 200.474 160.977 200.742C151.919 208.338 142.412 215.746 133.869 223.839C133.588 223.419 133.229 223.031 132.821 222.7C133.655 216.624 134.208 210.47 134.998 204.418C135.723 198.872 137.269 192.089 136.706 186.073C137.424 185.709 138.003 185.177 138.45 184.556C141.372 186.533 144.613 187.976 147.812 189.634ZM162.258 201.864C163.274 202.478 164.506 202.751 165.644 202.501C165.653 202.498 165.663 202.496 165.67 202.495C165.998 202.423 166.313 202.314 166.616 202.186C167.162 207.064 168.709 211.869 170.067 216.554C171.672 222.096 173.128 228.259 175.79 233.53C175.468 233.909 175.224 234.343 175.042 234.801C169.24 233.517 162.904 233.36 157.266 232.669C149.558 231.728 142.155 230.183 134.673 228.416C134.749 228.102 134.795 227.777 134.794 227.442C134.789 226.737 134.767 226.282 134.668 225.818C144.462 219.115 154.508 211.013 162.258 201.864ZM178.607 250.175C179.413 247.799 181.238 243.786 181.46 240.359C181.829 240.144 182.16 239.886 182.445 239.586C186.39 242.96 190.016 246.726 193.927 250.137C199.027 254.587 204.617 259.009 210.123 263.156C210.031 263.741 210.019 264.351 210.097 264.967C210.111 265.066 210.141 265.163 210.16 265.261C203.7 265.487 197.259 266.181 190.714 265.916C185.141 265.688 179.349 265.352 173.824 266.382C173.783 265.834 173.647 265.292 173.421 264.768C175.208 259.921 176.959 255.04 178.607 250.175ZM276.459 222.883C274.829 234.361 270.647 245.164 264.402 254.872C263.391 254.643 262.309 254.719 261.323 255.2C261.156 255.281 261.013 255.388 260.862 255.486C259.066 253.738 257.159 252.054 255.54 250.199C254.271 248.744 252.999 246.615 251.568 244.8C252.319 243.722 252.553 242.296 251.801 240.752C251.734 240.616 251.651 240.51 251.576 240.386C256.004 236.132 260.749 232.814 266.002 229.354C269.35 227.149 272.554 224.937 275.255 222.127C275.637 222.425 276.046 222.681 276.459 222.883ZM272.705 216.259C272.53 217.458 272.693 218.715 273.194 219.743C273.346 220.056 273.542 220.353 273.759 220.637C266.749 225.782 257.21 229.575 251.491 235.993C251.586 233.418 251.493 230.819 251.522 228.367C251.57 224.342 251.38 220.269 250.959 216.246C251.661 215.562 252.128 214.682 252.293 213.729C254.36 213.83 256.431 213.884 258.427 214.104C263.225 214.631 267.988 215.297 272.705 216.259ZM269.441 174.89C269.494 174.881 269.54 174.857 269.592 174.846C272.716 182.658 274.839 190.902 276.178 199.125C276.862 203.317 277.197 207.463 277.221 211.547C276.156 211.793 275.475 212.227 274.56 212.909C273.93 213.378 273.475 214.02 273.155 214.732C268.988 213.466 264.763 212.427 260.485 211.552C258.48 211.142 256.282 210.712 254.05 210.441C256.935 206.074 258.813 200.751 260.636 196.074C263.35 189.102 265.708 181.998 268.165 174.932C268.592 174.967 269.019 174.968 269.441 174.89ZM264.239 172.268C264.621 173.047 265.172 173.677 265.891 174.162C265.952 174.204 266.021 174.227 266.085 174.266C263.402 179.635 261.297 185.221 259.215 190.89C256.866 197.289 253.466 203.349 250.912 209.634C249.913 208.72 248.541 208.295 247.192 208.471C244.599 202.193 241.522 196.113 238.646 189.962C235.83 183.945 233.29 177.543 229.909 171.771C230.076 171.585 230.243 171.398 230.37 171.207C230.477 171.046 230.57 170.879 230.657 170.707C235.868 171.664 241.403 171.727 246.557 171.863C252.019 172.009 258.181 172.155 263.696 170.829C263.785 171.327 263.946 171.808 264.239 172.268ZM258.665 155.312C261.218 158.639 263.457 162.18 265.43 165.87C264.592 166.537 263.917 167.493 263.678 168.527C258.06 168.557 252.409 169.214 246.77 168.997C241.601 168.799 236.334 167.911 231.123 167.725C231.05 167.244 230.914 166.771 230.696 166.325C230.402 165.721 229.983 165.192 229.482 164.76C230.614 159.486 231.528 154.145 232.299 148.838C233.057 143.639 233.32 138.303 231.788 133.42C231.967 133.3 232.151 133.19 232.317 133.056C242.435 138.578 251.37 145.805 258.665 155.312ZM229.491 134.34C230.143 139.733 229.78 145.174 229.017 150.615C228.412 154.944 227.314 159.25 226.712 163.592C225.384 163.475 223.904 163.83 223.028 164.788C222.937 164.886 222.847 164.985 222.756 165.084C216.914 158.516 210.535 152.273 204.59 145.795C205.865 144.536 206.457 142.708 206.146 140.936C208.126 139.875 210.038 138.644 211.936 137.515C215.526 135.381 219.154 133.317 222.859 131.395C224.254 133.662 226.929 134.805 229.491 134.34ZM175.286 159.186C174.486 158.504 173.552 158.148 172.588 158.037C172.305 153.69 171.858 149.34 171.655 145.004C171.425 140.099 171.294 135.162 170.411 130.348C170.863 130.088 171.288 129.785 171.67 129.435C178.724 134.719 187.208 139.169 195.395 142.018C195.401 142.492 195.466 142.965 195.6 143.432C188.791 148.484 180.847 152.905 175.286 159.186ZM216.49 126.048C218.327 126.699 220.142 127.383 221.926 128.113C221.925 128.608 221.966 129.102 222.084 129.593C218.889 130.945 215.804 132.501 212.712 134.154C210.167 135.514 207.431 136.809 204.842 138.284C203.255 136.547 200.633 135.939 198.431 137.012C197.406 137.511 196.613 138.309 196.089 139.252C188.28 135.516 180.212 132.506 172.895 127.898C173.147 127.458 173.344 126.991 173.471 126.492C187.506 123.083 202.476 122.766 216.49 126.048ZM123.769 159.847C123.608 159.515 123.413 159.239 123.223 158.958C131.307 147.953 142.345 138.937 155.976 132.589C158.249 131.53 160.581 130.569 162.954 129.693C163.24 129.971 163.54 130.212 163.857 130.415C158.914 137.748 153.99 145.094 149.195 152.524C144.05 160.495 138.167 168.387 133.648 176.813C133.195 176.888 132.743 177.004 132.31 177.215C132.299 177.22 132.289 177.228 132.279 177.233C130.926 175.501 129.512 173.811 128.21 172.073C126.682 170.037 125.15 167.886 123.439 165.92C124.554 164.298 124.897 162.161 123.769 159.847ZM108.088 198.339C109.291 187.729 112.315 177.83 117.003 168.909C118.465 169.055 119.963 168.677 121.244 167.919C122.437 169.459 123.644 170.99 124.784 172.553C126.49 174.894 128.104 177.436 129.969 179.724C129.421 181.006 129.383 182.502 130.03 183.831C130.209 184.197 130.439 184.518 130.692 184.819C126.923 188.059 123.255 191.423 119.369 194.548C116.853 196.572 114.133 198.518 111.642 200.678C110.706 199.315 109.441 198.579 108.088 198.339ZM112.78 203.738C116.185 200.956 119.433 197.896 122.759 195.119C126.003 192.41 129.524 189.466 132.071 185.961C132.656 186.285 133.303 186.484 133.968 186.556C133.535 193.013 132.582 199.46 131.703 205.85C131.041 210.66 129.634 216.218 129.255 221.524C128.248 221.551 127.287 221.845 126.465 222.379C124.221 220.059 121.506 217.988 119.381 215.683C116.847 212.935 114.404 210.077 111.729 207.465C112.497 206.427 112.909 205.15 112.78 203.738ZM111.582 236.424C109.075 228.215 107.684 219.608 107.511 210.908C107.507 210.621 107.512 210.338 107.508 210.053C108.473 209.875 109.409 209.499 110.216 208.936C112.645 212.437 115.432 215.717 118.26 218.876C120.027 220.851 122.065 223.328 124.417 225.023C124.03 226.188 124.086 227.451 124.538 228.587C122.596 230.002 120.746 231.546 118.979 233.155C117.685 234.331 116.182 235.641 114.744 237.059C113.766 236.52 112.67 236.331 111.582 236.424ZM117.313 244.527C117.954 243.138 118.032 241.461 117.158 239.666C117.13 239.608 117.092 239.568 117.063 239.512C119.848 236.399 122.533 233.195 125.562 230.307C126.48 231.391 127.873 232.115 129.235 232.219C130.146 232.288 131.086 232.062 131.935 231.64C136.045 238.339 141.418 243.824 147.267 249.165C151.773 253.28 156.065 257.43 160.267 261.714C154.592 258.872 148.293 256.812 142.669 254.683C134.189 251.475 125.818 247.708 117.313 244.527ZM141.803 280.216C130.19 271.554 121.276 259.931 115.449 246.802C115.594 246.692 115.731 246.572 115.867 246.45C122.568 250.372 130.272 252.913 137.415 255.624C146.245 258.978 154.854 263.371 163.668 266.756C163.655 267.528 163.795 268.305 164.151 269.037C164.262 269.264 164.403 269.464 164.544 269.668C161.814 272.239 157.42 274.652 155.461 276.094C153.887 277.251 151.95 278.404 150.032 279.638C147.532 277.817 144.086 278.35 141.803 280.216ZM155.763 288.543C154.65 288.028 153.559 287.482 152.48 286.92C152.914 285.634 152.908 284.157 152.265 282.593C154.756 280.569 157.148 278.383 159.424 276.576C161.029 275.303 163.953 273.289 165.894 270.997C167.367 271.982 169.307 272.212 170.987 271.394C171.265 271.258 171.516 271.094 171.756 270.916C174.09 275.821 177.713 280.15 181.196 284.258C184.146 287.738 187.139 291.24 190.218 294.651C190.035 295.149 189.931 295.672 189.874 296.2C178.313 296.106 166.707 293.604 155.763 288.543ZM202.591 295.336C202.506 295.087 202.406 294.847 202.291 294.611C201.953 293.78 201.439 293.012 200.825 292.382C203.106 288.983 205.485 285.662 207.658 282.163C210.186 278.096 211.905 273.495 213.842 269.038C215.07 269.361 216.455 269.222 217.552 268.688C217.578 268.675 217.597 268.657 217.623 268.644C217.628 268.642 217.632 268.64 217.636 268.639C218.596 273.844 219.908 279.554 221.909 284.696C220.534 286.317 219.993 288.56 220.548 290.653C214.718 292.876 208.7 294.446 202.591 295.336ZM224.775 282.783C224.242 281.37 223.728 279.947 223.281 278.497C222.119 274.729 221.096 270.978 219.63 267.36C220.014 266.924 220.314 266.416 220.506 265.86C220.53 265.789 220.538 265.72 220.56 265.65C226.273 265.315 231.978 264.385 237.637 263.704C244.505 262.879 252.128 262.728 259.045 261.211C259.084 261.307 259.106 261.407 259.152 261.503C259.218 261.637 259.308 261.754 259.386 261.879C254.191 268.432 248.001 274.369 240.979 279.52C238.139 281.604 235.196 283.489 232.178 285.191C230.524 282.874 227.487 281.881 224.775 282.783Z" stroke="white" stroke-opacity="0.4" stroke-width="2" mask="url(#path-1-inside-1)"/>
</g>
<path d="M120.564 123.384L165.108 101.681C163.146 93.7083 166.929 85.151 174.602 81.4125C187.279 75.2364 201.7 85.6129 200.091 99.4522L247.445 115.78C254.71 103.886 272.461 104.61 278.635 117.283C286.243 132.897 269.124 149.165 253.874 140.59L226.269 171.692L262.384 184.144L260.577 153.815C260.454 151.747 262.03 149.971 264.098 149.848C266.165 149.725 267.941 151.301 268.064 153.369L270.055 186.79L284.348 191.717C291.557 179.764 309.389 180.403 315.591 193.134C321.767 205.81 311.391 220.231 297.552 218.622L281.224 265.976C293.118 273.242 292.394 290.993 279.721 297.167C269.742 302.029 257.753 296.652 254.763 285.933L228.093 287.521L210.405 307.545C216.992 316.491 213.865 329.253 203.87 334.123C191.194 340.299 176.773 329.923 178.382 316.083L131.027 299.755C123.762 311.65 106.011 310.925 99.8368 298.253C96.0983 290.58 98.393 281.509 104.852 276.441L83.1493 231.895C75.1767 233.858 66.6194 230.075 62.8811 222.402C58.5793 213.573 62.2629 202.889 71.0924 198.587C79.9219 194.285 90.6053 197.969 94.9072 206.798C98.6457 214.472 96.351 223.542 89.8916 228.61L110.988 271.911L103.844 151.977C86.4927 149.28 83.261 125.915 98.7511 118.368C106.424 114.63 115.495 116.925 120.564 123.384V123.384ZM187.223 114.57L187.917 125.778L243.78 122.45L197.687 106.557C195.423 110.36 191.771 113.29 187.223 114.57ZM179.737 115.028C175.332 114.353 171.234 112.043 168.393 108.423L125.092 129.52L180.429 126.224L179.737 115.028ZM125.654 137.001L182.307 156.534L180.893 133.71L125.654 137.001ZM177.887 88.1548C172.775 90.6455 170.643 96.8304 173.133 101.942C175.624 107.054 181.809 109.187 186.921 106.696C192.033 104.206 194.165 98.0207 191.675 92.9087C189.184 87.7968 182.999 85.6642 177.887 88.1548ZM271.893 120.568C269.402 115.456 263.218 113.323 258.106 115.814C252.994 118.304 250.861 124.489 253.352 129.601C255.842 134.713 262.027 136.846 267.139 134.355C272.251 131.865 274.384 125.68 271.893 120.568ZM248.261 135.616C246.983 133.871 246.057 131.98 245.467 129.863L188.38 133.264L189.985 159.181L218.591 169.044L248.261 135.616ZM190.487 167.289L192.421 198.53L213.199 175.12L190.487 167.289ZM285.241 211.5C282.505 207.784 281.359 203.269 281.903 198.808L270.537 194.89L272.393 226.045L285.241 211.5ZM273.025 236.658L274.554 262.312L290.04 217.397L273.025 236.658ZM308.849 196.419C306.358 191.307 300.173 189.174 295.061 191.665C289.95 194.156 287.817 200.341 290.308 205.452C292.798 210.564 298.983 212.697 304.095 210.206C309.207 207.716 311.34 201.531 308.849 196.419ZM276.436 290.425C281.548 287.934 283.681 281.749 281.19 276.637C278.699 271.525 272.515 269.393 267.403 271.883C262.291 274.374 260.158 280.559 262.649 285.671C265.139 290.783 271.324 292.915 276.436 290.425ZM254.324 278.445C255.391 271.582 260.307 265.904 267.141 263.998L265.987 244.626L235.099 279.59L254.324 278.445ZM217.53 288.151L198.042 289.311L198.736 300.507C200.857 300.832 202.906 301.537 204.779 302.584L217.53 288.151ZM191.25 300.965L190.556 289.758L134.692 293.085L180.785 308.979C183.045 305.184 186.692 302.248 191.25 300.965V300.965ZM200.585 327.381C205.697 324.89 207.83 318.705 205.339 313.593C202.848 308.481 196.663 306.349 191.551 308.839C186.439 311.33 184.307 317.515 186.798 322.627C189.288 327.739 195.473 329.871 200.585 327.381ZM106.579 294.968C109.07 300.08 115.255 302.212 120.367 299.722C125.479 297.231 127.611 291.046 125.121 285.934C122.63 280.822 116.445 278.69 111.333 281.18C106.221 283.671 104.089 289.856 106.579 294.968ZM88.1647 210.083C85.674 204.971 79.4891 202.838 74.3771 205.329C69.2652 207.82 67.1326 214.005 69.6233 219.117C72.1139 224.229 78.2988 226.361 83.4108 223.87C88.5227 221.38 90.6553 215.195 88.1647 210.083ZM118.558 272.856C125.409 273.92 131.094 278.825 133.006 285.672L190.092 282.272L189.115 266.491C188.987 264.424 190.559 262.645 192.626 262.517C194.693 262.388 196.472 263.961 196.6 266.028L197.579 281.825L224.536 280.22L265.355 234.013L262.866 192.245L220.878 177.767L193.076 209.092L194.78 236.622C194.908 238.689 193.336 240.469 191.269 240.597C189.192 240.726 187.422 239.143 187.295 237.086L186.051 217.006L139.515 269.438C137.739 271.44 134.502 270.982 133.339 268.593C132.693 267.269 132.867 265.63 133.905 264.46L185.397 206.445L182.809 164.642L121.784 143.6C119.466 147.444 115.783 150.297 111.332 151.538L118.558 272.856ZM97.2822 138.898C99.7728 144.01 105.958 146.143 111.07 143.652C116.182 141.161 118.314 134.977 115.824 129.865C113.333 124.753 107.148 122.62 102.036 125.111C96.9241 127.601 94.7915 133.786 97.2822 138.898Z" stroke="white" stroke-opacity="0.1"/>
<path d="M224.329 106.653C221.713 102.329 218.915 98.0297 215.701 94.0775C217.119 92.8844 217.451 91.1066 217.071 89.5256C218.497 88.7204 219.899 87.7159 221.088 86.8642C221.595 86.5003 222.064 86.1642 222.479 85.8835C222.678 85.7496 222.883 85.6122 223.093 85.4714C224.74 84.3663 226.7 83.0506 228.391 81.5282C228.355 85.167 228.702 88.9087 229.039 92.5426C229.202 94.3012 229.363 96.0346 229.477 97.7187C229.592 99.4203 229.69 101.138 229.789 102.866C230.085 108.042 230.385 113.301 231.158 118.442C229.657 115.276 227.759 112.211 225.936 109.269C225.389 108.386 224.849 107.514 224.329 106.653ZM224.329 106.653L223.901 106.912M224.329 106.653L223.901 106.912M223.901 106.912C224.427 107.782 224.972 108.661 225.521 109.549C227.46 112.679 229.464 115.915 230.991 119.27L215.301 94.3783C218.498 98.3082 221.287 102.59 223.901 106.912ZM246.67 116.956L246.669 116.956C245.84 117.154 245.01 117.347 244.18 117.539C241.286 118.209 238.393 118.88 235.563 119.801C235.186 119.468 234.759 119.19 234.292 118.982C234.298 115.011 234.028 111.018 233.76 107.063C233.649 105.413 233.538 103.77 233.447 102.137C233.317 99.7899 233.271 97.3666 233.225 94.9029C233.203 93.7509 233.181 92.5901 233.15 91.4241C233.057 87.9204 232.885 84.3873 232.394 80.9839C232.414 80.9744 232.435 80.9644 232.455 80.9541C238.518 86.4754 243.926 92.9177 248.524 100.116L248.524 100.117C250.331 102.943 251.95 105.852 253.399 108.821C251.179 110.409 250.06 113.195 250.57 115.884C249.276 116.274 247.98 116.643 246.67 116.956ZM258.39 121.516C260.111 127.181 261.229 132.975 261.727 138.813C261.597 138.857 261.469 138.906 261.341 138.957C260.564 139.219 259.83 139.618 259.19 140.108C258.277 139.404 257.368 138.691 256.457 137.977C254.25 136.246 252.031 134.506 249.729 132.862C246.623 130.642 243.143 128.905 239.705 127.188C238.911 126.791 238.119 126.396 237.334 125.996C237.59 124.968 237.565 123.855 237.274 122.862C242.28 122.248 247.739 121.335 252.757 119.774C254.277 121.121 256.344 121.782 258.39 121.516Z" stroke="white" stroke-opacity="0.4"/>
<path d="M87.778 190.413C91.1881 194.143 94.7732 197.812 98.6974 201.059C97.5398 202.507 97.5617 204.315 98.2432 205.791C97.0019 206.86 95.8237 208.119 94.8247 209.187C94.3978 209.643 94.0037 210.064 93.6512 210.42C93.4828 210.591 93.3089 210.765 93.1306 210.944C91.7314 212.35 90.0654 214.024 88.7056 215.847C88.0287 212.272 86.9572 208.67 85.9165 205.172C85.4129 203.479 84.9165 201.811 84.4756 200.181C84.0302 198.535 83.598 196.869 83.1635 195.194C81.8614 190.176 80.5387 185.077 78.7757 180.186C80.8671 182.998 83.3277 185.633 85.69 188.162C86.3991 188.921 87.0993 189.671 87.778 190.413ZM87.778 190.413L88.147 190.076M87.778 190.413L88.147 190.076M88.147 190.076C87.4604 189.325 86.7548 188.569 86.0423 187.806C83.5294 185.116 80.9311 182.333 78.7774 179.342L99.0307 200.686C95.1269 197.457 91.555 193.803 88.147 190.076ZM63.854 184.676L63.8543 184.676C64.6285 184.319 65.4052 183.968 66.1819 183.617C68.8884 182.394 71.5946 181.171 74.1901 179.714C74.6251 179.968 75.0986 180.157 75.5972 180.27C76.3672 184.165 77.4125 188.028 78.4481 191.854C78.88 193.451 79.3103 195.041 79.7182 196.624C80.3042 198.901 80.8229 201.268 81.3503 203.675C81.5969 204.801 81.8454 205.935 82.1035 207.072C82.8792 210.491 83.7387 213.922 84.8855 217.164C84.8676 217.177 84.8495 217.191 84.8315 217.205C77.8062 212.975 71.2435 207.714 65.3266 201.553L65.3266 201.553C63.0024 199.134 60.8456 196.597 58.8449 193.969C60.7117 191.978 61.2644 189.027 60.2389 186.49C61.4315 185.854 62.6296 185.239 63.854 184.676ZM51.4679 182.495C48.6734 177.276 46.4442 171.812 44.8146 166.184C44.9335 166.115 45.05 166.042 45.1646 165.967C45.8754 165.558 46.5174 165.024 47.05 164.417C48.0822 164.929 49.1132 165.451 50.1464 165.974C52.6492 167.24 55.1652 168.512 57.7444 169.675C61.2242 171.244 64.977 172.268 68.6846 173.28C69.5409 173.513 70.3948 173.746 71.2424 173.985C71.1921 175.043 71.4345 176.13 71.9141 177.047C67.1246 178.628 61.9498 180.591 57.3335 183.102C55.579 182.078 53.4224 181.834 51.4679 182.495Z" stroke="white" stroke-opacity="0.4"/>
<path d="M317.338 264.763C322.089 266.487 326.966 268.075 331.949 269.133C331.594 270.952 332.452 272.545 333.74 273.537C333.136 275.059 332.676 276.721 332.286 278.13C332.119 278.732 331.965 279.288 331.818 279.767C331.748 279.996 331.675 280.231 331.6 280.473C331.012 282.367 330.311 284.622 329.952 286.868C327.695 284.014 325.075 281.32 322.531 278.703C321.3 277.437 320.087 276.188 318.941 274.949C317.783 273.697 316.628 272.421 315.466 271.139C311.986 267.296 308.45 263.392 304.62 259.876C307.777 261.397 311.178 262.591 314.444 263.737C315.424 264.081 316.392 264.42 317.338 264.763ZM317.338 264.763L317.508 264.293M317.338 264.763L317.508 264.293M317.508 264.293C316.552 263.946 315.576 263.604 314.592 263.258C311.117 262.039 307.525 260.779 304.23 259.127L332.071 268.648C327.115 267.597 322.256 266.016 317.508 264.293ZM293.481 270.772L293.481 270.772C294.002 270.097 294.527 269.426 295.052 268.755C296.883 266.416 298.714 264.078 300.338 261.584C300.841 261.606 301.348 261.555 301.842 261.423C304.331 264.518 307.048 267.456 309.74 270.366C310.863 271.58 311.981 272.789 313.077 274.003C314.651 275.749 316.209 277.606 317.792 279.494C318.532 280.377 319.278 281.267 320.034 282.155C322.306 284.823 324.659 287.465 327.178 289.806C327.168 289.826 327.158 289.846 327.149 289.867C318.963 289.377 310.709 287.758 302.61 285.043L302.61 285.043C299.43 283.977 296.343 282.73 293.351 281.328C294.082 278.698 293.204 275.828 291.119 274.055C291.88 272.939 292.657 271.839 293.481 270.772ZM281.495 274.582C276.599 271.253 272.091 267.446 268.038 263.215C268.111 263.099 268.181 262.981 268.247 262.861C268.688 262.169 269.009 261.398 269.199 260.613C270.351 260.589 271.506 260.573 272.664 260.557C275.469 260.518 278.288 260.479 281.112 260.313C284.923 260.091 288.723 259.258 292.477 258.435C293.344 258.245 294.209 258.056 295.07 257.874C295.516 258.835 296.235 259.686 297.085 260.276C293.574 263.897 289.899 268.035 286.974 272.4C284.944 272.307 282.92 273.09 281.495 274.582Z" stroke="white" stroke-opacity="0.4"/>
<path d="M298.965 194.819L298.965 194.819C298.326 194.254 297.692 193.685 297.057 193.116C294.846 191.133 292.635 189.15 290.255 187.363C290.311 186.863 290.293 186.354 290.195 185.852C293.449 183.576 296.561 181.061 299.645 178.569C300.931 177.53 302.213 176.495 303.497 175.482C305.343 174.028 307.3 172.598 309.29 171.144C310.22 170.464 311.158 169.779 312.094 169.084C314.909 166.995 317.702 164.825 320.205 162.467C320.225 162.478 320.245 162.489 320.265 162.5C319.229 170.635 317.063 178.762 313.813 186.662L313.813 186.662C312.538 189.765 311.087 192.762 309.489 195.653C306.914 194.748 303.991 195.433 302.083 197.395C301.02 196.56 299.974 195.712 298.965 194.819ZM301.967 207.032C298.319 211.695 294.219 215.939 289.727 219.701C289.616 219.62 289.502 219.543 289.387 219.468C288.727 218.983 287.978 218.611 287.208 218.368C287.261 217.217 287.322 216.063 287.383 214.907C287.532 212.106 287.681 209.291 287.704 206.462C287.736 202.644 287.159 198.798 286.589 194.997C286.457 194.119 286.325 193.244 286.202 192.372C287.19 191.991 288.087 191.331 288.733 190.522C292.111 194.267 295.995 198.21 300.155 201.42C299.926 203.439 300.573 205.51 301.967 207.032Z" stroke="white" stroke-opacity="0.4"/>
<path d="M183.945 102.577L183.945 102.577C184.023 103.426 184.095 104.275 184.167 105.125C184.417 108.084 184.667 111.043 185.175 113.976C184.792 114.301 184.455 114.685 184.183 115.117C180.253 114.544 176.263 114.241 172.31 113.941C170.661 113.816 169.019 113.692 167.39 113.548C165.048 113.341 162.643 113.041 160.198 112.735C159.055 112.592 157.903 112.448 156.744 112.312C153.263 111.904 149.742 111.57 146.303 111.57C146.297 111.548 146.29 111.527 146.282 111.505C152.613 106.293 159.761 101.86 167.543 98.3367L167.543 98.3366C170.598 96.9522 173.709 95.7648 176.855 94.7553C178.109 97.1793 180.706 98.6843 183.441 98.5638C183.642 99.9001 183.823 101.235 183.945 102.577ZM190.132 91.6272C195.984 90.7334 201.879 90.4539 207.728 90.7946C207.753 90.9297 207.783 91.0636 207.816 91.1969C207.964 92.0032 208.254 92.7867 208.648 93.4911C207.821 94.2934 206.985 95.0915 206.148 95.8912C204.12 97.8285 202.081 99.776 200.125 101.82C197.485 104.577 195.268 107.773 193.078 110.931C192.572 111.661 192.067 112.388 191.56 113.108C190.579 112.707 189.473 112.573 188.449 112.72C188.556 107.677 188.431 102.144 187.604 96.9546C189.154 95.6421 190.103 93.6903 190.132 91.6272Z" stroke="white" stroke-opacity="0.4"/>
<path d="M109.356 113.003L109.357 113.003C110.207 112.943 111.058 112.889 111.908 112.835C114.872 112.647 117.836 112.46 120.779 112.015C121.096 112.405 121.473 112.749 121.899 113.031C121.242 116.947 120.855 120.93 120.471 124.876C120.311 126.522 120.152 128.161 119.973 129.787C119.717 132.123 119.365 134.522 119.008 136.96C118.841 138.1 118.672 139.248 118.512 140.404C118.029 143.875 117.621 147.389 117.548 150.827C117.526 150.833 117.504 150.839 117.482 150.846C112.406 144.406 108.126 137.165 104.769 129.311L104.769 129.311C103.449 126.226 102.328 123.091 101.386 119.925C103.836 118.722 105.396 116.158 105.334 113.421C106.674 113.248 108.012 113.096 109.356 113.003Z" stroke="white" stroke-opacity="0.4"/>
<path d="M98.5717 296.406L98.5717 296.406C98.6025 295.554 98.6395 294.703 98.6764 293.851C98.805 290.884 98.9336 287.917 98.8036 284.944C99.2257 284.669 99.6081 284.332 99.9336 283.938C103.758 285.007 107.677 285.816 111.559 286.617C113.179 286.951 114.792 287.284 116.39 287.634C118.686 288.137 121.033 288.742 123.419 289.356C124.535 289.644 125.659 289.933 126.791 290.216C130.192 291.065 133.642 291.845 137.052 292.283C137.056 292.305 137.06 292.327 137.065 292.349C130.122 296.713 122.467 300.199 114.3 302.702L114.3 302.702C111.093 303.686 107.856 304.467 104.608 305.068C103.672 302.503 101.288 300.68 98.5605 300.451C98.5309 299.1 98.522 297.753 98.5717 296.406Z" stroke="white" stroke-opacity="0.4"/>
<path d="M121.003 104.328L121.002 104.328C120.338 103.794 119.677 103.256 119.017 102.717C116.715 100.84 114.413 98.9637 111.952 97.2904C111.985 96.7881 111.943 96.28 111.821 95.7834C114.964 93.3567 117.955 90.6983 120.918 88.0647C122.154 86.9661 123.386 85.8718 124.621 84.8004C126.397 83.2606 128.285 81.7403 130.204 80.1947C131.101 79.472 132.005 78.7438 132.908 78.0054C135.622 75.7866 138.309 73.487 140.699 71.0146C140.719 71.0248 140.74 71.0348 140.76 71.0446C140.108 79.2189 138.326 87.4392 135.451 95.4829L135.451 95.483C134.323 98.642 133.015 101.704 131.554 104.667C128.939 103.884 126.052 104.705 124.238 106.755C123.138 105.971 122.053 105.173 121.003 104.328Z" stroke="white" stroke-opacity="0.4"/>
<path d="M183.266 331.312C178.54 333.1 173.805 335.074 169.336 337.518C168.42 335.908 166.731 335.259 165.108 335.346C164.574 333.798 163.84 332.237 163.218 330.914C162.952 330.349 162.706 329.827 162.506 329.368C162.41 329.148 162.312 328.922 162.211 328.69C161.423 326.87 160.484 324.703 159.293 322.765C162.865 323.459 166.608 323.796 170.243 324.123C172.002 324.281 173.736 324.437 175.412 324.63C177.107 324.825 178.814 325.04 180.531 325.256C185.676 325.902 190.902 326.559 196.098 326.731C192.712 327.634 189.354 328.945 186.13 330.204C185.162 330.582 184.207 330.956 183.266 331.312ZM183.266 331.312L183.443 331.779M183.266 331.312L183.443 331.779M183.443 331.779C184.395 331.419 185.358 331.043 186.33 330.663C189.76 329.324 193.306 327.939 196.882 327.045L169.559 337.966C174.004 335.534 178.72 333.567 183.443 331.779ZM197.446 311.206L197.446 311.207C197.491 312.058 197.53 312.909 197.568 313.761C197.704 316.728 197.839 319.694 198.232 322.645C197.836 322.955 197.485 323.325 197.196 323.747C193.292 323.021 189.316 322.564 185.378 322.11C183.735 321.921 182.099 321.733 180.477 321.526C178.145 321.228 175.754 320.834 173.322 320.434C172.185 320.247 171.04 320.058 169.887 319.877C166.425 319.334 162.919 318.863 159.483 318.729C159.477 318.708 159.471 318.686 159.465 318.664C165.993 313.701 173.308 309.55 181.221 306.332L181.221 306.332C184.328 305.067 187.483 304.002 190.665 303.115C191.824 305.586 194.361 307.191 197.098 307.177C197.247 308.52 197.376 309.861 197.446 311.206ZM204.054 300.506C209.937 299.84 215.838 299.79 221.669 300.358C221.689 300.494 221.713 300.629 221.741 300.763C221.858 301.575 222.117 302.369 222.483 303.088C221.626 303.858 220.76 304.622 219.892 305.389C217.79 307.246 215.677 309.113 213.643 311.079C210.898 313.732 208.558 316.839 206.247 319.91C205.713 320.619 205.181 321.326 204.645 322.025C203.681 321.587 202.582 321.41 201.552 321.517C201.855 316.482 201.946 310.949 201.32 305.731C202.921 304.479 203.945 302.566 204.054 300.506Z" stroke="white" stroke-opacity="0.4"/>
<defs>
<filter id="filter0_d" x="55.1106" y="73.6882" width="272.677" height="272.677" filterUnits="userSpaceOnUse" color-interpolation-filters="sRGB">
<feFlood flood-opacity="0" result="BackgroundImageFix"/>
<feColorMatrix in="SourceAlpha" type="matrix" values="0 0 0 0 0 0 0 0 0 0 0 0 0 0 0 0 0 0 127 0"/>
<feOffset/>
<feGaussianBlur stdDeviation="6"/>
<feColorMatrix type="matrix" values="0 0 0 0 1 0 0 0 0 1 0 0 0 0 1 0 0 0 0.78 0"/>
<feBlend mode="normal" in2="BackgroundImageFix" result="effect1_dropShadow"/>
<feBlend mode="normal" in="SourceGraphic" in2="effect1_dropShadow" result="shape"/>
</filter>
<clipPath id="clip0">
<rect width="186" height="186" fill="white" transform="translate(234.32 85.6882) rotate(64.0239)"/>
</clipPath>
</defs>
</svg>
