<?xml version="1.0" standalone="no"?>
<!DOCTYPE svg PUBLIC "-//W3C//DTD SVG 20010904//EN"
 "http://www.w3.org/TR/2001/REC-SVG-20010904/DTD/svg10.dtd">
<svg version="1.0" xmlns="http://www.w3.org/2000/svg"
 width="260.000000pt" height="260.000000pt" viewBox="0 0 260.000000 260.000000"
 preserveAspectRatio="xMidYMid meet">
<metadata>
Created by potrace 1.11, written by Peter Selinger 2001-2013
</metadata>
<g transform="translate(0.000000,260.000000) scale(0.100000,-0.100000)"
fill="#000000" stroke="none">
<path d="M678 1850 c-60 -18 -158 -69 -158 -81 0 -4 -8 -10 -18 -13 -30 -10
-156 -137 -194 -196 -35 -55 -85 -176 -76 -185 3 -3 62 -7 131 -9 l127 -5 18
42 c25 56 101 128 171 163 47 24 68 29 131 29 83 0 124 -15 178 -65 l33 -30
132 3 132 2 -3 29 c-5 49 -50 124 -111 188 -81 83 -133 111 -251 134 -92 18
-171 16 -242 -6z"/>
<path d="M1830 1852 c-32 -4 -122 -32 -135 -42 -5 -4 -21 -11 -35 -15 -67 -21
-214 -143 -287 -239 -26 -33 -50 -63 -53 -66 -3 -3 -44 -57 -92 -120 -189
-250 -281 -333 -412 -369 -110 -31 -194 -13 -261 56 -55 57 -76 114 -78 211 0
28 -3 52 -6 53 -3 1 -66 2 -140 3 l-133 1 5 -80 c12 -173 56 -277 158 -375 41
-39 138 -98 174 -106 6 -1 37 -9 70 -16 69 -17 151 -16 227 2 129 31 305 136
404 242 22 24 76 93 119 153 223 311 339 421 473 450 17 3 32 10 33 13 3 21 7
68 13 153 7 102 9 98 -44 91z"/>
<path d="M1933 1849 c0 -8 -4 -54 -8 -104 -4 -49 -8 -101 -9 -115 -2 -20 6
-28 43 -46 197 -93 217 -320 44 -492 -80 -80 -225 -109 -324 -65 -73 33 -104
73 -144 191 l-21 64 -92 -127 -91 -127 26 -52 c39 -77 127 -157 207 -189 90
-36 124 -42 241 -41 169 2 296 54 410 169 55 55 124 156 129 188 1 7 4 17 8
22 15 26 41 178 41 245 1 138 -51 250 -162 352 -55 51 -158 114 -203 124 -67
15 -95 16 -95 3z"/>
</g>
</svg>
