<?xml version="1.0" encoding="utf-8"?>
<!-- Generator: Adobe Illustrator 24.2.1, SVG Export Plug-In . SVG Version: 6.00 Build 0)  -->
<svg version="1.1" id="Слой_1" xmlns="http://www.w3.org/2000/svg" xmlns:xlink="http://www.w3.org/1999/xlink" x="0px" y="0px"
	 viewBox="0 0 1303 253.7" style="enable-background:new 0 0 1303 253.7;" xml:space="preserve">
<style type="text/css">
	.st0{fill:#FFFFFF;}
	.st1{fill:#FFFFFF;stroke:#000105;stroke-width:0.5;stroke-miterlimit:10;}
	.st2{fill:#FFFFFF;stroke:#000000;stroke-width:0.5;stroke-miterlimit:10;}
	.st3{fill:#FFFFFF;stroke:#050505;stroke-width:0.5;stroke-miterlimit:10;}
</style>
<path class="st0" d="M490,2.9c0,1.6-0.6,5.1-1.4,7.7c-0.8,2.7-2.2,8.5-3.1,12.9c-0.9,4.4-2.4,10.9-3.2,14.5
	c-2,8.9-3.8,17.1-5.8,26.5c-1.7,8.3-3.5,16-5.9,26.7c-0.8,3.5-2.1,9.4-3,13.3c-4,19.1-4.8,22.4-6.1,28c-0.7,3.3-2.1,9.1-2.9,13
	c-0.8,3.8-2.7,12.4-4.2,19s-3.3,14.9-4,18.5c-0.8,3.6-2.1,9.4-2.9,13s-2.2,9.9-3.1,14c-2.8,13.1-4.2,19.3-5.9,27
	c-1,4.1-1.8,8.2-1.9,9c-0.1,1.3,3.9,1.5,30.9,1.5h30.9l1.9-8c1.1-4.4,2.5-10.5,3.2-13.5c0.8-3,2.1-9.1,3-13.5
	c1-4.4,2.3-10.8,3.1-14.3c0.8-3.4,2-9,2.8-12.5c0.8-3.4,2.1-9.8,3.1-14.2c0.9-4.4,2.3-10.5,3-13.5c0.8-3,2.1-9.1,3-13.5
	s2.2-10.5,3-13.5c0.7-3,2.1-9.1,3-13.5c3.7-17.4,4.8-22.2,6-27.5c0.7-3,2.1-9.1,3-13.5c3.2-15.2,4.7-22,6-27.5
	c1.4-5.4,2.8-12,6.1-27.5c0.9-4.4,2.3-10.3,3-13.2C554.1-0.8,557,0,521.5,0H490V2.9z"/>
<path class="st0" d="M335,89.6c-7.2,1.5-16.2,4.3-19.9,6.1c-3.3,1.6-5.2,0.6-4.5-2.3l0.6-2.4h-31.4h-31.4l-1.7,8.2
	c-1,4.6-2.4,11-3.2,14.3c-0.7,3.3-2.1,9.4-3,13.5c-0.9,4.1-2.2,10.2-3,13.5c-0.7,3.3-2.1,9.4-3,13.5s-2.2,10.2-3,13.5
	s-2.1,9.1-2.9,13c-0.8,3.8-2.7,12.4-4.2,19s-3,14-3.5,16.5s-1.3,6.3-1.8,8.5s-1.9,7.9-3.1,12.8c-1.2,4.8-1.8,9.2-1.5,9.7
	c0.7,1.2,59.4,1.4,61.2,0.2c0.7-0.5,1.8-3.5,2.4-6.8c0.5-3.2,1.4-7.3,1.9-8.9c0.5-1.7,1.6-6.6,2.5-11c1.8-8.8,3.5-16.5,5.8-26.5
	c1.5-6.3,2.6-11.3,6.2-28.5c1-4.4,2.3-10.3,3-13c0.7-2.8,1.6-6.9,2-9.3c0.5-2.8,1.4-4.6,2.8-5.4c4-2.1,16.2-4.8,22-4.8
	c6.7,0,15.9,2.9,19.5,6.2c3.1,2.9,6.1,9.4,6.2,13.3c0,2.9-1.9,13.5-4,22c-1.5,6.4-6.2,27.6-7.1,32.5c-0.5,2.5-1.3,6.3-1.9,8.5
	c-2.1,8.8-6.3,28.1-6.4,30c-0.1,2,0.6,2,29.8,2.3c21.2,0.2,30.3-0.1,31.2-0.9c0.8-0.6,1.4-2.3,1.4-3.7c0-1.4,0.6-5.1,1.4-8.1
	c0.8-3.1,2.2-9.2,3.1-13.6c0.9-4.4,2.3-10.5,3-13.5s2.1-9.1,3-13.5s2.3-10.5,3-13.5s2.1-9.1,3-13.5s2.4-10.9,3.3-14.5
	c2.3-9.5,2.2-28.9-0.2-35.5c-1.1-2.8-2.5-5.7-3.3-6.6c-0.7-0.8-1.3-2-1.3-2.6c0-1.8-11.5-11.8-15.6-13.7c-7-3.1-7.8-3.4-14.6-5
	C369.5,87.6,344.5,87.6,335,89.6z"/>
<path class="st0" d="M761,90c-9.6,2-14.2,3.4-18.3,5.7c-3.5,1.9-5.8,1.1-5.4-1.9l0.2-2.3h-30.9h-30.9l-0.8,2.5
	c-0.3,1.4-1.5,6.3-2.4,11c-1,4.7-2.3,10.7-3,13.5c-0.7,2.7-2,8.4-2.9,12.5c-1.4,7-5.6,26.3-9.3,42.5c-3.6,16.2-4.3,19.4-5.8,26.5
	c-0.9,4.1-2.3,10.1-3.1,13.2c-0.8,3.2-1.4,6.6-1.4,7.7c0,1-0.6,4.1-1.4,6.7c-2.7,9.7-4.6,18.6-4,19.5c0.7,1.2,61.1,1.2,61.9,0
	c0.3-0.5,0.9-2.9,1.4-5.3c0.9-3.9,1.8-8.4,5.6-25.3c0.7-3.3,1.8-8.5,2.4-11.5c0.7-3,1.8-8.2,2.6-11.5c1.4-5.8,2.3-10,6-27
	c0.9-4.4,2.3-10.5,3-13.5s1.6-7.1,1.9-9.1c0.9-5,3.2-6.7,12.2-8.9c9.6-2.4,17.8-2.5,24-0.4c13.1,4.4,16.8,13.1,12.8,30.2
	c-0.8,3.7-2.1,9.4-2.9,12.7c-0.7,3.3-2,8.9-2.8,12.5s-2.2,10.1-3.2,14.5c-0.9,4.4-2.3,10.7-3,14c-0.8,3.3-2.1,9.4-3,13.5
	s-2.1,9.1-2.6,11s-0.5,3.8-0.1,4.2c0.5,0.5,14.5,0.7,31.2,0.6l30.4-0.3l0.8-3c0.5-1.7,1.6-6.4,2.4-10.5c0.9-4.1,2.2-10.2,3-13.5
	c2-8.8,4-18.1,5.7-26c0.9-3.9,2.3-10.2,3.1-14c1.7-7.1,3.6-15.9,5.6-25c3.8-18.1,3.4-17.4,12.5-20c18.9-5.4,35.9-1,39.6,10.3
	c1.3,4,0.6,14.8-1.6,23.2c-0.8,3-2.1,8.8-2.9,12.7c-0.9,4-2.3,10.6-3.2,14.5c-0.8,4-2.1,9.8-2.8,12.8c-0.8,3-2.1,9.3-3.1,14
	s-2.6,11.8-3.6,15.9c-1,4-1.6,7.7-1.3,8.2c0.8,1.4,61.1,1.1,62-0.2c0.4-0.7,1.3-4.2,2.1-7.8c3.3-16.1,4.4-21,5.8-27.1
	c1.9-8.2,4.2-18.5,6-27.5c0.8-3.9,2.2-9.9,3-13.5c5.3-22.7,6.9-32.9,6.1-39.9C955.3,103,933.2,88,895.2,88
	c-19.6,0-38.3,4.1-54.6,12.1c-7.3,3.6-8.7,3.6-12.9-0.1c-4.8-4.2-12.8-7.9-21.6-10.1C796,87.4,773.2,87.5,761,90z"/>
<path class="st0" d="M26.6,86.6c1.4,0.3,55.2,3.5,59.7,3.5c1.4,0,2.2-0.6,2.2-2.1c0-2.1-0.6-2.1-31.7-2
	C39.3,86.2,25.8,86.4,26.6,86.6z"/>
<path class="st0" d="M141.4,88.6c-0.4,1.4-0.3,3,0,3.3c0.7,0.7,33.6,3.2,43.3,3.3c2.8,0.1,4.8,0.4,4.4,0.7
	c-0.3,0.3-11.7,1.1-25.1,1.9l-24.5,1.1l-0.6,2.6c-0.4,1.4-1,4.7-1.4,7.3l-0.7,4.7l24,1.2c13.2,0.7,24.1,1.4,24.3,1.6
	c0.6,0.6-11.7,1.5-30.3,2.2l-19.7,0.6l-1.6,6.8c-0.8,3.8-1.4,7.1-1.1,7.5c0.2,0.3,7.2,0.9,15.6,1.3c23.1,1,33.3,1.9,33.3,2.7
	c0,0.4-11.3,1.1-25.3,1.5l-25.3,0.7l-0.9,3.8c-2.1,8.5-2.3,10.6-0.6,10c0.8-0.3,8.9,0.1,17.8,0.8c8.9,0.8,20.2,1.8,25.3,2.2
	c4.9,0.4,9,1.1,9,1.6s-4.9,1-11,1c-6.2,0.1-18.6,0.4-27.5,0.8l-16.5,0.6l-1.8,6.9c-0.9,3.9-1.4,7-1,7c4.9,0,55.4,3.3,55.7,3.7
	c0.2,0.2,0.2,0.6,0,0.8c-0.2,0.3-13.1,0.8-28.6,1.2c-18.2,0.5-28.4,1.1-29,1.9c-1.2,1.4-3.1,11.9-2.3,12.4
	c0.3,0.3,10.8,0.9,23.3,1.5c12.5,0.7,25.3,1.8,28.4,2.5l5.7,1.2l-11.9,0.6c-6.5,0.4-19.5,0.7-28.9,0.8c-14,0.1-17.5,0.4-19.5,1.8
	c-2.1,1.5-4.3,1.6-17.5,0.9c-19.3-1.1-44.2-0.7-72.8,1.1c-12.5,0.7-23.6,1.4-24.6,1.4c-1.1,0-1.8,0.2-1.4,0.5
	c1.1,1.2,51,4.8,113.2,8.2c25.8,1.3,49.7,2.9,53.1,3.2c13.9,1.5-0.5,2.7-52.1,4.1c-48.4,1.3-104.3,4.4-105.8,5.8
	c-0.2,0.3,2.4,0.8,6,1.2c18.4,1.9,138.6,8.9,151.4,8.9h7l2.6-11.7c1.4-6.3,3-13.2,3.3-15.2s1.3-6,2.1-8.8c1.4-5.1,2.8-10.7,6.2-26.3
	c0.9-4.2,2.4-10.7,3.2-14.4s2-8.6,2.5-10.8c0.5-2.3,2.7-11.8,4.6-21.1c4.7-22.2,5.6-25.8,7.8-35.1c1-4.2,1.5-8,1.3-8.5
	c-0.3-0.4-14.8-0.8-32.4-0.8h-32L141.4,88.6z"/>
<path class="st0" d="M570.6,91.9c-0.6,0.8-2.3,8.2-5.1,21.6c-2.4,11.3-8.3,38.1-11,50c-0.8,3.3-2.1,9.4-3,13.5s-2.3,10.2-3,13.5
	c-0.8,3.3-2.1,9.4-3,13.5s-2.2,10.2-3,13.5c-0.7,3.3-2.1,9.4-3,13.5s-2.1,9.2-2.6,11.4c-0.6,2.2-0.7,4.2-0.2,4.7s14.4,0.8,31.3,0.7
	l30.4-0.3l1.6-7c0.9-3.9,2.5-10.6,3.4-15c1-4.4,2.4-10.5,3.1-13.5s2-9.3,3-14c0.9-4.7,2.3-11,3-14c0.8-3,2.1-8.9,3-13
	s2.3-10.9,3.1-15c0.9-4.1,2.2-9.8,2.9-12.5c0.7-2.8,2-8.6,2.9-13c2.1-9.9,4-18.5,6.6-29.4c1.1-4.6,1.7-8.7,1.4-9.2
	C631.7,90.7,571.3,90.7,570.6,91.9z"/>
<path class="st0" d="M79.2,100c-1.4,0.1-14.4,0.8-28.9,1.5c-27.2,1.2-34.3,2.2-25.8,3.4c8,1.1,50.2,4.7,55,4.7
	c4.9,0,5.9-1.1,5.9-7.5C85.4,99.3,85.4,99.3,79.2,100z"/>
<path class="st0" d="M74.5,120.8c-24,1.3-56.8,3.7-57.1,3.9c-0.7,0.8,9.5,1.9,56.4,6.1c4,0.3,4.5,0.1,5.9-2.6c1.6-3,2.1-8.2,0.8-7.9
	C80,120.4,77.4,120.6,74.5,120.8z"/>
<path class="st0" d="M33.6,143.1c-10.5,0.6-19.5,1.4-19.8,1.8c-0.4,0.3,13.1,2,29.8,3.5c16.7,1.6,30.7,2.7,31,2.3
	c0.4-0.3,1-2.5,1.4-4.8l0.7-4.1l-12,0.1C58.2,141.9,44.2,142.5,33.6,143.1z"/>
<path class="st0" d="M31.7,163.9c-7.1,0.8-14.7,1.4-17,1.4c-6.7,0.2-2.8,1.9,7.3,3.1c10.9,1.3,47.7,3.6,48.4,3
	c0.2-0.2,0.7-2.4,1.1-4.7l0.7-4.3l-13.8,0.1C50.8,162.5,38.8,163.1,31.7,163.9z"/>
<path class="st0" d="M29.7,184.1c-8.2,0.5-17.9,1.1-21.7,1.5c-9.9,1-5.2,2.1,18.6,3.9c32.9,2.6,45.4,3.1,45.4,1.9
	c0-0.6-0.4-1.4-1-1.8c-0.5-0.3-1-2-1-3.7v-3L57.4,183C50.3,183.2,37.9,183.7,29.7,184.1z"/>
<path class="st0" d="M78.6,244.1c-35.4,0.8-45,1.9-33.9,3.3c2.8,0.4,7.1,1.3,9.6,2.2c6.5,2.1,56.4,2.1,64.9,0
	c3.2-0.8,11.4-2.3,18.2-3.3c6.8-0.9,14.2-2.1,16.5-2.5C159.4,242.7,124.7,242.9,78.6,244.1z"/>
<path class="st1" d="M1017.7,166.3c-13.5-0.2-26.9-0.3-40.4-0.5c-0.3,2.5-0.6,6-0.5,10.2c0.1,7.3,0.4,34.6,21,55.7
	c17.4,17.9,39.1,20.7,45.5,21.5c22.5,2.6,39.5-5.4,50.6-10.7c21.1-10.1,34.1-24.1,40.9-31.7c4.9-5.5,2.4-3.5,31.2-42.4
	c3.7-4.9,10.4-14,21-24c8.8-8.4,14.7-12.2,20.4-14.8c6.4-3,12.2-4.4,16.4-5.1c1-12.8,2-25.5,3.1-38.3c-2.6,0.2-6.1,0.7-10.2,1.5
	c-3.2,0.7-13.4,2.9-25.5,9.2c-16.1,8.3-26.2,18.8-32.7,25.5c-4.4,4.6-6.2,7.1-16.9,21c-14.8,19.3-16.9,22.6-26.1,33.7
	c-14.5,17.6-20.3,22.5-24.5,25.5c-5.7,4.2-11.8,8.6-21,11.2c-6.3,1.8-19.3,5.6-32.2-1c-10.4-5.4-15-14.7-16.4-17.4
	c-4.2-8.8-4.1-17.4-4.1-22C1017.3,170.5,1017.5,168,1017.7,166.3z"/>
<path class="st2" d="M980.1,159.1c13.1,0.5,26.1,0.9,39.2,1.4c0.9-2.9,2.5-7.1,5.5-11.6c2.6-3.9,5.3-6.4,7.4-8.5
	c2.9-2.7,7.7-7.1,15-10.6c4.7-2.2,12.6-6,23.2-5.1c7.4,0.6,13.2,3.3,16.7,5.5c5.1,3.1,8.6,6.7,10.6,9.2c13.5,0.1,27,0.2,40.5,0.3
	c-0.1-1.9-0.5-4.8-1.4-8.2c-3.1-11.5-10.1-18.9-16.7-25.5c-4.7-4.8-9.2-9.4-16.7-13.3c-7.6-4-14-5.1-19.8-6.1
	c-7.2-1.2-20.3-3.5-35.8,0.7c-12.5,3.4-20.4,9.3-29,15.7c-14.8,11-25,24-30,33.4c-4.2,7.9-7.2,17-7.2,17
	C981,155.7,980.5,157.7,980.1,159.1z"/>
<path class="st3" d="M1144.8,209.8c9.2-12.7,18.3-25.3,27.5-38c0.7,3.4,1.8,8,3.8,13.3c2.1,5.6,4.9,13,9.7,18.2
	c9.4,10.3,25.8,11.4,36.8,9.2c18.5-3.7,28.1-17.9,30.7-21.8c2.4-3.6,15.5-23.8,5.8-44.3c-7.8-16.4-24.7-21.3-27.8-22.1
	c1.2-12.8,2.4-25.7,3.6-38.5c2.2,0.2,5.4,0.5,9.2,1.4c19.3,4.3,31.7,16.1,36.5,20.8c5.3,5.2,13.4,13.4,18.4,26.9
	c5.3,14.4,4.1,26.6,3.1,36.1c-1,9.4-3.5,29.4-18.7,48.7c-4.4,5.5-16.5,19.5-37,27.3c-10.9,4.2-20,5-24.6,5.4
	c-7.3,0.6-21.9,1.7-38.7-4.7c-5.6-2.2-14.8-5.8-23.3-14.4c-7.4-7.4-11.5-15.7-13.1-19.3C1145.8,212.3,1145.2,210.9,1144.8,209.8z"/>
</svg>
