<svg width="695" height="567" viewBox="0 0 695 567" fill="none" xmlns="http://www.w3.org/2000/svg">
<path d="M490.094 458.854L481.845 321.747L477.86 251.381C477.86 251.381 479.972 210.579 418.683 190.617C417.209 190.059 415.695 189.541 414.18 189.063L347.751 169.778C338.011 166.936 327.633 167.159 318.023 170.416L252.511 192.57L251.953 192.809V192.609C186.48 214.763 190.585 257.597 190.585 257.597L178.63 458.854H490.094Z" fill="#FFAB2F"/>
<path d="M233.223 457.14L241.83 280.587" stroke="black" stroke-width="0.3" stroke-miterlimit="10"/>
<path d="M436.854 457.14L430.678 284.771" stroke="black" stroke-width="0.3" stroke-miterlimit="10"/>
<path d="M332.329 211.894C328.259 211.973 324.218 211.2 320.466 209.624C316.713 208.047 313.332 205.704 310.539 202.743C307.747 199.782 305.605 196.269 304.252 192.431C302.898 188.592 302.363 184.513 302.681 180.456L308.3 110.647C308.732 105.229 311.16 100.163 315.113 96.4315C319.066 92.6996 324.264 90.5669 329.699 90.446C335.134 90.3346 340.418 92.2395 344.531 95.7933C348.645 99.3471 351.296 104.298 351.975 109.691L360.582 179.34C361.061 183.37 360.692 187.455 359.499 191.334C358.306 195.213 356.316 198.8 353.656 201.865C350.996 204.93 347.725 207.405 344.052 209.132C340.379 210.859 336.386 211.8 332.329 211.894Z" fill="#E8878B"/>
<path d="M358.67 163.801C358.67 163.801 318.821 170.415 307.304 139.177L354.526 130.371L358.67 163.801Z" fill="#D6656D"/>
<path d="M327.624 9.44304L327.584 9.4439C301.818 10.0016 281.383 31.3385 281.941 57.1013L282.852 99.1678C283.409 124.931 304.749 145.363 330.514 144.806L330.554 144.805C356.32 144.247 376.755 122.91 376.197 97.1475L375.286 55.081C374.729 29.3182 353.389 8.88539 327.624 9.44304Z" fill="#E8878B"/>
<path d="M327.587 8.64417C269.447 9.91921 282.238 71.3204 282.238 71.3204L282.597 86.8202H284.231L288.017 64.228C288.357 61.1231 289.276 58.1093 290.726 55.3426L296.823 43.8672C298.978 39.8178 302.634 36.774 307.006 35.3885C311.379 34.003 316.121 34.3863 320.215 36.456C322.681 37.7216 325.413 38.3817 328.185 38.3817C330.957 38.3817 333.689 37.7216 336.155 36.456L337.51 35.7388C341.58 33.5997 346.328 33.1487 350.728 34.4834C355.128 35.8182 358.826 38.8314 361.021 42.8711L366.44 52.7526C367.789 55.2363 368.705 57.931 369.15 60.7216L374.171 84.8279H375.805L375.486 69.3282C375.486 69.3282 387.361 7.36913 327.587 8.64417Z" fill="#070707"/>
<path d="M357.633 0.276943C364.62 -0.565641 371.704 0.523066 378.115 3.4247C383.105 5.36805 387.297 8.9297 390.021 13.539C392.745 18.1483 393.843 23.5385 393.139 28.8458C390.628 55.2631 355.84 50.9599 301.485 50.5614C301.485 50.5614 281.919 51.3583 296.424 23.3871C314.37 10.3073 335.519 2.32225 357.633 0.276943Z" fill="#070707"/>
<path d="M376.164 94.9087C382.46 94.9087 387.361 86.342 387.202 79.6879C387.042 73.0337 381.902 70.6829 375.646 70.8024L376.164 94.9087Z" fill="#E8878B"/>
<path d="M382.221 78.4529C380.92 79.4893 379.896 80.8329 379.242 82.363C378.588 83.8931 378.325 85.5617 378.475 87.2188C379.629 86.3844 381.042 85.9888 382.461 86.1031" stroke="#B73D46" stroke-width="0.5" stroke-miterlimit="10"/>
<path d="M282.796 96.9014C276.499 96.9014 271.239 88.9324 271.08 82.1986C270.92 75.4647 275.981 72.9545 282.278 72.835L282.796 96.9014Z" fill="#E8878B"/>
<path d="M276.38 80.7241C277.697 81.7241 278.748 83.0314 279.443 84.5318C280.138 86.0321 280.454 87.6797 280.365 89.3306C279.191 88.5531 277.775 88.2275 276.38 88.4142" stroke="#B73D46" stroke-width="0.5" stroke-miterlimit="10"/>
<path d="M328.065 85.9438C328.065 85.9438 326.431 104.99 324.08 108.377C321.728 111.763 330.934 110.608 330.934 110.608" stroke="#B73D46" stroke-width="0.5" stroke-miterlimit="10"/>
<path d="M323.244 124.155C326.835 124.971 330.562 124.984 334.158 124.192C337.754 123.399 341.13 121.822 344.046 119.573" stroke="#B73D46" stroke-width="0.5" stroke-miterlimit="10"/>
<path d="M353.41 87.2193C355.677 87.2193 357.515 85.3819 357.515 83.1153C357.515 80.8487 355.677 79.0112 353.41 79.0112C351.143 79.0112 349.306 80.8487 349.306 83.1153C349.306 85.3819 351.143 87.2193 353.41 87.2193Z" fill="#070707"/>
<path d="M343.527 77.616L342.132 75.7433C345.46 72.9384 349.65 71.3606 354.002 71.2736C358.354 71.1866 362.604 72.5956 366.042 75.2652L364.567 77.0582C361.55 74.6718 357.791 73.4204 353.946 73.5224C350.1 73.6243 346.413 75.0731 343.527 77.616Z" fill="#070707"/>
<path d="M305.591 88.2552C307.858 88.2552 309.695 86.4178 309.695 84.1512C309.695 81.8846 307.858 80.0471 305.591 80.0471C303.324 80.0471 301.486 81.8846 301.486 84.1512C301.486 86.4178 303.324 88.2552 305.591 88.2552Z" fill="#070707"/>
<path d="M295.707 78.6521L294.232 76.8591C297.561 74.0541 301.751 72.4763 306.103 72.3893C310.454 72.3023 314.704 73.7113 318.142 76.3809L316.708 78.1739C313.7 75.7944 309.955 74.54 306.121 74.6273C302.287 74.7146 298.603 76.1381 295.707 78.6521Z" fill="#070707"/>
<path d="M300.489 27.3312C300.489 27.3312 316.867 44.7435 288.295 62.2355L283.752 60.6019C283.752 60.6019 288.973 15.9754 300.489 27.3312Z" fill="#070707"/>
<path d="M626.139 543.086L617.89 406.019L613.905 335.653C613.905 335.653 616.017 294.892 554.728 274.969C553.257 274.368 551.754 273.849 550.225 273.415L483.836 254.09C474.093 251.269 463.721 251.491 454.108 254.728L388.596 276.921H387.998C322.525 298.876 326.63 341.869 326.63 341.869L314.675 543.086H626.139Z" fill="#55AAFF"/>
<path d="M369.27 541.373L377.877 364.859" stroke="black" stroke-width="0.3" stroke-miterlimit="10"/>
<path d="M572.901 541.373L566.764 369.003" stroke="black" stroke-width="0.3" stroke-miterlimit="10"/>
<path d="M467.658 295.887C463.585 295.979 459.539 295.214 455.78 293.642C452.022 292.07 448.635 289.726 445.84 286.763C443.045 283.799 440.904 280.281 439.555 276.438C438.206 272.594 437.68 268.509 438.01 264.449L443.589 194.681C444.031 189.258 446.468 184.193 450.427 180.462C454.387 176.731 459.589 174.599 465.028 174.479C470.461 174.36 475.745 176.263 479.854 179.819C483.963 183.375 486.604 188.331 487.264 193.724L495.912 263.214C496.408 267.253 496.053 271.351 494.868 275.245C493.684 279.138 491.697 282.74 489.035 285.818C486.373 288.896 483.095 291.383 479.413 293.117C475.732 294.851 471.727 295.795 467.658 295.887Z" fill="#E8878B"/>
<path d="M493.998 247.835C493.998 247.835 454.149 254.409 442.592 223.17L489.854 214.405L493.998 247.835Z" fill="#D6656D"/>
<path d="M462.906 93.4775L462.866 93.4783C437.101 94.036 416.665 115.373 417.223 141.136L418.134 183.202C418.692 208.965 440.031 229.398 465.797 228.84L465.836 228.839C491.602 228.282 512.037 206.945 511.479 181.182L510.569 139.115C510.011 113.353 488.672 92.9198 462.906 93.4775Z" fill="#E8878B"/>
<path d="M463.075 92.6378C404.775 93.9129 417.567 155.434 417.567 155.434L417.886 170.933H419.519L423.504 148.341C423.853 145.245 424.786 142.244 426.254 139.496L432.351 128.02C434.505 123.97 438.163 120.928 442.539 119.55C446.914 118.171 451.656 118.566 455.743 120.649C458.212 121.905 460.942 122.56 463.713 122.56C466.483 122.56 469.214 121.905 471.682 120.649L473.037 119.932C477.109 117.803 481.854 117.358 486.251 118.692C490.648 120.026 494.346 123.032 496.549 127.064L501.928 136.985C503.298 139.463 504.229 142.159 504.678 144.954L509.699 168.861H511.333L510.894 153.282C510.894 153.282 522.491 91.3628 463.075 92.6378Z" fill="#070707"/>
<path d="M511.452 178.902C517.748 178.902 522.69 170.336 522.53 163.682C522.371 157.027 517.23 154.677 510.934 154.796L511.452 178.902Z" fill="#E8878B"/>
<path d="M517.51 162.446C516.216 163.49 515.198 164.834 514.545 166.363C513.892 167.891 513.624 169.556 513.764 171.212C514.92 170.385 516.335 170.003 517.749 170.136" stroke="#B73D46" stroke-width="0.5" stroke-miterlimit="10"/>
<path d="M418.125 180.935C411.828 180.935 406.528 172.966 406.409 166.192C406.289 159.419 411.31 156.988 417.607 156.829L418.125 180.935Z" fill="#E8878B"/>
<path d="M411.669 164.758C412.986 165.749 414.038 167.049 414.733 168.543C415.428 170.037 415.744 171.679 415.654 173.325C414.475 172.56 413.064 172.236 411.669 172.408" stroke="#B73D46" stroke-width="0.5" stroke-miterlimit="10"/>
<path d="M463.394 169.977C463.394 169.977 461.721 189.023 459.409 192.37C457.098 195.717 466.263 194.641 466.263 194.641" stroke="#B73D46" stroke-width="0.5" stroke-miterlimit="10"/>
<path d="M458.573 208.149C462.159 208.97 465.884 208.982 469.476 208.182C473.067 207.382 476.435 205.792 479.334 203.527" stroke="#B73D46" stroke-width="0.5" stroke-miterlimit="10"/>
<path d="M488.698 171.212C490.965 171.212 492.803 169.375 492.803 167.108C492.803 164.841 490.965 163.004 488.698 163.004C486.431 163.004 484.594 164.841 484.594 167.108C484.594 169.375 486.431 171.212 488.698 171.212Z" fill="#070707"/>
<path d="M479.015 161.61L477.541 159.856C480.846 157.089 484.995 155.53 489.305 155.435C493.615 155.341 497.828 156.718 501.251 159.338L499.816 161.131C496.825 158.803 493.121 157.58 489.33 157.667C485.54 157.754 481.897 159.147 479.015 161.61Z" fill="#070707"/>
<path d="M440.919 172.248C443.186 172.248 445.024 170.411 445.024 168.144C445.024 165.877 443.186 164.04 440.919 164.04C438.653 164.04 436.815 165.877 436.815 168.144C436.815 170.411 438.653 172.248 440.919 172.248Z" fill="#070707"/>
<path d="M431.195 162.646L429.721 160.892C433.026 158.125 437.175 156.565 441.485 156.471C445.795 156.377 450.008 157.754 453.431 160.374L451.997 162.167C449.005 159.839 445.301 158.615 441.511 158.703C437.721 158.79 434.077 160.182 431.195 162.646Z" fill="#070707"/>
<path d="M515.797 82.2385C515.797 82.2385 542.416 134.037 510.616 139.097C510.616 139.097 476.107 121.127 441.039 129.415C441.039 129.415 428.805 130.491 426.056 139.336L425.617 119.414L462.916 93.5146C462.916 93.5146 469.691 78.0946 466.543 75.1062L515.797 82.2385Z" fill="#070707"/>
<path d="M507.149 95.666C507.149 95.666 515.597 119.772 500.534 121.247" stroke="white" stroke-width="0.5" stroke-miterlimit="10"/>
<path d="M440.918 188.585C452.275 188.585 461.481 179.38 461.481 168.025C461.481 156.67 452.275 147.465 440.918 147.465C429.562 147.465 420.356 156.67 420.356 168.025C420.356 179.38 429.562 188.585 440.918 188.585Z" stroke="#F9EAEC" stroke-width="0.5" stroke-miterlimit="10"/>
<path d="M488.699 188.585C500.055 188.585 509.261 179.38 509.261 168.025C509.261 156.67 500.055 147.465 488.699 147.465C477.342 147.465 468.136 156.67 468.136 168.025C468.136 179.38 477.342 188.585 488.699 188.585Z" stroke="#F9EAEC" stroke-width="0.5" stroke-miterlimit="10"/>
<path d="M461.482 168.024H468.137" stroke="#F9EAEC" stroke-width="0.5" stroke-miterlimit="10"/>
<path d="M451.121 556.554L547.278 555.797C547.278 555.797 568.278 536.432 552.259 518.303L451.4 519.538L451.121 556.554Z" fill="#E8878B"/>
<path d="M510.417 556.076C510.417 556.076 522.013 534.002 509.022 519.219L503.403 519.498L499.418 556.156L510.417 556.076Z" fill="#DD7A81"/>
<path d="M591.471 559.224L598.723 557.55C600.449 557.148 602.059 556.354 603.43 555.23C604.8 554.106 605.893 552.683 606.625 551.069C607.357 549.455 607.708 547.695 607.65 545.923C607.593 544.152 607.129 542.418 606.295 540.855L597.289 524.12C596.304 522.301 594.849 520.779 593.076 519.714C591.302 518.648 589.276 518.078 587.207 518.064H554.291C551.24 518.074 548.317 519.291 546.159 521.448C544.002 523.605 542.785 526.528 542.775 529.579V550.219C542.769 551.613 543.043 552.995 543.58 554.282C544.117 555.569 544.907 556.735 545.902 557.712C546.898 558.689 548.079 559.457 549.376 559.969C550.673 560.482 552.06 560.73 553.454 560.698L591.63 559.224" fill="#E8878B"/>
<path d="M591.909 544.322L601.035 556.992C601.847 558.128 602.926 559.045 604.177 559.664C605.428 560.282 606.813 560.583 608.208 560.539H609.124C609.838 560.511 610.535 560.306 611.15 559.941C611.765 559.577 612.28 559.065 612.647 558.453C613.015 557.84 613.224 557.145 613.256 556.431C613.288 555.717 613.142 555.006 612.83 554.363L607.211 543.086L591.909 544.322Z" fill="#E8878B"/>
<path d="M585.294 528.184C585.294 528.184 594.937 537.946 591.471 557.59C591.178 559.339 590.204 560.901 588.761 561.933C587.375 562.893 585.773 563.496 584.098 563.686C583.13 563.774 582.155 563.652 581.239 563.327C580.323 563.003 579.488 562.484 578.791 561.807C578.095 561.129 577.553 560.309 577.203 559.402C576.854 558.495 576.705 557.523 576.766 556.554C577.085 550.298 577.005 539.022 572.462 533.364C572.435 532.053 572.825 530.766 573.577 529.692C574.33 528.617 575.405 527.81 576.647 527.387C578.06 526.889 579.565 526.702 581.057 526.84C582.55 526.978 583.995 527.436 585.294 528.184Z" fill="#E8878B"/>
<path d="M589.199 534.399C592.297 541.719 593.089 549.808 591.471 557.589C591.179 559.339 590.204 560.901 588.761 561.932C587.376 562.893 585.774 563.495 584.099 563.686C583.131 563.774 582.155 563.651 581.239 563.327C580.323 563.003 579.488 562.484 578.791 561.806C578.095 561.129 577.553 560.308 577.204 559.401C576.854 558.495 576.705 557.523 576.766 556.553C577.188 550.791 576.717 544.999 575.372 539.38" stroke="#B73D46" stroke-width="0.3" stroke-miterlimit="10" stroke-linecap="round"/>
<path d="M571.745 530.216C571.745 530.216 581.388 539.978 577.961 559.622C577.639 561.37 576.654 562.926 575.212 563.965C573.872 564.95 572.313 565.593 570.669 565.838C569.701 565.926 568.725 565.804 567.809 565.479C566.893 565.155 566.058 564.636 565.361 563.958C564.665 563.281 564.123 562.46 563.774 561.554C563.424 560.647 563.275 559.675 563.336 558.706C563.695 552.45 563.575 541.174 559.033 535.516C558.991 534.228 559.352 532.96 560.067 531.888C560.781 530.817 561.813 529.995 563.018 529.539C564.434 529.011 565.949 528.798 567.456 528.915C568.963 529.032 570.427 529.476 571.745 530.216Z" fill="#E8878B"/>
<path d="M575.49 536.073C578.732 543.478 579.595 551.706 577.961 559.622C577.639 561.37 576.654 562.926 575.211 563.965C573.872 564.95 572.313 565.593 570.669 565.838V565.838C569.701 565.926 568.725 565.804 567.809 565.479C566.893 565.155 566.058 564.636 565.361 563.958C564.665 563.281 564.123 562.46 563.773 561.554C563.424 560.647 563.275 559.675 563.336 558.706C563.675 553.519 563.353 548.311 562.38 543.206" stroke="#B73D46" stroke-width="0.3" stroke-miterlimit="10" stroke-linecap="round"/>
<path d="M601.035 556.993L591.909 544.322" stroke="#B73D46" stroke-width="0.3" stroke-miterlimit="10" stroke-linecap="round"/>
<path d="M336.115 391.476L341.216 499.058L496.629 502.684C497.988 502.693 499.319 503.068 500.483 503.769C501.647 504.47 502.6 505.472 503.244 506.668C513.326 526.232 502.646 546.513 497.386 554.482C496.667 555.585 495.679 556.486 494.514 557.099C493.349 557.713 492.047 558.019 490.731 557.989L339.941 553.885L302.96 554.084C300.675 554.096 298.41 553.647 296.302 552.764C294.194 551.882 292.285 550.584 290.69 548.948C289.094 547.311 287.844 545.37 287.016 543.241C286.187 541.111 285.795 538.836 285.865 536.552L289.611 409.884L278.931 331.151C334.84 345.375 336.115 391.476 336.115 391.476Z" fill="#79C4BD"/>
<path d="M341.216 499.177C341.216 499.177 334.959 501.727 327.747 513.243" stroke="black" stroke-width="0.3" stroke-miterlimit="10"/>
<path d="M303.319 384.623L298.417 565.838H109.849L104.868 384.623C101.999 359.919 114.472 336.37 134.397 328.84L191.222 307.483C199.5 304.334 208.647 304.334 216.925 307.483L273.83 328.84C293.715 336.37 306.228 359.919 303.319 384.623Z" fill="#79C4BD"/>
<path d="M298.338 499.336V465.109" stroke="black" stroke-width="0.3" stroke-miterlimit="10"/>
<path d="M298.139 565.599L109.969 559.821V537.867L107.299 473.557L296.704 552.729L298.139 565.599Z" fill="#6CB7AE"/>
<path d="M152.887 557.231L249.044 556.434C249.044 556.434 270.045 537.07 254.025 518.98L153.166 520.175L152.887 557.231Z" fill="#E8878B"/>
<path d="M212.024 556.753C212.024 556.753 223.62 534.679 210.629 519.856L205.01 520.135L201.025 556.833L212.024 556.753Z" fill="#DD7A81"/>
<path d="M293.157 559.901L300.409 558.187C302.135 557.785 303.746 556.991 305.116 555.868C306.486 554.744 307.579 553.32 308.311 551.706C309.043 550.092 309.394 548.332 309.337 546.561C309.279 544.79 308.815 543.055 307.981 541.492L298.975 524.797C297.997 522.972 296.544 521.446 294.769 520.379C292.994 519.313 290.964 518.747 288.893 518.741H255.858C252.823 518.761 249.918 519.97 247.765 522.108C245.612 524.246 244.383 527.143 244.341 530.176V550.856C244.33 552.25 244.6 553.633 245.136 554.92C245.671 556.207 246.462 557.374 247.459 558.348C248.456 559.323 249.64 560.087 250.939 560.593C252.239 561.099 253.627 561.338 255.021 561.295L293.197 559.861" fill="#E8878B"/>
<path d="M293.596 544.959L302.722 557.869C303.534 559.004 304.613 559.921 305.864 560.54C307.115 561.159 308.5 561.459 309.895 561.415H310.811C311.524 561.394 312.221 561.195 312.837 560.836C313.453 560.476 313.969 559.968 314.338 559.357C314.706 558.747 314.916 558.053 314.947 557.341C314.979 556.628 314.831 555.919 314.517 555.279L308.898 544.003L293.596 544.959Z" fill="#E8878B"/>
<path d="M286.981 528.862C286.981 528.862 296.625 538.584 293.158 558.267C293.019 559.13 292.707 559.956 292.242 560.695C291.776 561.435 291.166 562.072 290.448 562.571C289.067 563.545 287.465 564.161 285.786 564.364C284.818 564.444 283.844 564.317 282.929 563.991C282.014 563.664 281.179 563.146 280.481 562.47C279.783 561.795 279.237 560.978 278.881 560.074C278.524 559.171 278.365 558.201 278.414 557.231C278.772 550.976 278.693 539.699 274.15 534.002C274.108 532.714 274.469 531.446 275.184 530.374C275.898 529.303 276.93 528.481 278.135 528.025C279.581 527.508 281.122 527.315 282.651 527.459C284.18 527.604 285.658 528.083 286.981 528.862Z" fill="#E8878B"/>
<path d="M290.885 535.078C293.987 542.396 294.78 550.487 293.156 558.267C293.017 559.13 292.706 559.956 292.24 560.695C291.775 561.435 291.165 562.073 290.447 562.571C289.065 563.545 287.463 564.162 285.784 564.364V564.364C284.816 564.445 283.842 564.317 282.927 563.991C282.012 563.664 281.177 563.146 280.479 562.47C279.781 561.795 279.236 560.978 278.879 560.075C278.522 559.171 278.363 558.202 278.412 557.231C278.867 551.458 278.41 545.649 277.057 540.018" stroke="#B73D46" stroke-width="0.3" stroke-miterlimit="10" stroke-linecap="round"/>
<path d="M273.431 530.894C273.431 530.894 283.075 540.656 279.608 560.3C279.469 561.162 279.157 561.988 278.692 562.727C278.226 563.467 277.616 564.105 276.898 564.603C275.516 565.578 273.914 566.194 272.236 566.396C271.268 566.484 270.292 566.362 269.376 566.037C268.46 565.713 267.625 565.194 266.928 564.517C266.232 563.839 265.69 563.019 265.34 562.112C264.991 561.205 264.842 560.233 264.903 559.264C265.262 553.008 265.142 541.732 260.599 536.034C260.557 534.747 260.919 533.478 261.634 532.407C262.348 531.335 263.38 530.514 264.584 530.057C266.03 529.54 267.572 529.347 269.101 529.492C270.63 529.636 272.108 530.115 273.431 530.894Z" fill="#E8878B"/>
<path d="M277.177 536.711C280.418 544.13 281.268 552.375 279.608 560.299C279.469 561.162 279.157 561.988 278.691 562.727C278.226 563.466 277.616 564.104 276.898 564.603C275.516 565.577 273.914 566.193 272.235 566.396C271.268 566.484 270.292 566.361 269.376 566.037C268.46 565.713 267.625 565.194 266.928 564.516C266.232 563.839 265.69 563.018 265.34 562.111C264.991 561.205 264.842 560.233 264.903 559.263C265.243 554.077 264.922 548.869 263.947 543.764" stroke="#B73D46" stroke-width="0.3" stroke-miterlimit="10" stroke-linecap="round"/>
<path d="M302.722 557.67L293.596 544.959" stroke="#B73D46" stroke-width="0.3" stroke-miterlimit="10" stroke-linecap="round"/>
<path d="M129.773 444.669L111.682 349.041L5.20373 511.848C2.0725 516.633 0.286035 522.171 0.0315807 527.883C-0.222873 533.596 1.06405 539.271 3.75747 544.315C6.45089 549.359 10.4516 553.586 15.3404 556.553C20.2292 559.519 25.826 561.116 31.5443 561.176L192.297 562.81C193.61 562.848 194.911 562.55 196.076 561.943C197.241 561.336 198.231 560.441 198.952 559.343C204.212 551.374 214.892 531.133 204.81 511.529C204.16 510.338 203.205 509.341 202.042 508.641C200.88 507.941 199.552 507.563 198.195 507.545L83.0298 504.875L129.773 444.669Z" fill="#79C4BD"/>
<path d="M83.5482 505.114C83.5482 505.114 77.2919 507.624 70.0791 519.179" stroke="black" stroke-width="0.3" stroke-miterlimit="10" stroke-linecap="round"/>
<path d="M107.299 473.556L148.384 415.462" stroke="black" stroke-width="0.3" stroke-miterlimit="10"/>
<path d="M220.432 186.313C212.617 203.252 198.678 216.605 181.419 223.688C153.524 234.247 171.417 261.62 171.417 261.62C171.417 261.62 157.191 283.216 175.123 292.181C193.055 301.146 201.981 300.15 206.206 299.035C206.206 299.035 215.69 329.596 260.481 312.223C305.271 294.851 268.889 267.956 268.889 267.956C268.889 267.956 287.499 240.582 260.321 212.491C260.321 212.491 252.949 202.968 255.141 181.811" fill="#070707"/>
<path d="M208.875 349.718C205.035 349.715 201.237 348.907 197.727 347.347C194.217 345.787 191.074 343.509 188.498 340.66C185.923 337.81 183.973 334.453 182.774 330.805C181.575 327.156 181.155 323.297 181.539 319.475L188.114 253.731C188.639 248.603 191.058 243.854 194.897 240.414C198.736 236.973 203.72 235.087 208.875 235.123C214.01 235.127 218.96 237.037 222.766 240.482C226.573 243.927 228.964 248.663 229.478 253.771L236.212 319.515C236.59 323.333 236.165 327.188 234.964 330.832C233.762 334.476 231.812 337.828 229.237 340.673C226.662 343.518 223.52 345.792 220.013 347.35C216.507 348.908 212.713 349.714 208.875 349.718Z" fill="#E8878B"/>
<path d="M251.995 255.329C259.499 253.077 263.758 245.17 261.506 237.666C259.255 230.162 251.346 225.904 243.841 228.156C236.337 230.407 232.079 238.315 234.33 245.818C236.581 253.322 244.49 257.58 251.995 255.329Z" stroke="white" stroke-width="0.5" stroke-miterlimit="10"/>
<path d="M234.818 305.888C234.818 305.888 194.968 305.888 186.999 265.565L229.398 253.612L234.818 305.888Z" fill="#D6656D"/>
<path d="M213.379 152.445H204.413C182.559 152.445 164.842 170.16 164.842 192.011V240.662C164.842 262.514 182.559 280.228 204.413 280.228H213.379C235.233 280.228 252.95 262.514 252.95 240.662V192.011C252.95 170.16 235.233 152.445 213.379 152.445Z" fill="#E8878B"/>
<path d="M185.523 194.323C185.523 194.323 189.508 186.832 222.344 185.756C222.344 185.756 245.537 204.722 259.245 180.496C272.953 156.271 234.1 103.117 209.194 144.158C209.194 144.158 186.4 135.511 159.143 151.529C146.365 159.582 136.861 171.909 132.324 186.314C124.531 203.255 110.604 216.611 93.3512 223.689C65.4566 234.247 83.349 261.621 83.349 261.621C83.349 261.621 69.1227 283.217 87.0151 292.182C104.908 301.147 113.914 300.151 118.138 299.036C118.138 299.036 127.582 329.597 172.373 312.224C217.164 294.852 180.821 267.956 180.821 267.956C180.821 267.956 203.774 249.508 176.836 234.765C176.796 234.765 178.51 204.085 185.523 194.323Z" fill="#070707"/>
<path d="M176.518 234.088C170.581 234.088 165.759 226.119 165.759 219.943C165.759 213.767 170.581 211.217 176.518 211.217V234.088Z" fill="#E8878B"/>
<path d="M170.54 218.667C171.787 219.623 172.778 220.873 173.424 222.306C174.071 223.738 174.353 225.308 174.246 226.875C173.163 226.126 171.849 225.787 170.54 225.919" stroke="#B73D46" stroke-width="0.3" stroke-miterlimit="10"/>
<path d="M216.805 217.154C216.805 217.154 218.758 235.084 221.109 238.192C223.46 241.3 214.693 240.463 214.693 240.463" stroke="#B73D46" stroke-width="0.3" stroke-miterlimit="10"/>
<path d="M209.632 255.325C212.747 256.798 216.149 257.561 219.594 257.561C223.039 257.561 226.442 256.798 229.557 255.325" stroke="#B73D46" stroke-width="0.3" stroke-miterlimit="10"/>
<path d="M243.186 219.385C245.365 219.385 247.131 217.619 247.131 215.441C247.131 213.262 245.365 211.496 243.186 211.496C241.007 211.496 239.241 213.262 239.241 215.441C239.241 217.619 241.007 219.385 243.186 219.385Z" fill="#070707"/>
<path d="M233.782 210.14L232.347 208.427C235.528 205.772 239.518 204.278 243.66 204.192C247.803 204.105 251.852 205.43 255.141 207.949L253.746 209.702C250.885 207.448 247.328 206.259 243.685 206.339C240.043 206.419 236.542 207.763 233.782 210.14Z" fill="#070707"/>
<path d="M197.199 220.381C199.378 220.381 201.145 218.615 201.145 216.437C201.145 214.258 199.378 212.492 197.199 212.492C195.021 212.492 193.254 214.258 193.254 216.437C193.254 218.615 195.021 220.381 197.199 220.381Z" fill="#070707"/>
<path d="M187.795 211.217L186.361 209.504C189.548 206.845 193.544 205.35 197.694 205.263C201.843 205.176 205.899 206.503 209.195 209.026L207.8 210.779C204.917 208.557 201.36 207.389 197.72 207.468C194.081 207.548 190.579 208.871 187.795 211.217Z" fill="#070707"/>
<path d="M171.139 241.778C171.139 241.778 183.452 256.281 171.418 261.7" stroke="white" stroke-width="0.5" stroke-miterlimit="10"/>
<path d="M94.1484 280.229C94.1484 280.229 97.8544 294.055 120.848 288.676" stroke="white" stroke-width="0.5" stroke-miterlimit="10"/>
<path d="M209.996 199.359C219.692 196.45 225.195 186.232 222.286 176.536C219.376 166.841 209.157 161.339 199.46 164.248C189.764 167.157 184.261 177.375 187.17 187.07C190.08 196.766 200.299 202.268 209.996 199.359Z" fill="#070707"/>
<path d="M305.351 406.178C305.351 406.178 315.314 424.029 314.557 435.465C313.8 446.9 298.338 465.109 298.338 465.109" stroke="black" stroke-width="0.3" stroke-miterlimit="10"/>
<path d="M431.196 565.798H242.508C241.451 565.798 240.438 565.378 239.691 564.631C238.943 563.884 238.523 562.87 238.523 561.813V555.398C238.523 554.342 238.943 553.328 239.691 552.581C240.438 551.834 241.451 551.414 242.508 551.414H431.196V565.718V565.798Z" fill="#7988BF"/>
<path d="M680.573 394.504H468.375C467.016 394.51 465.696 394.956 464.611 395.775C463.526 396.594 462.736 397.741 462.358 399.046L414.538 565.917H637.695L686.471 402.553C686.748 401.626 686.807 400.649 686.643 399.696C686.479 398.743 686.096 397.841 685.524 397.062C684.953 396.282 684.208 395.645 683.349 395.201C682.49 394.757 681.54 394.519 680.573 394.504Z" fill="#A0BAEA"/>
<path d="M688.743 394.504H476.545C475.184 394.504 473.861 394.947 472.775 395.767C471.689 396.587 470.9 397.738 470.527 399.046L422.708 565.917H641.163C642.512 565.916 643.824 565.482 644.908 564.678C645.991 563.875 646.788 562.745 647.18 561.455L694.761 402.473C695.026 401.542 695.071 400.563 694.893 399.611C694.716 398.66 694.32 397.763 693.737 396.99C693.153 396.218 692.399 395.591 691.532 395.16C690.666 394.728 689.711 394.504 688.743 394.504Z" fill="#B8CAFC"/>
<path d="M566.047 505.911C579.01 505.911 589.518 495.403 589.518 482.442C589.518 469.48 579.01 458.973 566.047 458.973C553.084 458.973 542.576 469.48 542.576 482.442C542.576 495.403 553.084 505.911 566.047 505.911Z" fill="white"/>
<path d="M558.378 482.384C557.55 482.372 556.729 482.366 555.902 482.353C555.884 482.507 555.865 482.721 555.871 482.979C555.877 483.426 555.896 485.099 557.158 486.392C558.225 487.489 559.554 487.661 559.947 487.71C561.326 487.869 562.367 487.379 563.048 487.054C564.341 486.435 565.137 485.577 565.554 485.111C565.854 484.774 565.701 484.897 567.466 482.513C567.693 482.213 568.103 481.655 568.753 481.042C569.292 480.527 569.654 480.294 570.003 480.135C570.395 479.951 570.751 479.865 571.008 479.822C571.07 479.038 571.131 478.26 571.198 477.475C571.039 477.488 570.824 477.518 570.573 477.567C570.377 477.61 569.752 477.745 569.01 478.131C568.024 478.64 567.405 479.283 567.006 479.694C566.737 479.976 566.627 480.129 565.971 480.981C565.064 482.164 564.935 482.366 564.371 483.046C563.483 484.125 563.127 484.425 562.87 484.609C562.521 484.866 562.147 485.136 561.583 485.295C561.197 485.405 560.4 485.638 559.61 485.234C558.972 484.903 558.69 484.333 558.605 484.167C558.347 483.628 558.353 483.101 558.353 482.819C558.353 482.642 558.366 482.488 558.378 482.384Z" fill="#0092FF"/>
<path d="M556.074 481.943C556.877 481.974 557.673 481.998 558.476 482.029C558.531 481.851 558.629 481.594 558.813 481.318C558.972 481.079 559.138 480.926 559.267 480.797C559.444 480.632 559.738 480.362 560.186 480.147C560.474 480.013 560.958 479.78 561.608 479.835C562.061 479.872 562.417 480.037 562.631 480.172C562.944 480.362 563.158 480.583 563.281 480.736C564.108 480.742 564.935 480.748 565.763 480.754C565.756 480.638 565.732 480.46 565.677 480.252C565.487 479.547 565.058 479.093 564.653 478.689C564.365 478.395 564.09 478.113 563.63 477.874C563.164 477.629 562.772 477.561 562.417 477.5C561.975 477.426 561.172 477.285 560.223 477.543C559.457 477.751 558.972 478.113 558.445 478.505C557.538 479.179 556.913 479.976 556.607 480.552C556.35 481.036 556.166 481.594 556.166 481.594C556.129 481.735 556.098 481.857 556.074 481.943Z" fill="#0092FF"/>
<path d="M566.167 485.05C566.731 484.272 567.288 483.5 567.852 482.721C567.895 482.93 567.963 483.212 568.085 483.536C568.214 483.88 568.385 484.333 568.68 484.652C569.256 485.283 570.261 485.35 570.935 485.216C572.069 484.989 572.657 484.119 572.816 483.88C572.963 483.659 573.766 482.421 573.172 481.165C572.694 480.16 571.658 479.859 571.468 479.81C571.542 479.026 571.615 478.235 571.689 477.451C571.823 477.463 572.02 477.482 572.252 477.537C573.435 477.8 574.195 478.523 574.489 478.811C574.814 479.13 575.31 479.633 575.617 480.46C575.942 481.342 575.868 482.09 575.807 482.672C575.746 483.248 575.592 484.474 574.661 485.657C574.391 485.994 573.65 486.852 572.393 487.33C571.725 487.587 571.168 487.636 570.886 487.661C570.438 487.697 569.544 487.765 568.514 487.373C568.171 487.238 567.607 487.017 567.086 486.49C566.633 486.037 566.381 485.528 566.283 485.307C566.228 485.203 566.192 485.117 566.167 485.05Z" fill="url(#paint0_linear)"/>
<defs>
<linearGradient id="paint0_linear" x1="571.014" y1="477.451" x2="571.014" y2="487.69" gradientUnits="userSpaceOnUse">
<stop stop-color="#0092FF"/>
<stop offset="1" stop-color="#19D4CD"/>
</linearGradient>
</defs>
</svg>
